<svg xmlns="http://www.w3.org/2000/svg" xmlns:xlink="http://www.w3.org/1999/xlink" viewBox="0 0 120 95.764"><defs><style>.a{fill:#f2f2f2;}.b{fill:#f5f5f5;}.c{fill:url(#a);}.d,.l,.z{fill:#fff;}.e{fill:#ff5252;}.f{fill:#ff0;}.g{fill:#69f0ae;}.ag,.h,.z{opacity:0.2;}.i,.j{fill:#6c63ff;}.j,.l{opacity:0.5;}.k{fill:#ff9800;}.m{fill:url(#j);}.n,.o,.p,.q,.r,.s{fill:none;stroke:#6c63ff;stroke-miterlimit:10;}.o{stroke-dasharray:11.51 11.51;}.p{stroke-dasharray:13.06 13.06;}.q{stroke-dasharray:9.79 9.79;}.r{stroke-dasharray:11.28 11.28;}.s{stroke-dasharray:11.93 11.93;}.t{fill:url(#k);}.u{fill:url(#l);}.v{fill:url(#m);}.w{fill:url(#n);}.x{fill:#ca7070;}.y{fill:#00695c;}.aa{fill:#263238;}.ab{fill:url(#o);}.ac{fill:url(#p);}.ad{fill:#f6b9ad;}.ae{fill:#fccc63;}.af{fill:url(#u);}.ah{fill:url(#aa);}.ai{fill:#985454;}</style><linearGradient id="a" x1="0.5" y1="1" x2="0.5" gradientUnits="objectBoundingBox"><stop offset="0" stop-color="gray" stop-opacity="0.251"/><stop offset="0.54" stop-color="gray" stop-opacity="0.122"/><stop offset="1" stop-color="gray" stop-opacity="0.102"/></linearGradient><linearGradient id="j" x1="0.516" y1="0.999" x2="0.516" y2="-0.001" xlink:href="#a"/><linearGradient id="k" x1="1.221" y1="1.356" x2="1.221" y2="0.356" xlink:href="#a"/><linearGradient id="l" x1="1.26" y1="1.627" x2="1.26" y2="0.627" xlink:href="#a"/><linearGradient id="m" x1="0.506" y1="0.964" x2="0.506" y2="0.023" xlink:href="#a"/><linearGradient id="n" xlink:href="#a"/><linearGradient id="o" x1="0.498" x2="0.498" y2="0.007" xlink:href="#a"/><linearGradient id="p" xlink:href="#a"/><linearGradient id="u" xlink:href="#a"/><linearGradient id="aa" x1="0" y1="0.5" x2="1" y2="0.5" xlink:href="#a"/></defs><ellipse class="a" cx="9.024" cy="2.29" rx="9.024" ry="2.29" transform="translate(40.808 91.185)"/><ellipse class="a" cx="9.024" cy="2.29" rx="9.024" ry="2.29" transform="translate(41.481 65.865)"/><ellipse class="a" cx="9.024" cy="2.29" rx="9.024" ry="2.29" transform="translate(0 66.943)"/><rect class="b" width="51.582" height="1.953" transform="translate(3.046 0.539)"/><rect class="c" width="53.333" height="65.455" transform="translate(2.104)"/><rect class="d" width="51.582" height="61.886" transform="translate(3.046 2.492)"/><circle class="e" cx="0.471" cy="0.471" r="0.471" transform="translate(3.636 1.077)"/><circle class="f" cx="0.471" cy="0.471" r="0.471" transform="translate(4.932 1.077)"/><circle class="g" cx="0.471" cy="0.471" r="0.471" transform="translate(6.229 1.077)"/><g class="h" transform="translate(4.528 4.848)"><rect class="i" width="20.067" height="1.212"/></g><rect class="b" width="20.067" height="1.212" transform="translate(18.804 9.832)"/><rect class="j" width="20.067" height="1.212" transform="translate(4.528 48.889)"/><rect class="c" width="6.734" height="1.481" transform="translate(27.289 48.754)"/><rect class="c" width="6.734" height="1.481" transform="translate(27.289 56.296)"/><rect class="c" width="6.734" height="1.481" transform="translate(41.026 56.296)"/><rect class="i" width="6.33" height="1.212" transform="translate(27.558 48.889)"/><rect class="i" width="6.33" height="1.212" transform="translate(27.558 56.431)"/><rect class="i" width="6.33" height="1.212" transform="translate(41.161 56.431)"/><rect class="b" width="20.067" height="1.212" transform="translate(4.528 52.66)"/><rect class="j" width="20.067" height="1.212" transform="translate(27.558 52.66)"/><rect class="b" width="20.067" height="1.212" transform="translate(27.558 60.202)"/><rect class="j" width="20.067" height="1.212" transform="translate(4.528 56.431)"/><rect class="b" width="20.067" height="1.212" transform="translate(4.528 60.202)"/><rect class="b" width="11.313" height="1.212" transform="translate(18.804 11.852)"/><rect class="b" width="3.906" height="1.212" transform="translate(32.137 11.852)"/><rect class="b" width="11.313" height="1.212" transform="translate(18.804 15.892)"/><rect class="b" width="3.906" height="1.212" transform="translate(32.137 15.892)"/><rect class="b" width="20.067" height="1.212" transform="translate(18.804 13.872)"/><g class="h" transform="translate(32.811 4.848)"><rect class="i" width="20.067" height="1.212"/></g><rect class="c" width="2.424" height="1.481" transform="translate(44.124 9.697)"/><rect class="c" width="2.424" height="1.481" transform="translate(44.124 11.717)"/><rect class="c" width="2.424" height="1.481" transform="translate(44.124 13.737)"/><rect class="e" width="2.155" height="1.212" transform="translate(44.259 9.832)"/><rect class="k" width="2.155" height="1.212" transform="translate(44.259 11.852)"/><rect class="g" width="2.155" height="1.212" transform="translate(44.259 13.872)"/><rect class="c" width="2.424" height="1.481" transform="translate(44.124 15.758)"/><rect class="i" width="2.155" height="1.212" transform="translate(44.259 15.892)"/><rect class="c" width="49.428" height="20.202" transform="translate(4.124 24.512)"/><rect class="j" width="48.35" height="19.125" transform="translate(4.528 24.916)"/><path class="l" d="M35.1,186.481H81.97V185H33.62v19.125H35.1Z" transform="translate(-29.092 -160.084)"/><rect class="m" width="49.832" height="20.471" transform="translate(4.374 27.759) rotate(-5.2)"/><rect class="d" width="48.35" height="19.125" transform="translate(5.227 28.221) rotate(-5.2)"/><path class="j" d="M214.635,316.814l-.835-10.609s4.31-4.579,13.01-1.185,12.8,1,14.217-1.294,8.754-4.848,11.133-1.014,5.231-.477,5.231-.477l.964,10.6Z" transform="translate(-205.813 -272.963)"/><line class="n" x2="0.073" y2="0.805" transform="translate(13.203 30.931)"/><line class="o" x2="0.773" y2="8.493" transform="translate(13.417 33.279)"/><line class="n" x2="0.074" y2="0.804" transform="translate(14.26 42.544)"/><line class="n" x2="0.074" y2="0.804" transform="translate(21.484 32.245)"/><line class="p" x2="0.559" y2="6.129" transform="translate(21.717 34.801)"/><line class="n" x2="0.073" y2="0.805" transform="translate(22.356 41.806)"/><line class="n" x2="0.081" y2="0.804" transform="translate(29.934 33.684)"/><line class="q" x2="0.455" y2="4.593" transform="translate(30.145 35.801)"/><line class="n" x2="0.079" y2="0.805" transform="translate(30.667 41.049)"/><line class="n" x2="0.073" y2="0.805" transform="translate(37.529 28.935)"/><line class="r" x2="0.758" y2="8.322" transform="translate(37.739 31.253)"/><line class="n" x2="0.074" y2="0.805" transform="translate(38.566 40.33)"/><line class="n" x2="0.073" y2="0.804" transform="translate(43.01 27.824)"/><line class="s" x2="0.801" y2="8.799" transform="translate(43.228 30.228)"/><line class="n" x2="0.074" y2="0.804" transform="translate(44.102 39.826)"/><circle class="k" cx="0.673" cy="0.673" r="0.673" transform="translate(12.445 30.269) rotate(-5.2)"/><circle class="e" cx="0.673" cy="0.673" r="0.673" transform="translate(20.688 31.683) rotate(-5.2)"/><circle class="g" cx="0.673" cy="0.673" r="0.673" transform="translate(29.2 33.072) rotate(-5.2)"/><circle class="t" cx="0.943" cy="0.943" r="0.943" transform="translate(36.454 28.084) rotate(-5.2)"/><circle class="u" cx="0.943" cy="0.943" r="0.943" transform="translate(42.039 27.036) rotate(-5.2)"/><circle class="i" cx="0.673" cy="0.673" r="0.673" transform="translate(36.747 28.328) rotate(-5.2)"/><circle class="i" cx="0.673" cy="0.673" r="0.673" transform="translate(42.331 27.279) rotate(-5.2)"/><circle class="g" cx="0.673" cy="0.673" r="0.673" transform="translate(50.867 28.937) rotate(-5.2)"/><g class="h" transform="translate(52.964 42.919)"><path class="v" d="M547.76,413.16l.009.031C547.873,413.133,547.76,413.16,547.76,413.16Z" transform="translate(-547.76 -413.154)"/></g><g class="h" transform="translate(43.764 42.29)"><path class="w" d="M487.532,431.741l2.193-.354-.3-1.347h0v-.019h-.008l-1.554-7.138v-5.205a1.915,1.915,0,0,0-.011-.2c2.322-3.079.943-7.91.808-8.331-.024.012-.061.028-.112.048a2.834,2.834,0,0,0-.106-.556s-.673-.428-1.041.123a.63.63,0,0,0-.016.843l-.046.015a1.551,1.551,0,0,1,.213.531,1.161,1.161,0,0,0-.073-.135c-.085-.015-.135-.028-.135-.028l-.016-.015-.046.015a3.075,3.075,0,0,1,.3,1.657,2.338,2.338,0,0,0-.269-.311,2.377,2.377,0,0,0-1.576-.657h-.112a1.393,1.393,0,0,0-.183.012H485.4l-.077.011-.088.016-.063.013-.109.03-.04.012c-.046.015-.09.03-.135.047a2.321,2.321,0,0,1-.462.167.224.224,0,0,0-.066.007h0a.77.77,0,0,1-.505-.144l-.048-.038a.71.71,0,0,1-.052-.05.342.342,0,0,0-.023.147.451.451,0,0,0,.158.306.426.426,0,0,0,.084.057.36.36,0,0,0,.143.04h.039c-.031.015-.062.028-.094.04h-.007c-.035.012-.069.023-.105.032h0a1.169,1.169,0,0,1-.539.008h0l-.058-.013c-.028-.008-.058-.016-.085-.026a.646.646,0,0,0,.03.059l.011.018.024.038.015.019.027.034.016.017.034.034.013.012.05.042.017.012.036.026.024.015.032.019.027.013.034.015.028.012.038.013.047.013.035.009h.234a.673.673,0,0,0,.2-.05l-.124.051h0l-.062.022-.063.023-.063.019-.065.019-.063.016-.067.016-.062.012-.071.012-.059.009-.077.009h-.323a.567.567,0,0,1,.2.108.539.539,0,0,0,.125.067.48.48,0,0,0,.061.013h.3a.881.881,0,0,1,.349.112.626.626,0,0,1,.149.135c-.019.031-.038.061-.054.093s-.028.054-.042.082a1.68,1.68,0,0,0-.071.171,1.9,1.9,0,0,0-.116.653v.156a.446.446,0,0,0,.011.1v.026q.008.059.022.117v.023q.011.048.024.1l.008.028a1.891,1.891,0,0,0,.082.224l.009.022q.023.05.047.1v.009q.03.054.062.106v.008q.03.048.063.094l.008.011a1.913,1.913,0,0,0,.158.19h0a1.9,1.9,0,0,0,.508.381.849.849,0,0,0-.015.088h0a.865.865,0,0,0,0,.092v.711q-.061.032-.118.069c-1.688-.766-4.2-6.2-4.2-6.2h-.061c.245-.183,0-.98,0-.98a1.15,1.15,0,0,0-.471-.156h-.217l-.027.008h-.013l-.04.015h0l-.038.018-.013.007-.026.015-.017.082-.024.016-.015.012-.023.019-.015.013-.023.022-.013.015-.023.027-.011.013-.034.046c-.368.551,0,.858,0,.858a5.483,5.483,0,0,0-.034.64c-.027,3.968,4.22,7.042,4.436,7.2a8.145,8.145,0,0,0,.009,5.184.089.089,0,0,0,.011.019,7.957,7.957,0,0,0-2.387,7.526l.017.082h.039a.541.541,0,0,1-.015.054.62.62,0,0,1-.039.094.731.731,0,0,1-.1.144h0c-.042.048-.09.1-.141.147l-.054.051c-.214.2-.431.4-.269.485H483.4v-1.011h.04s-.016-.031-.04-.092v-.011H483.4a4.272,4.272,0,0,1,.048-2.769,5.158,5.158,0,0,1,2.694-2.757l.039.135h-.008l1.681,5.522a.225.225,0,0,1-.007.066.9.9,0,0,1-.036.154.973.973,0,0,1-.046.113c-.1.214-.283.466-.361.655a.631.631,0,0,0-.028.079.245.245,0,0,0-.009.094.109.109,0,0,0,.071.09h.031l.065-.011Zm-.649-15.721q-.063-.035-.135-.066v-.668a.849.849,0,0,0-.015-.152,1.9,1.9,0,0,0,.4-.26c-.081.412-.171.807-.253,1.146Z" transform="translate(-479.447 -408.482)"/></g><path class="x" d="M479.226,414.978s-.4-.339,0-.951,1.154-.135,1.154-.135.269.882,0,1.086S479.226,414.978,479.226,414.978Z" transform="translate(-435.337 -370.721)"/><path class="y" d="M494.648,591.75h-1.871a.614.614,0,0,1-.176.481c-.252.291-.758.642-.52.762h2.567Z" transform="translate(-446.561 -524.778)"/><path class="z" d="M492.745,592.231a.614.614,0,0,0,.176-.481h-.135a.614.614,0,0,1-.176.481c-.252.291-.758.642-.52.762h.135C491.987,592.873,492.493,592.523,492.745,592.231Z" transform="translate(-446.57 -524.778)"/><path class="y" d="M546.395,588.89l-1.751.284a.891.891,0,0,1-.079.617c-.191.4-.621.908-.362,1.017l2.535-.4Z" transform="translate(-491.647 -522.303)"/><path class="y" d="M539.716,416.91s2,6.318-1.356,9.815l-.97-.742s1.985-6.9.874-8.514C540.225,416.815,539.716,416.91,539.716,416.91Z" transform="translate(-485.822 -373.481)"/><path class="x" d="M543.226,412.968s-.4-.339,0-.951,1.154-.135,1.154-.135.269.882,0,1.086S543.226,412.968,543.226,412.968Z" transform="translate(-490.717 -368.982)"/><path class="z" d="M544.7,589.749a.891.891,0,0,0,.079-.618l1.616-.269v-.022l-1.751.291a.891.891,0,0,1-.079.617c-.191.4-.621.908-.362,1.017l.106-.018C544.116,590.612,544.516,590.129,544.7,589.749Z" transform="translate(-491.647 -522.26)"/><rect class="x" width="1.9" height="2.816" rx="0.95" transform="translate(49.896 49.314)"/><path class="z" d="M537.093,432.512s1.961-6.811.893-8.485c-.094-.017-.155-.031-.155-.031l-.018-.016-.05.016c1.111,1.616-.874,8.514-.874,8.514l.97.742.085-.092Z" transform="translate(-485.39 -379.603)"/><circle class="x" cx="2.104" cy="2.104" r="2.104" transform="translate(48.777 46.092)"/><path class="z" d="M518.012,441.817V440.9a.943.943,0,0,1,.022-.2,2.1,2.1,0,0,1,.843-3.972h-.118a2.1,2.1,0,0,0-.963,3.974.948.948,0,0,0-.022.2v.916a.943.943,0,0,0,1.069.943A.954.954,0,0,1,518.012,441.817Z" transform="translate(-467.879 -390.636)"/><path class="y" d="M518.124,479.6s-4.058.458-4.207,0a8.971,8.971,0,0,1,0-5.768,2.1,2.1,0,0,1,2.1-2.1h0a2.1,2.1,0,0,1,2.1,2.1Z" transform="translate(-465.106 -420.922)"/><path class="aa" d="M502.716,530.18l1.833,8.416h-1.833l-1.9-6.244a5.717,5.717,0,0,0-2.986,3.055,4.463,4.463,0,0,0,0,3.189h-1.969l-.02-.092a8.754,8.754,0,0,1,2.667-8.325h0" transform="translate(-449.698 -471.5)"/><path class="z" d="M513.937,479.628a8.97,8.97,0,0,1,0-5.768,2.1,2.1,0,0,1,1.968-2.1h-.135a2.1,2.1,0,0,0-2.1,2.1,8.972,8.972,0,0,0,0,5.768c.054.164.609.21,1.3.2C514.4,479.823,513.98,479.769,513.937,479.628Z" transform="translate(-464.889 -420.948)"/><path class="y" d="M485.031,431.71s-5.429-3.8-4.886-8.62h1.222s2.917,6.318,4.787,6.924S485.031,431.71,485.031,431.71Z" transform="translate(-436.254 -378.833)"/><g class="h" transform="translate(45.948 58.714)"><path class="d" d="M534.31,546.674l1.865,6.129h.269l-1.9-6.244S534.457,546.6,534.31,546.674Z" transform="translate(-529.105 -544.388)"/><path class="d" d="M498.8,530.43h-.269a8.754,8.754,0,0,0-2.667,8.325l.02.092h.269l-.02-.092A8.754,8.754,0,0,1,498.8,530.43Z" transform="translate(-495.663 -530.43)"/></g><path class="z" d="M480.352,423.6h-.2c-.539,4.819,4.886,8.62,4.886,8.62l.135-.051C484.54,431.7,479.844,428.1,480.352,423.6Z" transform="translate(-436.257 -379.274)"/><path class="aa" d="M510.675,431.863a3.482,3.482,0,0,1,.245.847,2.246,2.246,0,0,0,.963,1.481,2.137,2.137,0,0,0,.943.257,1.8,1.8,0,0,0,1.4-.422,1.732,1.732,0,0,0,.427-.861,2.913,2.913,0,0,0-.766-2.677,2.584,2.584,0,0,0-2.694-.564,2.572,2.572,0,0,1-.51.186.85.85,0,0,1-.745-.248.47.47,0,0,0,.454.609,1.311,1.311,0,0,1-1,.054.853.853,0,0,0,1.077.43,2.871,2.871,0,0,1-1.212.248c.088,0,.259.162.365.194a2.311,2.311,0,0,0,.4.028A.784.784,0,0,1,510.675,431.863Z" transform="translate(-461.472 -384.607)"/><g class="h" transform="translate(47.772 45.154)"><path class="d" d="M514.548,431.089a1.3,1.3,0,0,1-.5.128,1.306,1.306,0,0,0,.634-.128.475.475,0,0,1-.477-.513.8.8,0,0,1-.113-.1.47.47,0,0,0,.454.609Z" transform="translate(-513.398 -430.382)"/><path class="d" d="M519.577,430.1a2.574,2.574,0,0,0,.51-.186,2.341,2.341,0,0,1,.808-.163,2.366,2.366,0,0,0-.943.163,2.573,2.573,0,0,1-.51.186.224.224,0,0,0-.073.008A.807.807,0,0,0,519.577,430.1Z" transform="translate(-518.002 -429.751)"/><path class="d" d="M509.71,439.062c-.106-.031-.277-.191-.365-.194a2.872,2.872,0,0,0,1.212-.248.751.751,0,0,1-.269.057,2.873,2.873,0,0,1-1.077.191c.088,0,.259.162.365.194a.9.9,0,0,0,.283.023A.59.59,0,0,1,509.71,439.062Z" transform="translate(-509.21 -437.425)"/><path class="d" d="M517.447,445.127a2.137,2.137,0,0,1-.943-.257,2.279,2.279,0,0,1-.963-1.481,3.481,3.481,0,0,0-.245-.847.784.784,0,0,0-.664-.435,1.353,1.353,0,0,0-.2,0h.066a.784.784,0,0,1,.664.435,3.483,3.483,0,0,1,.245.847,2.246,2.246,0,0,0,.963,1.481,2.137,2.137,0,0,0,.943.257h.136Z" transform="translate(-513.727 -440.439)"/><path class="d" d="M511.137,435.885a.859.859,0,0,1-.69-.44,1.255,1.255,0,0,1-.158-.044A.859.859,0,0,0,511.137,435.885Z" transform="translate(-510.145 -434.639)"/></g><path class="z" d="M479.371,414.97s-.4-.339,0-.951a.65.65,0,0,1,.5-.308.66.66,0,0,0-.638.308c-.4.611,0,.951,0,.951a3.681,3.681,0,0,0,.8.089A4.018,4.018,0,0,1,479.371,414.97Z" transform="translate(-435.345 -370.713)"/><g class="h" transform="translate(4.926 44.248)"><path class="ab" d="M191.126,423.06l.011-.036S191,423,191.126,423.06Z" transform="translate(-191.072 -423.018)"/></g><g class="h" transform="translate(2.128 43.487)"><path class="ac" d="M185.842,420.428a.882.882,0,0,0-.048-.125c0-.013-.013-.024-.02-.036a.759.759,0,0,0-.04-.07l-.027-.035a.685.685,0,0,0-.044-.053l-.031-.031q-.024-.022-.048-.04l-.034-.024-.054-.032-.034-.018-.061-.026-.031-.012a.749.749,0,0,0-.088-.024h0a1.391,1.391,0,0,0-.591.016s-.564.832-.347,1.131l-.071-.022s-4.193,4.679-6.558,5.547q-.09-.062-.187-.116v-.875a1.026,1.026,0,0,0,0-.11h0a1.027,1.027,0,0,0-.018-.1l.018-.009.07-.039.1-.062.065-.042a1.345,1.345,0,0,0,.135-.105l.053-.046q.049-.04.093-.085l.054-.053q.057-.058.108-.119l.038-.046q.049-.061.093-.124l.038-.057q.04-.062.077-.127l.024-.042a1.844,1.844,0,0,0,.082-.172l.022-.053q.028-.071.053-.144a.25.25,0,0,1,.016-.051c.019-.063.036-.127.05-.193a.08.08,0,0,1,.007-.039q.016-.082.026-.167v-.057c0-.069.011-.135.011-.209a2.29,2.29,0,0,0-.509-1.44c.179-.28.3-.446.3-.446-.108-.074-.214-.141-.319-.207l-.1-.061c-.07-.042-.135-.083-.21-.121l-.117-.062c-.063-.034-.125-.066-.187-.1l-.12-.055-.179-.078-.117-.047c-.059-.023-.119-.044-.176-.065l-.11-.038c-.061-.019-.121-.036-.18-.053l-.1-.027c-.067-.016-.135-.03-.2-.043l-.071-.015c-.09-.016-.179-.028-.269-.036h0a3.193,3.193,0,0,0-1.616.248,2.983,2.983,0,0,1,.361-1.5l-.055-.019-.019.019s-.066.015-.17.034a1.406,1.406,0,0,0-.088.163,1.873,1.873,0,0,1,.257-.641l-.055-.019a.759.759,0,0,0-.019-1.017c-.444-.665-1.258-.148-1.258-.148a3.442,3.442,0,0,0-.127.673c-.062-.026-.106-.044-.135-.059a16.767,16.767,0,0,0-.632,4.224,16.28,16.28,0,0,0-2.191,5.818h0l-.009.053h0l-.012.074,3.813.089v6.077l-2.776,5.871s1.056.034,2.645.237l-.439,3.139h0l-.147.881h2.642c.294-.587-1.174-.881-1.174-.881h-.032l.572-2.929q.38.063.781.135a7.651,7.651,0,0,0,1.189.135h0a6.315,6.315,0,0,0,.99-.043,6.89,6.89,0,0,1-.109,2.694h-.015l-.147.881h2.642c.256-.512-.827-.8-1.108-.866l.012-.086a14.736,14.736,0,0,0,.1-2.99,3.619,3.619,0,0,0,.943-.562h0l.036-.032h0l.011-.011-1.968-5.522c.368-1.562-.912-3.2-.229-4.023a2.02,2.02,0,0,0,.189-2.046c1.848-.808,5.582-2.828,6.63-6.33a6.625,6.625,0,0,0,.187-.75S186.071,421.194,185.842,420.428Z" transform="translate(-170.3 -417.368)"/></g><path class="e" d="M190.774,430.91s-2,6.318,1.356,9.815l.97-.742s-1.985-6.9-.874-8.514C190.265,430.815,190.774,430.91,190.774,430.91Z" transform="translate(-185.376 -385.595)"/><path class="ad" d="M196.675,426.968s.4-.339,0-.951-1.154-.135-1.154-.135-.269.882,0,1.086S196.675,426.968,196.675,426.968Z" transform="translate(-189.893 -381.096)"/><rect class="ad" width="1.9" height="2.816" rx="0.95" transform="translate(9.395 54.016) rotate(180)"/><path class="z" d="M203.057,446.512s-1.961-6.811-.893-8.485c.094-.017.155-.031.155-.031l.018-.016.05.016c-1.111,1.616.874,8.514.874,8.514l-.97.742-.085-.092Z" transform="translate(-195.469 -391.717)"/><circle class="ad" cx="2.104" cy="2.104" r="2.104" transform="translate(6.307 47.977)"/><path class="z" d="M216.945,455.817V454.9a.943.943,0,0,0-.022-.2,2.1,2.1,0,0,0-.843-3.972h.119a2.1,2.1,0,0,1,.963,3.974.944.944,0,0,1,.022.2v.916a.943.943,0,0,1-1.069.943A.954.954,0,0,0,216.945,455.817Z" transform="translate(-207.786 -402.75)"/><path class="e" d="M201.08,493.6s4.058.458,4.207,0c.485-1.481-.808-3.083-.162-3.865a1.927,1.927,0,0,0,.162-1.9,2.1,2.1,0,0,0-2.1-2.1h0a2.1,2.1,0,0,0-2.1,2.1Z" transform="translate(-194.807 -433.036)"/><path class="z" d="M217.817,489.737a1.927,1.927,0,0,0,.162-1.9,2.1,2.1,0,0,0-2.1-2.1.892.892,0,0,0-.135.007,2.1,2.1,0,0,1,1.969,2.1,1.927,1.927,0,0,1-.162,1.9c-.652.782.646,2.382.162,3.865-.046.141-.465.2-1.021.2.686.007,1.238-.039,1.29-.2C218.469,492.118,217.165,490.519,217.817,489.737Z" transform="translate(-207.492 -433.036)"/><path class="ad" d="M201.009,543.18h0a12.057,12.057,0,0,1,1.713,8.325l-.012.092h-1.265a6.786,6.786,0,0,0,0-3.189,5.036,5.036,0,0,0-1.918-3.055l-1.22,6.244H197.13l1.177-8.416Z" transform="translate(-191.389 -482.749)"/><path class="ad" d="M271.506,444.22s.489-.2.279-.909-1.064-.467-1.064-.467-.519.764-.318,1.038S271.506,444.22,271.506,444.22Z" transform="translate(-254.754 -395.893)"/><path class="e" d="M217,457.818s6.3-2.043,7.2-6.809l-1.168-.358s-4.64,5.18-6.6,5.216S217,457.818,217,457.818Z" transform="translate(-207.443 -402.681)"/><path class="z" d="M231.584,453.35l.2.059c-.893,4.766-7.2,6.809-7.2,6.809l-.112-.088C225.215,459.873,230.751,457.8,231.584,453.35Z" transform="translate(-215.046 -405.017)"/><g class="h" transform="translate(6.648 60.431)"><path class="d" d="M205.08,559.31l-1.22,6.244h.269l1.185-6.061A2.907,2.907,0,0,0,205.08,559.31Z" transform="translate(-203.86 -557.138)"/><path class="d" d="M224.2,543.18h-.269a12.057,12.057,0,0,1,1.713,8.325l-.012.092h.269l.012-.092A12.043,12.043,0,0,0,224.2,543.18Z" transform="translate(-221.227 -543.18)"/></g><path class="z" d="M273.68,444.312s.489-.2.279-.909a.651.651,0,0,0-.391-.443.66.66,0,0,1,.52.482c.21.7-.279.909-.279.909a3.68,3.68,0,0,1-.789-.148A4.015,4.015,0,0,0,273.68,444.312Z" transform="translate(-257.058 -396.027)"/><path class="aa" d="M184.639,542.48l-2.559,5.387a31.656,31.656,0,0,1,4.444.539c2.828.539,4.175-.808,4.175-.808l-1.825-5.118Z" transform="translate(-178.366 -482.143)"/><path class="e" d="M197.467,605.48s1.347.269,1.077.808H196.12l.135-.808Z" transform="translate(-190.515 -536.658)"/><path class="e" d="M229.467,605.48s1.347.269,1.077.808H228.12l.135-.808Z" transform="translate(-218.205 -536.658)"/><path class="ae" d="M182.662,447.476s-3.232,4.579-1.751,6.465l-5.791-.135S176.736,443.436,182.662,447.476Z" transform="translate(-172.343 -399.126)"/><path class="z" d="M182.662,447.579a4.906,4.906,0,0,0-2.256-.919,5.7,5.7,0,0,1,1.582.784s-3.232,4.579-1.751,6.465l-5.1-.119c-.013.077-.02.119-.02.119l5.791.135C179.43,452.158,182.662,447.579,182.662,447.579Z" transform="translate(-172.343 -399.228)"/><path class="z" d="M224.489,542.48h-.4l1.825,5.118a4.116,4.116,0,0,1-2.68.931,4.283,4.283,0,0,0,3.084-.931Z" transform="translate(-213.973 -482.143)"/><path class="z" d="M204.389,605.48h-.269s1.347.269,1.077.808h.269C205.736,605.749,204.389,605.48,204.389,605.48Z" transform="translate(-197.437 -536.658)"/><path class="z" d="M236.389,605.48h-.269s1.347.269,1.077.808h.269C237.736,605.749,236.389,605.48,236.389,605.48Z" transform="translate(-225.127 -536.658)"/><rect class="b" width="51.582" height="1.953" transform="translate(67.424 22.583)"/><rect class="c" width="53.603" height="66.801" transform="translate(66.397 21.96)"/><rect class="d" width="51.582" height="61.886" transform="translate(67.424 24.536)"/><circle class="e" cx="0.471" cy="0.471" r="0.471" transform="translate(68.148 23.122)"/><circle class="f" cx="0.471" cy="0.471" r="0.471" transform="translate(69.444 23.122)"/><circle class="g" cx="0.471" cy="0.471" r="0.471" transform="translate(70.741 23.122)"/><g class="h" transform="translate(70.656 27.297)"><rect class="i" width="45.253" height="1.212"/></g><rect class="c" width="19.529" height="20.741" transform="translate(70.387 32.549)"/><rect class="d" width="18.721" height="19.394" transform="translate(70.791 33.223)"/><rect class="c" width="19.529" height="20.741" transform="translate(96.38 42.92)"/><rect class="d" width="18.721" height="19.394" transform="translate(96.784 43.593)"/><rect class="c" width="45.926" height="14.276" transform="translate(70.791 68.509)"/><rect class="j" width="44.175" height="12.795" transform="translate(71.733 69.452)"/><path class="l" d="M533.7,516.892h43.1V515.68H532.62v12.795H533.7Z" transform="translate(-460.887 -446.228)"/><path class="af" d="M701.763,354.047a8.35,8.35,0,1,0,2.02,5.448A8.35,8.35,0,0,0,701.763,354.047ZM698.4,364.481a5.791,5.791,0,1,1,2.839-4.983,5.791,5.791,0,0,1-2.839,4.983Z" transform="translate(-615.354 -316.575)"/><path class="e" d="M753.3,358.5l1.838-1.582a7.926,7.926,0,0,0-6.02-2.762v2.424A5.51,5.51,0,0,1,753.3,358.5Z" transform="translate(-669.036 -319.186)"/><path class="g" d="M728.049,449.174a5.487,5.487,0,0,1-2.279-.494l-1,2.21a7.946,7.946,0,0,0,7.339-.4L730.87,448.4A5.487,5.487,0,0,1,728.049,449.174Z" transform="translate(-647.966 -400.734)"/><path class="k" d="M775.186,379.844a7.912,7.912,0,0,0-1.926-5.184l-1.838,1.582a5.513,5.513,0,0,1-1.362,8.35l1.239,2.086A7.946,7.946,0,0,0,775.186,379.844Z" transform="translate(-687.156 -336.925)"/><path class="i" d="M692.541,362.1a5.522,5.522,0,0,1,5.522-5.522V354.15a7.946,7.946,0,0,0-3.279,15.184l1-2.21A5.522,5.522,0,0,1,692.541,362.1Z" transform="translate(-617.979 -319.178)"/><rect class="c" width="14.276" height="2.424" transform="translate(99.343 46.422)"/><rect class="i" width="14.007" height="2.155" transform="translate(99.477 46.556)"/><rect class="e" width="10.236" height="2.155" transform="translate(99.477 50.193)"/><rect class="g" width="7.003" height="2.155" transform="translate(99.477 53.829)"/><rect class="k" width="12.66" height="2.155" transform="translate(99.477 57.465)"/><rect class="b" width="20.067" height="1.212" transform="translate(70.791 56.523)"/><rect class="b" width="11.313" height="1.212" transform="translate(70.791 58.543)"/><rect class="b" width="3.906" height="1.212" transform="translate(84.124 58.543)"/><rect class="b" width="3.906" height="1.212" transform="translate(84.124 62.987)"/><rect class="b" width="11.313" height="1.212" transform="translate(70.791 62.583)"/><rect class="b" width="20.067" height="1.212" transform="translate(70.791 60.563)"/><rect class="b" width="20.067" height="1.212" transform="translate(96.11 32.684)"/><rect class="b" width="11.313" height="1.212" transform="translate(96.11 34.704)"/><rect class="b" width="3.906" height="1.212" transform="translate(109.444 34.704)"/><rect class="b" width="3.906" height="1.212" transform="translate(109.444 39.149)"/><rect class="b" width="11.313" height="1.212" transform="translate(96.11 38.745)"/><rect class="b" width="20.067" height="1.212" transform="translate(96.11 36.725)"/><circle class="c" cx="1.481" cy="1.481" r="1.481" transform="translate(100.959 91.27)"/><circle class="e" cx="1.077" cy="1.077" r="1.077" transform="translate(101.363 91.674)"/><rect class="c" width="46.33" height="16.296" transform="translate(58.669 76.321)"/><rect class="d" width="44.175" height="12.795" transform="translate(60.016 76.994)"/><rect class="c" width="6.061" height="7.407" transform="translate(61.902 79.553)"/><rect class="i" width="5.387" height="6.869" transform="translate(62.238 79.89)"/><rect class="g" width="5.387" height="2.155" transform="translate(95.976 84.805)"/><rect class="k" width="5.387" height="4.848" transform="translate(85.875 81.977)"/><rect class="e" width="5.387" height="4.04" transform="translate(74.023 82.785)"/><rect class="e" width="44.175" height="1.886" transform="translate(60.016 89.789)"/><circle class="c" cx="1.481" cy="1.481" r="1.481" transform="translate(60.42 91.27)"/><circle class="e" cx="1.077" cy="1.077" r="1.077" transform="translate(60.824 91.674)"/><rect class="e" width="1.077" height="14.141" transform="translate(58.939 77.533)"/><rect class="ag" width="1.077" height="14.141" transform="translate(58.939 77.533)"/><path class="ah" d="M501.727,627.566v-.109a.065.065,0,0,0-.008-.042.458.458,0,0,1-.016-.059c-.007-.019-.008-.026-.013-.039l-.024-.057-.016-.034c-.011-.019-.023-.038-.035-.055l-.018-.026a.889.889,0,0,0-.057-.07h0a1.3,1.3,0,0,0-.376-.277,1.084,1.084,0,0,0,.241-.415.861.861,0,0,0,.032-.127v-.039a.735.735,0,0,0,.007-.078v-.109a.065.065,0,0,0-.008-.042.456.456,0,0,1-.016-.059c-.007-.019-.008-.026-.013-.039l-.024-.057-.016-.034c-.011-.019-.023-.038-.035-.055l-.018-.026a.885.885,0,0,0-.057-.07h0a1.356,1.356,0,0,0-.478-.323s-.855.316-.912.664a35.485,35.485,0,0,1-6.8.835l-.019-.05a2.234,2.234,0,0,0-1.189-1.976v-.846a1.007,1.007,0,0,0,0-.108h0a1.008,1.008,0,0,0-.016-.1l.016-.009.069-.038.1-.061.063-.042q.07-.049.135-.1l.051-.044c.031-.027.061-.054.09-.082l.053-.051q.055-.057.105-.116l.036-.046q.047-.059.09-.121l.036-.055q.039-.061.075-.124l.023-.04c.03-.054.057-.11.081-.167l.02-.051q.028-.069.051-.135l.016-.05c.019-.062.035-.124.048-.187a.075.075,0,0,1,.007-.038q.015-.081.024-.163v-.055c0-.067.011-.135.011-.2a2.223,2.223,0,0,0-.287-1.092c.144-.035.232-.063.221-.077-.055-.074-.11-.144-.168-.211l-.055-.063-.12-.135-.065-.066c-.04-.04-.081-.078-.121-.114l-.063-.057q-.077-.065-.154-.125l-.034-.027c-.062-.046-.124-.089-.187-.135l-.07-.043c-.04-.026-.082-.05-.124-.071l-.083-.043-.116-.055-.085-.038c-.04-.018-.082-.032-.124-.047l-.077-.028c-.062-.02-.124-.039-.186-.055l-.1-.022-.1-.022-.1-.016-.1-.011-.106-.009h-.2q-.088,0-.175.008h0a2.987,2.987,0,0,0-2.585,3.232v1.581h2.155v.719a2.234,2.234,0,0,0-1.3,2.027V632.9l-1.829,8.4h-.024l-.36,1.6,2.58.417h0l.112.018c.269-.116-.182-.659-.385-1.077a1.149,1.149,0,0,1-.054-.135,1.021,1.021,0,0,1-.051-.261l1.983-6.5h-.009l.047-.152a6.059,6.059,0,0,1,3.173,3.244,5.073,5.073,0,0,1,.057,3.259h-.009v.022c-.028.07-.048.109-.048.109h.048v1.189H496.5c.253-.128-.284-.5-.552-.808a.764.764,0,0,1-.178-.343h.046l.022-.1a9.364,9.364,0,0,0-2.809-8.858.1.1,0,0,0,.012-.023,10.026,10.026,0,0,0,.473-2.432c2.086.2,4.862.057,6.937-1.552a6.462,6.462,0,0,0,.567-.482c.179-.013.493-.113.667-.62a.859.859,0,0,0,.032-.127v-.039A.731.731,0,0,0,501.727,627.566Z" transform="translate(-441.639 -548.531)"/><path class="i" d="M517.711,684.048s6.316,2.008,9.815-1.347l-.742-.971s-6.788,1.512-8.405.4S517.711,684.048,517.711,684.048Z" transform="translate(-468.554 -602.639)"/><path class="z" d="M528.522,688l.124.162c-3.5,3.356-9.815,1.347-9.815,1.347s-.016-.051-.04-.135C519.543,689.6,525.257,691.135,528.522,688Z" transform="translate(-469.727 -608.065)"/><path class="ai" d="M586.87,678.806s.517.117.756-.576-.593-1-.593-1-.866.319-.863.659S586.87,678.806,586.87,678.806Z" transform="translate(-528.033 -598.745)"/><path class="z" d="M587.723,680.644s.517.117.756-.576a.651.651,0,0,0-.061-.587.66.66,0,0,1,.143.695c-.238.695-.756.576-.756.576a3.68,3.68,0,0,1-.555-.58A4.021,4.021,0,0,0,587.723,680.644Z" transform="translate(-528.967 -600.692)"/><path class="i" d="M541.7,781.75h1.871a.614.614,0,0,0,.176.481c.252.291.758.642.52.762H541.7Z" transform="translate(-489.552 -689.188)"/><path class="z" d="M554.744,782.231a.614.614,0,0,1-.176-.481h.135a.614.614,0,0,0,.176.481c.252.291.758.642.52.762h-.135C555.5,782.873,555,782.523,554.744,782.231Z" transform="translate(-500.685 -689.188)"/><path class="i" d="M490.032,778.89l1.751.287a.891.891,0,0,0,.079.617c.191.4.621.908.362,1.017l-2.535-.4Z" transform="translate(-444.547 -686.714)"/><path class="z" d="M493.892,779.758a.892.892,0,0,1-.079-.617l-1.623-.269v-.022l1.751.287a.892.892,0,0,0,.079.617c.191.4.621.908.362,1.017l-.106-.018C494.476,780.621,494.076,780.138,493.892,779.758Z" transform="translate(-446.71 -686.679)"/><rect class="ai" width="1.9" height="2.816" rx="0.95" transform="translate(50.338 77.72) rotate(180)"/><circle class="ai" cx="2.104" cy="2.104" r="2.104" transform="translate(47.25 71.681)"/><path class="z" d="M520.945,631.817V630.9a.947.947,0,0,0-.022-.2,2.1,2.1,0,0,0-.843-3.972h.119a2.1,2.1,0,0,1,.963,3.974.94.94,0,0,1,.022.2v.916a.943.943,0,0,1-1.069.943A.954.954,0,0,0,520.945,631.817Z" transform="translate(-470.844 -555.047)"/><path class="i" d="M505.08,669.6s4.058.458,4.207,0a8.971,8.971,0,0,0,0-5.768,2.1,2.1,0,0,0-2.1-2.1h0a2.1,2.1,0,0,0-2.1,2.1Z" transform="translate(-457.864 -585.333)"/><path class="aa" d="M493.3,720.18,491.47,728.6H493.3l1.9-6.244a5.716,5.716,0,0,1,2.986,3.055,4.463,4.463,0,0,1,0,3.189h1.972l.02-.092a8.754,8.754,0,0,0-2.667-8.325h0" transform="translate(-446.087 -635.911)"/><path class="z" d="M521.915,669.628a8.97,8.97,0,0,0,0-5.768,2.1,2.1,0,0,0-1.968-2.1h.135a2.1,2.1,0,0,1,2.1,2.1,8.972,8.972,0,0,1,0,5.768c-.054.164-.609.21-1.3.2C521.448,669.823,521.87,669.769,521.915,669.628Z" transform="translate(-470.729 -585.358)"/><g class="h" transform="translate(46.947 84.303)"><path class="d" d="M505.215,736.674l-1.865,6.129h-.269l1.9-6.244S505.068,736.6,505.215,736.674Z" transform="translate(-503.08 -734.388)"/><path class="d" d="M534.31,720.43h.269a8.754,8.754,0,0,1,2.667,8.325l-.02.092h-.269l.02-.092A8.754,8.754,0,0,0,534.31,720.43Z" transform="translate(-530.104 -720.43)"/></g><path class="i" d="M515.711,674.048s6.316,2.008,9.815-1.347l-.742-.971s-6.788,1.512-8.405.4S515.711,674.048,515.711,674.048Z" transform="translate(-466.823 -593.986)"/><path class="z" d="M526.522,678l.124.162c-3.5,3.356-9.815,1.347-9.815,1.347s-.016-.051-.04-.135C517.543,679.6,523.257,681.135,526.522,678Z" transform="translate(-467.997 -599.411)"/><path class="ai" d="M584.87,668.806s.517.117.756-.576-.593-1-.593-1-.866.319-.863.659S584.87,668.806,584.87,668.806Z" transform="translate(-526.302 -590.092)"/><path class="z" d="M585.723,670.644s.517.117.756-.576a.65.65,0,0,0-.061-.587.66.66,0,0,1,.143.695c-.238.695-.756.576-.756.576a3.68,3.68,0,0,1-.555-.58A4.016,4.016,0,0,0,585.723,670.644Z" transform="translate(-527.237 -592.039)"/><path class="aa" d="M502.218,626.093l-.135,2.828H499.12v-1.5c0-3.016,3.188-4.16,4.983-1.737A16.8,16.8,0,0,1,502.218,626.093Z" transform="translate(-452.707 -553.006)"/><path class="z" d="M517.18,624.444a3,3,0,0,1,2.147,1.3,18.438,18.438,0,0,1-1.885.4l-.135,2.828h.4l.135-2.828a18.438,18.438,0,0,0,1.885-.4A2.9,2.9,0,0,0,517.18,624.444Z" transform="translate(-468.334 -553.063)"/></svg>