<svg xmlns="http://www.w3.org/2000/svg" xmlns:xlink="http://www.w3.org/1999/xlink" viewBox="0 0 120 95.764"><defs><style>.a{fill:#f2f2f2}.b{fill:#f5f5f5}.c{fill:url(#a)}.d,.l,.z{fill:#fff}.e{fill:#ff5252}.f{fill:#ff0}.g{fill:#69f0ae}.h,.z{opacity:0.2}.i,.j{fill:#6c63ff}.j,.l{opacity:0.5}.k{fill:#ff9800}.n{fill:none;stroke:#6c63ff;stroke-miterlimit:10}.x{fill:#ca7070}.y{fill:#00695c}.aa{fill:#263238}.ad{fill:#f6b9ad}.ai{fill:#985454}</style><linearGradient id="a" x1="0.5" y1="1" x2="0.5" gradientUnits="objectBoundingBox"><stop offset="0" stop-color="gray" stop-opacity="0.251"/><stop offset="0.54" stop-color="gray" stop-opacity="0.122"/><stop offset="1" stop-color="gray" stop-opacity="0.102"/></linearGradient><linearGradient id="j" x1="0.516" y1="0.999" x2="0.516" y2="-0.001" xlink:href="#a"/><linearGradient id="k" x1="1.221" y1="1.356" x2="1.221" y2="0.356" xlink:href="#a"/><linearGradient id="l" x1="1.26" y1="1.627" x2="1.26" y2="0.627" xlink:href="#a"/><linearGradient id="m" x1="0.506" y1="0.964" x2="0.506" y2="0.023" xlink:href="#a"/><linearGradient id="n" xlink:href="#a"/><linearGradient id="o" x1="0.498" x2="0.498" y2="0.007" xlink:href="#a"/><linearGradient id="p" xlink:href="#a"/><linearGradient id="u" xlink:href="#a"/><linearGradient id="aa" x1="0" y1="0.5" x2="1" y2="0.5" xlink:href="#a"/></defs><ellipse class="a" cx="9.024" cy="2.29" rx="9.024" ry="2.29" transform="translate(40.808 91.185)"/><ellipse class="a" cx="9.024" cy="2.29" rx="9.024" ry="2.29" transform="translate(41.481 65.865)"/><ellipse class="a" cx="9.024" cy="2.29" rx="9.024" ry="2.29" transform="translate(0 66.943)"/><rect class="b" width="51.582" height="1.953" transform="translate(3.046 0.539)"/><rect class="c" width="53.333" height="65.455" transform="translate(2.104)"/><rect class="d" width="51.582" height="61.886" transform="translate(3.046 2.492)"/><circle class="e" cx="0.471" cy="0.471" r="0.471" transform="translate(3.636 1.077)"/><circle class="f" cx="0.471" cy="0.471" r="0.471" transform="translate(4.932 1.077)"/><circle class="g" cx="0.471" cy="0.471" r="0.471" transform="translate(6.229 1.077)"/><g class="h" transform="translate(4.528 4.848)"><rect class="i" width="20.067" height="1.212"/></g><rect class="b" width="20.067" height="1.212" transform="translate(18.804 9.832)"/><rect class="j" width="20.067" height="1.212" transform="translate(4.528 48.889)"/><rect class="c" width="6.734" height="1.481" transform="translate(27.289 48.754)"/><rect class="c" width="6.734" height="1.481" transform="translate(27.289 56.296)"/><rect class="c" width="6.734" height="1.481" transform="translate(41.026 56.296)"/><rect class="i" width="6.33" height="1.212" transform="translate(27.558 48.889)"/><rect class="i" width="6.33" height="1.212" transform="translate(27.558 56.431)"/><rect class="i" width="6.33" height="1.212" transform="translate(41.161 56.431)"/><rect class="b" width="20.067" height="1.212" transform="translate(4.528 52.66)"/><rect class="j" width="20.067" height="1.212" transform="translate(27.558 52.66)"/><rect class="b" width="20.067" height="1.212" transform="translate(27.558 60.202)"/><rect class="j" width="20.067" height="1.212" transform="translate(4.528 56.431)"/><rect class="b" width="20.067" height="1.212" transform="translate(4.528 60.202)"/><rect class="b" width="11.313" height="1.212" transform="translate(18.804 11.852)"/><rect class="b" width="3.906" height="1.212" transform="translate(32.137 11.852)"/><rect class="b" width="11.313" height="1.212" transform="translate(18.804 15.892)"/><rect class="b" width="3.906" height="1.212" transform="translate(32.137 15.892)"/><rect class="b" width="20.067" height="1.212" transform="translate(18.804 13.872)"/><g class="h" transform="translate(32.811 4.848)"><rect class="i" width="20.067" height="1.212"/></g><rect class="c" width="2.424" height="1.481" transform="translate(44.124 9.697)"/><rect class="c" width="2.424" height="1.481" transform="translate(44.124 11.717)"/><rect class="c" width="2.424" height="1.481" transform="translate(44.124 13.737)"/><rect class="e" width="2.155" height="1.212" transform="translate(44.259 9.832)"/><rect class="k" width="2.155" height="1.212" transform="translate(44.259 11.852)"/><rect class="g" width="2.155" height="1.212" transform="translate(44.259 13.872)"/><rect class="c" width="2.424" height="1.481" transform="translate(44.124 15.758)"/><rect class="i" width="2.155" height="1.212" transform="translate(44.259 15.892)"/><rect class="c" width="49.428" height="20.202" transform="translate(4.124 24.512)"/><rect class="j" width="48.35" height="19.125" transform="translate(4.528 24.916)"/><path class="l" d="M6 26.4H53v-1.5H4.5V44H6z"/><rect width="49.832" height="20.471" transform="translate(4.374 27.759) rotate(-5.2)" style="fill:url(#j)"/><rect class="d" width="48.35" height="19.125" transform="translate(5.227 28.221) rotate(-5.2)"/><path class="j" d="M8.8 43.9L8 33.2s4.3-4.5 13-1.1 12.8 1 14.2-1.3 8.8-4.9 11.1-1 5.3-.5 5.3-.5l1 10.6z"/><line class="n" x2="0.073" y2="0.805" transform="translate(13.203 30.931)"/><line x2="0.773" y2="8.493" transform="translate(13.417 33.279)" style="stroke-dasharray:11.51 11.51;fill:none;stroke:#6c63ff;stroke-miterlimit:10"/><line class="n" x2="0.074" y2="0.804" transform="translate(14.26 42.544)"/><line class="n" x2="0.074" y2="0.804" transform="translate(21.484 32.245)"/><line x2="0.559" y2="6.129" transform="translate(21.717 34.801)" style="stroke-dasharray:13.06 13.06;fill:none;stroke:#6c63ff;stroke-miterlimit:10"/><line class="n" x2="0.073" y2="0.805" transform="translate(22.356 41.806)"/><line class="n" x2="0.081" y2="0.804" transform="translate(29.934 33.684)"/><line x2="0.455" y2="4.593" transform="translate(30.145 35.801)" style="stroke-dasharray:9.79 9.79;fill:none;stroke:#6c63ff;stroke-miterlimit:10"/><line class="n" x2="0.079" y2="0.805" transform="translate(30.667 41.049)"/><line class="n" x2="0.073" y2="0.805" transform="translate(37.529 28.935)"/><line x2="0.758" y2="8.322" transform="translate(37.739 31.253)" style="stroke-dasharray:11.28 11.28;fill:none;stroke:#6c63ff;stroke-miterlimit:10"/><line class="n" x2="0.074" y2="0.805" transform="translate(38.566 40.33)"/><line class="n" x2="0.073" y2="0.804" transform="translate(43.01 27.824)"/><line x2="0.801" y2="8.799" transform="translate(43.228 30.228)" style="stroke-dasharray:11.93 11.93;fill:none;stroke:#6c63ff;stroke-miterlimit:10"/><line class="n" x2="0.074" y2="0.804" transform="translate(44.102 39.826)"/><circle class="k" cx="0.673" cy="0.673" r="0.673" transform="translate(12.445 30.269) rotate(-5.2)"/><circle class="e" cx="0.673" cy="0.673" r="0.673" transform="translate(20.688 31.683) rotate(-5.2)"/><circle class="g" cx="0.673" cy="0.673" r="0.673" transform="translate(29.2 33.072) rotate(-5.2)"/><circle cx="0.943" cy="0.943" r="0.943" transform="translate(36.454 28.084) rotate(-5.2)" style="fill:url(#k)"/><circle cx="0.943" cy="0.943" r="0.943" transform="translate(42.039 27.036) rotate(-5.2)" style="fill:url(#l)"/><circle class="i" cx="0.673" cy="0.673" r="0.673" transform="translate(36.747 28.328) rotate(-5.2)"/><circle class="i" cx="0.673" cy="0.673" r="0.673" transform="translate(42.331 27.279) rotate(-5.2)"/><circle class="g" cx="0.673" cy="0.673" r="0.673" transform="translate(50.867 28.937) rotate(-5.2)"/><path d="M547.8 413.2z" transform="translate(52.964 42.919) translate(-547.76 -413.154)" style="fill:url(#m)" class=""/><path d="M487.5 431.7l2.2-.3-.3-1.4-1.5-7.1v-5.2a2 2 0 0 0 0-.2c2.3-3.1.9-8 .8-8.4l-.2.1a2.8 2.8 0 0 0 0-.6s-.7-.4-1.1.2a.6.6 0 0 0 0 .8 1.6 1.6 0 0 1 .2.6 1.2 1.2 0 0 0-.1-.2h-.2a3 3 0 0 1 .3 1.6 2.3 2.3 0 0 0-.3-.3 2.4 2.4 0 0 0-1.6-.6 1.4 1.4 0 0 0-.3 0H485l-.2.1a2.3 2.3 0 0 1-.5.2.8.8 0 0 1-.5-.2.7.7 0 0 1-.1 0 .3.3 0 0 0 0 .1.5.5 0 0 0 0 .3.4.4 0 0 0 .2 0 .4.4 0 0 0 .1.1h-.2a1.2 1.2 0 0 1-.5 0h-.1a.6.6 0 0 0 0 .1v.1h.1v.1h.1l.1.1h.4a.7.7 0 0 0 .2 0h-.1l-.1.1h-.2l-.1.1H483a.6.6 0 0 1 .2.1.5.5 0 0 0 .2.1h.3a.9.9 0 0 1 .4.1.6.6 0 0 1 .1.2v.1a1.7 1.7 0 0 0-.1.2 1.9 1.9 0 0 0-.2.7v.1a.4.4 0 0 0 0 .1v.2h.1v.1a1.9 1.9 0 0 0 0 .2h.1v.2h.1v.2a2 2 0 0 0 .2.2 1.9 1.9 0 0 0 .5.4.9.9 0 0 0 0 .1V416c-1.8-.7-4.3-6.2-4.3-6.2.2-.2 0-1 0-1a1.1 1.1 0 0 0-.5-.1H479.9l-.1.1-.1.1v.1c-.5.6 0 .9 0 .9a5.5 5.5 0 0 0-.1.6c0 4 4.2 7 4.4 7.2a8.1 8.1 0 0 0 0 5.2 8 8 0 0 0-2.4 7.5v.1h.1a.6.6 0 0 1 0 .2.7.7 0 0 1-.2.1l-.1.2c-.3.2-.5.4-.3.5h2.3v-1-.1a4.3 4.3 0 0 1 0-2.8 5.2 5.2 0 0 1 2.7-2.7l1.8 5.6a.9.9 0 0 1 0 .2 1 1 0 0 1-.1.1l-.4.7a.2.2 0 0 0 0 .2h.1zM487 416h-.2v-.7a.8.8 0 0 0 0-.2 1.9 1.9 0 0 0 .4-.2l-.2 1.1z" transform="translate(43.764 42.29) translate(-479.447 -408.482)" style="fill:url(#n)" class=""/><path class="x" d="M43.9 44.3s-.4-.4 0-1 1.1-.1 1.1-.1.3.9 0 1H44z"/><path class="y" d="M48 67h-1.8a.6.6 0 0 1-.2.5c-.2.2-.7.6-.5.7h2.6z"/><path class="z" d="M46.2 67.5a.6.6 0 0 0 .2-.5h-.2a.6.6 0 0 1-.2.5c-.2.2-.7.6-.5.7h.2c-.3-.1.2-.5.5-.7z"/><path class="y" d="M54.7 66.6l-1.7.3a.9.9 0 0 1 0 .6c-.3.4-.7.9-.4 1l2.5-.4z"/><path class="y" d="M53.9 43.4s2 6.3-1.4 9.8l-1-.7s2-6.9 1-8.5c1.9-.7 1.4-.6 1.4-.6z"/><path class="x" d="M52.5 44s-.4-.4 0-1 1.2-.1 1.2-.1.2.9 0 1h-1.2z"/><path class="z" d="M53 67.5a.9.9 0 0 0 .1-.6l1.6-.3-1.7.3a.9.9 0 0 1 0 .6c-.3.4-.7.9-.4 1-.1-.1.3-.6.5-1z"/><rect class="x" width="1.9" height="2.816" rx="0.95" transform="translate(49.896 49.314)"/><path class="z" d="M51.7 53s2-6.9.9-8.6h-.2c1 1.6-.9 8.5-.9 8.5l1 .7z"/><circle class="x" cx="2.104" cy="2.104" r="2.104" transform="translate(48.777 46.092)"/><path class="z" d="M50.1 51.2v-1a1 1 0 0 1 0-.1 2.1 2.1 0 0 1 .9-4h-.1a2.1 2.1 0 0 0-1 4 1 1 0 0 0 0 .2v.9a1 1 0 0 0 1 1 1 1 0 0 1-.8-1z"/><path class="y" d="M53 58.7s-4 .4-4.2 0a9 9 0 0 1 0-5.8 2.1 2.1 0 0 1 2.1-2 2.1 2.1 0 0 1 2.1 2z"/><path class="aa" d="M53 58.7L55 67H53l-1.9-6.2a5.7 5.7 0 0 0-3 3 4.5 4.5 0 0 0 0 3.2h-2V67a8.8 8.8 0 0 1 2.7-8.3"/><path class="z" d="M49 58.7a9 9 0 0 1 0-5.8 2.1 2.1 0 0 1 2-2H51a2.1 2.1 0 0 0-2.1 2 9 9 0 0 0 0 5.8c0 .1.6.2 1.3.2-.6 0-1 0-1-.2z"/><path class="y" d="M48.8 52.9s-5.5-3.8-5-8.6h1.3s3 6.3 4.8 6.9-1.1 1.7-1.1 1.7z"/><g class="h"><path class="d" d="M51.2 61l1.8 6.1h.3l-2-6.2-.1.1z"/><path class="d" d="M49 58.7h-.2a8.8 8.8 0 0 0-2.7 8.3v.1h.3a8.8 8.8 0 0 1 2.7-8.4z"/></g><path class="z" d="M44 44.3H44c-.5 4.8 4.9 8.6 4.9 8.6h.1c-.6-.5-5.3-4-4.8-8.6z"/><path class="aa" d="M49.2 47.3a3.5 3.5 0 0 1 .2.8 2.2 2.2 0 0 0 1 1.5 2.1 2.1 0 0 0 1 .2 1.8 1.8 0 0 0 1.4-.4 1.7 1.7 0 0 0 .4-.8 3 3 0 0 0-.8-2.7 2.6 2.6 0 0 0-2.7-.6 2.6 2.6 0 0 1-.5.2.8.8 0 0 1-.7-.2.5.5 0 0 0 .4.6 1.3 1.3 0 0 1-1 0 .9.9 0 0 0 1.1.4 2.9 2.9 0 0 1-1.2.3l.4.2a2.3 2.3 0 0 0 .4 0 .8.8 0 0 1 .6.5z"/><g class="h"><path class="d" d="M49 45.9a1.3 1.3 0 0 1-.6 0 1.3 1.3 0 0 0 .7 0 .5.5 0 0 1-.5-.6.8.8 0 0 1-.1 0 .5.5 0 0 0 .4.6z"/><path class="d" d="M49.3 45.5a2.6 2.6 0 0 0 .6-.2 2.3 2.3 0 0 1 .8-.1 2.4 2.4 0 0 0-1 .1 2.6 2.6 0 0 1-.5.2.8.8 0 0 0 .1 0z"/><path class="d" d="M48.3 46.8l-.4-.2a2.9 2.9 0 0 0 1.2-.3.8.8 0 0 1-.3.1 2.9 2.9 0 0 1-1 .2l.3.2a.9.9 0 0 0 .3 0 .6.6 0 0 1-.1 0z"/><path class="d" d="M51.5 49.8a2.1 2.1 0 0 1-1-.2 2.3 2.3 0 0 1-1-1.5 3.5 3.5 0 0 0-.2-.8.8.8 0 0 0-.6-.5 1.4 1.4 0 0 0-.2 0 .8.8 0 0 1 .7.5 3.5 3.5 0 0 1 .3.8 2.2 2.2 0 0 0 1 1.5 2.1 2.1 0 0 0 .9.2z"/><path class="d" d="M48.8 46.4a.9.9 0 0 1-.7-.4 1.3 1.3 0 0 1-.2 0 .9.9 0 0 0 .9.4z"/></g><path class="z" d="M44 44.3s-.4-.4 0-1a.7.7 0 0 1 .5-.3.7.7 0 0 0-.6.3c-.4.6 0 1 0 1a3.7 3.7 0 0 0 .8 0 4 4 0 0 1-.7 0z"/><path d="M191.1 423s-.1 0 0 0z" transform="translate(4.926 44.248) translate(-191.072 -423.018)" style="fill:url(#o)" class=""/><path d="M185.8 420.4a.9.9 0 0 0 0-.1.8.8 0 0 0 0-.1.7.7 0 0 0-.1 0v-.1h-.1l-.1-.1h-.1a.7.7 0 0 0-.1-.1 1.4 1.4 0 0 0-.6 0s-.6.9-.4 1.1-4.2 4.7-6.6 5.6l-.2-.1v-1a1 1 0 0 0 0-.1h.1l.1-.1a1.3 1.3 0 0 0 .2-.2l.1-.1h.1l.1-.2.1-.2.2-.1a1.8 1.8 0 0 0 0-.3l.1-.2.1-.2v-.2-.3a2.3 2.3 0 0 0-.5-1.4l.3-.5-.3-.2-.3-.1-.1-.1-.2-.1h-.1l-.2-.1h-.1l-.2-.2h-.1-.2l-.3-.1h-.3a3.2 3.2 0 0 0-1.6.2 3 3 0 0 1 .3-1.5h-.2a1.4 1.4 0 0 0-.1.2 1.9 1.9 0 0 1 .2-.7.8.8 0 0 0 0-1c-.5-.7-1.3-.1-1.3-.1a3.4 3.4 0 0 0-.1.6h-.1a16.8 16.8 0 0 0-.7 4.2 16.3 16.3 0 0 0-2.2 5.8v.1l3.8.1v6.1l-2.8 5.9 2.7.2-.4 3.2-.2.8h2.6c.3-.6-1.1-.8-1.1-.8l.5-3 .8.2a7.7 7.7 0 0 0 1.2 0 6.3 6.3 0 0 0 1 0 6.9 6.9 0 0 1-.1 2.7l-.2 1h2.6c.3-.6-.8-.9-1-1a14.7 14.7 0 0 0 0-3 3.6 3.6 0 0 0 1-.6l-2-5.5c.4-1.6-.8-3.2-.2-4a2 2 0 0 0 .2-2.1c1.9-.8 5.6-2.8 6.7-6.3a6.6 6.6 0 0 0 .1-.8s.6-.2.3-1z" transform="translate(2.128 43.487) translate(-170.3 -417.368)" style="fill:url(#p)" class=""/><path class="e" d="M5.4 45.3s-2 6.3 1.4 9.8l1-.7s-2-7-1-8.5c-2-.7-1.4-.6-1.4-.6z"/><path class="ad" d="M6.8 45.9s.4-.4 0-1-1.2-.1-1.2-.1-.2.9 0 1h1.2z"/><rect class="ad" width="1.9" height="2.816" rx="0.95" transform="translate(9.395 54.016) rotate(180)"/><path class="z" d="M7.6 54.8s-2-6.8-1-8.5H7c-1 1.6.9 8.5.9 8.5l-1 .7z"/><circle class="ad" cx="2.104" cy="2.104" r="2.104" transform="translate(6.307 47.977)"/><path class="z" d="M9.2 53v-.9a1 1 0 0 0 0-.2 2.1 2.1 0 0 0-1-4h.2a2.1 2.1 0 0 1 1 4 1 1 0 0 1 0 .3v.9a1 1 0 0 1-1 1 1 1 0 0 0 .8-1z"/><path class="e" d="M6.3 60.6s4 .4 4.2 0c.5-1.5-.8-3.1-.2-3.9a2 2 0 0 0 .2-1.9 2.1 2.1 0 0 0-2.1-2.1 2.1 2.1 0 0 0-2.1 2.1z"/><path class="z" d="M10.3 56.7a2 2 0 0 0 .2-1.9 2.1 2.1 0 0 0-2.1-2.1.9.9 0 0 0-.1 0 2.1 2.1 0 0 1 2 2.1 2 2 0 0 1-.2 2c-.7.7.6 2.3.1 3.8 0 .1-.4.2-1 .2.7 0 1.2 0 1.3-.2.5-1.5-.8-3.1-.2-3.9z"/><path class="ad" d="M9.6 60.4a12 12 0 0 1 1.7 8.4h-1.2a6.8 6.8 0 0 0 0-3.1 5 5 0 0 0-2-3.1L7 68.8H5.7L7 60.4z"/><path class="ad" d="M16.8 48.3s.4-.2.2-.9-1-.4-1-.4-.6.7-.4 1 1.2.3 1.2.3z"/><path class="e" d="M9.6 55.1s6.3-2 7.2-6.8l-1.2-.3s-4.7 5.2-6.6 5.2.6 2 .6 2z"/><path class="z" d="M16.5 48.3h.2c-.9 4.9-7.2 6.9-7.2 6.9.7-.3 6.2-2.4 7-6.9z"/><g class="h"><path class="d" d="M7.9 62.6l-1.3 6.2H7l1.2-6a3 3 0 0 0-.2-.2z"/><path class="d" d="M9.6 60.4h-.2a12 12 0 0 1 1.7 8.4h.2a12 12 0 0 0-1.7-8.4z"/></g><path class="z" d="M16.6 48.3s.5-.2.3-1a.7.7 0 0 0-.4-.4.7.7 0 0 1 .5.5c.2.7-.2 1-.2 1a3.7 3.7 0 0 1-.8-.2 4 4 0 0 0 .6 0z"/><path class="aa" d="M6.3 60.3l-2.6 5.4a31.7 31.7 0 0 1 4.5.6c2.8.5 4.1-.8 4.1-.8l-1.8-5.2z"/><path class="e" d="M7 68.8s1.3.3 1 .8H5.6l.1-.8z"/><path class="e" d="M11.3 68.8s1.3.3 1 .8H10l.1-.8z"/><path d="M10.3 48.4s-3.2 4.5-1.7 6.4l-5.8-.1s1.6-10.4 7.5-6.3z" style="fill:#fccc63"/><path class="z" d="M10.3 48.4a5 5 0 0 0-2.2-1 5.7 5.7 0 0 1 1.5.8S6.4 52.8 8 54.7l-5.1-.1 5.8.2c-1.5-1.9 1.7-6.4 1.7-6.4z"/><path class="z" d="M10.5 60.3h-.4l1.8 5.2a4.1 4.1 0 0 1-2.6.9 4.3 4.3 0 0 0 3-1z"/><path class="z" d="M7 68.8h-.3s1.3.3 1 .8H8c.3-.5-1-.8-1-.8z"/><path class="z" d="M11.3 68.8H11s1.3.3 1 .8h.3c.3-.5-1-.8-1-.8z"/><rect class="b" width="51.582" height="1.953" transform="translate(67.424 22.583)"/><rect class="c" width="53.603" height="66.801" transform="translate(66.397 21.96)"/><rect class="d" width="51.582" height="61.886" transform="translate(67.424 24.536)"/><circle class="e" cx="0.471" cy="0.471" r="0.471" transform="translate(68.148 23.122)"/><circle class="f" cx="0.471" cy="0.471" r="0.471" transform="translate(69.444 23.122)"/><circle class="g" cx="0.471" cy="0.471" r="0.471" transform="translate(70.741 23.122)"/><g class="h" transform="translate(70.656 27.297)"><rect class="i" width="45.253" height="1.212"/></g><rect class="c" width="19.529" height="20.741" transform="translate(70.387 32.549)"/><rect class="d" width="18.721" height="19.394" transform="translate(70.791 33.223)"/><rect class="c" width="19.529" height="20.741" transform="translate(96.38 42.92)"/><rect class="d" width="18.721" height="19.394" transform="translate(96.784 43.593)"/><rect class="c" width="45.926" height="14.276" transform="translate(70.791 68.509)"/><rect class="j" width="44.175" height="12.795" transform="translate(71.733 69.452)"/><path class="l" d="M72.8 70.7H116v-1.2H71.7v12.7h1.1z"/><path d="M701.8 354a8.3 8.3 0 1 0 2 5.5 8.3 8.3 0 0 0-2-5.5zm-3.4 10.5a5.8 5.8 0 1 1 2.8-5 5.8 5.8 0 0 1-2.8 5z" transform="translate(-615.354 -316.575)" style="fill:url(#u)"/><path class="e" d="M84.3 39.3l1.8-1.6a8 8 0 0 0-6-2.7v2.4a5.5 5.5 0 0 1 4.2 2z"/><path class="g" d="M80 48.4a5.5 5.5 0 0 1-2.2-.5l-1 2.3a8 8 0 0 0 7.3-.4L83 47.7a5.5 5.5 0 0 1-2.8.7z"/><path class="k" d="M88 43a8 8 0 0 0-1.9-5.3l-1.8 1.6a5.5 5.5 0 0 1-1.4 8.4l1.2 2a8 8 0 0 0 4-6.8z"/><path class="i" d="M74.6 43a5.5 5.5 0 0 1 5.5-5.6V35a8 8 0 0 0-3.3 15.2l1-2.3a5.5 5.5 0 0 1-3.2-5z"/><rect class="c" width="14.276" height="2.424" transform="translate(99.343 46.422)"/><rect class="i" width="14.007" height="2.155" transform="translate(99.477 46.556)"/><rect class="e" width="10.236" height="2.155" transform="translate(99.477 50.193)"/><rect class="g" width="7.003" height="2.155" transform="translate(99.477 53.829)"/><rect class="k" width="12.66" height="2.155" transform="translate(99.477 57.465)"/><rect class="b" width="20.067" height="1.212" transform="translate(70.791 56.523)"/><rect class="b" width="11.313" height="1.212" transform="translate(70.791 58.543)"/><rect class="b" width="3.906" height="1.212" transform="translate(84.124 58.543)"/><rect class="b" width="3.906" height="1.212" transform="translate(84.124 62.987)"/><rect class="b" width="11.313" height="1.212" transform="translate(70.791 62.583)"/><rect class="b" width="20.067" height="1.212" transform="translate(70.791 60.563)"/><rect class="b" width="20.067" height="1.212" transform="translate(96.11 32.684)"/><rect class="b" width="11.313" height="1.212" transform="translate(96.11 34.704)"/><rect class="b" width="3.906" height="1.212" transform="translate(109.444 34.704)"/><rect class="b" width="3.906" height="1.212" transform="translate(109.444 39.149)"/><rect class="b" width="11.313" height="1.212" transform="translate(96.11 38.745)"/><rect class="b" width="20.067" height="1.212" transform="translate(96.11 36.725)"/><circle class="c" cx="1.481" cy="1.481" r="1.481" transform="translate(100.959 91.27)"/><circle class="e" cx="1.077" cy="1.077" r="1.077" transform="translate(101.363 91.674)"/><rect class="c" width="46.33" height="16.296" transform="translate(58.669 76.321)"/><rect class="d" width="44.175" height="12.795" transform="translate(60.016 76.994)"/><rect class="c" width="6.061" height="7.407" transform="translate(61.902 79.553)"/><rect class="i" width="5.387" height="6.869" transform="translate(62.238 79.89)"/><rect class="g" width="5.387" height="2.155" transform="translate(95.976 84.805)"/><rect class="k" width="5.387" height="4.848" transform="translate(85.875 81.977)"/><rect class="e" width="5.387" height="4.04" transform="translate(74.023 82.785)"/><rect class="e" width="44.175" height="1.886" transform="translate(60.016 89.789)"/><circle class="c" cx="1.481" cy="1.481" r="1.481" transform="translate(60.42 91.27)"/><circle class="e" cx="1.077" cy="1.077" r="1.077" transform="translate(60.824 91.674)"/><rect class="e" width="1.077" height="14.141" transform="translate(58.939 77.533)"/><rect width="1.077" height="14.141" transform="translate(58.939 77.533)" style="opacity:0.2"/><path d="M501.7 627.6v-.1a.5.5 0 0 1 0-.1v-.1-.1h-.1a.9.9 0 0 0 0-.1 1.3 1.3 0 0 0-.4-.3 1 1 0 0 0 .2-.4.9.9 0 0 0 0-.1.7.7 0 0 0 0-.2v-.1-.2a.9.9 0 0 0-.1-.2 1.4 1.4 0 0 0-.5-.3s-.9.3-1 .7a35.5 35.5 0 0 1-6.7.8 2.2 2.2 0 0 0-1.2-2v-.8a1 1 0 0 0 0-.2v-.1h.1v-.1l.2-.1.2-.1.1-.2.2-.2v-.1l.2-.3v-.1l.1-.3v-.2-.2a2.2 2.2 0 0 0-.2-1.1l.2-.1-.2-.2-.2-.2-.2-.2-.2-.2-.2-.1-.2-.1-.2-.1-.2-.1-.3-.1h-.7-.1a3 3 0 0 0-2.6 3.1v1.6h2.1v.7a2.2 2.2 0 0 0-1.3 2v6.2l-1.8 8.4-.4 1.6 2.6.4h.1c.3 0-.2-.6-.4-1a1.1 1.1 0 0 1 0-.2 1 1 0 0 1 0-.2l2-6.5h-.1v-.2a6 6 0 0 1 3.2 3.3 5 5 0 0 1 0 3.2v1.3h2.8c.3 0-.3-.5-.6-.8a.8.8 0 0 1-.1-.3v-.1a9.4 9.4 0 0 0-2.8-8.9 10 10 0 0 0 .5-2.4c2.1.2 4.9 0 7-1.6a6.5 6.5 0 0 0 .5-.5c.2 0 .5 0 .7-.6a.9.9 0 0 0 0-.1.7.7 0 0 0 0-.1z" transform="translate(-441.639 -548.531)" style="fill:url(#aa)"/><path class="i" d="M49.2 81.4s6.3 2 9.8-1.3l-.8-1s-6.8 1.5-8.4.4-.6 2-.6 2z"/><path class="z" d="M58.8 80l.1.1c-3.5 3.4-9.8 1.3-9.8 1.3.7.1 6.4 1.7 9.7-1.5z"/><path class="ai" d="M58.8 80s.6.2.8-.5-.6-1-.6-1-.9.3-.9.6.7 1 .7 1z"/><path class="z" d="M58.8 80s.5 0 .7-.6a.7.7 0 0 0 0-.6.7.7 0 0 1 0 .7c-.1.7-.7.6-.7.6a3.7 3.7 0 0 1-.5-.6 4 4 0 0 0 .5.5z"/><path class="i" d="M52.1 92.6h2a.6.6 0 0 0 .1.4c.2.3.8.7.5.8h-2.6z"/><path class="z" d="M54 93a.6.6 0 0 1-.1-.4h.1a.6.6 0 0 0 .2.4c.2.3.8.7.5.8h-.1c.2-.1-.3-.5-.5-.8z"/><path class="i" d="M45.5 92.2l1.7.3a.9.9 0 0 0 .1.6c.2.4.6.9.4 1l-2.6-.4z"/><path class="z" d="M47.2 93a.9.9 0 0 1-.1-.5l-1.6-.3 1.7.3a.9.9 0 0 0 .1.6c.2.4.6.9.4 1h-.1c.2-.2-.2-.6-.4-1z"/><rect class="ai" width="1.9" height="2.816" rx="0.95" transform="translate(50.338 77.72) rotate(180)"/><circle class="ai" cx="2.104" cy="2.104" r="2.104" transform="translate(47.25 71.681)"/><path class="z" d="M50.1 76.8v-1a1 1 0 0 0 0-.1 2.1 2.1 0 0 0-.9-4h.2a2.1 2.1 0 0 1 1 4 1 1 0 0 1 0 .2v.9a1 1 0 0 1-1.1 1 1 1 0 0 0 .8-1z"/><path class="i" d="M47.2 84.3s4 .4 4.2 0a9 9 0 0 0 0-5.8 2.1 2.1 0 0 0-2-2.1 2.1 2.1 0 0 0-2.2 2.1z"/><path class="aa" d="M47.2 84.3l-1.8 8.4h1.8l2-6.3a5.7 5.7 0 0 1 2.9 3.1 4.5 4.5 0 0 1 0 3.2h2v-.1a8.8 8.8 0 0 0-2.7-8.3"/><path class="z" d="M51.2 84.3a9 9 0 0 0 0-5.8 2.1 2.1 0 0 0-2-2.1h.2a2.1 2.1 0 0 1 2 2.1 9 9 0 0 1 0 5.8l-1.2.2c.5 0 1 0 1-.2z"/><g class="h"><path class="d" d="M49 86.6l-1.8 6.1H47l2-6.2h.2z"/><path class="d" d="M51.2 84.3h.2a8.8 8.8 0 0 1 2.7 8.3v.1h-.3a8.8 8.8 0 0 0-2.6-8.4z"/></g><path class="i" d="M48.9 80s6.3 2 9.8-1.3l-.7-1s-6.8 1.6-8.4.4-.7 2-.7 2z"/><path class="z" d="M58.5 78.6l.1.2C55.1 82 48.8 80 48.8 80V80c.7.2 6.5 1.7 9.7-1.4z"/><path class="ai" d="M58.6 78.7s.5.1.7-.6-.6-1-.6-1-.8.4-.8.7.7 1 .7 1z"/><path class="z" d="M58.5 78.6s.5.1.7-.6a.7.7 0 0 0 0-.6.7.7 0 0 1 .1.7c-.2.7-.7.6-.7.6a3.7 3.7 0 0 1-.6-.6 4 4 0 0 0 .5.5z"/><path class="aa" d="M49.5 73l-.1 3h-3v-1.6c0-3 3.2-4.1 5-1.7a16.8 16.8 0 0 1-1.9.4z"/><path class="z" d="M48.8 71.4a3 3 0 0 1 2.2 1.3 18.4 18.4 0 0 1-1.9.4l-.1 2.8h.4l.1-2.8a18.4 18.4 0 0 0 1.9-.4 2.9 2.9 0 0 0-2.6-1.3z"/></svg>