<svg xmlns="http://www.w3.org/2000/svg" xmlns:xlink="http://www.w3.org/1999/xlink" viewBox="0 0 120 101.759"><defs><style>.a{fill:url(#a);}.b,.t{fill:#fff;}.c{fill:#f5f5f5;}.d{fill:#e0e0e0;}.e{fill:#69f0ae;}.e,.f,.i{opacity:0.4;}.f{fill:#ff0;}.g,.h,.i{fill:#4651af;}.h{opacity:0.6;}.j,.k,.l,.m,.w{fill:none;stroke:#4651af;stroke-miterlimit:10;}.k{stroke-dasharray:12.71 12.71;}.l{stroke-dasharray:11.33 11.33;}.m{stroke-dasharray:12;}.n,.s,.t{opacity:0.2;}.o{fill:url(#c);}.p{fill:url(#d);}.q{fill:#f8c198;}.r{fill:#263238;}.u{fill:#ff5252;}.v{fill:#fccc63;}.w{stroke-width:3px;opacity:0.5;}</style><linearGradient id="a" x1="0.5" y1="1" x2="0.5" gradientUnits="objectBoundingBox"><stop offset="0" stop-color="gray" stop-opacity="0.251"/><stop offset="0.54" stop-color="gray" stop-opacity="0.122"/><stop offset="1" stop-color="gray" stop-opacity="0.102"/></linearGradient><linearGradient id="c" xlink:href="#a"/><linearGradient id="d" x1="0" y1="0.5" x2="1" y2="0.5" xlink:href="#a"/></defs><rect class="a" width="52.854" height="71.38"/><rect class="b" width="48.767" height="68.928" transform="translate(3.133 1.09)"/><rect class="c" width="2.316" height="68.928" transform="translate(0.817 1.09)"/><rect class="d" width="32.693" height="0.817" transform="translate(11.17 52.173)"/><rect class="e" width="32.693" height="0.817" transform="translate(11.17 55.306)"/><rect class="f" width="32.693" height="0.817" transform="translate(11.17 58.439)"/><rect class="d" width="32.693" height="0.817" transform="translate(11.17 61.572)"/><rect class="d" width="32.693" height="0.817" transform="translate(11.17 64.705)"/><path class="g" d="M256.479,136.394c.014-.151.022-.3.022-.458a5.085,5.085,0,0,0-.2-1.4l-.593.028-.272-.747.383-.418a5.138,5.138,0,0,0-1.212-1.422l-.467.362-.651-.455.075-.563a5.063,5.063,0,0,0-1.808-.47l-.176.565h-.794l-.262-.5a5.085,5.085,0,0,0-2.47,1.176l.272.523-.561.561-.545-.17a5.08,5.08,0,0,0-.781,1.7l.529.272-.136.782-.545.17v.012a5.074,5.074,0,0,0,.339,1.825l.588-.08.335.719-.345.45a5.144,5.144,0,0,0,1.33,1.313l.435-.409.688.4-.025.569a5.078,5.078,0,0,0,1.757.312h.086l.125-.579.791-.069.305.48a5.084,5.084,0,0,0,1.686-.8l-.229-.545.609-.511.523.217a5.1,5.1,0,0,0,.925-1.624l-.5-.316.206-.767Zm-5.081,3.362a3.814,3.814,0,1,1,3.814-3.814A3.814,3.814,0,0,1,251.4,139.756Z" transform="translate(-234.473 -124.196)"/><path class="h" d="M302.479,205.394c.014-.151.022-.3.022-.458a5.083,5.083,0,0,0-.2-1.4l-.593.028-.272-.746.383-.418a5.138,5.138,0,0,0-1.212-1.422l-.467.362-.651-.455.075-.563a5.063,5.063,0,0,0-1.808-.47l-.176.565h-.794l-.262-.5a5.085,5.085,0,0,0-2.47,1.176l.272.523-.561.561-.545-.17a5.08,5.08,0,0,0-.781,1.7l.529.272-.136.782-.545.17v.012a5.074,5.074,0,0,0,.339,1.825l.588-.08.335.719-.345.45a5.144,5.144,0,0,0,1.33,1.313l.435-.409.688.4-.025.569a5.078,5.078,0,0,0,1.757.312h.086l.125-.579.791-.069.305.479a5.084,5.084,0,0,0,1.686-.8l-.229-.545.609-.511.523.217a5.1,5.1,0,0,0,.925-1.624l-.5-.316.206-.767Zm-5.081,3.362a3.814,3.814,0,1,1,3.814-3.814A3.814,3.814,0,0,1,297.4,208.756Z" transform="translate(-274.207 -183.796)"/><path class="i" d="M349.479,136.394c.014-.151.022-.3.022-.458a5.085,5.085,0,0,0-.2-1.4l-.593.028-.272-.747.383-.418a5.139,5.139,0,0,0-1.212-1.422l-.467.362-.651-.455.075-.563a5.064,5.064,0,0,0-1.808-.47l-.176.565h-.794l-.262-.5a5.085,5.085,0,0,0-2.47,1.176l.272.523-.561.561-.545-.17a5.08,5.08,0,0,0-.781,1.7l.529.272-.136.782-.545.17v.012a5.074,5.074,0,0,0,.339,1.825l.588-.08.335.719-.345.45a5.144,5.144,0,0,0,1.33,1.313l.435-.409.688.4-.025.569a5.078,5.078,0,0,0,1.757.312h.086l.125-.579.791-.069.305.48a5.083,5.083,0,0,0,1.686-.8l-.229-.545.609-.511.523.217a5.1,5.1,0,0,0,.925-1.624l-.5-.316.206-.767Zm-5.081,3.362a3.814,3.814,0,1,1,3.814-3.814A3.814,3.814,0,0,1,344.4,139.756Z" transform="translate(-314.804 -124.196)"/><path class="g" d="M406.479,205.394c.014-.151.022-.3.022-.458a5.085,5.085,0,0,0-.2-1.4l-.593.028-.272-.746.383-.418a5.138,5.138,0,0,0-1.212-1.422l-.467.362-.651-.455.075-.563a5.063,5.063,0,0,0-1.808-.47l-.176.565h-.794l-.262-.5a5.085,5.085,0,0,0-2.47,1.176l.272.523-.561.561-.545-.17a5.08,5.08,0,0,0-.781,1.7l.529.272-.136.782-.545.17v.012a5.074,5.074,0,0,0,.339,1.825l.588-.08.335.719-.345.45a5.144,5.144,0,0,0,1.33,1.313l.435-.409.688.4-.025.569a5.078,5.078,0,0,0,1.757.312h.086l.125-.579.791-.069.305.479a5.084,5.084,0,0,0,1.686-.8l-.229-.545.609-.511.523.217a5.1,5.1,0,0,0,.925-1.624l-.5-.316.206-.767Zm-5.081,3.362a3.814,3.814,0,1,1,3.814-3.814A3.814,3.814,0,0,1,401.4,208.756Z" transform="translate(-364.04 -183.796)"/><line class="j" x1="0.817" transform="translate(21.148 2.997)"/><line class="k" x1="9.526" transform="translate(9.891 2.997)"/><path class="j" d="M61.067,22H60.25v.817" transform="translate(-52.043 -19.003)"/><line class="l" y2="11.579" transform="translate(8.207 5.358)"/><line class="j" y2="0.817" transform="translate(8.207 17.709)"/><path class="m" d="M207.75,119.71h18.526V103.5" transform="translate(-179.45 -89.401)"/><rect class="a" width="41.82" height="10.898" transform="translate(14.031 35.554)"/><rect class="g" width="40.866" height="9.672" transform="translate(14.439 36.235)"/><rect class="g" width="11.987" height="0.545" transform="translate(25.337 38.551)"/><rect class="n" width="11.987" height="0.545" transform="translate(25.337 39.777)"/><rect class="b" width="23.43" height="0.545" transform="translate(25.337 41.82)"/><circle class="g" cx="2.588" cy="2.588" r="2.588" transform="translate(16.483 38.414)"/><circle class="n" cx="2.588" cy="2.588" r="2.588" transform="translate(16.483 38.414)"/><path class="o" d="M646.3,431.741a.182.182,0,0,0,.025-.21c-.586-1.173-1.173-.879-2.906-4.231-1.844-3.565-1.385-4.76-2.076-5.441-.272-.272-.553-1.182-.924-1.342l-.24-.962a1.236,1.236,0,0,0,.636-.1,2.583,2.583,0,0,0,.929-.817,6.205,6.205,0,0,0,.954-1.613,4.408,4.408,0,0,0,.272-1.325h0a4.531,4.531,0,0,0-.012-.681,2.737,2.737,0,0,0,1.178-.5,2.044,2.044,0,0,0,.746-1.342h0c0-.053.012-.1.015-.158a1.65,1.65,0,0,0,0-.188,2.043,2.043,0,0,0-.94-1.6,2.666,2.666,0,0,0-1.635-.339,7.112,7.112,0,0,0-1.655.407,5.288,5.288,0,0,0-.511.177,3.783,3.783,0,0,0-1.193-.195,7.583,7.583,0,0,0-1.949.346l-2.151.576a3.015,3.015,0,0,0-1.33.609,1.135,1.135,0,0,0-.089.1l-.016.02a1.2,1.2,0,0,0-.078.11h0a.945.945,0,0,0,0,1.1,1.31,1.31,0,0,0,.462.319,5.148,5.148,0,0,0,.65.248,3.542,3.542,0,0,0-.612,1.994v.242a3.554,3.554,0,0,0,3.554,3.554h.059l.1.834a7.356,7.356,0,0,0-1.214,1.7,1.892,1.892,0,0,0-.6,1.466,16.63,16.63,0,0,0,.311,2.316l-5.052-2.147-3.155,6.795,2.427.895a1.733,1.733,0,0,0-1.761,1.734,1.678,1.678,0,0,0,.5,1.255c.879.879,1.945,10.03,1.945,10.03h.444v.96c-1.8.109-3.625.331-3.625.782a1.467,1.467,0,0,0,.575,1.118c-.026-.031-.052-.065-.076-.1a1.942,1.942,0,0,0,.46.35h9.774v-2.019h.016v-.244s-.354,0-.9.01v-.864h.444c.4-3.572-1.332-8.206-1.707-9.154.609,0,1.249-.008,1.884-.044,2.7.121,7.331.091,8.265-1.464C647.557,432.993,646.728,432.073,646.3,431.741Zm-13.544,4.3s.2.02.545.046a23.464,23.464,0,0,1,.83,4.437A29.476,29.476,0,0,0,632.754,436.046Zm3.9-15.862a3.566,3.566,0,0,0,.756.082h.027l.022.178a3.526,3.526,0,0,1-.805-.262Zm-1.678,26.08H634.9v-.035s-.317,0-.817.008v-.862h.888Z" transform="translate(-564.005 -366.082)"/><path class="p" d="M523.184,512,521,533.8l2.592.136L526.858,512Z" transform="translate(-450.029 -442.255)"/><path class="g" d="M527.635,512,526,533.523h1.635L529.95,512Z" transform="translate(-454.348 -442.255)"/><path class="a" d="M849.543,506l2.147,21.932h-2.555L847.08,506Z" transform="translate(-731.69 -437.072)"/><path class="g" d="M850.316,507l1.635,21.523h-1.635L848,507Z" transform="translate(-732.484 -437.936)"/><path class="a" d="M571.03,505,569,526.932h2.711L573.9,505Z" transform="translate(-491.49 -436.208)"/><path class="g" d="M574.635,505,573,526.523h1.635L576.95,505Z" transform="translate(-494.945 -436.208)"/><path class="a" d="M802.955,507l2.086,22.477h-2.494L800,507Z" transform="translate(-691.023 -437.936)"/><path class="g" d="M806.316,512l1.635,21.523h-1.635L804,512Z" transform="translate(-694.478 -442.255)"/><rect class="a" width="48.903" height="2.316" transform="translate(69.881 68.519)"/><rect class="g" width="39.232" height="2.043" transform="translate(70.29 68.519)"/><rect class="g" width="8.991" height="2.043" transform="translate(109.522 68.519)"/><rect class="n" width="8.991" height="2.043" transform="translate(109.585 68.519)"/><rect class="a" width="18.39" height="11.579" transform="translate(85.683 55.442)"/><rect class="b" width="17.164" height="10.761" transform="translate(86.092 55.851)"/><rect class="a" width="5.585" height="2.861" transform="translate(92.086 65.659)"/><rect class="b" width="4.768" height="2.861" transform="translate(92.29 65.659)"/><rect class="c" width="0.545" height="10.761" transform="translate(103.256 55.851)"/><rect class="c" width="0.409" height="2.861" transform="translate(96.99 65.659)"/><rect class="a" width="1.362" height="1.362" transform="translate(93.993 59.665)"/><rect class="c" width="1.09" height="1.09" transform="translate(94.129 59.801)"/><path class="g" d="M481.476,430.1l8.907,3.786-3,5.7-8.805-3.245Z" transform="translate(-413.387 -371.511)"/><rect class="q" width="2.447" height="2.038" transform="translate(68.454 76.777)"/><rect class="q" width="2.447" height="2.038" transform="translate(71.716 76.777)"/><circle class="q" cx="3.261" cy="3.261" r="3.261" transform="translate(70.689 48.026)"/><path class="q" d="M544.631,390.241h-2.854l-.407-3.261h2.447Z" transform="translate(-467.624 -334.265)"/><path class="r" d="M655.477,558.83s1.635.817.409,2.861-9.378,1.226-9.378,1.226,2.043,4.892,1.635,8.562h-3.267s-.978-8.4-1.78-9.219c-1.039-1.039-.253-3.027,1.786-2.62S655.477,558.83,655.477,558.83Z" transform="translate(-576.829 -493.876)"/><g class="s" transform="translate(65.805 64.881)"><path class="b" d="M675.95,588.22s1.433.136,3.186.159c-1.272.014-2.452-.052-3.163-.1Z" transform="translate(-671.409 -584.143)"/><path class="b" d="M670.71,559.184c3.184-.061,9.015-.894,9.015-.894a1.233,1.233,0,0,1,.123.075A79.578,79.578,0,0,1,670.71,559.184Z" transform="translate(-666.883 -558.29)"/><path class="b" d="M644.676,563.9a1.557,1.557,0,0,0-.937,2.649c.806.806,1.786,9.2,1.786,9.2h-.667s-.979-8.4-1.782-9.2A1.6,1.6,0,0,1,644.676,563.9Z" transform="translate(-642.614 -563.113)"/></g><path class="r" d="M644.634,657.59s-6.524,0-6.524.817a1.512,1.512,0,0,0,.817,1.226h5.706Z" transform="translate(-572.919 -579.182)"/><path class="t" d="M644.174,657.36v.223c-1.136.008-6.3.089-6.3.817a1.244,1.244,0,0,0,.305.8,1.347,1.347,0,0,1-.529-1.026C637.65,657.36,644.174,657.36,644.174,657.36Z" transform="translate(-572.521 -578.984)"/><path class="r" d="M679.584,558.83s1.635.817.409,2.861-9.377,1.226-9.377,1.226,2.043,4.892,1.635,8.562h-3.268s-.409-8.562-1.635-9.377-.409-2.861,1.635-2.452S679.584,558.83,679.584,558.83Z" transform="translate(-597.676 -493.876)"/><path class="r" d="M668.634,657.59s-6.524,0-6.524.817a1.512,1.512,0,0,0,.817,1.226h5.706Z" transform="translate(-593.649 -579.182)"/><path class="u" d="M700.5,484h.992c.391,0,.67.981.954,1.256.635.625.213,1.72,1.907,4.992,1.591,3.076,2.129,2.808,2.667,3.882s-9.6,1.026-9.6,1.026a14.018,14.018,0,0,0,.409-3.57c-.223-3.1-1.03-4.179.046-5.255C697.871,486.331,699.025,484,700.5,484Z" transform="translate(-624.07 -429.239)"/><path class="b" d="M493,441.54l-1.336,2.9.891.445,1.336-2.9Z" transform="translate(-424.686 -381.393)"/><path class="t" d="M681.727,436.191a3.3,3.3,0,0,1,.334.016,3.261,3.261,0,0,0,0,6.49,3.3,3.3,0,0,1-.334.016,3.262,3.262,0,1,1,0-6.524Z" transform="translate(-607.776 -387.942)"/><path class="v" d="M674.2,421.1a2.713,2.713,0,0,1,1.226-.559l1.974-.529a7.058,7.058,0,0,1,1.789-.317,3.47,3.47,0,0,1,1.09.178c.163-.071.347-.123.469-.162a6.526,6.526,0,0,1,1.513-.365,2.452,2.452,0,0,1,1.5.312,1.846,1.846,0,0,1,.162,3.013,2.511,2.511,0,0,1-1.08.456,4.1,4.1,0,0,1-.234,1.835,5.7,5.7,0,0,1-.87,1.481,2.36,2.36,0,0,1-.853.751.975.975,0,0,1-1.071-.136,1.384,1.384,0,0,1-.317-.772c-.206-1.1-.409-2.366-1.362-2.953A3.454,3.454,0,0,0,676.2,423a4.025,4.025,0,0,1-1.731-.4,1.2,1.2,0,0,1-.433-.292A.92.92,0,0,1,674.2,421.1Z" transform="translate(-603.807 -373.376)"/><g class="s" transform="translate(70.073 45.951)"><path class="b" d="M683.831,420.1a2.452,2.452,0,0,0-1.5-.312,6.527,6.527,0,0,0-1.513.365c-.121.041-.305.091-.469.162a3.471,3.471,0,0,0-1.09-.178,6.94,6.94,0,0,0-1.789.317l-1.974.529a2.767,2.767,0,0,0-1.226.559,1.106,1.106,0,0,0-.3.526,1.027,1.027,0,0,1,.3-.971,2.713,2.713,0,0,1,1.226-.559l1.974-.529a7.058,7.058,0,0,1,1.789-.317,3.47,3.47,0,0,1,1.09.178c.163-.071.347-.123.469-.162a6.525,6.525,0,0,1,1.513-.365,2.452,2.452,0,0,1,1.5.312,1.878,1.878,0,0,1,.862,1.464,1.769,1.769,0,0,1-.015.317A1.879,1.879,0,0,0,683.831,420.1Z" transform="translate(-673.949 -419.327)"/><path class="b" d="M739.8,450.44v.178a.834.834,0,0,0-.012-.174Z" transform="translate(-730.821 -446.202)"/></g><path class="t" d="M697.828,491.9c-.223-3.1-1.03-4.179.046-5.255,0,0,1.152-2.331,2.632-2.331h.992a.453.453,0,0,1,.327.222h-.65c-1.479,0-2.632,2.331-2.632,2.331-1.076,1.076-.272,2.151-.046,5.255a13.217,13.217,0,0,1-.356,3.347h-.721A14.108,14.108,0,0,0,697.828,491.9Z" transform="translate(-624.07 -429.507)"/><rect class="u" width="3.564" height="2.449" transform="translate(77.665 60.371) rotate(180)"/><g class="s" transform="translate(69.101 64.881)"><path class="b" d="M694.66,559.184c3.183-.061,9.015-.894,9.015-.894a1.24,1.24,0,0,1,.123.075A79.606,79.606,0,0,1,694.66,559.184Z" transform="translate(-690.866 -558.29)"/><path class="b" d="M668.846,563.908a1.373,1.373,0,0,0-.79,2.475c1.226.817,1.635,9.378,1.635,9.378h-.674s-.409-8.562-1.635-9.378C666.2,565.591,666.935,563.646,668.846,563.908Z" transform="translate(-666.811 -563.122)"/><path class="b" d="M699.89,588.22s1.433.136,3.186.159c-1.272.014-2.452-.052-3.163-.1Z" transform="translate(-695.384 -584.143)"/></g><path class="q" d="M673.267,519.92v3.9a2.49,2.49,0,0,1-2.588,2.49c-1.723-.067-3.711-.093-3.938.136-.189.189-.64.553-1.071.888a.632.632,0,0,1-1.018-.559c.055-.655.26-1.353.864-1.553a10.681,10.681,0,0,1,2.231-.319,2.861,2.861,0,0,0,2.66-2.861V519.92Z" transform="translate(-595.843 -460.266)"/><path class="t" d="M664.685,526.773c.055-.655.26-1.353.864-1.553a10.685,10.685,0,0,1,2.231-.319,2.861,2.861,0,0,0,2.66-2.861V519.92H673.3v.222h-2.414v2.121a2.861,2.861,0,0,1-2.66,2.861,10.614,10.614,0,0,0-2.231.319c-.6.2-.811.9-.864,1.553a.629.629,0,0,0,.151.469.636.636,0,0,1-.6-.691Z" transform="translate(-595.871 -460.266)"/><path class="t" d="M668.694,657.36v.223c-1.136.008-6.3.089-6.3.817a1.244,1.244,0,0,0,.305.8,1.347,1.347,0,0,1-.529-1.026C662.17,657.36,668.694,657.36,668.694,657.36Z" transform="translate(-593.701 -578.984)"/><path class="w" d="M233,460.991v29.7h52.445V452h1.5" transform="translate(-201.26 -390.428)"/></svg>