<svg xmlns="http://www.w3.org/2000/svg" xmlns:xlink="http://www.w3.org/1999/xlink" viewBox="0 0 120 101.759"><defs><style>.a{fill:url(#a)}.b,.t{fill:#fff}.c{fill:#f5f5f5}.d{fill:#e0e0e0}.g{fill:#4651af}.j{fill:none;stroke:#4651af;stroke-miterlimit:10}.n,.s,.t{opacity:0.2}.q{fill:#f8c198}.r{fill:#263238}.u{fill:#ff5252}</style><linearGradient id="a" x1="0.5" y1="1" x2="0.5" gradientUnits="objectBoundingBox"><stop offset="0" stop-color="gray" stop-opacity="0.251"/><stop offset="0.54" stop-color="gray" stop-opacity="0.122"/><stop offset="1" stop-color="gray" stop-opacity="0.102"/></linearGradient><linearGradient id="c" xlink:href="#a"/><linearGradient id="d" x1="0" y1="0.5" x2="1" y2="0.5" xlink:href="#a"/></defs><rect class="a" width="52.854" height="71.38"/><rect class="b" width="48.767" height="68.928" transform="translate(3.133 1.09)"/><rect class="c" width="2.316" height="68.928" transform="translate(0.817 1.09)"/><rect class="d" width="32.693" height="0.817" transform="translate(11.17 52.173)"/><rect width="32.693" height="0.817" transform="translate(11.17 55.306)" style="opacity:0.4;fill:#69f0ae"/><rect width="32.693" height="0.817" transform="translate(11.17 58.439)" style="fill:#ff0;opacity:0.4"/><rect class="d" width="32.693" height="0.817" transform="translate(11.17 61.572)"/><rect class="d" width="32.693" height="0.817" transform="translate(11.17 64.705)"/><path class="g" d="M22 12.2v-.5a5 5 0 0 0-.2-1.4h-.6l-.2-.7.3-.4a5.1 5.1 0 0 0-1.2-1.4l-.4.3-.7-.4V7a5 5 0 0 0-1.7-.4l-.2.5h-.8l-.2-.5A5 5 0 0 0 13.6 8l.3.5-.6.6-.6-.2a5 5 0 0 0-.7 1.7l.5.3-.1.8-.6.1a5 5 0 0 0 .4 1.9l.5-.1.4.7-.4.5a5.1 5.1 0 0 0 1.4 1.3l.4-.4.7.4v.5a5 5 0 0 0 1.7.3h.1l.1-.5.8-.1.3.5a5 5 0 0 0 1.7-.8l-.2-.6.6-.5.5.2a5.1 5.1 0 0 0 1-1.6l-.6-.3.2-.8zm-5 3.4a3.8 3.8 0 1 1 3.7-3.9 3.8 3.8 0 0 1-3.8 3.9z"/><path d="M28.3 21.6v-.5a5 5 0 0 0-.2-1.4h-.6l-.3-.7.4-.4a5.1 5.1 0 0 0-1.2-1.4l-.5.3-.6-.4v-.6a5 5 0 0 0-1.8-.4l-.1.5h-.8l-.3-.5a5 5 0 0 0-2.5 1.2l.3.5-.5.6-.6-.2a5 5 0 0 0-.8 1.7l.6.3-.2.8-.5.1a5 5 0 0 0 .3 1.9l.6-.1.3.7-.3.5a5.1 5.1 0 0 0 1.3 1.3l.5-.4.6.4v.5a5 5 0 0 0 1.8.3l.2-.5.8-.1.3.5a5 5 0 0 0 1.7-.8l-.3-.6.7-.5.5.2a5.1 5.1 0 0 0 .9-1.6l-.5-.3.2-.8zM23.2 25A3.8 3.8 0 1 1 27 21a3.8 3.8 0 0 1-3.8 3.9z" style="opacity:0.6;fill:#4651af"/><path d="M34.7 12.2v-.5a5 5 0 0 0-.2-1.4h-.6l-.3-.7.4-.4a5.1 5.1 0 0 0-1.2-1.4l-.5.3-.6-.4V7a5 5 0 0 0-1.7-.4l-.2.5H29l-.3-.5A5 5 0 0 0 26.3 8l.2.5-.5.6-.6-.2a5 5 0 0 0-.8 1.7l.6.3-.2.8-.5.1a5 5 0 0 0 .3 1.9l.6-.1.3.7-.3.5a5.1 5.1 0 0 0 1.3 1.3l.5-.4.7.4v.5a5 5 0 0 0 1.7.3l.2-.5.8-.1.3.5a5 5 0 0 0 1.7-.8l-.3-.6.7-.5.5.2a5.1 5.1 0 0 0 1-1.6l-.6-.3.2-.8zm-5.1 3.4a3.8 3.8 0 1 1 3.8-3.9 3.8 3.8 0 0 1-3.8 3.9z" style="fill:#4651af;opacity:0.4"/><path class="g" d="M42.4 21.6v-.5a5 5 0 0 0-.1-1.4h-.6l-.3-.7.4-.4a5.1 5.1 0 0 0-1.2-1.4l-.5.3-.7-.4.1-.6a5 5 0 0 0-1.8-.4l-.2.5h-.8l-.2-.5a5 5 0 0 0-2.5 1.2l.3.5-.6.6-.5-.2a5 5 0 0 0-.8 1.7l.5.3-.1.8-.6.1a5 5 0 0 0 .4 1.9l.6-.1.3.7-.3.5a5.1 5.1 0 0 0 1.3 1.3l.4-.4.7.4v.5a5 5 0 0 0 1.7.3h.1l.2-.5.8-.1.3.5a5 5 0 0 0 1.6-.8l-.2-.6.6-.5.5.2a5.1 5.1 0 0 0 1-1.6l-.5-.3.2-.8zm-5 3.4a3.8 3.8 0 1 1 3.8-3.9 3.8 3.8 0 0 1-3.8 3.9z"/><line class="j" x1="0.817" transform="translate(21.148 2.997)"/><line x1="9.526" transform="translate(9.891 2.997)" style="stroke-dasharray:12.71 12.71;fill:none;stroke:#4651af;stroke-miterlimit:10"/><path class="j" d="M9 3h-.8v.8"/><line y2="11.579" transform="translate(8.207 5.358)" style="stroke-dasharray:11.33 11.33;fill:none;stroke:#4651af;stroke-miterlimit:10"/><line class="j" y2="0.817" transform="translate(8.207 17.709)"/><path d="M28.3 30.3h18.5V14.1" style="stroke-dasharray:12;fill:none;stroke:#4651af;stroke-miterlimit:10"/><rect class="a" width="41.82" height="10.898" transform="translate(14.031 35.554)"/><rect class="g" width="40.866" height="9.672" transform="translate(14.439 36.235)"/><rect class="g" width="11.987" height="0.545" transform="translate(25.337 38.551)"/><rect class="n" width="11.987" height="0.545" transform="translate(25.337 39.777)"/><rect class="b" width="23.43" height="0.545" transform="translate(25.337 41.82)"/><circle class="g" cx="2.588" cy="2.588" r="2.588" transform="translate(16.483 38.414)"/><circle class="n" cx="2.588" cy="2.588" r="2.588" transform="translate(16.483 38.414)"/><path d="M646.3 431.7a.2.2 0 0 0 0-.2c-.6-1.1-1.1-.8-2.9-4.2-1.8-3.6-1.4-4.8-2-5.4-.3-.3-.6-1.2-1-1.4l-.2-1a1.2 1.2 0 0 0 .6 0 2.6 2.6 0 0 0 1-.9 6.2 6.2 0 0 0 .9-1.6 4.4 4.4 0 0 0 .3-1.3 4.5 4.5 0 0 0 0-.7 2.7 2.7 0 0 0 1.1-.5 2 2 0 0 0 .8-1.3v-.2a1.6 1.6 0 0 0 0-.2 2 2 0 0 0-1-1.6 2.7 2.7 0 0 0-1.6-.3 7.1 7.1 0 0 0-1.6.4 5.3 5.3 0 0 0-.5.2 3.8 3.8 0 0 0-1.2-.2 7.6 7.6 0 0 0-2 .3l-2.1.6a3 3 0 0 0-1.4.6 1.1 1.1 0 0 0 0 .1 1.2 1.2 0 0 0-.2.1 1 1 0 0 0 0 1.1 1.3 1.3 0 0 0 .5.4 5.1 5.1 0 0 0 .7.2 3.5 3.5 0 0 0-.7 2v.2a3.6 3.6 0 0 0 3.6 3.6l.2.8a7.4 7.4 0 0 0-1.3 1.7 1.9 1.9 0 0 0-.6 1.5 16.6 16.6 0 0 0 .4 2.3l-5-2.1-3.2 6.8 2.4.9a1.7 1.7 0 0 0-1.8 1.7 1.7 1.7 0 0 0 .5 1.2c.9 1 2 10 2 10h.4v1c-1.8.1-3.6.4-3.6.8a1.5 1.5 0 0 0 .6 1.1h-.1a2 2 0 0 0 .4.3h9.8v-2.3h-.9v-.8h.5c.4-3.6-1.4-8.2-1.7-9.2h1.9c2.7 0 7.3 0 8.2-1.5 1-1.7.2-2.6-.2-3zm-13.5 4.3h.5a23.5 23.5 0 0 1 .8 4.5 29.5 29.5 0 0 0-1.3-4.5zm3.9-15.8a3.6 3.6 0 0 0 .7 0v.2a3.5 3.5 0 0 1-.7-.2zm-1.7 26h-.9v-.8h.9z" transform="translate(-564.005 -366.082)" style="fill:url(#c)"/><path d="M523.2 512l-2.2 21.8 2.6.1 3.3-21.9z" transform="translate(-450.029 -442.255)" style="fill:url(#d)"/><path class="g" d="M73.3 69.7l-1.6 21.6h1.6l2.3-21.6z"/><path class="a" d="M117.9 69l2.1 21.9h-2.6l-2-22z"/><path class="g" d="M117.8 69l1.7 21.6h-1.7L115.5 69z"/><path class="a" d="M79.5 68.8l-2 22h2.7l2.2-22z"/><path class="g" d="M79.7 68.8L78 90.3h1.6L82 68.8z"/><path class="a" d="M112 69l2 22.5h-2.5L109 69.1z"/><path class="g" d="M111.8 69.7l1.7 21.6h-1.7l-2.3-21.6z"/><rect class="a" width="48.903" height="2.316" transform="translate(69.881 68.519)"/><rect class="g" width="39.232" height="2.043" transform="translate(70.29 68.519)"/><rect class="g" width="8.991" height="2.043" transform="translate(109.522 68.519)"/><rect class="n" width="8.991" height="2.043" transform="translate(109.585 68.519)"/><rect class="a" width="18.39" height="11.579" transform="translate(85.683 55.442)"/><rect class="b" width="17.164" height="10.761" transform="translate(86.092 55.851)"/><rect class="a" width="5.585" height="2.861" transform="translate(92.086 65.659)"/><rect class="b" width="4.768" height="2.861" transform="translate(92.29 65.659)"/><rect class="c" width="0.545" height="10.761" transform="translate(103.256 55.851)"/><rect class="c" width="0.409" height="2.861" transform="translate(96.99 65.659)"/><rect class="a" width="1.362" height="1.362" transform="translate(93.993 59.665)"/><rect class="c" width="1.09" height="1.09" transform="translate(94.129 59.801)"/><path class="g" d="M68 58.6l9 3.8-3 5.7-8.8-3.3z"/><rect class="q" width="2.447" height="2.038" transform="translate(68.454 76.777)"/><rect class="q" width="2.447" height="2.038" transform="translate(71.716 76.777)"/><circle class="q" cx="3.261" cy="3.261" r="3.261" transform="translate(70.689 48.026)"/><path class="q" d="M77 56h-2.8l-.5-3.3h2.5z"/><path class="r" d="M78.6 65s1.7.8.5 2.8-9.4 1.2-9.4 1.2 2 5 1.6 8.6H68s-1-8.4-1.7-9.2c-1-1-.3-3 1.8-2.6s10.5-.8 10.5-.8z"/><g class="s"><path class="b" d="M70.3 69z"/><path class="b" d="M69.6 65.8c3.2 0 9-1 9-1a1.2 1.2 0 0 1 .2.2 79.6 79.6 0 0 1-9.2.8z"/><path class="b" d="M67.9 65.7a1.6 1.6 0 0 0-1 2.6c.8.8 1.8 9.2 1.8 9.2H68s-1-8.4-1.7-9.2a1.6 1.6 0 0 1 1.6-2.6z"/></g><path class="r" d="M71.7 78.4s-6.5 0-6.5.8a1.5 1.5 0 0 0 .8 1.3h5.7z"/><path class="t" d="M71.7 78.4v.2c-1.2 0-6.3 0-6.3.8a1.2 1.2 0 0 0 .3.8 1.3 1.3 0 0 1-.6-1c0-.8 6.6-.8 6.6-.8z"/><path class="r" d="M82 65s1.5.8.3 2.8S73 69 73 69s2 5 1.7 8.6h-3.3s-.4-8.6-1.6-9.4-.4-2.8 1.6-2.4S82 65 82 65z"/><path class="r" d="M75 78.4s-6.5 0-6.5.8a1.5 1.5 0 0 0 .8 1.3H75z"/><path class="u" d="M76.4 54.8h1c.4 0 .7 1 1 1.2.6.6.2 1.7 1.9 5 1.6 3 2.1 2.8 2.6 3.9s-9.6 1-9.6 1a14 14 0 0 0 .5-3.6c-.3-3-1-4.1 0-5.2 0 0 1.2-2.3 2.6-2.3z"/><path class="b" d="M68.3 60.1l-1.3 3 .9.4 1.3-3z"/><path class="t" d="M74 48.2a3.3 3.3 0 0 1 .3 0 3.3 3.3 0 0 0 0 6.6 3.3 3.3 0 0 1-.3 0 3.3 3.3 0 1 1 0-6.6z"/><path d="M70.4 47.7a2.7 2.7 0 0 1 1.2-.5l2-.6a7 7 0 0 1 1.8-.3 3.5 3.5 0 0 1 1 .2l.5-.2a6.5 6.5 0 0 1 1.6-.3 2.5 2.5 0 0 1 1.5.3 1.8 1.8 0 0 1 .1 3 2.5 2.5 0 0 1-1 .5 4.1 4.1 0 0 1-.3 1.8 5.7 5.7 0 0 1-.9 1.5 2.4 2.4 0 0 1-.8.7 1 1 0 0 1-1-.1 1.4 1.4 0 0 1-.4-.8c-.2-1-.4-2.4-1.4-3a3.5 3.5 0 0 0-2-.3 4 4 0 0 1-1.6-.4 1.2 1.2 0 0 1-.5-.3 1 1 0 0 1 .2-1.2z" style="fill:#fccc63"/><g class="s"><path class="b" d="M80 46.7a2.5 2.5 0 0 0-1.5-.3 6.5 6.5 0 0 0-1.6.4l-.4.1a3.5 3.5 0 0 0-1.1-.1 7 7 0 0 0-1.8.3l-2 .5a2.8 2.8 0 0 0-1.2.6 1.1 1.1 0 0 0-.3.5 1 1 0 0 1 .3-1 2.7 2.7 0 0 1 1.2-.5l2-.6a7 7 0 0 1 1.8-.3 3.5 3.5 0 0 1 1 .2l.5-.2a6.5 6.5 0 0 1 1.6-.3 2.5 2.5 0 0 1 1.5.3 1.9 1.9 0 0 1 .8 1.4 1.8 1.8 0 0 1 0 .4 1.9 1.9 0 0 0-.8-1.4z"/><path class="b" d="M79 50.2v.2a.8.8 0 0 0 0-.2z"/></g><path class="t" d="M73.8 62.4c-.3-3.1-1-4.2 0-5.3 0 0 1.2-2.3 2.6-2.3h1a.5.5 0 0 1 .4.2H77c-1.5 0-2.6 2.4-2.6 2.4-1.1 1-.3 2.1 0 5.2A13.2 13.2 0 0 1 74 66h-.8a14.1 14.1 0 0 0 .5-3.6z"/><rect class="u" width="3.564" height="2.449" transform="translate(77.665 60.371) rotate(180)"/><g class="s"><path class="b" d="M72.9 65.8c3.2 0 9-1 9-1a1.2 1.2 0 0 1 .1.2 79.6 79.6 0 0 1-9.1.8z"/><path class="b" d="M71.1 65.7a1.4 1.4 0 0 0-.8 2.4c1.3.9 1.7 9.4 1.7 9.4h-.7s-.4-8.5-1.6-9.4c-1.2-.8-.5-2.7 1.4-2.4z"/><path class="b" d="M73.6 69z"/></g><path class="q" d="M77.4 59.7v3.9a2.5 2.5 0 0 1-2.6 2.4c-1.7 0-3.7 0-3.9.2l-1 .9a.6.6 0 0 1-1-.6c0-.6.2-1.3.8-1.5a10.7 10.7 0 0 1 2.2-.4 2.9 2.9 0 0 0 2.7-2.8v-2.1z"/><path class="t" d="M68.8 66.5c0-.6.3-1.3.9-1.5a10.7 10.7 0 0 1 2.2-.4 2.9 2.9 0 0 0 2.7-2.8v-2.1h2.8v.2H75V62a2.9 2.9 0 0 1-2.6 2.9 10.6 10.6 0 0 0-2.3.3c-.6.2-.8.9-.8 1.5a.6.6 0 0 0 .1.5.6.6 0 0 1-.6-.7z"/><path class="t" d="M75 78.4v.2c-1.1 0-6.3 0-6.3.8a1.2 1.2 0 0 0 .3.8 1.3 1.3 0 0 1-.5-1c0-.8 6.5-.8 6.5-.8z"/><path d="M31.7 70.6v29.7h52.5V61.6h1.5" style="stroke-width:3px;opacity:0.5;fill:none;stroke:#4651af;stroke-miterlimit:10"/></svg>