<svg xmlns="http://www.w3.org/2000/svg" xmlns:xlink="http://www.w3.org/1999/xlink" viewBox="0 0 1920 341.864"><defs><style>.a{fill:#fff;}.b,.d{fill:#4651af;}.b,.c,.m{opacity:0.1;}.e{fill:url(#a);}.f{fill:#535461;}.g{fill:#f6f7f9;}.h,.t{opacity:0.2;}.i{fill:#dce0ed;}.j{fill:url(#b);}.k{fill:#65617d;}.l{fill:#a27772;}.n{fill:#fbbebe;}.o{fill:#7c7cdd;}.p{opacity:0.05;}.q{fill:#7c5c5c;}.r{fill:#ffd037;}.s{fill:#a8a8a8;}</style><linearGradient id="a" x1="0.5" y1="1" x2="0.5" gradientUnits="objectBoundingBox"><stop offset="0" stop-color="gray" stop-opacity="0.251"/><stop offset="0.54" stop-color="gray" stop-opacity="0.122"/><stop offset="1" stop-color="gray" stop-opacity="0.102"/></linearGradient><linearGradient id="b" x1="0.5" y1="1" x2="0.5" y2="0" xlink:href="#a"/></defs><g transform="translate(0 -362.887)"><path class="a" d="M0,0H1920V75Z" transform="translate(0 582)"/><g transform="translate(1300.348 362.907)"><path class="b" d="M155.3,31.9c-14.2-.523-29.036-.891-41.878,5.2s-22.769,20.837-18.463,34.4c1.405,4.421,4.143,8.273,6.451,12.3a70.912,70.912,0,0,1,1.377,66.726c-8.237,15.848-22.2,27.909-32.248,42.674s-15.762,35.23-5.875,50.106c6.77,10.185,19.333,15.141,31.5,16.342s24.412-.69,36.636-1.177a157.807,157.807,0,0,1,69.284,13.1c30.025,13.164,55.891,35.684,87.506,44.374,3.8,1.042,7.763,1.883,11.644,1.177,6.884-1.254,11.889-6.946,17.278-11.44,17.2-14.247,41.024-16.906,63.356-17.568s45.591-.151,65.778-9.74c17.625-8.371,31.194-23.946,39.63-41.538s12.1-37.142,13.482-56.61c.817-11.587.789-23.549-3.358-34.4-4.662-12.2-14.116-21.907-24.032-30.4-10.361-8.874-21.654-16.914-34.446-21.7-15.28-5.72-31.868-6.537-48.137-7.893a661.257,661.257,0,0,1-99.019-15.9c-30.9-7.387-64.826-15.456-92.968-30.5C184.675,31.867,171.217,32.467,155.3,31.9Z" transform="translate(-59.52 -31.65)"/><g class="c" transform="translate(284.186 186.409)"><path class="d" d="M773.4,577.371s1.446-20.269,12.853-31.32a30.777,30.777,0,0,0,9.094-17.221,52.04,52.04,0,0,0,.613-9.45" transform="translate(-765.922 -506.534)"/><path class="d" d="M834.03,493.777c-.838,2.239-7.313,7.215-7.313,7.215s-1.634-8-.789-10.243a4.324,4.324,0,0,1,8.1,3.027Z" transform="translate(-796.846 -487.938)"/><path class="d" d="M836.609,527.5c-1.92,1.422-10.059,2.08-10.059,2.08s2.982-7.6,4.9-9.029a4.327,4.327,0,0,1,5.156,6.946Z" transform="translate(-797.357 -506.764)"/><path class="d" d="M816.986,577.84c-2.378.261-9.736-3.268-9.736-3.268s6.414-5.058,8.788-5.311a4.323,4.323,0,0,1,.948,8.58Z" transform="translate(-785.942 -536.031)"/><path class="d" d="M792.4,613.539c-2.3.658-10.149-1.589-10.149-1.589s5.466-6.067,7.763-6.725a4.327,4.327,0,1,1,2.386,8.314Z" transform="translate(-771.156 -557.186)"/><path class="d" d="M804.8,528.286c1.021,2.157,7.893,6.566,7.893,6.566s.948-8.11-.078-10.271a4.327,4.327,0,0,0-7.816,3.706Z" transform="translate(-784.276 -508.212)"/><path class="d" d="M776.135,568.544c1.634,1.753,9.5,3.906,9.5,3.906s-1.524-8.024-3.146-9.781a4.327,4.327,0,0,0-6.353,5.875Z" transform="translate(-766.859 -531.315)"/><path class="d" d="M755.731,614.012c1.3,2,8.7,5.454,8.7,5.454s-.147-8.171-1.45-10.169a4.327,4.327,0,0,0-7.252,4.715Z" transform="translate(-755.097 -558.61)"/><path class="d" d="M834.03,493.777c-.838,2.239-7.313,7.215-7.313,7.215s-1.634-8-.789-10.243a4.324,4.324,0,0,1,8.1,3.027Z" transform="translate(-796.846 -487.938)"/><path class="d" d="M836.609,527.5c-1.92,1.422-10.059,2.08-10.059,2.08s2.982-7.6,4.9-9.029a4.327,4.327,0,0,1,5.156,6.946Z" transform="translate(-797.357 -506.764)"/><path class="d" d="M816.986,577.84c-2.378.261-9.736-3.268-9.736-3.268s6.414-5.058,8.788-5.311a4.323,4.323,0,0,1,.948,8.58Z" transform="translate(-785.942 -536.031)"/><path class="d" d="M792.4,613.539c-2.3.658-10.149-1.589-10.149-1.589s5.466-6.067,7.763-6.725a4.327,4.327,0,1,1,2.386,8.314Z" transform="translate(-771.156 -557.186)"/><path class="d" d="M804.8,528.286c1.021,2.157,7.893,6.566,7.893,6.566s.948-8.11-.078-10.271a4.327,4.327,0,0,0-7.816,3.706Z" transform="translate(-784.276 -508.212)"/><path class="d" d="M776.135,568.544c1.634,1.753,9.5,3.906,9.5,3.906s-1.524-8.024-3.146-9.781a4.327,4.327,0,0,0-6.353,5.875Z" transform="translate(-766.859 -531.315)"/><path class="d" d="M755.731,614.012c1.3,2,8.7,5.454,8.7,5.454s-.147-8.171-1.45-10.169a4.327,4.327,0,0,0-7.252,4.715Z" transform="translate(-755.097 -558.61)"/></g><g class="c" transform="translate(288.057 109.69)"><path class="d" d="M783.2,389.591s1.446-20.269,12.853-31.32a30.805,30.805,0,0,0,9.095-17.221,51.34,51.34,0,0,0,.613-9.45" transform="translate(-775.589 -318.754)"/><path class="d" d="M843.833,306c-.817,2.235-7.309,7.211-7.309,7.211s-1.634-8-.793-10.239a4.324,4.324,0,0,1,8.1,3.027Z" transform="translate(-806.516 -300.158)"/><path class="d" d="M846.439,339.518c-1.916,1.426-10.059,2.08-10.059,2.08s2.982-7.6,4.9-9.025a4.327,4.327,0,1,1,5.156,6.946Z" transform="translate(-807.042 -318.783)"/><path class="d" d="M826.792,390.032c-2.374.261-9.732-3.268-9.732-3.268s6.414-5.054,8.788-5.311a4.326,4.326,0,1,1,.944,8.6Z" transform="translate(-795.615 -348.223)"/><path class="d" d="M802.2,425.8c-2.3.658-10.149-1.589-10.149-1.589s5.471-6.067,7.763-6.729a4.326,4.326,0,1,1,2.382,8.319Z" transform="translate(-780.823 -369.451)"/><path class="d" d="M814.525,340.336c1.021,2.161,7.9,6.57,7.9,6.57s.944-8.114-.078-10.271a4.326,4.326,0,1,0-7.821,3.7Z" transform="translate(-793.869 -320.266)"/><path class="d" d="M786.044,380.875c1.634,1.757,9.5,3.906,9.5,3.906s-1.528-8.024-3.15-9.777a4.327,4.327,0,0,0-6.353,5.871Z" transform="translate(-776.636 -343.65)"/><path class="d" d="M765.339,425.936c1.3,2,8.7,5.454,8.7,5.454s-.147-8.171-1.45-10.169a4.327,4.327,0,1,0-7.252,4.715Z" transform="translate(-764.572 -370.534)"/><path class="d" d="M843.833,306c-.817,2.235-7.309,7.211-7.309,7.211s-1.634-8-.793-10.239a4.324,4.324,0,0,1,8.1,3.027Z" transform="translate(-806.516 -300.158)"/><path class="d" d="M846.439,339.518c-1.916,1.426-10.059,2.08-10.059,2.08s2.982-7.6,4.9-9.025a4.327,4.327,0,1,1,5.156,6.946Z" transform="translate(-807.042 -318.783)"/><path class="d" d="M826.792,390.032c-2.374.261-9.732-3.268-9.732-3.268s6.414-5.054,8.788-5.311a4.326,4.326,0,1,1,.944,8.6Z" transform="translate(-795.615 -348.223)"/><path class="d" d="M802.2,425.8c-2.3.658-10.149-1.589-10.149-1.589s5.471-6.067,7.763-6.729a4.326,4.326,0,1,1,2.382,8.319Z" transform="translate(-780.823 -369.451)"/><path class="d" d="M814.525,340.336c1.021,2.161,7.9,6.57,7.9,6.57s.944-8.114-.078-10.271a4.326,4.326,0,1,0-7.821,3.7Z" transform="translate(-793.869 -320.266)"/><path class="d" d="M786.044,380.875c1.634,1.757,9.5,3.906,9.5,3.906s-1.528-8.024-3.15-9.777a4.327,4.327,0,0,0-6.353,5.871Z" transform="translate(-776.636 -343.65)"/><path class="d" d="M765.339,425.936c1.3,2,8.7,5.454,8.7,5.454s-.147-8.171-1.45-10.169a4.327,4.327,0,1,0-7.252,4.715Z" transform="translate(-764.572 -370.534)"/></g><g class="c" transform="translate(26.803 150.027)"><path class="d" d="M192.4,471.642s-17.45-10.4-22.2-25.551A30.748,30.748,0,0,0,158.9,430.227a51.511,51.511,0,0,0-8.171-4.8" transform="translate(-140.268 -414.586)"/><path class="d" d="M132.541,400.188c1.634,1.753,3.158,9.777,3.158,9.777s-7.881-2.145-9.5-3.9a4.327,4.327,0,0,1,6.345-5.879Z" transform="translate(-125.123 -398.889)"/><path class="d" d="M165.671,408.657c.409,2.353-2.664,9.92-2.664,9.92s-5.45-6.083-5.859-8.437a4.327,4.327,0,1,1,8.523-1.483Z" transform="translate(-144.014 -402.483)"/><path class="d" d="M203.09,446.466c-.817,2.239-7.309,7.219-7.309,7.219s-1.634-8-.8-10.239a4.327,4.327,0,1,1,8.106,3.019Z" transform="translate(-166.3 -423.508)"/><path class="d" d="M223.812,485.116c-.441,2.349-5.981,8.371-5.981,8.371s-2.962-7.611-2.517-9.957a4.324,4.324,0,1,1,8.5,1.606Z" transform="translate(-178.438 -446.866)"/><path class="d" d="M149.954,441.655c2.386.057,9.417-4.086,9.417-4.086s-6.823-4.494-9.213-4.551a4.326,4.326,0,1,0-.2,8.65Z" transform="translate(-137.311 -419.073)"/><path class="d" d="M173.353,485.417c2.3-.662,7.763-6.733,7.763-6.733s-7.853-2.243-10.149-1.581a4.327,4.327,0,0,0,2.39,8.314Z" transform="translate(-150.442 -445.076)"/><path class="d" d="M204.133,524.079c2.378-.261,8.788-5.311,8.788-5.311s-7.354-3.538-9.736-3.269a4.323,4.323,0,1,0,.948,8.58Z" transform="translate(-168.875 -467.848)"/><path class="d" d="M132.541,400.188c1.634,1.753,3.158,9.777,3.158,9.777s-7.881-2.145-9.5-3.9a4.327,4.327,0,0,1,6.345-5.879Z" transform="translate(-125.123 -398.889)"/><path class="d" d="M165.671,408.657c.409,2.353-2.664,9.92-2.664,9.92s-5.45-6.083-5.859-8.437a4.327,4.327,0,1,1,8.523-1.483Z" transform="translate(-144.014 -402.483)"/><path class="d" d="M203.09,446.466c-.817,2.239-7.309,7.219-7.309,7.219s-1.634-8-.8-10.239a4.327,4.327,0,1,1,8.106,3.019Z" transform="translate(-166.3 -423.508)"/><path class="d" d="M223.812,485.116c-.441,2.349-5.981,8.371-5.981,8.371s-2.962-7.611-2.517-9.957a4.324,4.324,0,1,1,8.5,1.606Z" transform="translate(-178.438 -446.866)"/><path class="d" d="M149.954,441.655c2.386.057,9.417-4.086,9.417-4.086s-6.823-4.494-9.213-4.551a4.326,4.326,0,1,0-.2,8.65Z" transform="translate(-137.311 -419.073)"/><path class="d" d="M173.353,485.417c2.3-.662,7.763-6.733,7.763-6.733s-7.853-2.243-10.149-1.581a4.327,4.327,0,0,0,2.39,8.314Z" transform="translate(-150.442 -445.076)"/><path class="d" d="M204.133,524.079c2.378-.261,8.788-5.311,8.788-5.311s-7.354-3.538-9.736-3.269a4.323,4.323,0,1,0,.948,8.58Z" transform="translate(-168.875 -467.848)"/></g><path class="b" d="M776.25,815.358c11.73,5.1,26.042,2,39.353,2.357a10.771,10.771,0,0,1,5.209,1.083c1.459.883,2.182,2.308,3.183,3.534,3.73,4.551,11.374,6.014,18.054,5.242s12.8-3.33,19.108-5.275c10.9-3.366,23.349-4.9,34.1-1.226a7.041,7.041,0,0,0,3.081.588c2.357-.3,3.06-2.741,4.707-4.135,2.974-2.521,9.438-1.834,10.745-5.156.764-1.945-1-3.938-2.917-5.266-7.354-5.082-17.854-5.92-27.468-5.136s-19.063,2.946-28.726,2.954c-12.04,0-23.672-3.318-35.594-4.678-8.257-.94-17.27-.817-25.012,1.949C785.68,805.184,783.833,811.922,776.25,815.358Z" transform="translate(-483.422 -485.927)"/><path class="b" d="M232.93,774.106c20.02,5.765,44.451,2.255,67.167,2.664,3.109.057,6.4.225,8.9,1.226s3.722,2.615,5.434,4c6.365,5.144,19.411,6.8,30.81,5.924s21.858-3.763,32.62-5.961c18.6-3.8,39.859-5.536,58.2-1.389a17.394,17.394,0,0,0,5.262.666c4.02-.339,5.217-3.1,8.032-4.674,5.078-2.86,16.105-2.071,18.336-5.822,1.307-2.2-1.7-4.453-4.976-5.953-12.535-5.74-30.47-6.688-46.882-5.8s-32.542,3.326-49.027,3.338c-20.551,0-40.407-3.747-60.757-5.287-14.1-1.062-29.478-.932-42.695,2.206C249.027,762.626,245.869,770.237,232.93,774.106Z" transform="translate(-162.081 -460.327)"/><path class="b" d="M101.77,818.97c5.72,3.44,12.665,1.348,19.145,1.589a4.07,4.07,0,0,1,2.537.727A8.608,8.608,0,0,1,125,823.673c1.814,3.068,5.532,4.057,8.78,3.534s6.231-2.243,9.3-3.559c5.311-2.268,11.362-3.3,16.588-.817a2.606,2.606,0,0,0,1.5.409c1.144-.2,1.487-1.851,2.288-2.79,1.446-1.7,4.592-1.226,5.225-3.477.372-1.311-.486-2.656-1.418-3.55-3.571-3.428-8.686-3.992-13.364-3.465s-9.274,1.957-13.977,1.957c-5.855,0-11.513-2.235-17.315-3.154-4.02-.637-8.4-.556-12.171,1.316C106.358,812.119,105.459,816.662,101.77,818.97Z" transform="translate(-84.508 -491.063)"/><path class="e" d="M455,67.32H265.173A17.384,17.384,0,0,0,247.76,84.68v263a17.384,17.384,0,0,0,17.413,17.348H455a17.384,17.384,0,0,0,17.413-17.36V84.68A17.384,17.384,0,0,0,455,67.32Z" transform="translate(-170.852 -52.759)"/><rect class="f" width="219.283" height="291.484" rx="20" transform="translate(79.584 18.128)"/><rect class="g" width="197" height="236.34" transform="translate(90.725 45.698)"/><circle class="g" cx="2.676" cy="2.676" r="2.676" transform="translate(185.659 28.82)"/><circle class="g" cx="8.024" cy="8.024" r="8.024" transform="translate(180.31 287.325)"/><g class="h" transform="translate(90.725 45.698)"><rect class="d" width="197" height="11.779"/></g><circle class="g" cx="2.513" cy="2.513" r="2.513" transform="translate(94.374 49.076)"/><circle class="g" cx="2.513" cy="2.513" r="2.513" transform="translate(100.776 49.076)"/><circle class="g" cx="2.513" cy="2.513" r="2.513" transform="translate(107.174 49.076)"/><rect class="i" width="183.448" height="0.613" transform="translate(96.609 115.173)"/><rect class="i" width="183.448" height="0.613" transform="translate(96.609 129.404)"/><rect class="i" width="183.448" height="0.613" transform="translate(96.609 143.638)"/><rect class="i" width="183.448" height="0.613" transform="translate(96.609 157.868)"/><rect class="i" width="183.448" height="0.613" transform="translate(96.609 172.098)"/><g class="h" transform="translate(96.384 123.855)"><path class="d" d="M419.583,352.036H235.91V324.049l16.845,8.3,17.433,2.366,15.3-4.613,18.455-14.312,9.283-5.36,6.786-1.307,6.492.347,10.676,5.275,14.516,9.246,11.391,1.463,9.029-3.113,19.145-15.676,9.773-3.485,10.226,1.581,8.326,4.809Z" transform="translate(-235.91 -303.18)"/></g><path class="d" d="M327.439,366.208c-16.543,0-31.827-10.116-32.019-10.247l.458-.678c.237.159,23.762,15.721,43.753,7.926,7.289-2.86,12.477-7.264,17.5-11.542,5.242-4.466,10.19-8.682,16.939-10.512a25.337,25.337,0,0,1,22.622,5.082c5.5,4.515,16.436,11.762,27.995,9.6,5.891-1.107,10.855-5.409,16.114-9.965,10.079-8.735,20.506-17.768,38.54-4.809l-.478.662c-17.511-12.584-27.684-3.763-37.526,4.764-5.344,4.629-10.39,8.988-16.5,10.149-11.889,2.231-23.059-5.164-28.665-9.769a24.541,24.541,0,0,0-21.891-4.923c-6.57,1.781-11.44,5.94-16.624,10.345-5.07,4.323-10.312,8.788-17.727,11.681A34.2,34.2,0,0,1,327.439,366.208Z" transform="translate(-199.04 -210.824)"/><circle class="d" cx="4.547" cy="4.547" r="4.547" transform="translate(180.335 125.212)"/><g class="h" transform="translate(185.904 69.586)"><path class="d" d="M572.833,202H515.472a.932.932,0,0,0-.932.932v38.793a.932.932,0,0,0,1.61.637l9.94-10.6a.927.927,0,0,1,.678-.294h46.065a.932.932,0,0,0,.932-.932v-27.61A.932.932,0,0,0,572.833,202Z" transform="translate(-514.54 -202)"/></g><rect class="g" width="32.664" height="4.086" transform="translate(199.182 76.769)"/><rect class="g" width="8.968" height="4.086" transform="translate(199.182 85.822)"/><g class="h" transform="translate(112.101 201.948)"><rect class="d" width="8.968" height="4.086"/></g><g class="h" transform="translate(112.101 209.845)"><rect class="d" width="8.968" height="4.086"/></g><g class="h" transform="translate(112.101 217.743)"><rect class="d" width="8.968" height="4.086"/></g><g class="h" transform="translate(112.101 225.644)"><rect class="d" width="8.968" height="4.086"/></g><g class="h" transform="translate(112.101 233.542)"><rect class="d" width="8.968" height="4.086"/></g><g class="h" transform="translate(112.101 241.439)"><rect class="d" width="8.968" height="4.086"/></g><g class="h" transform="translate(112.101 249.341)"><rect class="d" width="8.968" height="4.086"/></g><g class="h" transform="translate(112.101 257.238)"><rect class="d" width="8.968" height="4.086"/></g><g class="h" transform="translate(128.987 261.324)"><rect class="d" width="8.968" height="4.086"/></g><g class="h" transform="translate(144.786 261.324)"><rect class="d" width="8.968" height="4.086"/></g><g class="h" transform="translate(160.585 261.324)"><rect class="d" width="8.968" height="4.086"/></g><g class="h" transform="translate(176.38 261.324)"><rect class="d" width="8.968" height="4.086"/></g><g class="h" transform="translate(192.179 261.324)"><rect class="d" width="8.968" height="4.086"/></g><g class="h" transform="translate(207.978 261.324)"><rect class="d" width="8.968" height="4.086"/></g><g class="h" transform="translate(223.773 261.324)"><rect class="d" width="8.968" height="4.086"/></g><g class="h" transform="translate(239.572 261.324)"><rect class="d" width="8.968" height="4.086"/></g><g class="h" transform="translate(255.371 261.324)"><rect class="d" width="8.968" height="4.086"/></g><rect class="g" width="13.617" height="4.086" transform="translate(218.229 85.822)"/><rect class="d" width="8.968" height="25.605" transform="translate(128.987 231.634)"/><rect class="d" width="8.968" height="37.453" transform="translate(144.786 219.785)"/><rect class="d" width="8.968" height="47.393" transform="translate(160.585 209.845)"/><rect class="d" width="8.968" height="42.237" transform="translate(176.38 214.997)"/><rect class="d" width="8.968" height="51.205" transform="translate(192.179 206.033)"/><g class="h" transform="translate(207.978 225.644)"><rect class="d" width="8.968" height="31.594"/></g><g class="h" transform="translate(223.773 225.644)"><rect class="d" width="8.968" height="31.594"/></g><g class="h" transform="translate(239.572 225.644)"><rect class="d" width="8.968" height="31.594"/></g><g class="h" transform="translate(255.371 225.644)"><rect class="d" width="8.968" height="31.594"/></g><path class="j" d="M921.805,229.464c-9.712-5.585-13.38-6.97-13.4-6.978l-.2-.143a8.115,8.115,0,0,1-2.451-3.093v-.6c.155-2.958,2.259-5.65,4.257-8l5.1-6.006a5.83,5.83,0,0,0,1.316-2.084,4.656,4.656,0,0,0,.139-1.279v-.523c-.025-1.491-.07-2.987-.123-4.494-.049-1.3-.384-2.946-1.687-3.215-.678-.139-1.573.106-1.933-.478a1.112,1.112,0,0,1-.086-.772.331.331,0,0,0,0,.061v-.074a17.3,17.3,0,0,0,.486-3.068,4.265,4.265,0,0,0-.212-1.553c-.756-2.165-3.354-3.052-5.655-3.461s-4.874-.76-6.316-2.558a18.83,18.83,0,0,0-1.254-1.728,4.98,4.98,0,0,0-2.349-1.16A13.274,13.274,0,0,0,888.9,179a7.692,7.692,0,0,1-3.444,1.091c-1.217-.074-2.349-.952-3.6-1.164-2.018-.343-3.951,1.14-4.944,2.893a7.064,7.064,0,0,0-.915,3.416v.2h0a4.98,4.98,0,0,0,1.311,3.485c.87.9,2.169,1.524,2.529,2.713.147.482.11,1.005.241,1.5a.578.578,0,0,0,.057.18l-.065.086a15.137,15.137,0,0,0-3.2,9.348,15.484,15.484,0,0,0,10.88,14.684v.458a6.574,6.574,0,0,1-2.112,5.14l-13.752,5.532s-8.29-.985-11.28,11.133a20.475,20.475,0,0,0-.515,6.149,18.026,18.026,0,0,1-2.268,9.209c-3.4,6.66-2.627,21.948,4.327,23.464,6.566,1.43,9.135.817,9.4.764v.266c-.106,2.86-1.148,27.615-4.935,30.609-1.046.817-.85,1.389,0,1.765,0,0,0,.159-.025.445-.114,1.81-.7,8.7-3.232,12.625-2.938,4.539-2.631,30.732-2.631,30.732l-1.973,15.456s1.226,9.536,0,11.2c-1.1,1.483-2.574,36.77-2.86,44.415h-.131a3.714,3.714,0,0,0-2.97,1.81c-1.634,2.639-7.313,7.513-7.313,7.513-1.226,1.753-5.8,3.428-8.212,4.22a4.983,4.983,0,0,0-.932.409,4.9,4.9,0,0,0-2.071,2.182,2.361,2.361,0,0,0-.225,1.822c.621,1.512,13.45,2.57,16.694,1.058,2.553-1.193,12.665-2.758,16.861-3.371a3.469,3.469,0,0,0,3-3,1.982,1.982,0,0,0-.409-1.5h0c-.817-1-1.226-3.714-1.4-5.487a3.622,3.622,0,0,0,.944-.56,40.254,40.254,0,0,1,2.317-16.2c3.093-8.171,4.02-23.317,3.269-33.155,0,0,9.43-40.57,16.849-44.357h0c.114.143,3.714,4.768,4.171,19.072.466,14.533,5.72,24.068,5.72,24.068s-2.321,24.677,0,33.911L899.012,429.8c-.221-.192-.364-.339-.364-.339s.09.409.217,1.054l-.065.306.131.033a28.72,28.72,0,0,1,.645,6.86c-.122,1.058-.409,2.513-.621,3.939-.319,2.243-.409,4.417.772,4.9,1.932.776,13.294,1.839,15.227-.658a3.587,3.587,0,0,0,.564-3.742,3.82,3.82,0,0,0-.564-.952s-3.015-4.931-2.166-8.408a2.541,2.541,0,0,0-.359-2,101.7,101.7,0,0,1,2.6-16.314c1.932-7.285,6.014-23.255,3.011-33.759h0c-.114-.409-.245-.817-.384-1.226a45.26,45.26,0,0,1-1.7-17.711,36.075,36.075,0,0,1,0-15.444c1.855-8.478,3.15-16.8,3.15-16.8s1.025-11.2.131-18.067l-.061-.441.49-.11s-2.627-11.656-3.554-19.072c-.221-1.753-.507-3.971-.817-6.341a15.372,15.372,0,0,0,2.521-.625c8.318-2.889,10.933-28.922,10.933-28.922v-8.253S931.545,235.065,921.805,229.464ZM859.622,430.5c-.257-.131-.409-.217-.409-.217h0Z" transform="translate(-517.542 -118.143)"/><path class="k" d="M949.332,564.8c3.62,10.41-.6,27.3-2.566,34.846a105.487,105.487,0,0,0-2.566,16.6,34.921,34.921,0,0,1-13.274-.306l3.166-15.525c-2.263-9.2,0-33.792,0-33.792s-5.127-9.5-5.581-23.987c-.445-14.259-3.959-18.863-4.086-19.006h0c-7.24,3.771-16.444,44.206-16.444,44.206.756,9.805-.151,24.89-3.166,33.036a40.941,40.941,0,0,0-2.264,16.142,4.978,4.978,0,0,1-4.106.789c-4.294-.715-9.446-4.425-9.446-4.425s1.634-44.047,2.86-45.71,0-11.166,0-11.166l1.957-15.386s-.3-26.1,2.566-30.642c2.476-3.91,3.044-10.778,3.154-12.58a3.247,3.247,0,0,1,.025-.445l4.363-5.23s42.245-3.166,45.412,0c.78.78,1.258,2.545,1.544,4.772.87,6.843-.127,18.005-.127,18.005s-1.266,8.3-3.076,16.751a36.6,36.6,0,0,0,0,15.386A45.976,45.976,0,0,0,949.332,564.8Z" transform="translate(-550.107 -303.231)"/><path class="l" d="M1007.167,806.828c-1.888,2.488-12.976,1.43-14.863.658-1.152-.478-1.062-2.643-.752-4.878.2-1.422.486-2.86.6-3.926.3-2.717-.907-8.224-.907-8.224s2.492,2.639,3.093,0a2.88,2.88,0,0,1,2.153-2.043,5.658,5.658,0,0,1,3.918.245c1.957.85,5.23,2.664,4.641,5.115-.817,3.465,2.112,8.38,2.112,8.38a3.825,3.825,0,0,1,.547.948A3.628,3.628,0,0,1,1007.167,806.828Z" transform="translate(-610.581 -479.1)"/><path class="m" d="M1007.312,827.72c-1.888,2.488-12.976,1.43-14.863.658-1.152-.478-1.062-2.643-.752-4.878,1.189.556,3.215,1.021,6.59.707a19.177,19.177,0,0,1,2.374-.074,54.772,54.772,0,0,0,7.2-.143A3.628,3.628,0,0,1,1007.312,827.72Z" transform="translate(-610.726 -499.993)"/><path class="m" d="M921.686,611.107c.756,9.805-.151,24.89-3.166,33.036a40.943,40.943,0,0,0-2.263,16.142,4.979,4.979,0,0,1-4.106.789c.911-6.374,4.788-33.78,7.293-55.438A90.528,90.528,0,0,1,935.491,564l2.639,2.9C930.883,570.672,921.686,611.107,921.686,611.107Z" transform="translate(-563.798 -346.515)"/><path class="n" d="M974.628,264.974l-1.843,9.05-9.021,15.162-11.125-4.752s-15.117-15.84-5.618-18.1a8.332,8.332,0,0,0,3.154-1.405,6.481,6.481,0,0,0,2.451-5.454,17.057,17.057,0,0,0-1.544-6.492l19.46-6.128a31.089,31.089,0,0,0-1.4,7.885c-.147,5.311,1.822,7.91,3.436,9.156A5.9,5.9,0,0,0,974.628,264.974Z" transform="translate(-582.569 -158.94)"/><path class="m" d="M980.99,246.9a31.084,31.084,0,0,0-1.4,7.885,14.24,14.24,0,0,1-1.132,1.2,15.39,15.39,0,0,1-15.386,3.514,17.057,17.057,0,0,0-1.544-6.492Z" transform="translate(-593.004 -158.969)"/><path class="n" d="M970.073,218.53a15.321,15.321,0,1,1-4.48-10.9A15.386,15.386,0,0,1,970.073,218.53Z" transform="translate(-579.856 -133.088)"/><path class="m" d="M974.628,289.672l-1.843,9.05-9.021,15.162-11.125-4.752s-15.117-15.84-5.618-18.1a8.331,8.331,0,0,0,3.154-1.405c-1.716,4.719,5.368,14.533,5.368,14.533.817,1.226,2.717.449,2.717.449,4.56-.686,12.964-13.813,14.332-16A5.9,5.9,0,0,0,974.628,289.672Z" transform="translate(-582.569 -183.638)"/><path class="m" d="M966.124,497.055c-2.676.609-17.5,3.894-23.12,3.072-6.182-.907-18.21-1.508-18.21-1.508s-7.656.409-10.014-.662a3.247,3.247,0,0,1,.025-.445l4.363-5.23s42.245-3.166,45.412,0C965.36,493.055,965.838,494.82,966.124,497.055Z" transform="translate(-565.354 -303.266)"/><path class="o" d="M923.1,304.836s-7.959-11.031-4.96-15.317L904.7,295.03s-8.094-.981-11.031,11.1a20.889,20.889,0,0,0-.5,6.128,18.263,18.263,0,0,1-2.214,9.176c-3.322,6.639-2.566,21.874,4.224,23.386s9.2.752,9.2.752-.9,27.611-4.825,30.777,10,2.415,10,2.415,12.028.6,18.214,1.508,23.533-3.166,23.533-3.166-2.566-11.619-3.469-19.01-3.019-23.133-3.019-23.133L960.2,314.122s2.713-12.6-6.79-18.177S940.333,289,940.333,289s-9.536,15.525-14.512,16.289C925.821,305.289,923.929,306.049,923.1,304.836Z" transform="translate(-550.128 -183.869)"/><path class="m" d="M925.506,338.47s-.151,4.98.752,6.946,4.225,12.825,4.225,12.825H922.94s4.086-4.376,3.771-6.488S925.506,338.47,925.506,338.47Z" transform="translate(-570.18 -213.127)"/><path class="n" d="M949.052,399.807s-16.661-4.086-18.214-7.546S925,381.03,925,381.03l1.757-2.37,8.106,6.361s9.654,7.693,14.181,8.449S949.052,399.807,949.052,399.807Z" transform="translate(-571.398 -236.897)"/><path class="p" d="M949.052,399.807s-16.661-4.086-18.214-7.546S925,381.03,925,381.03l1.757-2.37,8.106,6.361s9.654,7.693,14.181,8.449S949.052,399.807,949.052,399.807Z" transform="translate(-571.398 -236.897)"/><path class="n" d="M975.559,382.308v9.037H974.1a42.3,42.3,0,0,0-20.507,5.307l-2.728,1.516-.731.409-4.678-10.533,4.376-3.922h.225c1.07.1,5.7.49,7.66-.172,1.863-.633,4.176-2.639,9.662-1.226,2.7.69,5.013,3.722,7.636,2.774Z" transform="translate(-583.499 -239.01)"/><path class="m" d="M1007.206,327.31l3.019,3.391v8.224s-2.566,25.948-10.712,28.816-22.687-1.663-22.687-1.663-3.759-9.957-2-10.557,15.525-4.241,15.525-4.241-.192-15.223,2.823-19.75c0,0-1.961-14.177,4.829-14.479S1007.206,327.31,1007.206,327.31Z" transform="translate(-600.589 -200.456)"/><path class="o" d="M1008.291,327.31l3.019,3.391v8.224s-2.558,25.948-10.729,28.816-22.691-1.663-22.691-1.663-3.755-9.957-2-10.557,15.525-4.241,15.525-4.241-.2-15.223,2.823-19.75c0,0-1.961-14.177,4.829-14.479S1008.291,327.31,1008.291,327.31Z" transform="translate(-601.221 -200.456)"/><path class="m" d="M970.406,225.072a5.991,5.991,0,0,0-.343-2.938,2.275,2.275,0,0,0-2.394-1.381c-1.291.3-1.847,1.982-3.113,2.386a2.451,2.451,0,0,1-2.737-1.414,7.236,7.236,0,0,1-.527-3.268v-3.779a6.236,6.236,0,0,0-.891-3.93c-1.05-1.344-3.522-1.928-5.172-1.875a4.38,4.38,0,0,0-2.954,1.193,3.811,3.811,0,0,1-3.109,1.1A2.684,2.684,0,0,1,947,209.3v-.049a15.386,15.386,0,1,1,22.879,20.428,41.113,41.113,0,0,0,.527-4.6Z" transform="translate(-584.41 -133.092)"/><path class="q" d="M943.4,197.1a2.688,2.688,0,0,1-2.165-1.875c-.127-.486-.094-1.005-.237-1.491-.351-1.185-1.634-1.8-2.451-2.7-1.7-1.806-1.589-4.772-.384-6.946.972-1.749,2.86-3.224,4.825-2.884,1.226.212,2.276,1.083,3.514,1.16a7.156,7.156,0,0,0,3.362-1.087,12.665,12.665,0,0,1,8.339-.74,4.85,4.85,0,0,1,2.3,1.156,20.426,20.426,0,0,1,1.226,1.72c1.41,1.794,3.926,2.145,6.169,2.549s4.776,1.291,5.516,3.448c.486,1.43,0,2.982-.266,4.47a1.292,1.292,0,0,0,.057.919c.351.58,1.226.339,1.887.478,1.275.266,1.6,1.9,1.634,3.2q.082,2.231.123,4.461a4.384,4.384,0,0,1-1.418,3.73l-4.98,5.985c-2.21,2.656-4.555,5.748-4.11,9.172-1.046.47-2.288-.437-2.631-1.532a6.863,6.863,0,0,1,.163-3.4,41.557,41.557,0,0,0,.788-5.891,5.984,5.984,0,0,0-.343-2.938,2.253,2.253,0,0,0-2.394-1.385c-1.291.3-1.847,1.982-3.113,2.386a2.453,2.453,0,0,1-2.737-1.414,7.236,7.236,0,0,1-.527-3.268V200.61a6.243,6.243,0,0,0-.891-3.93c-1.05-1.344-3.522-1.928-5.172-1.875A4.388,4.388,0,0,0,946.521,196,3.878,3.878,0,0,1,943.4,197.1Z" transform="translate(-578.648 -119.49)"/><path class="m" d="M960.79,337.55l4.723,19.407S969.239,356.936,960.79,337.55Z" transform="translate(-592.566 -212.583)"/><path class="m" d="M994.031,329.61s-6.186,10.132-3.771,20.6l1.152.086S989.353,345.45,994.031,329.61Z" transform="translate(-609.665 -207.887)"/><path class="m" d="M1009.9,469.15s7.6-2.513,8.147,3.318C1018.047,472.468,1016.613,468.472,1009.9,469.15Z" transform="translate(-621.612 -290.099)"/><path class="m" d="M937.392,388s-1.508,10.561,1.226,14.786a33.123,33.123,0,0,1-13.278,1.81L924.42,388Z" transform="translate(-571.055 -242.421)"/><path class="m" d="M950.869,400.9l-.731.409-4.678-10.533,4.376-3.922h.225C949.991,387.357,948.773,396.427,950.869,400.9Z" transform="translate(-583.499 -241.741)"/><path class="o" d="M931.081,386.85s-1.508,10.557,1.226,14.782a33.123,33.123,0,0,1-13.278,1.81L913.75,386.85Z" transform="translate(-564.745 -241.741)"/><path class="l" d="M872.452,799.853a3.411,3.411,0,0,1-2.929,2.987c-4.086.613-13.965,2.174-16.457,3.358-3.166,1.508-15.689.454-16.293-1.054a2.394,2.394,0,0,1,.217-1.814,4.866,4.866,0,0,1,2.043-2.178,5.014,5.014,0,0,1,.907-.409c2.357-.788,6.811-2.451,8.016-4.208,0,0,5.552-4.858,7.133-7.485a3.632,3.632,0,0,1,2.9-1.806c1.324-.061,2.795.6,3.4,3.5,0,0,7.24,4.131,9.2.507,0,0,.3,5.565,1.5,7.084h0a2.018,2.018,0,0,1,.368,1.516Z" transform="translate(-519.165 -478.548)"/><path class="m" d="M872.452,815.928a3.411,3.411,0,0,1-2.929,2.987c-4.086.613-13.965,2.174-16.457,3.358-3.166,1.508-15.689.453-16.293-1.054a2.394,2.394,0,0,1,.217-1.814,4.866,4.866,0,0,1,2.043-2.178c2.043,1.356,6.574,2.68,16.543,1.124,9.507-1.483,14.214-2.938,16.51-3.93h0a2.018,2.018,0,0,1,.368,1.508Z" transform="translate(-519.165 -494.623)"/><g class="c" transform="translate(358.61 67.825)"><path d="M1024.938,209.231v-.074a13.959,13.959,0,0,0,.466-3.428,21.97,21.97,0,0,1-.466,2.75A1.67,1.67,0,0,0,1024.938,209.231Z" transform="translate(-989.09 -202.445)"/><path d="M964.3,218.6a4.446,4.446,0,0,1,.372,1.724,5.139,5.139,0,0,0-.372-2.4,2.251,2.251,0,0,0-2.39-1.385c-1.291.3-1.847,1.982-3.113,2.386a2.458,2.458,0,0,1-2.742-1.414,7.179,7.179,0,0,1-.523-3.268v-3.783a6.243,6.243,0,0,0-.891-3.93c-1.05-1.344-3.526-1.928-5.172-1.875a4.38,4.38,0,0,0-2.954,1.193,3.819,3.819,0,0,1-3.109,1.107,2.688,2.688,0,0,1-2.165-1.875c-.127-.486-.094-1.005-.237-1.491-.356-1.185-1.634-1.8-2.451-2.7a4.9,4.9,0,0,1-1.271-3.191,5.14,5.14,0,0,0,1.271,3.869c.85.9,2.112,1.52,2.451,2.7.143.482.11,1,.237,1.487a2.688,2.688,0,0,0,2.165,1.875,3.8,3.8,0,0,0,3.109-1.107,4.38,4.38,0,0,1,2.954-1.193c1.634-.053,4.122.535,5.172,1.875a6.281,6.281,0,0,1,.891,3.93v3.783a6.892,6.892,0,0,0,.523,3.268,2.49,2.49,0,0,0,2.742,1.414c1.266-.409,1.822-2.084,3.113-2.386A2.257,2.257,0,0,1,964.3,218.6Z" transform="translate(-937.259 -197.69)"/><path d="M1018.7,237.306a5.788,5.788,0,0,1-1.283,2.075q-2.488,2.995-4.98,5.985c-2.1,2.521-4.318,5.438-4.155,8.653.151-2.95,2.206-5.634,4.155-7.975l4.98-5.981a5.844,5.844,0,0,0,1.283-2.08,5.615,5.615,0,0,0,.131-1.634,3.932,3.932,0,0,1-.131.956Z" transform="translate(-979.257 -220.555)"/><path d="M1001.766,275.937a3.581,3.581,0,0,1-.147-.817,4.086,4.086,0,0,0,.147,1.487c.343,1.095,1.589,2,2.635,1.528-.029-.221-.045-.441-.053-.662A2.109,2.109,0,0,1,1001.766,275.937Z" transform="translate(-975.315 -243.485)"/></g><path class="m" d="M879.26,795s1.577,2.774,7.289.331" transform="translate(-544.346 -483.137)"/><path class="m" d="M997.5,796.67s4.927,5.8,11.137,1.9" transform="translate(-614.278 -484.125)"/><path class="m" d="M1027.4,628.7s-3.485,2.178-3.6,3.424,1.8-.907,1.8-.907Z" transform="translate(-629.832 -384.781)"/><path class="m" d="M1026.951,669.53a7.276,7.276,0,0,1-4.29,1.675c-2.6.114-2.386,3.51-.686,2.488A43.4,43.4,0,0,0,1026.951,669.53Z" transform="translate(-627.999 -408.929)"/><path class="m" d="M1033.207,674.86s-1.671,8.212-3.027,6.627" transform="translate(-633.606 -412.082)"/><path class="d" d="M187.329,768.36s2.243,2.933-1.038,7.354-5.985,8.171-4.9,10.933c0,0,4.948-8.228,8.988-8.343S191.762,773.308,187.329,768.36Z" transform="translate(-131.454 -467.381)"/><path class="m" d="M187.527,768.36a3.526,3.526,0,0,1,.458.919c3.93,4.617,6.026,8.927,2.247,9.037-3.518.1-7.763,6.394-8.751,7.983a3.707,3.707,0,0,0,.118.359s4.948-8.228,8.988-8.343S191.96,773.308,187.527,768.36Z" transform="translate(-131.652 -467.381)"/><path class="r" d="M205.739,776.555c0,1.034-.114,1.871-.257,1.871s-.261-.838-.261-1.871.147-.543.29-.543S205.739,775.53,205.739,776.555Z" transform="translate(-145.692 -471.838)"/><path class="r" d="M207.432,779.508c-.907.494-1.7.793-1.769.67s.613-.629,1.52-1.124.547-.135.617,0S208.339,779.013,207.432,779.508Z" transform="translate(-145.952 -473.556)"/><path class="d" d="M159.964,768.36s-2.243,2.933,1.038,7.354,5.985,8.171,4.9,10.933c0,0-4.948-8.228-8.988-8.343S155.535,773.308,159.964,768.36Z" transform="translate(-115.946 -467.381)"/><path class="m" d="M159.951,768.36a3.676,3.676,0,0,0-.458.919c-3.93,4.617-6.026,8.927-2.247,9.037,3.522.1,7.763,6.394,8.751,7.983a2.864,2.864,0,0,1-.118.359s-4.948-8.228-8.988-8.343S155.522,773.308,159.951,768.36Z" transform="translate(-115.933 -467.381)"/><path class="r" d="M157.05,776.555c0,1.034.114,1.871.257,1.871s.261-.838.261-1.871-.147-.543-.29-.543S157.05,775.53,157.05,776.555Z" transform="translate(-117.203 -471.838)"/><path class="r" d="M152.75,779.508c.907.494,1.7.793,1.765.67s-.613-.629-1.52-1.124-.547-.135-.617,0S151.843,779.013,152.75,779.508Z" transform="translate(-114.332 -473.556)"/><path class="s" d="M158.8,807.3s6.276-.192,8.171-1.54,9.65-2.954,10.12-.793,9.43,10.741,2.345,10.8-16.461-1.1-18.348-2.255S158.8,807.3,158.8,807.3Z" transform="translate(-118.238 -488.408)"/><path class="t" d="M179.559,819.912c-7.084.057-16.461-1.1-18.348-2.255-1.438-.874-2.01-4.016-2.2-5.467H158.8s.409,5.062,2.284,6.21,11.264,2.313,18.348,2.255c2.043,0,2.754-.744,2.713-1.822C181.863,819.491,181.083,819.9,179.559,819.912Z" transform="translate(-118.238 -493.304)"/></g></g></svg>