<svg xmlns="http://www.w3.org/2000/svg" xmlns:xlink="http://www.w3.org/1999/xlink" viewBox="0 0 441.656 341.864"><defs><style>.a,.c{fill:#4651af}.a,.b,.l{opacity:0.1}.f{fill:#f6f7f9}.g{opacity:0.2}.h{fill:#dce0ed}.k{fill:#a27772}.m{fill:#fbbebe}.n{fill:#7c7cdd}.q{fill:#ffd037}</style><linearGradient id="a" x1="0.5" y1="1" x2="0.5" gradientUnits="objectBoundingBox"><stop offset="0" stop-color="gray" stop-opacity="0.251"/><stop offset="0.54" stop-color="gray" stop-opacity="0.122"/><stop offset="1" stop-color="gray" stop-opacity="0.102"/></linearGradient><linearGradient id="b" x1="0.5" y1="1" x2="0.5" y2="0" xlink:href="#a"/></defs><g transform="translate(0 0.021)"><path class="a" d="M95.8.3c-14.2-.6-29-1-41.9 5.2S31.1 26.3 35.4 39.9c1.4 4.4 4.2 8.2 6.5 12.3a71 71 0 0 1 1.4 66.7C35 134.7 21 146.8 11 161.5s-15.7 35.3-5.9 50.2c6.8 10.1 19.4 15.1 31.5 16.3s24.5-.7 36.7-1.2a157.8 157.8 0 0 1 69.3 13.1c30 13.2 55.9 35.7 87.5 44.4 3.8 1 7.7 1.9 11.6 1.2 6.9-1.3 11.9-7 17.3-11.5 17.2-14.2 41-16.9 63.3-17.5s45.6-.2 65.8-9.8c17.7-8.3 31.2-24 39.7-41.5s12-37.2 13.4-56.6c.9-11.6.8-23.6-3.3-34.4a79.2 79.2 0 0 0-24-30.4A117 117 0 0 0 379.3 62c-15.3-5.7-31.9-6.6-48.1-8a661.3 661.3 0 0 1-99-15.8c-31-7.4-64.9-15.5-93-30.5C125.2.2 111.7.8 95.8.2z"/><g class="b"><path class="c" d="M291.7 257.2S293 237 304.5 226a30.8 30.8 0 0 0 9.1-17.2 52 52 0 0 0 .6-9.4"/><path class="c" d="M321.4 192.2c-.9 2.3-7.3 7.3-7.3 7.3s-1.7-8-.8-10.3a4.3 4.3 0 0 1 8 3z"/><path class="c" d="M323.4 207.1c-1.9 1.5-10 2.1-10 2.1s3-7.6 4.9-9a4.3 4.3 0 0 1 5.1 7z"/><path class="c" d="M315.2 228.2c-2.3.3-9.7-3.2-9.7-3.2s6.4-5.1 8.8-5.4a4.3 4.3 0 0 1 1 8.6z"/><path class="c" d="M305.4 242.8c-2.3.6-10.1-1.6-10.1-1.6s5.4-6 7.7-6.8a4.3 4.3 0 1 1 2.4 8.4z"/><path class="c" d="M304.7 206.5c1 2.1 7.9 6.5 7.9 6.5s1-8 0-10.2a4.3 4.3 0 0 0-7.9 3.7z"/><path class="c" d="M293.5 223.6c1.6 1.8 9.5 4 9.5 4s-1.6-8-3.2-9.8a4.3 4.3 0 0 0-6.3 5.8z"/><path class="c" d="M284.8 241.8c1.3 2 8.7 5.5 8.7 5.5s-.1-8.2-1.4-10.2a4.3 4.3 0 0 0-7.3 4.7z"/><path class="c" d="M321.4 192.2c-.9 2.3-7.3 7.3-7.3 7.3s-1.7-8-.8-10.3a4.3 4.3 0 0 1 8 3z"/><path class="c" d="M323.4 207.1c-1.9 1.5-10 2.1-10 2.1s3-7.6 4.9-9a4.3 4.3 0 0 1 5.1 7z"/><path class="c" d="M315.2 228.2c-2.3.3-9.7-3.2-9.7-3.2s6.4-5.1 8.8-5.4a4.3 4.3 0 0 1 1 8.6z"/><path class="c" d="M305.4 242.8c-2.3.6-10.1-1.6-10.1-1.6s5.4-6 7.7-6.8a4.3 4.3 0 1 1 2.4 8.4z"/><path class="c" d="M304.7 206.5c1 2.1 7.9 6.5 7.9 6.5s1-8 0-10.2a4.3 4.3 0 0 0-7.9 3.7z"/><path class="c" d="M293.5 223.6c1.6 1.8 9.5 4 9.5 4s-1.6-8-3.2-9.8a4.3 4.3 0 0 0-6.3 5.8z"/><path class="c" d="M284.8 241.8c1.3 2 8.7 5.5 8.7 5.5s-.1-8.2-1.4-10.2a4.3 4.3 0 0 0-7.3 4.7z"/></g><g class="b"><path class="c" d="M295.7 180.5s1.4-20.2 12.8-31.3a30.8 30.8 0 0 0 9.1-17.2 51.3 51.3 0 0 0 .6-9.5"/><path class="c" d="M325.4 115.5c-.8 2.3-7.3 7.2-7.3 7.2s-1.7-8-.8-10.2a4.3 4.3 0 0 1 8 3z"/><path class="c" d="M327.5 130.4c-2 1.5-10.1 2.1-10.1 2.1s3-7.6 4.9-9a4.3 4.3 0 1 1 5.2 7z"/><path class="c" d="M319.2 151.5c-2.3.3-9.7-3.3-9.7-3.3s6.4-5 8.8-5.3a4.3 4.3 0 1 1 1 8.6z"/><path class="c" d="M309.4 166c-2.3.7-10.1-1.6-10.1-1.6s5.5-6 7.7-6.7a4.3 4.3 0 1 1 2.4 8.3z"/><path class="c" d="M308.7 129.8c1 2.1 8 6.5 8 6.5s.9-8-.2-10.2a4.3 4.3 0 1 0-7.8 3.7z"/><path class="c" d="M297.5 147c1.6 1.7 9.5 3.8 9.5 3.8s-1.6-8-3.2-9.8a4.3 4.3 0 0 0-6.3 6z"/><path class="c" d="M288.8 165c1.3 2 8.7 5.5 8.7 5.5s-.1-8.1-1.4-10.1a4.3 4.3 0 1 0-7.3 4.7z"/><path class="c" d="M325.4 115.5c-.8 2.3-7.3 7.2-7.3 7.2s-1.7-8-.8-10.2a4.3 4.3 0 0 1 8 3z"/><path class="c" d="M327.5 130.4c-2 1.5-10.1 2.1-10.1 2.1s3-7.6 4.9-9a4.3 4.3 0 1 1 5.2 7z"/><path class="c" d="M319.2 151.5c-2.3.3-9.7-3.3-9.7-3.3s6.4-5 8.8-5.3a4.3 4.3 0 1 1 1 8.6z"/><path class="c" d="M309.4 166c-2.3.7-10.1-1.6-10.1-1.6s5.5-6 7.7-6.7a4.3 4.3 0 1 1 2.4 8.3z"/><path class="c" d="M308.7 129.8c1 2.1 8 6.5 8 6.5s.9-8-.2-10.2a4.3 4.3 0 1 0-7.8 3.7z"/><path class="c" d="M297.5 147c1.6 1.7 9.5 3.8 9.5 3.8s-1.6-8-3.2-9.8a4.3 4.3 0 0 0-6.3 6z"/><path class="c" d="M288.8 165c1.3 2 8.7 5.5 8.7 5.5s-.1-8.1-1.4-10.1a4.3 4.3 0 1 0-7.3 4.7z"/></g><g class="b"><path class="c" d="M79 207s-17.5-10.3-22.3-25.5a30.7 30.7 0 0 0-11.3-15.8 51.5 51.5 0 0 0-8.1-4.8"/><path class="c" d="M34.2 151.3c1.7 1.8 3.2 9.8 3.2 9.8s-7.9-2.1-9.5-3.9a4.3 4.3 0 0 1 6.3-5.9z"/><path class="c" d="M48.5 156.2c.4 2.4-2.7 10-2.7 10s-5.5-6.2-5.9-8.5a4.3 4.3 0 1 1 8.6-1.5z"/><path class="c" d="M63.6 173c-.8 2.2-7.3 7.2-7.3 7.2s-1.7-8-.8-10.2a4.3 4.3 0 1 1 8 3z"/><path class="c" d="M72.2 188.3c-.5 2.3-6 8.3-6 8.3s-3-7.6-2.5-10a4.3 4.3 0 1 1 8.5 1.7z"/><path class="c" d="M39.4 172.6c2.4 0 9.5-4 9.5-4S42 164 39.7 164a4.3 4.3 0 1 0-.3 8.6z"/><path class="c" d="M49.7 190.4c2.3-.7 7.8-6.8 7.8-6.8s-7.9-2.2-10.2-1.5a4.3 4.3 0 0 0 2.4 8.3z"/><path class="c" d="M62 206.3c2.4-.3 8.8-5.4 8.8-5.4s-7.3-3.5-9.7-3.2a4.3 4.3 0 1 0 1 8.6z"/><path class="c" d="M34.2 151.3c1.7 1.8 3.2 9.8 3.2 9.8s-7.9-2.1-9.5-3.9a4.3 4.3 0 0 1 6.3-5.9z"/><path class="c" d="M48.5 156.2c.4 2.4-2.7 10-2.7 10s-5.5-6.2-5.9-8.5a4.3 4.3 0 1 1 8.6-1.5z"/><path class="c" d="M63.6 173c-.8 2.2-7.3 7.2-7.3 7.2s-1.7-8-.8-10.2a4.3 4.3 0 1 1 8 3z"/><path class="c" d="M72.2 188.3c-.5 2.3-6 8.3-6 8.3s-3-7.6-2.5-10a4.3 4.3 0 1 1 8.5 1.7z"/><path class="c" d="M39.4 172.6c2.4 0 9.5-4 9.5-4S42 164 39.7 164a4.3 4.3 0 1 0-.3 8.6z"/><path class="c" d="M49.7 190.4c2.3-.7 7.8-6.8 7.8-6.8s-7.9-2.2-10.2-1.5a4.3 4.3 0 0 0 2.4 8.3z"/><path class="c" d="M62 206.3c2.4-.3 8.8-5.4 8.8-5.4s-7.3-3.5-9.7-3.2a4.3 4.3 0 1 0 1 8.6z"/></g><path class="a" d="M292.8 329.4c11.8 5.1 26 2 39.4 2.4a10.8 10.8 0 0 1 5.2 1c1.4 1 2.2 2.4 3.2 3.6 3.7 4.6 11.3 6 18 5.2s12.8-3.3 19.1-5.2a56.5 56.5 0 0 1 34.1-1.3 7 7 0 0 0 3.1.6c2.4-.3 3-2.7 4.7-4.1 3-2.5 9.5-1.8 10.8-5.2.7-1.9-1-3.9-3-5.2-7.3-5.1-17.8-6-27.4-5.2s-19 3-28.7 3c-12 0-23.7-3.3-35.6-4.7-8.3-1-17.3-.8-25 2-8.4 3-10.3 9.7-17.9 13.1z"/><path class="a" d="M70.8 313.8c20 5.7 44.5 2.2 67.2 2.6 3.1.1 6.4.3 9 1.3s3.6 2.6 5.4 4c6.3 5.1 19.4 6.8 30.8 5.9s21.8-3.8 32.6-6c18.6-3.8 39.8-5.5 58.2-1.4a17.4 17.4 0 0 0 5.2.7c4-.3 5.3-3 8-4.7 5.2-2.8 16.2-2 18.4-5.8 1.3-2.2-1.7-4.4-5-6-12.5-5.7-30.4-6.6-46.8-5.7s-32.6 3.3-49 3.3c-20.6 0-40.5-3.7-60.8-5.3-14.1-1-29.5-1-42.7 2.2-14.4 3.4-17.5 11-30.5 14.9z"/><path class="a" d="M17.3 328c5.7 3.3 12.6 1.3 19.1 1.5a4 4 0 0 1 2.5.7 8.6 8.6 0 0 1 1.6 2.4c1.8 3 5.5 4 8.8 3.5s6.2-2.2 9.3-3.5c5.3-2.3 11.3-3.3 16.6-.8a2.6 2.6 0 0 0 1.5.4c1.1-.2 1.4-1.9 2.2-2.8 1.5-1.7 4.6-1.2 5.3-3.5.3-1.3-.5-2.6-1.4-3.5-3.6-3.5-8.7-4-13.4-3.5s-9.3 2-14 2c-5.8 0-11.5-2.3-17.3-3.2-4-.6-8.4-.6-12.2 1.3-4 2-5 6.6-8.6 9z"/><path d="M455 67.3H265.2a17.4 17.4 0 0 0-17.4 17.4v263a17.4 17.4 0 0 0 17.4 17.3H455a17.4 17.4 0 0 0 17.4-17.3v-263A17.4 17.4 0 0 0 455 67.3z" transform="translate(-170.852 -52.759)" style="fill:url(#a)"/><rect width="219.283" height="291.484" rx="20" transform="translate(79.584 18.128)" style="fill:#535461"/><rect class="f" width="197" height="236.34" transform="translate(90.725 45.698)"/><circle class="f" cx="2.676" cy="2.676" r="2.676" transform="translate(185.659 28.82)"/><circle class="f" cx="8.024" cy="8.024" r="8.024" transform="translate(180.31 287.325)"/><g class="g" transform="translate(90.725 45.698)"><rect class="c" width="197" height="11.779"/></g><circle class="f" cx="2.513" cy="2.513" r="2.513" transform="translate(94.374 49.076)"/><circle class="f" cx="2.513" cy="2.513" r="2.513" transform="translate(100.776 49.076)"/><circle class="f" cx="2.513" cy="2.513" r="2.513" transform="translate(107.174 49.076)"/><rect class="h" width="183.448" height="0.613" transform="translate(96.609 115.173)"/><rect class="h" width="183.448" height="0.613" transform="translate(96.609 129.404)"/><rect class="h" width="183.448" height="0.613" transform="translate(96.609 143.638)"/><rect class="h" width="183.448" height="0.613" transform="translate(96.609 157.868)"/><rect class="h" width="183.448" height="0.613" transform="translate(96.609 172.098)"/><g class="g"><path class="c" d="M280 172.7H96.5v-28l16.8 8.3 17.5 2.4 15.3-4.6 18.4-14.3 9.3-5.4 6.8-1.3 6.5.3 10.7 5.3 14.5 9.3 11.4 1.4 9-3 19.1-15.8 9.8-3.4 10.2 1.5 8.4 4.8z"/></g><path class="c" d="M128.4 155.4a66.1 66.1 0 0 1-32-10.3l.4-.6c.3.1 23.8 15.7 43.8 7.9a60.6 60.6 0 0 0 17.5-11.6c5.2-4.4 10.2-8.6 17-10.5a25.3 25.3 0 0 1 22.6 5.1c5.5 4.5 16.4 11.8 28 9.6 5.8-1 10.8-5.4 16-10 10.1-8.7 20.6-17.7 38.6-4.8l-.5.7c-17.5-12.6-27.7-3.8-37.5 4.8-5.3 4.6-10.4 9-16.5 10.1-11.9 2.2-23-5.2-28.7-9.8a24.5 24.5 0 0 0-21.9-4.9c-6.5 1.8-11.4 6-16.6 10.4-5 4.3-10.3 8.8-17.7 11.6a34.2 34.2 0 0 1-12.5 2.3z"/><circle class="c" cx="4.547" cy="4.547" r="4.547" transform="translate(180.335 125.212)"/><g class="g"><path class="c" d="M244.2 69.6h-57.4a1 1 0 0 0-.9 1v38.7a1 1 0 0 0 1.6.6l10-10.6a1 1 0 0 1 .6-.2h46.1a1 1 0 0 0 1-1V70.5a1 1 0 0 0-1-1z"/></g><rect class="f" width="32.664" height="4.086" transform="translate(199.182 76.769)"/><rect class="f" width="8.968" height="4.086" transform="translate(199.182 85.822)"/><g class="g" transform="translate(112.101 201.948)"><rect class="c" width="8.968" height="4.086"/></g><g class="g" transform="translate(112.101 209.845)"><rect class="c" width="8.968" height="4.086"/></g><g class="g" transform="translate(112.101 217.743)"><rect class="c" width="8.968" height="4.086"/></g><g class="g" transform="translate(112.101 225.644)"><rect class="c" width="8.968" height="4.086"/></g><g class="g" transform="translate(112.101 233.542)"><rect class="c" width="8.968" height="4.086"/></g><g class="g" transform="translate(112.101 241.439)"><rect class="c" width="8.968" height="4.086"/></g><g class="g" transform="translate(112.101 249.341)"><rect class="c" width="8.968" height="4.086"/></g><g class="g" transform="translate(112.101 257.238)"><rect class="c" width="8.968" height="4.086"/></g><g class="g" transform="translate(128.987 261.324)"><rect class="c" width="8.968" height="4.086"/></g><g class="g" transform="translate(144.786 261.324)"><rect class="c" width="8.968" height="4.086"/></g><g class="g" transform="translate(160.585 261.324)"><rect class="c" width="8.968" height="4.086"/></g><g class="g" transform="translate(176.38 261.324)"><rect class="c" width="8.968" height="4.086"/></g><g class="g" transform="translate(192.179 261.324)"><rect class="c" width="8.968" height="4.086"/></g><g class="g" transform="translate(207.978 261.324)"><rect class="c" width="8.968" height="4.086"/></g><g class="g" transform="translate(223.773 261.324)"><rect class="c" width="8.968" height="4.086"/></g><g class="g" transform="translate(239.572 261.324)"><rect class="c" width="8.968" height="4.086"/></g><g class="g" transform="translate(255.371 261.324)"><rect class="c" width="8.968" height="4.086"/></g><rect class="f" width="13.617" height="4.086" transform="translate(218.229 85.822)"/><rect class="c" width="8.968" height="25.605" transform="translate(128.987 231.634)"/><rect class="c" width="8.968" height="37.453" transform="translate(144.786 219.785)"/><rect class="c" width="8.968" height="47.393" transform="translate(160.585 209.845)"/><rect class="c" width="8.968" height="42.237" transform="translate(176.38 214.997)"/><rect class="c" width="8.968" height="51.205" transform="translate(192.179 206.033)"/><g class="g" transform="translate(207.978 225.644)"><rect class="c" width="8.968" height="31.594"/></g><g class="g" transform="translate(223.773 225.644)"><rect class="c" width="8.968" height="31.594"/></g><g class="g" transform="translate(239.572 225.644)"><rect class="c" width="8.968" height="31.594"/></g><g class="g" transform="translate(255.371 225.644)"><rect class="c" width="8.968" height="31.594"/></g><path d="M921.8 229.5c-9.7-5.6-13.4-7-13.4-7l-.2-.2a8.1 8.1 0 0 1-2.4-3v-.7c.1-3 2.2-5.6 4.2-8l5.1-6a5.8 5.8 0 0 0 1.3-2 4.7 4.7 0 0 0 .2-1.3v-.5l-.2-4.5c0-1.3-.3-3-1.6-3.3-.7 0-1.6.2-2-.4a1.1 1.1 0 0 1 0-.8 17.3 17.3 0 0 0 .4-3 4.3 4.3 0 0 0-.2-1.6c-.7-2.2-3.3-3-5.6-3.5s-5-.8-6.4-2.6a18.8 18.8 0 0 0-1.2-1.7 5 5 0 0 0-2.4-1.1 13.3 13.3 0 0 0-8.5.7 7.7 7.7 0 0 1-3.4 1c-1.3 0-2.4-.9-3.6-1-2-.4-4 1-5 2.8a7 7 0 0 0-.9 3.4v.2a5 5 0 0 0 1.3 3.5c.9 1 2.2 1.5 2.5 2.7l.3 1.5a.6.6 0 0 0 0 .2v.1a15.1 15.1 0 0 0-3.2 9.3 15.5 15.5 0 0 0 10.9 14.7v.5a6.6 6.6 0 0 1-2.2 5.1l-13.7 5.6s-8.3-1-11.3 11.1a20.5 20.5 0 0 0-.5 6.1 18 18 0 0 1-2.3 9.3c-3.4 6.6-2.6 21.9 4.4 23.4 6.5 1.4 9 .8 9.4.8v.2c-.2 3-1.2 27.7-5 30.7-1 .8-.8 1.3 0 1.7v.5c-.1 1.8-.7 8.7-3.2 12.6-3 4.5-2.7 30.7-2.7 30.7l-2 15.5s1.3 9.5 0 11.2a541 541 0 0 0-2.8 44.4h-.1a3.7 3.7 0 0 0-3 1.8 52.3 52.3 0 0 1-7.3 7.5c-1.2 1.8-5.8 3.4-8.2 4.2a5 5 0 0 0-1 .4 4.9 4.9 0 0 0-2 2.2 2.4 2.4 0 0 0-.3 1.9c.7 1.5 13.5 2.5 16.7 1 2.6-1.2 12.7-2.7 16.9-3.4a3.5 3.5 0 0 0 3-3 2 2 0 0 0-.4-1.5c-.8-1-1.2-3.7-1.4-5.4a3.6 3.6 0 0 0 1-.6 40.3 40.3 0 0 1 2.2-16.2c3.1-8.2 4-23.3 3.3-33.2 0 0 9.4-40.5 16.9-44.3 0 .1 3.7 4.7 4.1 19 .5 14.6 5.8 24.1 5.8 24.1s-2.4 24.7 0 34l-3 14.5-.5-.3.3 1-.1.3h.1a28.7 28.7 0 0 1 .7 7l-.6 3.9c-.4 2.2-.5 4.4.7 4.9 2 .7 13.3 1.8 15.3-.7a3.6 3.6 0 0 0 .5-3.7 3.8 3.8 0 0 0-.5-1s-3-5-2.2-8.4a2.5 2.5 0 0 0-.4-2 101.7 101.7 0 0 1 2.6-16.3c2-7.3 6-23.3 3-33.8a23 23 0 0 0-.3-1.2 45.3 45.3 0 0 1-1.7-17.7 36 36 0 0 1 0-15.5c1.8-8.4 3.1-16.8 3.1-16.8s1-11.2.1-18v-.5h.5s-2.7-11.7-3.6-19.2l-.8-6.3a15.4 15.4 0 0 0 2.5-.6c8.3-3 11-29 11-29v-8.2s2.7-12.6-7-18.2zm-62.2 201l-.4-.2z" transform="translate(-517.542 -118.143)" style="fill:url(#b)"/><path d="M399.2 261.6c3.6 10.4-.6 27.3-2.5 34.8A105.5 105.5 0 0 0 394 313a35 35 0 0 1-13.3-.3l3.2-15.5c-2.3-9.2 0-33.8 0-33.8s-5.1-9.5-5.6-24c-.4-14.3-4-18.9-4-19-7.3 3.8-16.5 44.2-16.5 44.2.7 9.8-.2 24.9-3.2 33a41 41 0 0 0-2.3 16.2 5 5 0 0 1-4 .8c-4.4-.7-9.5-4.5-9.5-4.5s1.6-44 2.9-45.7 0-11.1 0-11.1l2-15.4s-.4-26.1 2.5-30.7a31 31 0 0 0 3.1-12.5 3.2 3.2 0 0 1 0-.5l4.4-5.2s42.3-3.2 45.4 0c.8.8 1.3 2.5 1.6 4.8.8 6.8-.2 18-.2 18s-1.2 8.3-3 16.7a36.6 36.6 0 0 0 0 15.4 46 46 0 0 0 1.6 17.7z" style="fill:#65617d"/><path class="k" d="M396.6 327.7c-1.9 2.5-13 1.5-14.9.7-1.1-.5-1-2.7-.7-4.9l.6-4c.3-2.6-1-8.1-1-8.1s2.6 2.6 3.2 0a2.9 2.9 0 0 1 2.1-2 5.7 5.7 0 0 1 4 .2c1.9.8 5.2 2.6 4.6 5-.8 3.5 2 8.5 2 8.5a3.8 3.8 0 0 1 .6.9 3.6 3.6 0 0 1-.5 3.7z"/><path class="l" d="M396.6 327.7c-1.9 2.5-13 1.5-14.9.7-1.1-.5-1-2.7-.7-4.9 1.2.6 3.2 1 6.6.7a19.2 19.2 0 0 1 2.3 0 54.8 54.8 0 0 0 7.2-.2 3.6 3.6 0 0 1-.5 3.7z"/><path class="l" d="M357.9 264.6c.7 9.8-.2 24.9-3.2 33a41 41 0 0 0-2.2 16.2 5 5 0 0 1-4.1.8c.9-6.4 4.7-33.8 7.2-55.5a90.5 90.5 0 0 1 16-41.6l2.7 2.9c-7.2 3.8-16.4 44.2-16.4 44.2z"/><path class="m" d="M392 106l-1.8 9-9 15.2-11.1-4.7s-15.1-15.8-5.6-18.1a8.3 8.3 0 0 0 3.1-1.4 6.5 6.5 0 0 0 2.5-5.5 17 17 0 0 0-1.6-6.5l19.5-6a31 31 0 0 0-1.4 7.8c-.2 5.3 1.8 8 3.4 9.2a5.9 5.9 0 0 0 2 1z"/><path class="l" d="M388 88a31 31 0 0 0-1.4 7.8 14.2 14.2 0 0 1-1.1 1.2 15.4 15.4 0 0 1-15.4 3.5 17 17 0 0 0-1.6-6.5z"/><path class="m" d="M390.2 85.4a15.3 15.3 0 1 1-4.5-10.9 15.4 15.4 0 0 1 4.5 11z"/><path class="l" d="M392 106l-1.8 9-9 15.2-11.1-4.7s-15.1-15.8-5.6-18.1a8.3 8.3 0 0 0 3.1-1.4c-1.7 4.7 5.4 14.5 5.4 14.5.8 1.2 2.7.5 2.7.5 4.6-.7 13-13.8 14.3-16a5.9 5.9 0 0 0 2 1z"/><path class="l" d="M400.8 193.8a100 100 0 0 1-23.2 3c-6.1-.8-18.2-1.4-18.2-1.4s-7.6.4-10-.7a3.2 3.2 0 0 1 0-.5l4.4-5.2s42.3-3.2 45.4 0c.8.8 1.3 2.6 1.6 4.8z"/><path class="n" d="M373 121s-8-11-5-15.3l-13.4 5.5s-8.1-1-11 11a20.9 20.9 0 0 0-.6 6.2 18.3 18.3 0 0 1-2.2 9.2c-3.3 6.6-2.5 21.8 4.3 23.4s9.2.7 9.2.7-1 27.6-4.9 30.8 10 2.4 10 2.4 12 .6 18.2 1.5 23.6-3.2 23.6-3.2-2.6-11.6-3.5-19l-3-23.1 15.4-20.8s2.7-12.6-6.8-18.2-13.1-7-13.1-7-9.5 15.6-14.5 16.3c0 0-1.9.8-2.7-.4z"/><path class="l" d="M355.3 125.3s-.1 5 .8 7 4.2 12.8 4.2 12.8h-7.5s4-4.4 3.7-6.5-1.2-13.3-1.2-13.3z"/><path class="m" d="M377.7 163s-16.7-4.2-18.3-7.6-5.8-11.3-5.8-11.3l1.8-2.3 8 6.3s9.7 7.7 14.2 8.5 0 6.3 0 6.3z"/><path d="M377.7 163s-16.7-4.2-18.3-7.6-5.8-11.3-5.8-11.3l1.8-2.3 8 6.3s9.7 7.7 14.2 8.5 0 6.3 0 6.3z" style="opacity:0.05"/><path class="m" d="M392 143.3v9h-1.4a42.3 42.3 0 0 0-20.5 5.3l-2.7 1.6-.8.4L362 149l4.3-3.9h.3c1 .1 5.7.5 7.6-.2 1.9-.6 4.2-2.6 9.7-1.2 2.7.7 5 3.7 7.6 2.8z"/><path class="l" d="M406.6 126.9l3 3.3v8.3s-2.5 26-10.7 28.8-22.7-1.7-22.7-1.7-3.7-10-2-10.5l15.6-4.3s-.2-15.2 2.8-19.7c0 0-2-14.2 4.8-14.5s9.2 10.3 9.2 10.3z"/><path class="n" d="M407 126.9l3 3.3v8.3s-2.5 26-10.6 28.8-22.7-1.7-22.7-1.7-3.8-10-2-10.5l15.5-4.3s-.2-15.2 2.8-19.7c0 0-2-14.2 4.8-14.5s9.3 10.3 9.3 10.3z"/><path class="l" d="M386 92a6 6 0 0 0-.3-3 2.3 2.3 0 0 0-2.4-1.3c-1.3.3-1.9 2-3.2 2.3a2.5 2.5 0 0 1-2.7-1.4 7.2 7.2 0 0 1-.5-3.2v-3.8a6.2 6.2 0 0 0-1-4c-1-1.3-3.4-1.9-5-1.8a4.4 4.4 0 0 0-3 1.2 3.8 3.8 0 0 1-3.1 1 2.7 2.7 0 0 1-2.2-1.8 15.4 15.4 0 1 1 22.9 20.4 41.1 41.1 0 0 0 .5-4.6z"/><path d="M364.8 77.6a2.7 2.7 0 0 1-2.2-1.9l-.3-1.5c-.3-1.1-1.6-1.8-2.4-2.7-1.7-1.8-1.6-4.7-.4-6.9 1-1.8 2.9-3.2 4.8-2.9 1.3.2 2.3 1.1 3.6 1.2a7.2 7.2 0 0 0 3.3-1.1 12.7 12.7 0 0 1 8.4-.8 4.8 4.8 0 0 1 2.3 1.2 20.4 20.4 0 0 1 1.2 1.7c1.4 1.8 4 2.2 6.1 2.6s4.8 1.3 5.6 3.4c.5 1.4 0 3-.3 4.5a1.3 1.3 0 0 0 0 1c.4.5 1.3.2 2 .4 1.2.3 1.5 1.9 1.6 3.2l.1 4.4a4.4 4.4 0 0 1-1.4 3.8l-5 6c-2.2 2.6-4.6 5.7-4.1 9.1-1 .5-2.3-.4-2.6-1.5a6.9 6.9 0 0 1 .1-3.4 41.6 41.6 0 0 0 .8-5.9 6 6 0 0 0-.3-3 2.3 2.3 0 0 0-2.4-1.3c-1.3.3-1.9 2-3.1 2.4a2.5 2.5 0 0 1-2.8-1.4 7.2 7.2 0 0 1-.5-3.3V81a6.2 6.2 0 0 0-.9-4c-1-1.3-3.5-1.8-5.2-1.8a4.4 4.4 0 0 0-3 1.2 3.9 3.9 0 0 1-3 1.1z" style="fill:#7c5c5c"/><path class="l" d="M368.2 125l4.7 19.4s3.8 0-4.7-19.4z"/><path class="l" d="M384.4 121.7s-6.2 10.2-3.8 20.6l1.1.1s-2-4.8 2.7-20.7z"/><path class="l" d="M388.3 179s7.6-2.5 8.1 3.4c0 0-1.4-4-8.1-3.3z"/><path class="l" d="M366.3 145.6s-1.5 10.5 1.3 14.8a33.1 33.1 0 0 1-13.3 1.8l-1-16.6z"/><path class="l" d="M367.4 159.2l-.8.4L362 149l4.3-3.9h.3c-.1.5-1.3 9.6.8 14z"/><path class="n" d="M366.3 145.1s-1.5 10.6 1.3 14.8a33.1 33.1 0 0 1-13.3 1.8l-5.3-16.6z"/><path class="k" d="M353.3 321.3a3.4 3.4 0 0 1-3 3c-4 .6-14 2.2-16.4 3.3-3.2 1.6-15.7.5-16.3-1a2.4 2.4 0 0 1 .2-1.8 4.9 4.9 0 0 1 2-2.2 5 5 0 0 1 1-.4c2.3-.8 6.8-2.5 8-4.2 0 0 5.5-4.9 7.1-7.5a3.6 3.6 0 0 1 3-1.8c1.2 0 2.7.6 3.3 3.5 0 0 7.3 4.1 9.2.5 0 0 .3 5.6 1.5 7a2 2 0 0 1 .4 1.6z"/><path class="l" d="M353.3 321.3a3.4 3.4 0 0 1-3 3c-4 .6-14 2.2-16.4 3.4-3.2 1.5-15.7.4-16.3-1.1a2.4 2.4 0 0 1 .2-1.8 4.9 4.9 0 0 1 2-2.2c2.1 1.4 6.6 2.7 16.6 1.1 9.5-1.5 14.2-3 16.5-3.9a2 2 0 0 1 .4 1.5z"/><g class="b"><path d="M394.5 74.6a14 14 0 0 0 .4-3.5 22 22 0 0 1-.4 2.8 1.7 1.7 0 0 0 0 .7z"/><path d="M385.7 88.7a4.4 4.4 0 0 1 .3 1.8 5.1 5.1 0 0 0-.3-2.4 2.3 2.3 0 0 0-2.4-1.4c-1.3.3-1.9 2-3.2 2.4a2.5 2.5 0 0 1-2.7-1.5 7.2 7.2 0 0 1-.5-3.2v-3.8a6.2 6.2 0 0 0-1-4c-1-1.3-3.4-1.9-5-1.8a4.4 4.4 0 0 0-3 1.2 3.8 3.8 0 0 1-3.1 1 2.7 2.7 0 0 1-2.2-1.8l-.2-1.5c-.4-1.2-1.7-1.8-2.5-2.7a4.9 4.9 0 0 1-1.3-3.2 5.1 5.1 0 0 0 1.3 3.9c.9.9 2.1 1.5 2.5 2.7.1.5 0 1 .2 1.5a2.7 2.7 0 0 0 2.2 1.9 3.8 3.8 0 0 0 3-1.1 4.4 4.4 0 0 1 3-1.2c1.7 0 4.1.5 5.2 1.8a6.3 6.3 0 0 1 .9 4V85a6.9 6.9 0 0 0 .5 3.2 2.5 2.5 0 0 0 2.7 1.4c1.3-.4 1.9-2 3.2-2.4a2.3 2.3 0 0 1 2.4 1.4z"/><path d="M398 84.6a5.8 5.8 0 0 1-1.2 2l-5 6c-2.1 2.6-4.3 5.5-4.2 8.7.2-3 2.2-5.6 4.2-8l5-6a5.8 5.8 0 0 0 1.3-2 5.6 5.6 0 0 0 0-1.7 4 4 0 0 1 0 1z"/><path d="M385 100.3a3.6 3.6 0 0 1 0-.8 4 4 0 0 0 0 1.4c.4 1.1 1.6 2 2.7 1.6v-.7a2.1 2.1 0 0 1-2.6-1.5z"/></g><path class="l" d="M335 311.9s1.5 2.7 7.2.3"/><path class="l" d="M383.2 312.5s5 5.8 11.2 2"/><path class="l" d="M397.6 244s-3.5 2.1-3.6 3.3 1.8-.9 1.8-.9z"/><path class="l" d="M399 260.6a7.3 7.3 0 0 1-4.3 1.7c-2.6 0-2.4 3.5-.7 2.5a43.4 43.4 0 0 0 5-4.2z"/><path class="l" d="M399.6 262.8s-1.7 8.2-3 6.6"/><path class="c" d="M55.9 301s2.2 3-1 7.3-6 8.2-5 11c0 0 5-8.3 9-8.4s1.4-5-3-10z"/><path class="l" d="M55.9 301a3.5 3.5 0 0 1 .4.9c4 4.6 6 9 2.3 9-3.5.1-7.8 6.4-8.8 8a3.7 3.7 0 0 0 .1.4s5-8.3 9-8.4 1.4-5-3-10z"/><path class="q" d="M60 304.7c0 1 0 1.9-.2 1.9s-.3-.9-.3-1.9.2-.5.3-.5.2-.5.2.5z"/><path class="q" d="M61.5 306c-1 .4-1.7.7-1.8.6s.6-.6 1.5-1.1.6-.1.6 0 .6 0-.3.5z"/><path class="c" d="M44 301s-2.2 3 1 7.3 6 8.2 5 11c0 0-5-8.3-9-8.4s-1.4-5 3-10z"/><path class="l" d="M44 301a3.7 3.7 0 0 0-.4.9c-4 4.6-6 9-2.3 9 3.5.1 7.8 6.4 8.8 8a2.9 2.9 0 0 1-.2.4s-4.9-8.3-9-8.4-1.3-5 3.1-10z"/><path class="q" d="M39.8 304.7c0 1 .2 1.9.3 1.9s.3-.9.3-1.9-.2-.5-.3-.5-.3-.5-.3.5z"/><path class="q" d="M38.4 306c1 .4 1.7.7 1.8.6s-.6-.6-1.5-1.1-.6-.1-.7 0-.5 0 .4.5z"/><path d="M40.6 318.9s6.2-.2 8.1-1.5 9.7-3 10.2-.8 9.4 10.7 2.3 10.8-16.5-1.1-18.3-2.3-2.3-6.2-2.3-6.2z" style="fill:#a8a8a8"/><path d="M61.3 326.6c-7 0-16.4-1-18.3-2.2-1.5-1-2-4-2.2-5.5h-.2s.4 5 2.2 6.2 11.3 2.3 18.4 2.3c2 0 2.7-.8 2.7-1.9-.3.7-1 1.1-2.6 1.1z" style="opacity:0.2"/></g></svg>