<svg xmlns="http://www.w3.org/2000/svg" xmlns:xlink="http://www.w3.org/1999/xlink" viewBox="0 0 1920 404.189"><defs><style>.a{fill:#f9fafc;}.b,.d{fill:#4651af;}.b,.c,.m{opacity:0.1;}.e{fill:url(#a);}.f{fill:#535461;}.g{fill:#f6f7f9;}.h,.t{opacity:0.2;}.i{fill:#dce0ed;}.j{fill:url(#b);}.k{fill:#65617d;}.l{fill:#a27772;}.n{fill:#fbbebe;}.o{fill:#7c7cdd;}.p{opacity:0.05;}.q{fill:#7c5c5c;}.r{fill:#ffd037;}.s{fill:#a8a8a8;}</style><linearGradient id="a" x1="0.5" y1="1" x2="0.5" gradientUnits="objectBoundingBox"><stop offset="0" stop-color="gray" stop-opacity="0.251"/><stop offset="0.54" stop-color="gray" stop-opacity="0.122"/><stop offset="1" stop-color="gray" stop-opacity="0.102"/></linearGradient><linearGradient id="b" x1="0.5" y1="1" x2="0.5" y2="0" xlink:href="#a"/></defs><g transform="translate(0 -473.043)"><path class="a" d="M0,0,1920,73.819v50.413H0Z" transform="translate(0 753)"/><g transform="translate(1223.036 473.064)"><path class="b" d="M172.061,31.942c-16.688-.615-34.119-1.047-49.208,6.107S96.1,62.532,101.158,78.466c1.651,5.194,4.868,9.722,7.58,14.45,13.562,23.649,14.191,54.215,1.618,78.407-9.678,18.622-26.083,32.794-37.893,50.144s-18.521,41.4-6.9,58.877c7.955,11.968,22.717,17.792,37.019,19.2s28.685-.811,43.049-1.383a185.43,185.43,0,0,1,81.412,15.4c35.281,15.468,65.675,41.93,102.824,52.142,4.46,1.224,9.122,2.213,13.682,1.383,8.089-1.474,13.97-8.161,20.3-13.442,20.216-16.74,48.2-19.866,74.446-20.643s53.572-.178,77.293-11.445c20.711-9.837,36.654-28.137,46.568-48.81S576.374,229.1,578,206.225c.96-13.615.927-27.672-3.946-40.418-5.478-14.33-16.587-25.742-28.238-35.718-12.175-10.427-25.444-19.875-40.475-25.5-17.955-6.721-37.446-7.681-56.563-9.275A777.009,777.009,0,0,1,332.422,76.628c-36.309-8.68-76.174-18.161-109.242-35.843C206.583,31.908,190.769,32.614,172.061,31.942Z" transform="translate(-59.52 -31.65)"/><g class="c" transform="translate(333.933 219.044)"><path class="d" d="M773.4,587.523s1.7-23.817,15.1-36.8a36.165,36.165,0,0,0,10.687-20.235,61.151,61.151,0,0,0,.72-11.1" transform="translate(-764.613 -504.285)"/><path class="d" d="M835.491,494.8c-.984,2.631-8.593,8.478-8.593,8.478s-1.92-9.4-.927-12.036a5.081,5.081,0,0,1,9.52,3.557Z" transform="translate(-791.797 -487.938)"/><path class="d" d="M838.37,528.858c-2.256,1.671-11.82,2.444-11.82,2.444s3.5-8.934,5.761-10.61a5.084,5.084,0,0,1,6.059,8.161Z" transform="translate(-792.247 -504.488)"/><path class="d" d="M818.69,579.343c-2.794.307-11.44-3.841-11.44-3.841s7.537-5.943,10.327-6.241a5.079,5.079,0,0,1,1.114,10.082Z" transform="translate(-782.212 -530.216)"/><path class="d" d="M794.175,615.03c-2.7.773-11.925-1.867-11.925-1.867s6.423-7.129,9.122-7.9a5.084,5.084,0,1,1,2.8,9.77Z" transform="translate(-769.214 -548.812)"/><path class="d" d="M804.864,529.348c1.2,2.535,9.275,7.715,9.275,7.715s1.114-9.53-.091-12.069a5.084,5.084,0,0,0-9.184,4.354Z" transform="translate(-780.748 -505.761)"/><path class="d" d="M776.336,569.816c1.92,2.06,11.162,4.59,11.162,4.59s-1.791-9.429-3.7-11.493a5.084,5.084,0,0,0-7.465,6.9Z" transform="translate(-765.437 -526.07)"/><path class="d" d="M755.843,615.164c1.527,2.352,10.226,6.409,10.226,6.409s-.173-9.6-1.7-11.949a5.084,5.084,0,0,0-8.521,5.54Z" transform="translate(-755.097 -550.064)"/><path class="d" d="M835.491,494.8c-.984,2.631-8.593,8.478-8.593,8.478s-1.92-9.4-.927-12.036a5.081,5.081,0,0,1,9.52,3.557Z" transform="translate(-791.797 -487.938)"/><path class="d" d="M838.37,528.858c-2.256,1.671-11.82,2.444-11.82,2.444s3.5-8.934,5.761-10.61a5.084,5.084,0,0,1,6.059,8.161Z" transform="translate(-792.247 -504.488)"/><path class="d" d="M818.69,579.343c-2.794.307-11.44-3.841-11.44-3.841s7.537-5.943,10.327-6.241a5.079,5.079,0,0,1,1.114,10.082Z" transform="translate(-782.212 -530.216)"/><path class="d" d="M794.175,615.03c-2.7.773-11.925-1.867-11.925-1.867s6.423-7.129,9.122-7.9a5.084,5.084,0,1,1,2.8,9.77Z" transform="translate(-769.214 -548.812)"/><path class="d" d="M804.864,529.348c1.2,2.535,9.275,7.715,9.275,7.715s1.114-9.53-.091-12.069a5.084,5.084,0,0,0-9.184,4.354Z" transform="translate(-780.748 -505.761)"/><path class="d" d="M776.336,569.816c1.92,2.06,11.162,4.59,11.162,4.59s-1.791-9.429-3.7-11.493a5.084,5.084,0,0,0-7.465,6.9Z" transform="translate(-765.437 -526.07)"/><path class="d" d="M755.843,615.164c1.527,2.352,10.226,6.409,10.226,6.409s-.173-9.6-1.7-11.949a5.084,5.084,0,0,0-8.521,5.54Z" transform="translate(-755.097 -550.064)"/></g><g class="c" transform="translate(338.481 128.894)"><path class="d" d="M783.2,399.743s1.7-23.817,15.1-36.8A36.2,36.2,0,0,0,808.99,342.7a60.327,60.327,0,0,0,.72-11.1" transform="translate(-774.257 -316.505)"/><path class="d" d="M845.293,307.019c-.96,2.626-8.589,8.473-8.589,8.473s-1.92-9.4-.931-12.031a5.081,5.081,0,1,1,9.52,3.557Z" transform="translate(-801.444 -300.158)"/><path class="d" d="M848.2,340.9c-2.252,1.675-11.82,2.444-11.82,2.444s3.5-8.929,5.761-10.6A5.084,5.084,0,1,1,848.2,340.9Z" transform="translate(-801.906 -316.53)"/><path class="d" d="M828.5,391.538c-2.789.307-11.435-3.841-11.435-3.841s7.537-5.939,10.327-6.241a5.084,5.084,0,1,1,1.109,10.107Z" transform="translate(-791.861 -342.41)"/><path class="d" d="M803.975,427.29c-2.7.773-11.925-1.868-11.925-1.868s6.428-7.129,9.122-7.907a5.084,5.084,0,1,1,2.8,9.775Z" transform="translate(-778.858 -361.071)"/><path class="d" d="M814.6,341.417c1.2,2.54,9.28,7.72,9.28,7.72s1.109-9.534-.091-12.069a5.084,5.084,0,1,0-9.19,4.35Z" transform="translate(-790.326 -317.835)"/><path class="d" d="M786.232,382.132c1.92,2.064,11.167,4.59,11.167,4.59s-1.8-9.429-3.7-11.488a5.084,5.084,0,0,0-7.465,6.9Z" transform="translate(-775.177 -338.391)"/><path class="d" d="M765.473,427.124c1.531,2.352,10.226,6.409,10.226,6.409s-.173-9.6-1.7-11.949a5.084,5.084,0,1,0-8.521,5.54Z" transform="translate(-764.572 -362.024)"/><path class="d" d="M845.293,307.019c-.96,2.626-8.589,8.473-8.589,8.473s-1.92-9.4-.931-12.031a5.081,5.081,0,1,1,9.52,3.557Z" transform="translate(-801.444 -300.158)"/><path class="d" d="M848.2,340.9c-2.252,1.675-11.82,2.444-11.82,2.444s3.5-8.929,5.761-10.6A5.084,5.084,0,1,1,848.2,340.9Z" transform="translate(-801.906 -316.53)"/><path class="d" d="M828.5,391.538c-2.789.307-11.435-3.841-11.435-3.841s7.537-5.939,10.327-6.241a5.084,5.084,0,1,1,1.109,10.107Z" transform="translate(-791.861 -342.41)"/><path class="d" d="M803.975,427.29c-2.7.773-11.925-1.868-11.925-1.868s6.428-7.129,9.122-7.907a5.084,5.084,0,1,1,2.8,9.775Z" transform="translate(-778.858 -361.071)"/><path class="d" d="M814.6,341.417c1.2,2.54,9.28,7.72,9.28,7.72s1.109-9.534-.091-12.069a5.084,5.084,0,1,0-9.19,4.35Z" transform="translate(-790.326 -317.835)"/><path class="d" d="M786.232,382.132c1.92,2.064,11.167,4.59,11.167,4.59s-1.8-9.429-3.7-11.488a5.084,5.084,0,0,0-7.465,6.9Z" transform="translate(-775.177 -338.391)"/><path class="d" d="M765.473,427.124c1.531,2.352,10.226,6.409,10.226,6.409s-.173-9.6-1.7-11.949a5.084,5.084,0,1,0-8.521,5.54Z" transform="translate(-764.572 -362.024)"/></g><g class="c" transform="translate(31.495 176.293)"><path class="d" d="M199.689,479.732s-20.5-12.223-26.088-30.024a36.131,36.131,0,0,0-13.269-18.642,60.531,60.531,0,0,0-9.6-5.636" transform="translate(-138.437 -412.688)"/><path class="d" d="M133.84,400.416c1.92,2.06,3.711,11.488,3.711,11.488s-9.261-2.52-11.167-4.58a5.084,5.084,0,0,1,7.456-6.908Z" transform="translate(-125.123 -398.889)"/><path class="d" d="M167.178,409.3c.48,2.765-3.13,11.656-3.13,11.656s-6.4-7.148-6.884-9.914a5.084,5.084,0,1,1,10.014-1.743Z" transform="translate(-141.73 -402.048)"/><path class="d" d="M204.551,447.508c-.96,2.631-8.589,8.483-8.589,8.483s-1.92-9.4-.936-12.031a5.084,5.084,0,1,1,9.525,3.548Z" transform="translate(-161.321 -420.531)"/><path class="d" d="M225.308,486.011c-.518,2.76-7.028,9.837-7.028,9.837s-3.481-8.944-2.957-11.7a5.081,5.081,0,1,1,9.986,1.887Z" transform="translate(-171.991 -441.065)"/><path class="d" d="M150.694,443.167c2.8.067,11.066-4.8,11.066-4.8s-8.017-5.281-10.826-5.348a5.084,5.084,0,1,0-.24,10.164Z" transform="translate(-135.837 -416.633)"/><path class="d" d="M174.3,486.894c2.7-.778,9.122-7.912,9.122-7.912s-9.227-2.636-11.925-1.858a5.084,5.084,0,0,0,2.808,9.77Z" transform="translate(-147.38 -439.49)"/><path class="d" d="M205.014,525.583c2.794-.307,10.327-6.241,10.327-6.241s-8.641-4.158-11.44-3.841a5.079,5.079,0,1,0,1.114,10.082Z" transform="translate(-163.585 -459.509)"/><path class="d" d="M133.84,400.416c1.92,2.06,3.711,11.488,3.711,11.488s-9.261-2.52-11.167-4.58a5.084,5.084,0,0,1,7.456-6.908Z" transform="translate(-125.123 -398.889)"/><path class="d" d="M167.178,409.3c.48,2.765-3.13,11.656-3.13,11.656s-6.4-7.148-6.884-9.914a5.084,5.084,0,1,1,10.014-1.743Z" transform="translate(-141.73 -402.048)"/><path class="d" d="M204.551,447.508c-.96,2.631-8.589,8.483-8.589,8.483s-1.92-9.4-.936-12.031a5.084,5.084,0,1,1,9.525,3.548Z" transform="translate(-161.321 -420.531)"/><path class="d" d="M225.308,486.011c-.518,2.76-7.028,9.837-7.028,9.837s-3.481-8.944-2.957-11.7a5.081,5.081,0,1,1,9.986,1.887Z" transform="translate(-171.991 -441.065)"/><path class="d" d="M150.694,443.167c2.8.067,11.066-4.8,11.066-4.8s-8.017-5.281-10.826-5.348a5.084,5.084,0,1,0-.24,10.164Z" transform="translate(-135.837 -416.633)"/><path class="d" d="M174.3,486.894c2.7-.778,9.122-7.912,9.122-7.912s-9.227-2.636-11.925-1.858a5.084,5.084,0,0,0,2.808,9.77Z" transform="translate(-147.38 -439.49)"/><path class="d" d="M205.014,525.583c2.794-.307,10.327-6.241,10.327-6.241s-8.641-4.158-11.44-3.841a5.079,5.079,0,1,0,1.114,10.082Z" transform="translate(-163.585 -459.509)"/></g><path class="b" d="M776.25,818.1c13.783,6,30.6,2.348,46.241,2.77,2.136.058,4.407.235,6.121,1.272s2.564,2.712,3.74,4.153c4.383,5.348,13.365,7.067,21.215,6.159s15.046-3.913,22.453-6.2c12.8-3.956,27.437-5.761,40.068-1.44a8.274,8.274,0,0,0,3.62.691c2.77-.35,3.6-3.221,5.531-4.858,3.495-2.962,11.09-2.156,12.626-6.059.9-2.285-1.171-4.628-3.428-6.188-8.641-5.972-20.979-6.956-32.276-6.035s-22.4,3.461-33.754,3.471c-14.148,0-27.816-3.9-41.825-5.5-9.7-1.1-20.293-.96-29.391,2.29C787.33,806.142,785.16,814.058,776.25,818.1Z" transform="translate(-432.162 -430.994)"/><path class="b" d="M232.93,777.2c23.524,6.774,52.233,2.65,78.925,3.13,3.653.067,7.523.264,10.456,1.44s4.374,3.073,6.385,4.7c7.48,6.044,22.809,7.989,36.2,6.961s25.684-4.422,38.33-7c21.853-4.47,46.837-6.505,68.392-1.632a20.437,20.437,0,0,0,6.183.783c4.724-.4,6.131-3.639,9.438-5.492,5.967-3.361,18.925-2.434,21.546-6.841,1.536-2.583-2-5.233-5.847-6.995-14.729-6.745-35.8-7.859-55.089-6.817s-38.238,3.908-57.61,3.922c-24.148,0-47.48-4.4-71.393-6.212-16.563-1.248-34.638-1.095-50.168,2.592C251.845,763.71,248.134,772.654,232.93,777.2Z" transform="translate(-149.679 -408.49)"/><path class="b" d="M101.77,820.82c6.721,4.042,14.882,1.584,22.5,1.867a4.782,4.782,0,0,1,2.981.855,10.116,10.116,0,0,1,1.819,2.8c2.132,3.605,6.5,4.767,10.317,4.153s7.321-2.636,10.927-4.182c6.241-2.664,13.351-3.879,19.491-.96a3.063,3.063,0,0,0,1.767.48c1.344-.24,1.747-2.175,2.688-3.279,1.7-2,5.4-1.44,6.14-4.086.437-1.541-.571-3.12-1.666-4.172-4.2-4.028-10.206-4.69-15.7-4.071s-10.9,2.3-16.424,2.3c-6.88,0-13.529-2.626-20.346-3.706-4.724-.749-9.875-.653-14.3,1.546C107.161,812.769,106.105,818.108,101.77,820.82Z" transform="translate(-81.486 -435.509)"/><path class="e" d="M491.276,67.32H268.221a20.427,20.427,0,0,0-20.461,20.4V396.76a20.427,20.427,0,0,0,20.461,20.384H491.276a20.427,20.427,0,0,0,20.461-20.4V87.719A20.427,20.427,0,0,0,491.276,67.32Z" transform="translate(-157.39 -50.206)"/><rect class="f" width="257.668" height="342.508" rx="20" transform="translate(93.515 21.305)"/><rect class="g" width="231.485" height="277.712" transform="translate(106.607 53.701)"/><circle class="g" cx="3.145" cy="3.145" r="3.145" transform="translate(218.158 33.869)"/><circle class="g" cx="9.429" cy="9.429" r="9.429" transform="translate(211.874 337.625)"/><g class="h" transform="translate(106.607 53.701)"><rect class="d" width="231.485" height="13.841"/></g><circle class="g" cx="2.952" cy="2.952" r="2.952" transform="translate(110.894 57.671)"/><circle class="g" cx="2.952" cy="2.952" r="2.952" transform="translate(118.417 57.671)"/><circle class="g" cx="2.952" cy="2.952" r="2.952" transform="translate(125.935 57.671)"/><rect class="i" width="215.561" height="0.72" transform="translate(113.52 135.338)"/><rect class="i" width="215.561" height="0.72" transform="translate(113.52 152.059)"/><rect class="i" width="215.561" height="0.72" transform="translate(113.52 168.785)"/><rect class="i" width="215.561" height="0.72" transform="translate(113.52 185.507)"/><rect class="i" width="215.561" height="0.72" transform="translate(113.52 202.228)"/><g class="h" transform="translate(113.256 145.54)"><path class="d" d="M451.735,360.588H235.91V327.7l19.794,9.755,20.485,2.78,17.974-5.42L315.848,318l10.907-6.3,7.974-1.536,7.628.408,12.544,6.2,17.057,10.864,13.385,1.719,10.61-3.658,22.5-18.421,11.484-4.1,12.016,1.858,9.784,5.651Z" transform="translate(-235.91 -303.18)"/></g><path class="d" d="M333.044,371.746c-19.438,0-37.4-11.887-37.624-12.04l.538-.8c.278.187,27.921,18.473,51.412,9.314,8.565-3.361,14.662-8.536,20.562-13.562,6.159-5.247,11.973-10.2,19.9-12.352a29.772,29.772,0,0,1,26.582,5.972c6.457,5.3,19.314,13.821,32.9,11.277,6.923-1.3,12.756-6.356,18.934-11.709,11.844-10.264,24.1-20.879,45.286-5.651l-.562.778c-20.576-14.786-32.53-4.422-44.1,5.6-6.279,5.439-12.208,10.562-19.386,11.925-13.97,2.621-27.1-6.068-33.682-11.479a28.837,28.837,0,0,0-25.723-5.785c-7.72,2.093-13.442,6.98-19.534,12.156-5.958,5.079-12.117,10.327-20.831,13.725A40.193,40.193,0,0,1,333.044,371.746Z" transform="translate(-182.169 -189.158)"/><circle class="d" cx="5.343" cy="5.343" r="5.343" transform="translate(211.903 147.134)"/><g class="h" transform="translate(218.446 81.771)"><path class="d" d="M583.038,202h-67.4a1.1,1.1,0,0,0-1.095,1.095v45.584a1.095,1.095,0,0,0,1.891.749l11.68-12.458a1.09,1.09,0,0,1,.8-.346h54.129a1.1,1.1,0,0,0,1.095-1.095V203.085A1.1,1.1,0,0,0,583.038,202Z" transform="translate(-514.54 -202)"/></g><rect class="g" width="38.382" height="4.801" transform="translate(234.049 90.211)"/><rect class="g" width="10.538" height="4.801" transform="translate(234.049 100.849)"/><g class="h" transform="translate(131.725 237.302)"><rect class="d" width="10.538" height="4.801"/></g><g class="h" transform="translate(131.725 246.582)"><rect class="d" width="10.538" height="4.801"/></g><g class="h" transform="translate(131.725 255.862)"><rect class="d" width="10.538" height="4.801"/></g><g class="h" transform="translate(131.725 265.147)"><rect class="d" width="10.538" height="4.801"/></g><g class="h" transform="translate(131.725 274.427)"><rect class="d" width="10.538" height="4.801"/></g><g class="h" transform="translate(131.725 283.707)"><rect class="d" width="10.538" height="4.801"/></g><g class="h" transform="translate(131.725 292.992)"><rect class="d" width="10.538" height="4.801"/></g><g class="h" transform="translate(131.725 302.272)"><rect class="d" width="10.538" height="4.801"/></g><g class="h" transform="translate(151.566 307.072)"><rect class="d" width="10.538" height="4.801"/></g><g class="h" transform="translate(170.131 307.072)"><rect class="d" width="10.538" height="4.801"/></g><g class="h" transform="translate(188.696 307.072)"><rect class="d" width="10.538" height="4.801"/></g><g class="h" transform="translate(207.255 307.072)"><rect class="d" width="10.538" height="4.801"/></g><g class="h" transform="translate(225.82 307.072)"><rect class="d" width="10.538" height="4.801"/></g><g class="h" transform="translate(244.385 307.072)"><rect class="d" width="10.538" height="4.801"/></g><g class="h" transform="translate(262.945 307.072)"><rect class="d" width="10.538" height="4.801"/></g><g class="h" transform="translate(281.509 307.072)"><rect class="d" width="10.538" height="4.801"/></g><g class="h" transform="translate(300.074 307.072)"><rect class="d" width="10.538" height="4.801"/></g><rect class="g" width="16.001" height="4.801" transform="translate(256.43 100.849)"/><rect class="d" width="10.538" height="30.087" transform="translate(151.566 272.185)"/><rect class="d" width="10.538" height="44.009" transform="translate(170.131 258.263)"/><rect class="d" width="10.538" height="55.689" transform="translate(188.696 246.582)"/><rect class="d" width="10.538" height="49.631" transform="translate(207.255 252.636)"/><rect class="d" width="10.538" height="60.168" transform="translate(225.82 242.103)"/><g class="h" transform="translate(244.385 265.147)"><rect class="d" width="10.538" height="37.125"/></g><g class="h" transform="translate(262.945 265.147)"><rect class="d" width="10.538" height="37.125"/></g><g class="h" transform="translate(281.509 265.147)"><rect class="d" width="10.538" height="37.125"/></g><g class="h" transform="translate(300.074 265.147)"><rect class="d" width="10.538" height="37.125"/></g><path class="j" d="M937.186,238.5c-11.411-6.563-15.723-8.19-15.747-8.2l-.23-.168a9.534,9.534,0,0,1-2.88-3.634v-.706c.182-3.476,2.655-6.639,5-9.4l6-7.057a6.851,6.851,0,0,0,1.546-2.448,5.469,5.469,0,0,0,.163-1.5v-.615c-.029-1.752-.082-3.509-.144-5.281-.058-1.531-.451-3.461-1.983-3.778-.8-.163-1.848.125-2.271-.562a1.306,1.306,0,0,1-.1-.907.384.384,0,0,0,0,.072v-.086a20.334,20.334,0,0,0,.571-3.605,5.011,5.011,0,0,0-.25-1.824c-.888-2.544-3.942-3.586-6.644-4.066s-5.727-.893-7.422-3.005a22.12,22.12,0,0,0-1.474-2.031,5.852,5.852,0,0,0-2.76-1.363,15.6,15.6,0,0,0-10.043.874c-1.306.581-2.616,1.368-4.047,1.282s-2.76-1.119-4.229-1.368c-2.372-.4-4.642,1.339-5.809,3.4a8.3,8.3,0,0,0-1.075,4.013v.235h0a5.852,5.852,0,0,0,1.541,4.1c1.023,1.061,2.549,1.791,2.972,3.188.173.566.13,1.181.283,1.757a.68.68,0,0,0,.067.211l-.077.1a17.787,17.787,0,0,0-3.764,10.984,18.2,18.2,0,0,0,12.785,17.254v.538a7.725,7.725,0,0,1-2.482,6.039l-16.159,6.5s-9.741-1.157-13.255,13.082a24.06,24.06,0,0,0-.6,7.225A21.182,21.182,0,0,1,862,268.558c-4,7.825-3.087,25.79,5.084,27.571,7.715,1.68,10.735.96,11.042.9v.312c-.125,3.361-1.349,32.449-5.8,35.968-1.229.96-1,1.632,0,2.074,0,0,0,.187-.029.523-.134,2.127-.821,10.226-3.8,14.834-3.452,5.334-3.092,36.112-3.092,36.112l-2.319,18.161s1.44,11.205,0,13.164c-1.3,1.743-3.025,43.207-3.361,52.189h-.154a4.364,4.364,0,0,0-3.49,2.127c-1.92,3.1-8.593,8.829-8.593,8.829-1.44,2.06-6.812,4.028-9.65,4.959a5.854,5.854,0,0,0-1.095.48,5.761,5.761,0,0,0-2.434,2.564,2.775,2.775,0,0,0-.264,2.141c.73,1.776,15.8,3.02,19.616,1.243,3-1.4,14.883-3.241,19.813-3.961A4.076,4.076,0,0,0,877,485.222a2.329,2.329,0,0,0-.48-1.767h0c-.96-1.171-1.44-4.364-1.647-6.447a4.256,4.256,0,0,0,1.109-.658,47.3,47.3,0,0,1,2.722-19.03c3.634-9.6,4.724-27.4,3.841-38.958,0,0,11.08-47.672,19.8-52.122h0c.134.168,4.364,5.6,4.9,22.41.547,17.076,6.721,28.281,6.721,28.281s-2.727,29,0,39.847L910.4,473.9c-.259-.226-.427-.4-.427-.4s.106.48.254,1.239l-.077.36.154.038a33.748,33.748,0,0,1,.758,8.061c-.144,1.243-.48,2.953-.73,4.628-.374,2.636-.48,5.19.907,5.761,2.271.912,15.622,2.16,17.893-.773a4.215,4.215,0,0,0,.663-4.4,4.489,4.489,0,0,0-.662-1.119s-3.543-5.795-2.545-9.88a2.986,2.986,0,0,0-.422-2.348,119.5,119.5,0,0,1,3.058-19.17c2.271-8.56,7.067-27.326,3.538-39.669h0c-.134-.48-.288-.96-.451-1.44a53.183,53.183,0,0,1-2-20.811,42.391,42.391,0,0,1,0-18.147c2.18-9.962,3.7-19.746,3.7-19.746s1.2-13.159.154-21.229l-.072-.518.576-.13s-3.087-13.7-4.177-22.41c-.259-2.06-.6-4.666-.96-7.451a18.062,18.062,0,0,0,2.962-.735c9.774-3.394,12.847-33.985,12.847-33.985v-9.7S948.631,245.077,937.186,238.5ZM864.118,474.728c-.3-.154-.48-.254-.48-.254h0Z" transform="translate(-462.157 -107.684)"/><path class="k" d="M959.893,577.755c4.253,12.232-.711,32.084-3.015,40.946a123.968,123.968,0,0,0-3.015,19.506,41.033,41.033,0,0,1-15.6-.36l3.721-18.243c-2.66-10.811,0-39.707,0-39.707s-6.025-11.167-6.558-28.185c-.523-16.755-4.652-22.165-4.8-22.333h0c-8.507,4.431-19.323,51.945-19.323,51.945.888,11.522-.178,29.246-3.721,38.819a48.108,48.108,0,0,0-2.66,18.968,5.85,5.85,0,0,1-4.825.927c-5.046-.84-11.1-5.2-11.1-5.2s1.92-51.757,3.361-53.711,0-13.121,0-13.121l2.3-18.08s-.35-30.672,3.015-36.006c2.909-4.594,3.577-12.664,3.706-14.782a3.818,3.818,0,0,1,.029-.523l5.127-6.145s49.64-3.721,53.361,0c.917.917,1.479,2.991,1.815,5.607,1.023,8.041-.149,21.157-.149,21.157s-1.488,9.75-3.615,19.683a43.011,43.011,0,0,0,0,18.08A54.025,54.025,0,0,0,959.893,577.755Z" transform="translate(-490.783 -270.39)"/><path class="l" d="M1009.954,810.093c-2.218,2.924-15.247,1.68-17.465.773-1.354-.562-1.248-3.106-.883-5.732.23-1.671.571-3.36.711-4.614.355-3.193-1.066-9.664-1.066-9.664s2.929,3.1,3.634,0a3.384,3.384,0,0,1,2.53-2.4,6.649,6.649,0,0,1,4.6.288c2.3,1,6.145,3.13,5.454,6.011-.96,4.071,2.482,9.846,2.482,9.846a4.5,4.5,0,0,1,.643,1.114A4.263,4.263,0,0,1,1009.954,810.093Z" transform="translate(-543.945 -424.993)"/><path class="m" d="M1010.081,828.459c-2.218,2.924-15.247,1.68-17.465.773-1.354-.562-1.248-3.106-.883-5.732,1.4.653,3.778,1.2,7.744.831a22.537,22.537,0,0,1,2.789-.086,64.345,64.345,0,0,0,8.459-.168A4.263,4.263,0,0,1,1010.081,828.459Z" transform="translate(-544.072 -443.36)"/><path class="m" d="M923.355,619.353c.888,11.522-.178,29.246-3.721,38.819a48.109,48.109,0,0,0-2.66,18.968,5.85,5.85,0,0,1-4.825.927c1.071-7.489,5.626-39.693,8.569-65.142A106.376,106.376,0,0,1,939.577,564l3.1,3.413C934.162,571.84,923.355,619.353,923.355,619.353Z" transform="translate(-502.819 -308.44)"/><path class="n" d="M980.01,268.146l-2.165,10.634-10.6,17.816-13.073-5.583s-17.763-18.613-6.6-21.272a9.79,9.79,0,0,0,3.706-1.651,7.616,7.616,0,0,0,2.88-6.409,20.043,20.043,0,0,0-1.815-7.628l22.866-7.2a36.528,36.528,0,0,0-1.642,9.266c-.173,6.241,2.141,9.294,4.037,10.759A6.932,6.932,0,0,0,980.01,268.146Z" transform="translate(-519.32 -143.548)"/><path class="m" d="M984.4,246.9a36.526,36.526,0,0,0-1.642,9.266,16.738,16.738,0,0,1-1.33,1.411,18.084,18.084,0,0,1-18.08,4.129,20.043,20.043,0,0,0-1.815-7.628Z" transform="translate(-528.493 -143.574)"/><path class="n" d="M975.46,221.225a18,18,0,1,1-5.264-12.8A18.08,18.08,0,0,1,975.46,221.225Z" transform="translate(-516.935 -120.822)"/><path class="m" d="M980.01,289.858l-2.165,10.634-10.6,17.816-13.073-5.583s-17.763-18.613-6.6-21.272a9.79,9.79,0,0,0,3.706-1.651c-2.016,5.545,6.308,17.076,6.308,17.076.96,1.44,3.193.528,3.193.528,5.358-.807,15.233-16.232,16.841-18.8A6.932,6.932,0,0,0,980.01,289.858Z" transform="translate(-519.32 -165.259)"/><path class="m" d="M975.112,498.137c-3.145.715-20.562,4.575-27.168,3.61-7.264-1.066-21.4-1.772-21.4-1.772s-9,.48-11.767-.778a3.819,3.819,0,0,1,.029-.523l5.127-6.145s49.64-3.721,53.361,0C974.214,493.437,974.776,495.51,975.112,498.137Z" transform="translate(-504.187 -270.421)"/><path class="o" d="M929.067,307.608s-9.352-12.962-5.828-18l-15.8,6.476s-9.51-1.152-12.962,13.039a24.546,24.546,0,0,0-.591,7.2,21.46,21.46,0,0,1-2.6,10.783c-3.9,7.8-3.015,25.7,4.964,27.48s10.811.883,10.811.883-1.061,32.444-5.67,36.164,11.748,2.837,11.748,2.837,14.134.711,21.4,1.771,27.653-3.721,27.653-3.721-3.015-13.653-4.076-22.338S954.569,343,954.569,343l18.085-24.484s3.188-14.8-7.979-21.359S949.312,289,949.312,289s-11.205,18.243-17.052,19.141C932.26,308.141,930.037,309.034,929.067,307.608Z" transform="translate(-490.802 -165.462)"/><path class="m" d="M925.955,338.47s-.178,5.852.883,8.161S931.8,361.7,931.8,361.7H922.94s4.8-5.142,4.431-7.624S925.955,338.47,925.955,338.47Z" transform="translate(-508.429 -191.183)"/><path class="n" d="M953.262,403.509s-19.578-4.8-21.4-8.867-6.86-13.2-6.86-13.2l2.064-2.784,9.525,7.475s11.344,9.04,16.664,9.928S953.262,403.509,953.262,403.509Z" transform="translate(-509.5 -212.078)"/><path class="p" d="M953.262,403.509s-19.578-4.8-21.4-8.867-6.86-13.2-6.86-13.2l2.064-2.784,9.525,7.475s11.344,9.04,16.664,9.928S953.262,403.509,953.262,403.509Z" transform="translate(-509.5 -212.078)"/><path class="n" d="M980.828,382.322v10.619h-1.709a49.7,49.7,0,0,0-24.1,6.236l-3.206,1.781-.859.48-5.5-12.376,5.142-4.609h.264c1.258.12,6.7.576,9-.2,2.189-.744,4.906-3.1,11.354-1.44,3.178.811,5.891,4.374,8.973,3.26Z" transform="translate(-520.138 -213.935)"/><path class="m" d="M1012.956,329.107l3.548,3.985v9.664s-3.015,30.49-12.588,33.86-26.659-1.954-26.659-1.954-4.417-11.7-2.352-12.405,18.243-4.983,18.243-4.983-.226-17.888,3.317-23.207c0,0-2.3-16.659,5.675-17.014S1012.956,329.107,1012.956,329.107Z" transform="translate(-535.161 -180.043)"/><path class="o" d="M1014.045,329.107l3.548,3.985v9.664s-3.005,30.49-12.607,33.86-26.664-1.954-26.664-1.954-4.412-11.7-2.348-12.405,18.243-4.983,18.243-4.983-.23-17.888,3.317-23.207c0,0-2.3-16.659,5.675-17.014S1014.045,329.107,1014.045,329.107Z" transform="translate(-535.717 -180.043)"/><path class="m" d="M974.5,228.91a7.039,7.039,0,0,0-.4-3.452,2.674,2.674,0,0,0-2.813-1.623c-1.517.355-2.17,2.328-3.658,2.8a2.88,2.88,0,0,1-3.217-1.661,8.5,8.5,0,0,1-.619-3.841V216.7c0-1.613-.053-3.361-1.047-4.618-1.234-1.579-4.138-2.266-6.078-2.2a5.146,5.146,0,0,0-3.471,1.4,4.478,4.478,0,0,1-3.653,1.3,3.154,3.154,0,0,1-2.544-2.2v-.058a18.08,18.08,0,1,1,26.884,24,48.333,48.333,0,0,0,.619-5.41Z" transform="translate(-520.939 -120.825)"/><path class="q" d="M944.47,200.068a3.159,3.159,0,0,1-2.544-2.2c-.149-.571-.11-1.181-.278-1.752-.413-1.392-1.92-2.117-2.88-3.173-2-2.122-1.867-5.607-.451-8.161,1.143-2.055,3.361-3.788,5.67-3.389,1.44.25,2.674,1.272,4.129,1.363s2.674-.7,3.951-1.277a14.883,14.883,0,0,1,9.8-.869,5.7,5.7,0,0,1,2.7,1.359,24.006,24.006,0,0,1,1.44,2.021c1.656,2.108,4.614,2.52,7.249,3s5.612,1.517,6.481,4.052c.571,1.68,0,3.5-.312,5.252a1.518,1.518,0,0,0,.067,1.08c.413.682,1.44.4,2.218.562,1.5.312,1.882,2.237,1.92,3.764q.1,2.621.144,5.242a5.151,5.151,0,0,1-1.666,4.383l-5.852,7.033c-2.6,3.121-5.353,6.755-4.83,10.778-1.229.552-2.688-.514-3.092-1.8a8.065,8.065,0,0,1,.192-3.989,48.837,48.837,0,0,0,.927-6.923,7.032,7.032,0,0,0-.4-3.452,2.647,2.647,0,0,0-2.813-1.627c-1.517.355-2.17,2.328-3.658,2.8a2.883,2.883,0,0,1-3.217-1.661,8.5,8.5,0,0,1-.619-3.841v-4.446c0-1.608-.053-3.361-1.047-4.618-1.234-1.579-4.138-2.266-6.078-2.2a5.156,5.156,0,0,0-3.471,1.4A4.557,4.557,0,0,1,944.47,200.068Z" transform="translate(-515.873 -108.868)"/><path class="m" d="M960.79,337.55l5.55,22.8S970.718,360.33,960.79,337.55Z" transform="translate(-528.108 -190.704)"/><path class="m" d="M994.789,329.61s-7.268,11.906-4.431,24.21l1.354.1S989.292,348.223,994.789,329.61Z" transform="translate(-543.14 -186.576)"/><path class="m" d="M1009.9,469.245s8.925-2.952,9.573,3.9C1019.473,473.143,1017.788,468.448,1009.9,469.245Z" transform="translate(-553.642 -258.846)"/><path class="m" d="M939.663,388s-1.772,12.41,1.44,17.374a38.921,38.921,0,0,1-15.6,2.127L924.42,388Z" transform="translate(-509.199 -216.934)"/><path class="m" d="M951.816,403.355l-.859.48-5.5-12.376,5.142-4.609h.264C950.784,387.445,949.353,398.1,951.816,403.355Z" transform="translate(-520.138 -216.336)"/><path class="o" d="M934.115,386.85s-1.771,12.405,1.44,17.369a38.921,38.921,0,0,1-15.6,2.127l-6.2-19.5Z" transform="translate(-503.651 -216.336)"/><path class="l" d="M878.713,802.061a4.009,4.009,0,0,1-3.442,3.509c-4.8.72-16.409,2.554-19.338,3.946-3.721,1.771-18.435.533-19.146-1.239a2.813,2.813,0,0,1,.255-2.132,5.718,5.718,0,0,1,2.4-2.559,5.893,5.893,0,0,1,1.066-.48c2.77-.927,8-2.88,9.419-4.945,0,0,6.524-5.708,8.382-8.8a4.268,4.268,0,0,1,3.409-2.122c1.555-.072,3.284.71,3.99,4.114,0,0,8.507,4.854,10.807.6,0,0,.355,6.539,1.767,8.325h0a2.372,2.372,0,0,1,.432,1.781Z" transform="translate(-463.583 -424.508)"/><path class="m" d="M878.713,816.191a4.009,4.009,0,0,1-3.442,3.509c-4.8.72-16.409,2.554-19.338,3.946-3.721,1.771-18.435.533-19.146-1.239a2.813,2.813,0,0,1,.255-2.132,5.717,5.717,0,0,1,2.4-2.559c2.4,1.594,7.724,3.149,19.438,1.32,11.172-1.743,16.7-3.452,19.4-4.618h0a2.371,2.371,0,0,1,.432,1.771Z" transform="translate(-463.583 -438.639)"/><g class="c" transform="translate(421.385 79.702)"><path d="M1024.946,209.844v-.086a16.4,16.4,0,0,0,.547-4.028,25.816,25.816,0,0,1-.547,3.231,1.964,1.964,0,0,0,0,.883Z" transform="translate(-982.823 -201.87)"/><path d="M969.031,222.256a5.223,5.223,0,0,1,.437,2.026,6.039,6.039,0,0,0-.437-2.823,2.646,2.646,0,0,0-2.808-1.627c-1.517.355-2.17,2.328-3.658,2.8a2.889,2.889,0,0,1-3.221-1.661,8.436,8.436,0,0,1-.615-3.841v-4.446c0-1.608-.053-3.361-1.047-4.618-1.234-1.579-4.143-2.266-6.078-2.2a5.147,5.147,0,0,0-3.471,1.4,4.487,4.487,0,0,1-3.653,1.3,3.159,3.159,0,0,1-2.544-2.2c-.149-.571-.11-1.181-.278-1.752-.418-1.392-1.92-2.117-2.88-3.173a5.761,5.761,0,0,1-1.493-3.749,6.039,6.039,0,0,0,1.493,4.546c1,1.056,2.482,1.786,2.88,3.178.168.566.13,1.176.278,1.747a3.159,3.159,0,0,0,2.544,2.2,4.46,4.46,0,0,0,3.653-1.3,5.147,5.147,0,0,1,3.471-1.4c1.92-.062,4.844.629,6.078,2.2.994,1.267,1.042,3.01,1.047,4.618v4.446a8.1,8.1,0,0,0,.615,3.841,2.926,2.926,0,0,0,3.221,1.661c1.488-.48,2.141-2.448,3.658-2.8A2.652,2.652,0,0,1,969.031,222.256Z" transform="translate(-937.259 -197.69)"/><path d="M1020.521,237.473a6.8,6.8,0,0,1-1.508,2.439q-2.924,3.519-5.852,7.033c-2.463,2.962-5.074,6.39-4.882,10.168.178-3.466,2.592-6.62,4.882-9.371l5.852-7.028a6.866,6.866,0,0,0,1.507-2.444,6.6,6.6,0,0,0,.154-1.92,4.621,4.621,0,0,1-.154,1.123Z" transform="translate(-974.179 -217.79)"/><path d="M1001.794,276.08a4.214,4.214,0,0,1-.173-.96,4.8,4.8,0,0,0,.173,1.747c.4,1.287,1.868,2.348,3.1,1.8-.034-.259-.053-.518-.062-.778C1003.589,278.394,1002.168,277.348,1001.794,276.08Z" transform="translate(-970.713 -237.947)"/></g><path class="m" d="M879.26,795s1.853,3.26,8.565.389" transform="translate(-485.719 -428.542)"/><path class="m" d="M997.5,796.67s5.79,6.817,13.087,2.232" transform="translate(-547.195 -429.41)"/><path class="m" d="M1028.029,628.7s-4.1,2.559-4.225,4.023,2.112-1.066,2.112-1.066Z" transform="translate(-560.868 -342.079)"/><path class="m" d="M1028.045,669.53A8.55,8.55,0,0,1,1023,671.5c-3.058.135-2.8,4.124-.807,2.924A50.993,50.993,0,0,0,1028.045,669.53Z" transform="translate(-559.256 -363.307)"/><path class="m" d="M1033.737,674.86s-1.964,9.65-3.557,7.787" transform="translate(-564.185 -366.079)"/><path class="d" d="M188.412,768.36s2.636,3.447-1.219,8.641-7.033,9.6-5.761,12.847c0,0,5.814-9.669,10.562-9.8S193.621,774.174,188.412,768.36Z" transform="translate(-122.756 -414.691)"/><path class="m" d="M188.585,768.36a4.143,4.143,0,0,1,.538,1.08c4.618,5.425,7.081,10.49,2.64,10.619-4.133.115-9.122,7.513-10.283,9.381a4.351,4.351,0,0,0,.139.422s5.814-9.669,10.562-9.8S193.794,774.174,188.585,768.36Z" transform="translate(-122.929 -414.691)"/><path class="r" d="M205.83,776.671c0,1.215-.134,2.2-.3,2.2s-.307-.984-.307-2.2.173-.639.341-.639S205.83,775.466,205.83,776.671Z" transform="translate(-135.272 -418.609)"/><path class="r" d="M207.743,779.631c-1.066.581-2,.931-2.079.787s.72-.739,1.786-1.32.643-.158.725,0S208.808,779.05,207.743,779.631Z" transform="translate(-135.5 -420.12)"/><path class="d" d="M160.846,768.36s-2.636,3.447,1.219,8.641,7.033,9.6,5.761,12.847c0,0-5.814-9.669-10.562-9.8S155.642,774.174,160.846,768.36Z" transform="translate(-109.122 -414.691)"/><path class="m" d="M160.835,768.36a4.32,4.32,0,0,0-.538,1.08c-4.618,5.425-7.081,10.49-2.64,10.619,4.138.115,9.122,7.513,10.283,9.381a3.362,3.362,0,0,1-.139.422s-5.814-9.669-10.562-9.8S155.631,774.174,160.835,768.36Z" transform="translate(-109.111 -414.691)"/><path class="r" d="M157.05,776.671c0,1.215.134,2.2.3,2.2s.307-.984.307-2.2-.173-.639-.341-.639S157.05,775.466,157.05,776.671Z" transform="translate(-110.228 -418.609)"/><path class="r" d="M152.846,779.631c1.066.581,1.992.931,2.074.787s-.72-.739-1.786-1.32-.643-.158-.725,0S151.781,779.05,152.846,779.631Z" transform="translate(-107.704 -420.12)"/><path class="s" d="M158.8,807.9s7.374-.226,9.6-1.81,11.339-3.471,11.892-.931,11.08,12.621,2.756,12.689-19.342-1.3-21.56-2.65S158.8,807.9,158.8,807.9Z" transform="translate(-111.137 -433.175)"/><path class="t" d="M183.193,821.264c-8.325.067-19.342-1.3-21.56-2.65-1.69-1.027-2.362-4.719-2.588-6.423H158.8s.48,5.948,2.684,7.3,13.236,2.717,21.56,2.65c2.4,0,3.236-.874,3.188-2.141C185.9,820.769,184.984,821.249,183.193,821.264Z" transform="translate(-111.137 -437.479)"/></g></g></svg>