<svg xmlns="http://www.w3.org/2000/svg" width="28" height="28" viewBox="0 0 28 28">
  <g fill="none" fill-rule="evenodd">
    <circle cx="14" cy="14" r="14" fill="#F9FAFC" fill-rule="nonzero"/>
    <path fill="#4651AF" d="M8.89509393,11.3236671 L8.89509393,22.3839481 L5.21205382,22.3839481 L5.21205382,11.3236671 L8.89509393,11.3236671 Z M9.12946921,7.90848442 C9.14062994,8.96875354 8.33705755,9.81696884 7.05357388,9.81696884 L7.03125242,9.81696884 C5.79241166,9.81696884 5,8.96875354 5,7.90848442 C5,6.82589384 5.82589384,6 7.07589533,6 C8.33705755,6 9.11830848,6.82589384 9.12946921,7.90848442 Z M14.5982257,12.8957132 C15.0827352,12.1383062 15.9567698,11.0669703 17.9129618,11.0669703 C20.3348397,11.0669703 22.1428776,12.6517936 22.1428776,16.0446548 L22.1428776,22.3839481 L18.4709982,22.3839481 L18.4709982,16.4687625 C18.4709982,14.9843857 17.9352833,13.9687595 16.6071567,13.9687595 C15.5915305,13.9687595 14.9888512,14.6495639 14.7209937,15.3080468 C14.6317079,15.5535828 14.5982257,15.8772439 14.5982257,16.2120657 L14.5982257,22.3839481 L10.9263464,22.3839481 C10.9709893,12.3616147 10.9263464,11.3236671 10.9263464,11.3236671 L14.5982257,11.3236671 L14.5982257,12.8957132 Z"/>
  </g>
</svg>
