<svg xmlns="http://www.w3.org/2000/svg" xmlns:xlink="http://www.w3.org/1999/xlink" viewBox="0 0 120.214 104.848"><defs><style>.a,.b{fill:#4651af;}.a,.d{opacity:0.2;}.c,.n{fill:none;stroke-miterlimit:10;}.c{stroke:#535461;stroke-width:2px;}.d{fill:#f5f5f5;}.e{fill:url(#a);}.f{fill:#e14b5a;}.g{fill:#f7c4a7;}.h,.j,.n{opacity:0.1;}.i{fill:#575988;}.k{fill:#632652;}.l{fill:#535461;}.m{fill:#fff;}.n{stroke:#000;}.o{fill:#6a5c99;}.p{fill:#ffd037;}.q{fill:#d6d6e3;}</style><linearGradient id="a" x1="0.5" y1="1" x2="0.5" gradientUnits="objectBoundingBox"><stop offset="0" stop-color="gray" stop-opacity="0.251"/><stop offset="0.54" stop-color="gray" stop-opacity="0.122"/><stop offset="1" stop-color="gray" stop-opacity="0.102"/></linearGradient></defs><g transform="translate(0.004)"><rect class="a" width="6.928" height="3.597" transform="translate(101.917 37.703)"/><rect class="a" width="6.928" height="3.597" transform="translate(102.45 42.099)"/><rect class="a" width="6.928" height="3.597" transform="translate(96.721 11.591)"/><rect class="a" width="6.928" height="3.597" transform="translate(101.65 15.721)"/><rect class="a" width="6.928" height="3.597" transform="translate(88.328 11.857)"/><rect class="a" width="6.928" height="3.597" transform="translate(110.576 19.851)"/><rect class="a" width="6.928" height="3.597" transform="translate(102.183 20.117)"/><rect class="a" width="6.928" height="3.597" transform="translate(93.257 15.987)"/><rect class="a" width="6.928" height="3.597" transform="translate(110.177 47.561)"/><rect class="a" width="6.928" height="3.597" transform="translate(101.784 47.828)"/><path class="b" d="M213.381,332.5a23.309,23.309,0,0,1,4.253,24.247c-5.512,14.483,9.447,38.587,9.447,38.587s-.16-.024-.457-.076a28.42,28.42,0,0,1-18.861-43.507C211.9,345.411,215.306,337.981,213.381,332.5Z" transform="translate(-195.78 -295.73)"/><path class="c" d="M265.463,332.5s5.512,11.969,0,21.732-.945,37.17,13.7,41.1" transform="translate(-247.862 -295.73)"/><path class="b" d="M149.63,628.126s11.142-1.775,12.157,8.211,21.425,11.37,21.425,11.37-.133.091-.382.254c-16.852,11.058-32.96,7.046-30.531-7.642C153.2,634.858,153.126,629.373,149.63,628.126Z" transform="translate(-149.42 -551.865)"/><path class="d" d="M149.63,628.126s11.142-1.775,12.157,8.211,21.425,11.37,21.425,11.37-.133.091-.382.254c-16.852,11.058-32.96,7.046-30.531-7.642C153.2,634.858,153.126,629.373,149.63,628.126Z" transform="translate(-149.42 -551.865)"/><path class="c" d="M149.63,628.92s8.648,1.9,7.938,9.761,12.843,17.294,25.645,9.819" transform="translate(-149.42 -552.659)"/><rect class="a" width="6.928" height="3.597" transform="translate(0.266 37.836)"/><rect class="a" width="6.928" height="3.597" transform="translate(5.195 41.966)"/><rect class="a" width="6.928" height="3.597" transform="translate(42.632)"/><rect class="a" width="6.928" height="3.597" transform="translate(97.254 66.346)"/><rect class="a" width="6.928" height="3.597" transform="translate(5.728 46.362)"/><rect class="a" width="6.928" height="3.597" transform="translate(47.561 4.13)"/><rect class="a" width="6.928" height="3.597" transform="translate(22.248 28.51)"/><rect class="a" width="6.928" height="3.597" transform="translate(27.177 32.64)"/><rect class="a" width="6.928" height="3.597" transform="translate(40.367 30.375)"/><rect class="a" width="6.928" height="3.597" transform="translate(27.71 37.037)"/><rect class="a" width="6.928" height="3.597" transform="translate(106.58 66.346)"/><path class="e" d="M419.685,149.344a54.916,54.916,0,0,1-.823-7.555h0a10.125,10.125,0,0,0-7.122-9.243c-.727-.224-1.528-.433-2.413-.621-7.754-1.647-10.109-.209-10.377-.02a9.94,9.94,0,0,1-.59-1.28c-.013-.045-.025-.091-.039-.133a9.927,9.927,0,0,0,2.653-5.98,6.543,6.543,0,0,0,2.049-4.6,6.311,6.311,0,0,0-1.539-4.03v-2.315A10.068,10.068,0,0,0,391.416,103.5H390.6a10.068,10.068,0,0,0-10.068,10.068v2.5a6.247,6.247,0,0,0-1.392,3.848,6.506,6.506,0,0,0,1.969,4.514,9.928,9.928,0,0,0,2.763,6.174c.055.378.111.785.165,1.214l-13.869,2.93s-5.348.22-8.793,7.327c-2.914,6.02-8.712,21.488-10.429,26.092h0c-.31.834-.486,1.312-.486,1.312s.057-.057.165-.156l-.165.449s.084-.085.244-.225c-.242,1.926-.277,5.234,2.246,5.646,2.116.345,7.567.488,11.685.545h.285c2.73.036,4.807.036,4.807.036v-.036h44.289v-.454a3.052,3.052,0,0,0-.244-1.2l.061-.075a2.432,2.432,0,0,1,.46,1.066,1.056,1.056,0,0,1-.021.112l.027-.068a1.14,1.14,0,0,1-.027.361s5.682-14.64,5.621-23.382A14.813,14.813,0,0,0,419.685,149.344ZM384.267,133.79a10.167,10.167,0,0,1-.141-1.263v-.012C384.175,132.927,384.223,133.353,384.267,133.79Zm-17.215,31.447v3.489l-2.185.468Z" transform="translate(-323.494 -97.238)"/><path class="f" d="M438.208,57.57h0a10.068,10.068,0,0,1,10.068,10.068v4.3H428.14v-4.3A10.068,10.068,0,0,1,438.208,57.57Z" transform="translate(-370.919 -49.9)"/><ellipse class="f" cx="11.476" cy="7.886" rx="11.476" ry="7.886" transform="translate(55.884 15.555)"/><path class="g" d="M595.965,273.755s2.4,12.533,0,15.912,7.327,4.717,7.327,4.717l10.066-3.661,1.408-9.013s-6.128-3.451-4.859-10.421Z" transform="translate(-535.963 -242.675)"/><path class="g" d="M758.246,582.612s.634,2.746-2.816,3.239a19.509,19.509,0,0,1-6.139-.073l-.761-6.9h8.027Z" transform="translate(-668.531 -509.286)"/><path class="g" d="M361.938,554.819s-1.524,6.194,1.926,6.753,16.12.564,16.12.564v-7.327l-5.737,1.226-5.385-5.164Z" transform="translate(-333.153 -485.007)"/><path class="h" d="M393.044,316.214l-13.484,2.851s-5.14.212-8.449,7.041-10.491,26.333-10.491,26.333,6.128-6.2,13.308.422l4.788-8.66-1.057,13.73h37.1v-6.479s7.744,4.154,7.182,6.477c0,0,6.628-17.077,5.2-24.837a52.783,52.783,0,0,1-.791-7.261h0a9.725,9.725,0,0,0-6.845-8.882c-.7-.215-1.465-.416-2.318-.6-7.956-1.689-9.992,0-9.992,0s-1.541,5.015-1.513,7.287c.035,2.922-4.154,4.859-4.154,4.859s-6.2-1.479-6.477-2.675S392.549,317.622,393.044,316.214Z" transform="translate(-332.301 -281.085)"/><path class="i" d="M393.036,314.1l-13.484,2.851s-5.14.212-8.449,7.041-10.493,26.336-10.493,26.336,6.128-6.2,13.308.422l4.788-8.66-1.056,13.726h37.1v-6.477s7.744,4.154,7.182,6.477c0,0,6.628-17.077,5.2-24.837a52.789,52.789,0,0,1-.791-7.261h0a9.726,9.726,0,0,0-6.845-8.882c-.7-.215-1.465-.416-2.318-.6-7.956-1.689-9.992,0-9.992,0s-1.541,5.015-1.513,7.287c.035,2.922-4.154,4.859-4.154,4.859s-6.2-1.479-6.477-2.675S392.54,315.512,393.036,314.1Z" transform="translate(-332.292 -279.256)"/><path class="h" d="M614.311,281.059a9.529,9.529,0,0,1-.368-5L600,278.523s.2,1.054.429,2.633a9.574,9.574,0,0,0,13.879-.1Z" transform="translate(-539.789 -246.809)"/><path class="g" d="M600.68,197.37a9.576,9.576,0,1,1-19.15.232c0-.077,0-.155,0-.232a9.573,9.573,0,0,1,11.182-9.442h0a9.568,9.568,0,0,1,7.942,8.806Q600.68,197.05,600.68,197.37Z" transform="translate(-523.78 -170.303)"/><g class="j" transform="translate(57.75 17.843)"><path d="M587.769,193.878l.013-.008a9.567,9.567,0,0,0-6.252,8.983v.232a2.132,2.132,0,0,0,.859-.206c2.334-1.09,3.73-4.423,4.285-6.748A3.542,3.542,0,0,1,587.769,193.878Z" transform="translate(-581.53 -193.412)"/><path d="M630.011,191.164a9.5,9.5,0,0,0-2.381-.734,3.072,3.072,0,0,1,1.709,1.074,4.378,4.378,0,0,1,.524.933,9.6,9.6,0,0,0-8.053.167c.6,1.318,2.465,2.036,3.709,2.517q2.044.789,4.13,1.443l-1.231-1,2.78.442a4.818,4.818,0,0,0-.194-1.639,16.909,16.909,0,0,0,1.817.933c1.083.683,1.535,2,2.125,3.137a2.079,2.079,0,0,0,.621.8A9.58,9.58,0,0,0,630.011,191.164Z" transform="translate(-616.444 -190.43)"/></g><path class="k" d="M587.769,192.248l.013-.008a9.568,9.568,0,0,0-6.252,8.983v.232a2.132,2.132,0,0,0,.859-.207c2.334-1.09,3.73-4.423,4.285-6.748A3.558,3.558,0,0,1,587.769,192.248Z" transform="translate(-523.78 -174.156)"/><path class="k" d="M630.011,189.544a9.5,9.5,0,0,0-2.381-.734,3.072,3.072,0,0,1,1.709,1.074,4.378,4.378,0,0,1,.524.933,9.6,9.6,0,0,0-8.053.167c.6,1.318,2.465,2.036,3.709,2.517q2.044.789,4.13,1.443l-1.231-1,2.78.442a4.818,4.818,0,0,0-.194-1.639,16.907,16.907,0,0,0,1.817.933c1.083.683,1.535,2,2.125,3.137a2.079,2.079,0,0,0,.621.8A9.58,9.58,0,0,0,630.011,189.544Z" transform="translate(-558.694 -171.183)"/><path class="h" d="M573.33,188.533s9.859-12.257,21.264,0l-.986-2.746s-5.352-7.815-9.153-6.128-7.534,2.887-7.534,2.887Z" transform="translate(-516.672 -163.044)"/><path class="f" d="M573.33,186.9s9.859-12.257,21.264,0l-.986-2.746s-5.352-7.815-9.153-6.128-7.534,2.887-7.534,2.887Z" transform="translate(-516.672 -161.632)"/><path class="h" d="M501.1,444.38s-2.112,5.633.845,10.7-2.6,7.182-2.6,7.182" transform="translate(-452.54 -392.705)"/><path class="h" d="M762.976,406.33s3.661,4.647,1.267,8.8-2.253,14.153-2.253,14.153" transform="translate(-680.197 -359.724)"/><path class="l" d="M316.839,553.3h40.7a3.38,3.38,0,0,1,3.38,3.38H313.46A3.38,3.38,0,0,1,316.839,553.3Z" transform="translate(-271.517 -479.586)"/><path class="l" d="M336.1,378.89h32.416a5.2,5.2,0,0,1,5.2,5.2V402.9H330.9V384.086A5.2,5.2,0,0,1,336.1,378.89Z" transform="translate(-286.634 -328.412)"/><ellipse class="m" cx="2.535" cy="2.535" rx="2.535" ry="2.535" transform="translate(63.099 61.004)"/><path class="n" d="M577.56,176.357s9.688-9.683,20.137-.177" transform="translate(-520.339 -156.613)"/><rect class="o" width="0.973" height="5.514" transform="translate(78.833 19.127)"/><path class="p" d="M580.62,170.35h0a3.352,3.352,0,0,1,3.352,3.352v.216a3.352,3.352,0,0,1-3.352,3.352h0Z" transform="translate(-503.085 -147.655)"/><rect class="o" width="1.513" height="7.569" rx="0.757" transform="translate(76.886 22.371)"/><rect class="o" width="0.973" height="5.514" transform="translate(55.646 24.749) rotate(180)"/><path class="p" d="M0,0H0A3.352,3.352,0,0,1,3.352,3.352v.216A3.352,3.352,0,0,1,0,6.92H0Z" transform="translate(56.944 29.723) rotate(180)"/><rect class="o" width="1.513" height="7.569" rx="0.757" transform="translate(57.593 30.046) rotate(180)"/><path class="p" d="M580.725,114.684c-1.318-2.739-4.187-6.051-10.373-6.316v-.008h-.075l-2.192.1v.011c-6.144.282-9,3.582-10.314,6.312a14.2,14.2,0,0,0-1.362,5.915l.757-.019.757-.017a12.877,12.877,0,0,1,1.23-5.265c1.668-3.427,4.737-5.248,9.122-5.417h0l1.938-.108h0c4.387.168,7.458,1.992,9.125,5.417a12.876,12.876,0,0,1,1.232,5.268l.757.017.757.019a14.2,14.2,0,0,0-1.359-5.913Z" transform="translate(-502.007 -101.451)"/><rect class="q" width="103.211" height="27.711" transform="translate(10.078 77.137)"/><rect class="h" width="103.211" height="3.597" transform="translate(10.078 79.003)"/><rect class="q" width="117.056" height="3.597" transform="translate(3.154 76.738)"/></g></svg>