<svg xmlns="http://www.w3.org/2000/svg" xmlns:xlink="http://www.w3.org/1999/xlink" viewBox="0 0 120.214 104.848"><defs><style>.a,.b{fill:#4651af}.a{opacity:0.2}.c{fill:none;stroke-miterlimit:10}.c{stroke:#535461;stroke-width:2px}.f{fill:#e14b5a}.g{fill:#f7c4a7}.h{opacity:0.1}.k{fill:#632652}.l{fill:#535461}.o{fill:#6a5c99}.p{fill:#ffd037}.q{fill:#d6d6e3}</style><linearGradient id="a" x1="0.5" y1="1" x2="0.5" gradientUnits="objectBoundingBox"><stop offset="0" stop-color="gray" stop-opacity="0.251"/><stop offset="0.54" stop-color="gray" stop-opacity="0.122"/><stop offset="1" stop-color="gray" stop-opacity="0.102"/></linearGradient></defs><g transform="translate(0.004)"><rect class="a" width="6.928" height="3.597" transform="translate(101.917 37.703)"/><rect class="a" width="6.928" height="3.597" transform="translate(102.45 42.099)"/><rect class="a" width="6.928" height="3.597" transform="translate(96.721 11.591)"/><rect class="a" width="6.928" height="3.597" transform="translate(101.65 15.721)"/><rect class="a" width="6.928" height="3.597" transform="translate(88.328 11.857)"/><rect class="a" width="6.928" height="3.597" transform="translate(110.576 19.851)"/><rect class="a" width="6.928" height="3.597" transform="translate(102.183 20.117)"/><rect class="a" width="6.928" height="3.597" transform="translate(93.257 15.987)"/><rect class="a" width="6.928" height="3.597" transform="translate(110.177 47.561)"/><rect class="a" width="6.928" height="3.597" transform="translate(101.784 47.828)"/><path class="b" d="M17.6 36.8A23.3 23.3 0 0 1 21.9 61c-5.6 14.5 9.4 38.6 9.4 38.6h-.5A28.4 28.4 0 0 1 12 56c4.1-6.3 7.5-13.7 5.6-19.2z"/><path class="c" d="M17.6 36.8s5.5 12 0 21.7-1 37.2 13.7 41.1"/><path class="b" d="M.2 76.3s11.2-1.8 12.2 8.2 21.4 11.3 21.4 11.3l-.4.3c-16.8 11-33 7-30.5-7.6.9-5.5.8-11-2.7-12.2z"/><path d="M.2 76.3s11.2-1.8 12.2 8.2 21.4 11.3 21.4 11.3l-.4.3c-16.8 11-33 7-30.5-7.6.9-5.5.8-11-2.7-12.2z" style="fill:#f5f5f5;opacity:0.2"/><path class="c" d="M.2 76.3s8.7 1.9 8 9.7 12.8 17.3 25.6 9.8"/><rect class="a" width="6.928" height="3.597" transform="translate(0.266 37.836)"/><rect class="a" width="6.928" height="3.597" transform="translate(5.195 41.966)"/><rect class="a" width="6.928" height="3.597" transform="translate(42.632)"/><rect class="a" width="6.928" height="3.597" transform="translate(97.254 66.346)"/><rect class="a" width="6.928" height="3.597" transform="translate(5.728 46.362)"/><rect class="a" width="6.928" height="3.597" transform="translate(47.561 4.13)"/><rect class="a" width="6.928" height="3.597" transform="translate(22.248 28.51)"/><rect class="a" width="6.928" height="3.597" transform="translate(27.177 32.64)"/><rect class="a" width="6.928" height="3.597" transform="translate(40.367 30.375)"/><rect class="a" width="6.928" height="3.597" transform="translate(27.71 37.037)"/><rect class="a" width="6.928" height="3.597" transform="translate(106.58 66.346)"/><path d="M419.7 149.3a55 55 0 0 1-.8-7.5 10.1 10.1 0 0 0-7.2-9.3l-2.4-.6c-7.7-1.6-10-.2-10.4 0a10 10 0 0 1-.5-1.3v-.1a10 10 0 0 0 2.6-6 6.5 6.5 0 0 0 2-4.6 6.3 6.3 0 0 0-1.5-4v-2.3a10 10 0 0 0-10-10.1h-.9a10 10 0 0 0-10 10v2.6a6.2 6.2 0 0 0-1.5 3.8 6.5 6.5 0 0 0 2 4.5 10 10 0 0 0 2.8 6.2l.1 1.2-13.8 3s-5.4.2-8.8 7.3c-3 6-8.7 21.5-10.5 26l-.4 1.4.1-.2-.1.5.2-.3c-.2 2-.3 5.3 2.3 5.7 2 .3 7.5.5 11.6.5H414v-.4a3 3 0 0 0-.2-1.2 2.4 2.4 0 0 1 .5 1 1.1 1.1 0 0 1 0 .4s5.7-14.7 5.6-23.4a14.8 14.8 0 0 0-.2-2.8zm-35.4-15.5a10.2 10.2 0 0 1-.2-1.3l.2 1.3zM367 165.2v3.5l-2.2.5z" transform="translate(-323.494 -97.238)" style="fill:url(#a)"/><path class="f" d="M67.3 7.7a10 10 0 0 1 10 10V22h-20v-4.3a10 10 0 0 1 10-10z"/><ellipse class="f" cx="11.476" cy="7.886" rx="11.476" ry="7.886" transform="translate(55.884 15.555)"/><path class="g" d="M60 31s2.4 12.6 0 16 7.3 4.7 7.3 4.7L77.4 48l1.4-9s-6.1-3.4-4.9-10.4z"/><path class="g" d="M89.7 73.3s.6 2.8-2.8 3.3a19.5 19.5 0 0 1-6.1-.1l-.8-7h8z"/><path class="g" d="M28.8 69.8s-1.5 6.2 2 6.8 16 .5 16 .5v-7.3L41.1 71 35.7 66z"/><path class="h" d="M60.7 35.1L47.3 38s-5.2.2-8.5 7-10.5 26.4-10.5 26.4 6.1-6.2 13.3.4l4.8-8.7-1 13.7h37v-6.4s7.8 4.1 7.2 6.4c0 0 6.7-17 5.2-24.8a52.8 52.8 0 0 1-.8-7.3 9.7 9.7 0 0 0-6.8-8.8 28 28 0 0 0-2.3-.6c-8-1.7-10 0-10 0s-1.5 5-1.5 7.3c0 2.9-4.2 4.8-4.2 4.8S63 46 62.8 44.7s-2.6-8.2-2-9.6z"/><path d="M60.7 34.8l-13.4 2.9s-5.2.2-8.5 7-10.5 26.4-10.5 26.4 6.1-6.2 13.3.4l4.8-8.7-1 13.8h37V70s7.8 4.1 7.2 6.5c0 0 6.7-17.1 5.2-24.9a52.8 52.8 0 0 1-.8-7.2 9.7 9.7 0 0 0-6.8-9 28 28 0 0 0-2.3-.5c-8-1.7-10 0-10 0s-1.5 5-1.5 7.3c0 2.9-4.2 4.8-4.2 4.8s-6.2-1.5-6.4-2.6-2.6-8.2-2-9.7z" style="fill:#575988"/><path class="h" d="M74.5 34.3a9.5 9.5 0 0 1-.3-5l-14 2.4.4 2.6a9.6 9.6 0 0 0 14 0z"/><path class="g" d="M76.9 27a9.6 9.6 0 1 1-19.2.3v-.2A9.6 9.6 0 0 1 69 17.6a9.6 9.6 0 0 1 8 8.8v.7z"/><g style="opacity:0.1"><path d="M64 18.3a9.6 9.6 0 0 0-6.2 9v.2a2.1 2.1 0 0 0 .8-.2c2.3-1 3.7-4.4 4.3-6.7a3.5 3.5 0 0 1 1-2.3z"/><path d="M71.3 18.6a9.5 9.5 0 0 0-2.4-.8 3 3 0 0 1 1.7 1.1 4.4 4.4 0 0 1 .6 1 9.6 9.6 0 0 0-8 .1c.5 1.3 2.4 2 3.6 2.5L71 24l-1.3-1 2.8.4a4.8 4.8 0 0 0-.2-1.6 17 17 0 0 0 1.8 1c1.1.6 1.6 2 2.2 3a2 2 0 0 0 .6.8 9.6 9.6 0 0 0-5.6-8z"/></g><path class="k" d="M64 18a9.6 9.6 0 0 0-6.2 9v.3a2.1 2.1 0 0 0 .8-.2c2.3-1.1 3.7-4.4 4.3-6.8a3.6 3.6 0 0 1 1-2.2z"/><path class="k" d="M71.3 18.4a9.5 9.5 0 0 0-2.4-.8 3 3 0 0 1 1.7 1.1 4.4 4.4 0 0 1 .6 1 9.6 9.6 0 0 0-8 .1c.5 1.3 2.4 2 3.6 2.5l4.2 1.5-1.3-1 2.8.4a4.8 4.8 0 0 0-.2-1.6 17 17 0 0 0 1.8.9c1.1.7 1.6 2 2.2 3.1a2 2 0 0 0 .6.8 9.6 9.6 0 0 0-5.6-8z"/><path class="h" d="M56.7 25.5s9.8-12.3 21.2 0l-1-2.8s-5.3-7.8-9.1-6-7.6 2.8-7.6 2.8z"/><path class="f" d="M56.7 25.3s9.8-12.3 21.2 0l-1-2.8s-5.3-7.8-9.1-6.1-7.6 2.9-7.6 2.9z"/><path class="h" d="M48.6 51.7s-2.2 5.6.8 10.7-2.6 7.2-2.6 7.2"/><path class="h" d="M82.8 46.6s3.6 4.7 1.2 8.8-2.2 14.2-2.2 14.2"/><path class="l" d="M45.3 73.7H86a3.4 3.4 0 0 1 3.4 3.4H41.9a3.4 3.4 0 0 1 3.4-3.4z"/><path class="l" d="M49.5 50.5h32.4a5.2 5.2 0 0 1 5.2 5.2v18.8H44.3V55.7a5.2 5.2 0 0 1 5.2-5.2z"/><ellipse cx="2.535" cy="2.535" rx="2.535" ry="2.535" transform="translate(63.099 61.004)" style="fill:#fff"/><path d="M57.2 19.7s9.7-9.6 20.2-.1" style="stroke:#000;opacity:0.1;fill:none;stroke-miterlimit:10"/><rect class="o" width="0.973" height="5.514" transform="translate(78.833 19.127)"/><path class="p" d="M77.5 22.7A3.4 3.4 0 0 1 81 26v.3a3.4 3.4 0 0 1-3.4 3.3z"/><rect class="o" width="1.513" height="7.569" rx="0.757" transform="translate(76.886 22.371)"/><rect class="o" width="0.973" height="5.514" transform="translate(55.646 24.749) rotate(180)"/><path class="p" d="M57 29.7a3.4 3.4 0 0 1-3.4-3.3v-.2a3.4 3.4 0 0 1 3.3-3.4z"/><rect class="o" width="1.513" height="7.569" rx="0.757" transform="translate(57.593 30.046) rotate(180)"/><path class="p" d="M78.7 13.2c-1.3-2.7-4.2-6-10.4-6.3L66 7c-6.2.3-9 3.6-10.3 6.3a14.2 14.2 0 0 0-1.4 6h1.5a12.9 12.9 0 0 1 1.2-5.4c1.7-3.4 4.8-5.2 9.2-5.4h2c4.3 0 7.4 2 9 5.3a12.9 12.9 0 0 1 1.3 5.3H80a14.2 14.2 0 0 0-1.4-5.9z"/><rect class="q" width="103.211" height="27.711" transform="translate(10.078 77.137)"/><rect class="h" width="103.211" height="3.597" transform="translate(10.078 79.003)"/><rect class="q" width="117.056" height="3.597" transform="translate(3.154 76.738)"/></g></svg>