<svg xmlns="http://www.w3.org/2000/svg" viewBox="0 0 230 56"><path d="M65 13.2h2.8v11.6h14.5V13.2h2.8V40h-2.8V27.3H67.8V40H65zm36.5 18H99a13.7 13.7 0 0 0-2.7.5 6 6 0 0 0-2.2 1.1 2.5 2.5 0 0 0-1 2.1 3 3 0 0 0 .4 1.5 3 3 0 0 0 1 1 4.1 4.1 0 0 0 1.3.6 6.6 6.6 0 0 0 1.5.1 5.7 5.7 0 0 0 2.4-.4 4.9 4.9 0 0 0 1.6-1.2 4.9 4.9 0 0 0 1-1.8 7.4 7.4 0 0 0 .4-2.3v-1.2zm1.3-2v-.5q0-4.6-4.6-4.6a7.8 7.8 0 0 0-5.4 2l-1.5-1.7q2.5-2.6 7.5-2.6a8.1 8.1 0 0 1 2.5.4 5.6 5.6 0 0 1 2 1.2 5.7 5.7 0 0 1 1.4 2 6.7 6.7 0 0 1 .6 2.7v10q0 1.1.3 1.9H103l-.1-1.4V37h-.2a6.8 6.8 0 0 1-2.6 2.5 7.8 7.8 0 0 1-3.6.8 8 8 0 0 1-2.3-.3 5.8 5.8 0 0 1-2-1 5 5 0 0 1-1.3-1.6 4.7 4.7 0 0 1-.5-2.3 4.8 4.8 0 0 1 1.1-3.3 6.8 6.8 0 0 1 2.8-1.9 13.8 13.8 0 0 1 3.6-.7l3.5-.2zm21.1-2.8a5.3 5.3 0 0 0-1.8-1.6 5 5 0 0 0-2.6-.7 6.6 6.6 0 0 0-2.8.5 6 6 0 0 0-2 1.5 6.4 6.4 0 0 0-1.4 2.2 8.5 8.5 0 0 0-.5 2.8 8.5 8.5 0 0 0 .5 2.8 6.4 6.4 0 0 0 1.3 2.3 6 6 0 0 0 2.1 1.5 6.6 6.6 0 0 0 2.8.4 5 5 0 0 0 2.6-.6 5.3 5.3 0 0 0 1.8-1.7l2 1.6a8.4 8.4 0 0 1-3 2.2 9 9 0 0 1-3.4.8 9.9 9.9 0 0 1-3.9-.7 8.6 8.6 0 0 1-3-1.9 8.3 8.3 0 0 1-1.8-3 10.5 10.5 0 0 1-.7-3.7 10.5 10.5 0 0 1 .7-3.7 8.3 8.3 0 0 1 1.8-3 8.6 8.6 0 0 1 3-2 9.9 9.9 0 0 1 3.9-.6 9 9 0 0 1 3.5.8 8.4 8.4 0 0 1 3 2.3zm7.8 3.9l8.4-8h3.7l-8.8 8 9.8 9.7h-3.9l-9.2-9.3V40h-2.5V11.4h2.5zm29.5-.5a5.7 5.7 0 0 0-1.5-4.1 5.6 5.6 0 0 0-4.2-1.6 6 6 0 0 0-2.4.5 6.6 6.6 0 0 0-2 1.2 6.3 6.3 0 0 0-1.3 1.8 4.7 4.7 0 0 0-.5 2.2zm-12 2a7.6 7.6 0 0 0 .6 2.5 6.6 6.6 0 0 0 1.4 2 6.6 6.6 0 0 0 2 1.4 6.1 6.1 0 0 0 2.5.4 6.3 6.3 0 0 0 3.5-.9 7 7 0 0 0 2.2-2.1l1.9 1.6a9.6 9.6 0 0 1-3.5 2.8 9.8 9.8 0 0 1-4.1 1 9.4 9.4 0 0 1-3.7-.8 8.5 8.5 0 0 1-2.8-2 9.2 9.2 0 0 1-2-2.9 9.6 9.6 0 0 1-.7-3.7 9.9 9.9 0 0 1 .7-3.7 9 9 0 0 1 2-3 8.7 8.7 0 0 1 2.8-1.9 8.8 8.8 0 0 1 3.5-.7 8.6 8.6 0 0 1 3.6.8 8 8 0 0 1 2.6 1.9 8.2 8.2 0 0 1 1.7 2.8 10.2 10.2 0 0 1 .5 3.4v1.1zm19.5-4v-2.4l-.1-3.1h2.4v3.3h.1a5.5 5.5 0 0 1 .8-1.4A6 6 0 0 1 173 23a5.8 5.8 0 0 1 1.6-.8 6.4 6.4 0 0 1 2-.4 6.8 6.8 0 0 1 2 .3l-.5 2.4a4.2 4.2 0 0 0-1.5-.2 5.1 5.1 0 0 0-2.4.6 5.4 5.4 0 0 0-1.7 1.4 5.8 5.8 0 0 0-1 1.8 6 6 0 0 0-.4 1.9v10h-2.5zM184.1 40h-2.5V11.4h2.5zm21.1-8.9a8 8 0 0 0-.4-2.7 6.6 6.6 0 0 0-1.4-2.3 6.3 6.3 0 0 0-2-1.5 6.8 6.8 0 0 0-2.8-.5 6.8 6.8 0 0 0-2.8.5 6.1 6.1 0 0 0-2.1 1.5 6.8 6.8 0 0 0-1.3 2.3 8 8 0 0 0-.5 2.7 8 8 0 0 0 .5 2.8 6.8 6.8 0 0 0 1.3 2.2 6.1 6.1 0 0 0 2 1.5 6.8 6.8 0 0 0 2.9.5 6.8 6.8 0 0 0 2.7-.5 6.3 6.3 0 0 0 2.1-1.5 6.6 6.6 0 0 0 1.4-2.2 8 8 0 0 0 .4-2.8zm2.8 0a9.6 9.6 0 0 1-.7 3.7 8.9 8.9 0 0 1-2 3 8.9 8.9 0 0 1-3 2 10 10 0 0 1-3.7.6 9.9 9.9 0 0 1-3.8-.7 8.9 8.9 0 0 1-3-2 8.9 8.9 0 0 1-2-2.9 9.6 9.6 0 0 1-.6-3.7 9.6 9.6 0 0 1 .7-3.7 8.9 8.9 0 0 1 2-3 8.9 8.9 0 0 1 2.9-1.9 9.9 9.9 0 0 1 3.8-.7 10 10 0 0 1 3.8.7 8.9 8.9 0 0 1 3 2 8.9 8.9 0 0 1 1.9 3 9.6 9.6 0 0 1 .7 3.6zm6.3-.2a6.8 6.8 0 0 0 .5 2.6 6.9 6.9 0 0 0 1.4 2.2 6.8 6.8 0 0 0 2.1 1.4 6.1 6.1 0 0 0 2.6.6 7 7 0 0 0 2.6-.5 6.9 6.9 0 0 0 2.2-1.4 6 6 0 0 0 1.4-2.1 6.9 6.9 0 0 0 .5-2.8 7.5 7.5 0 0 0-.5-2.6 6.3 6.3 0 0 0-1.3-2.2 6.4 6.4 0 0 0-2.1-1.5 6.9 6.9 0 0 0-2.8-.5 6.1 6.1 0 0 0-2.6.5 6.8 6.8 0 0 0-2 1.5 6.9 6.9 0 0 0-1.5 2.2 6.8 6.8 0 0 0-.5 2.6zm-.4 12.6a8 8 0 0 0 2.8 2.4 8.6 8.6 0 0 0 4 .9 8.4 8.4 0 0 0 3.1-.6 5.6 5.6 0 0 0 2.2-1.5 5.7 5.7 0 0 0 1.1-2.2 9.8 9.8 0 0 0 .4-2.7v-3.2a6.8 6.8 0 0 1-3 2.6 9.1 9.1 0 0 1-3.7.8 9.5 9.5 0 0 1-3.6-.7 9.2 9.2 0 0 1-3-1.9 8.6 8.6 0 0 1-1.9-2.8 9 9 0 0 1-.7-3.6 9.4 9.4 0 0 1 .7-3.6 9.2 9.2 0 0 1 1.8-3 8.4 8.4 0 0 1 2.9-1.9 9.1 9.1 0 0 1 3.6-.7 10 10 0 0 1 1.7.2 8 8 0 0 1 1.7.5 8.2 8.2 0 0 1 1.8 1 8.3 8.3 0 0 1 1.6 1.7h.1v-3h2.5v17.6a14.2 14.2 0 0 1-.4 3 7.5 7.5 0 0 1-1.4 3 8 8 0 0 1-2.9 2.3 11 11 0 0 1-4.8 1 12.2 12.2 0 0 1-4.7-1 11 11 0 0 1-3.8-2.6z" style="fill:#465468"/><path d="M28 56a28.3 28.3 0 0 1-5.6-.6 27.9 27.9 0 0 1-10-4.2A28 28 0 0 1 2.2 39a27.8 27.8 0 0 1-1.6-5.3 28.2 28.2 0 0 1 .7-14.1A28 28 0 0 1 18 1.9v46h2.7v-19h14.6V55a28.1 28.1 0 0 1-7.3.9zm10-1.8V26.4H20.7V1A28 28 0 0 1 53.9 17a27.8 27.8 0 0 1 1.6 5.3 28.2 28.2 0 0 1-.8 14.2A28 28 0 0 1 38 54.2z" style="fill:#4651af"/></svg>