<svg xmlns="http://www.w3.org/2000/svg" viewBox="0 0 230 56"><defs><style>.a{fill:#465468;}.b{fill:#4651af;}</style></defs><g transform="translate(-526 -589)"><path class="a" d="M11.52-88.908h2.721v11.59H28.829v-11.59H31.55v26.729H28.829V-74.826H14.241v12.647H11.52ZM47.951-70.975q-.945,0-2.362.094a13.654,13.654,0,0,0-2.721.453,5.993,5.993,0,0,0-2.23,1.114,2.534,2.534,0,0,0-.926,2.076,2.938,2.938,0,0,0,.359,1.491,2.987,2.987,0,0,0,.964,1.019,4.108,4.108,0,0,0,1.342.566,6.624,6.624,0,0,0,1.493.17,5.69,5.69,0,0,0,2.362-.453,4.885,4.885,0,0,0,1.682-1.227,4.9,4.9,0,0,0,1-1.812,7.432,7.432,0,0,0,.321-2.209v-1.284Zm1.285-2.039v-.453q0-4.568-4.535-4.568a7.817,7.817,0,0,0-5.4,2.076l-1.512-1.774Q40.279-80.3,45.268-80.3a8.139,8.139,0,0,1,2.475.378,5.6,5.6,0,0,1,2.06,1.151,5.71,5.71,0,0,1,1.4,1.944,6.742,6.742,0,0,1,.529,2.794v7.89q0,1.019.094,2.133t.208,1.831H49.614q-.113-.642-.17-1.4t-.057-1.472h-.076A6.758,6.758,0,0,1,46.723-62.5a7.85,7.85,0,0,1-3.647.774,8.028,8.028,0,0,1-2.267-.321,5.789,5.789,0,0,1-1.946-.982A4.99,4.99,0,0,1,37.5-64.652a4.729,4.729,0,0,1-.51-2.246,4.838,4.838,0,0,1,1.115-3.379,6.819,6.819,0,0,1,2.8-1.831,13.792,13.792,0,0,1,3.59-.755q1.908-.151,3.5-.151ZM70.4-75.694a5.329,5.329,0,0,0-1.8-1.661,5.073,5.073,0,0,0-2.627-.68,6.551,6.551,0,0,0-2.778.491,6.08,6.08,0,0,0-2.1,1.472,6.355,6.355,0,0,0-1.323,2.246,8.5,8.5,0,0,0-.453,2.813A8.5,8.5,0,0,0,59.78-68.2,6.355,6.355,0,0,0,61.1-65.954a6.08,6.08,0,0,0,2.1,1.472,6.551,6.551,0,0,0,2.778.491,5.073,5.073,0,0,0,2.627-.68,5.329,5.329,0,0,0,1.8-1.661l2.041,1.548A8.4,8.4,0,0,1,69.455-62.5a8.967,8.967,0,0,1-3.477.774,9.886,9.886,0,0,1-3.893-.661,8.619,8.619,0,0,1-2.967-1.944,8.311,8.311,0,0,1-1.871-2.964,10.532,10.532,0,0,1-.642-3.719,10.532,10.532,0,0,1,.642-3.719A8.311,8.311,0,0,1,59.119-77.7a8.619,8.619,0,0,1,2.967-1.944,9.886,9.886,0,0,1,3.893-.661,8.967,8.967,0,0,1,3.477.774,8.4,8.4,0,0,1,2.986,2.284Zm7.823,3.813,8.352-7.966h3.741L81.51-71.768l9.75,9.589H87.406l-9.183-9.287v9.287H75.728V-90.72h2.494Zm29.477-.491a5.652,5.652,0,0,0-1.512-4.1,5.606,5.606,0,0,0-4.233-1.567,6.041,6.041,0,0,0-2.343.472A6.6,6.6,0,0,0,97.628-76.3a6.343,6.343,0,0,0-1.36,1.812,4.668,4.668,0,0,0-.51,2.114ZM95.682-70.334a7.574,7.574,0,0,0,.642,2.492,6.583,6.583,0,0,0,1.4,2.02,6.579,6.579,0,0,0,2,1.34,6.116,6.116,0,0,0,2.456.491,6.309,6.309,0,0,0,3.458-.925,6.916,6.916,0,0,0,2.211-2.133l1.927,1.586a9.585,9.585,0,0,1-3.5,2.869,9.784,9.784,0,0,1-4.1.868,9.414,9.414,0,0,1-3.647-.7,8.543,8.543,0,0,1-2.891-1.944,9.21,9.21,0,0,1-1.908-2.945,9.628,9.628,0,0,1-.7-3.7,9.863,9.863,0,0,1,.68-3.7,8.956,8.956,0,0,1,1.89-2.945A8.689,8.689,0,0,1,98.441-79.6a8.805,8.805,0,0,1,3.515-.7,8.626,8.626,0,0,1,3.59.717,7.966,7.966,0,0,1,2.664,1.907,8.158,8.158,0,0,1,1.644,2.794,10.182,10.182,0,0,1,.567,3.417v1.133Zm19.538-4q0-1.17-.057-2.378t-.094-3.133h2.456v3.284h.076a5.49,5.49,0,0,1,.756-1.378,5.918,5.918,0,0,1,1.19-1.189,5.848,5.848,0,0,1,1.625-.849,6.384,6.384,0,0,1,2.1-.321,6.778,6.778,0,0,1,1.852.227l-.491,2.454a4.2,4.2,0,0,0-1.436-.189,5.131,5.131,0,0,0-2.456.547,5.445,5.445,0,0,0-1.7,1.4,5.8,5.8,0,0,0-1,1.831,6.061,6.061,0,0,0-.321,1.888v9.967H115.22Zm15.343,12.156h-2.494V-90.72h2.494Zm21.163-8.834a7.917,7.917,0,0,0-.472-2.756A6.624,6.624,0,0,0,149.913-76a6.3,6.3,0,0,0-2.1-1.491,6.754,6.754,0,0,0-2.778-.547,6.754,6.754,0,0,0-2.778.547A6.1,6.1,0,0,0,140.182-76a6.792,6.792,0,0,0-1.323,2.227,7.917,7.917,0,0,0-.472,2.756,7.917,7.917,0,0,0,.472,2.756,6.792,6.792,0,0,0,1.323,2.227,6.1,6.1,0,0,0,2.079,1.491,6.754,6.754,0,0,0,2.778.547,6.754,6.754,0,0,0,2.778-.547,6.3,6.3,0,0,0,2.1-1.491,6.624,6.624,0,0,0,1.342-2.227A7.917,7.917,0,0,0,151.727-71.013Zm2.721,0a9.628,9.628,0,0,1-.7,3.7,8.9,8.9,0,0,1-1.946,2.945,8.864,8.864,0,0,1-2.967,1.944,10,10,0,0,1-3.8.7,9.9,9.9,0,0,1-3.76-.7,8.864,8.864,0,0,1-2.967-1.944,8.9,8.9,0,0,1-1.946-2.945,9.628,9.628,0,0,1-.7-3.7,9.628,9.628,0,0,1,.7-3.7,8.9,8.9,0,0,1,1.946-2.945,8.864,8.864,0,0,1,2.967-1.944,9.9,9.9,0,0,1,3.76-.7,10,10,0,0,1,3.8.7,8.864,8.864,0,0,1,2.967,1.944,8.9,8.9,0,0,1,1.946,2.945A9.628,9.628,0,0,1,154.448-71.013Zm6.349-.227a6.765,6.765,0,0,0,.51,2.624,6.9,6.9,0,0,0,1.4,2.152,6.779,6.779,0,0,0,2.079,1.472,6.121,6.121,0,0,0,2.589.547,6.912,6.912,0,0,0,2.589-.491,6.865,6.865,0,0,0,2.173-1.378,6.01,6.01,0,0,0,1.455-2.133,6.861,6.861,0,0,0,.472-2.794,7.508,7.508,0,0,0-.454-2.624,6.291,6.291,0,0,0-1.323-2.152,6.385,6.385,0,0,0-2.116-1.472,6.887,6.887,0,0,0-2.8-.547,6.121,6.121,0,0,0-2.589.547,6.779,6.779,0,0,0-2.079,1.472,6.9,6.9,0,0,0-1.4,2.152A6.765,6.765,0,0,0,160.8-71.24Zm-.454,12.609a7.963,7.963,0,0,0,2.853,2.36,8.555,8.555,0,0,0,3.911.887,8.4,8.4,0,0,0,3.212-.547,5.566,5.566,0,0,0,2.135-1.491,5.739,5.739,0,0,0,1.172-2.209,9.843,9.843,0,0,0,.359-2.7V-65.5h-.076a6.808,6.808,0,0,1-2.948,2.567,9.1,9.1,0,0,1-3.666.755,9.542,9.542,0,0,1-3.609-.68,9.179,9.179,0,0,1-2.929-1.869,8.606,8.606,0,0,1-1.965-2.85,8.941,8.941,0,0,1-.718-3.587,9.372,9.372,0,0,1,.68-3.587,9.22,9.22,0,0,1,1.871-2.907,8.431,8.431,0,0,1,2.834-1.944,9.136,9.136,0,0,1,3.609-.7,10.05,10.05,0,0,1,1.682.151,7.935,7.935,0,0,1,1.776.529,8.244,8.244,0,0,1,1.757,1.038,8.285,8.285,0,0,1,1.625,1.68h.076v-2.945h2.494V-62.33a14.19,14.19,0,0,1-.359,3.058,7.541,7.541,0,0,1-1.4,2.982,7.952,7.952,0,0,1-2.891,2.265,11.054,11.054,0,0,1-4.837.906,12.159,12.159,0,0,1-4.724-.868,10.975,10.975,0,0,1-3.779-2.68Z" transform="translate(579.519 691.134)"/><path class="b" d="M28.029,56a28.264,28.264,0,0,1-5.649-.569,27.891,27.891,0,0,1-10.022-4.213A28.085,28.085,0,0,1,2.2,38.9,27.838,27.838,0,0,1,.569,33.643a28.176,28.176,0,0,1,.759-14.185A28.09,28.09,0,0,1,17.951,1.864V47.808h2.721V28.868H35.26V55.059A28.143,28.143,0,0,1,28.029,56Zm9.952-1.816V26.377H20.672V.974A28.063,28.063,0,0,1,53.855,17.1a27.838,27.838,0,0,1,1.633,5.256,28.177,28.177,0,0,1-.769,14.217A28.087,28.087,0,0,1,37.981,54.184Z" transform="translate(526 589)"/></g></svg>