<svg xmlns="http://www.w3.org/2000/svg" viewBox="0 0 480 117"><defs><style>.a{fill:#f9fafc;}.b{fill:#4651af;}</style></defs><g transform="translate(-786 -277)"><path class="a" d="M57.5,0A57.5,57.5,0,1,1,0,57.5,57.5,57.5,0,0,1,57.5,0Z" transform="translate(787 278)"/><path class="b" d="M58.5,117a58.934,58.934,0,0,1-11.79-1.188,58.181,58.181,0,0,1-20.918-8.8A58.67,58.67,0,0,1,4.6,81.271,58.206,58.206,0,0,1,1.189,70.29,58.925,58.925,0,0,1,2.772,40.654,58.655,58.655,0,0,1,37.466,3.9V99.884h5.679V60.314H73.592v54.72A58.682,58.682,0,0,1,58.5,117Zm20.771-3.795v-58.1H43.145V2.036A58.517,58.517,0,0,1,79.272,113.205Z" transform="translate(786 277)"/><path class="a" d="M11.52-86.938H17.2V-62.75H47.642V-86.938h5.679v55.782H47.642V-57.55H17.2v26.394H11.52ZM87.55-49.514q-1.972,0-4.929.2a28.5,28.5,0,0,0-5.679.945,12.506,12.506,0,0,0-4.653,2.324,5.288,5.288,0,0,0-1.932,4.333,6.131,6.131,0,0,0,.749,3.112,6.233,6.233,0,0,0,2.011,2.127,8.573,8.573,0,0,0,2.8,1.182,13.824,13.824,0,0,0,3.115.355,11.874,11.874,0,0,0,4.929-.945,10.2,10.2,0,0,0,3.51-2.561,10.233,10.233,0,0,0,2.09-3.782,15.51,15.51,0,0,0,.67-4.609v-2.679Zm2.682-4.255v-.945q0-9.533-9.464-9.533a16.313,16.313,0,0,0-11.278,4.333l-3.155-3.7q5.205-5.358,15.616-5.358a16.987,16.987,0,0,1,5.166.788,11.684,11.684,0,0,1,4.3,2.4,11.916,11.916,0,0,1,2.918,4.058,14.071,14.071,0,0,1,1.1,5.83v16.467q0,2.127.2,4.452t.434,3.821H91.021q-.237-1.339-.355-2.915t-.118-3.073H90.39a14.1,14.1,0,0,1-5.4,5.318,16.382,16.382,0,0,1-7.611,1.615,16.753,16.753,0,0,1-4.732-.67,12.081,12.081,0,0,1-4.062-2.048,10.414,10.414,0,0,1-2.839-3.388A9.868,9.868,0,0,1,64.678-41,10.1,10.1,0,0,1,67-48.056a14.231,14.231,0,0,1,5.836-3.821,28.783,28.783,0,0,1,7.493-1.576q3.983-.315,7.3-.315ZM134.4-59.362a11.121,11.121,0,0,0-3.746-3.467,10.588,10.588,0,0,0-5.481-1.418,13.672,13.672,0,0,0-5.8,1.024A12.688,12.688,0,0,0,115-60.15a13.263,13.263,0,0,0-2.76,4.688,17.732,17.732,0,0,0-.946,5.87,17.732,17.732,0,0,0,.946,5.87A13.263,13.263,0,0,0,115-39.035a12.688,12.688,0,0,0,4.377,3.073,13.672,13.672,0,0,0,5.8,1.024,10.588,10.588,0,0,0,5.481-1.418,11.121,11.121,0,0,0,3.746-3.467l4.259,3.23a17.527,17.527,0,0,1-6.231,4.767,18.713,18.713,0,0,1-7.256,1.615,20.632,20.632,0,0,1-8.124-1.379,17.988,17.988,0,0,1-6.191-4.058,17.344,17.344,0,0,1-3.9-6.185,21.979,21.979,0,0,1-1.341-7.761,21.979,21.979,0,0,1,1.341-7.761,17.344,17.344,0,0,1,3.9-6.185,17.987,17.987,0,0,1,6.191-4.058,20.632,20.632,0,0,1,8.124-1.379,18.713,18.713,0,0,1,7.256,1.615,17.527,17.527,0,0,1,6.231,4.767ZM150.725-51.4l17.43-16.624h7.808L157.586-51.168l20.348,20.012H169.89L150.725-50.538v19.382h-5.205V-90.72h5.205Zm61.518-1.024a11.8,11.8,0,0,0-3.155-8.549q-3.155-3.27-8.833-3.27a12.607,12.607,0,0,0-4.89.985,13.766,13.766,0,0,0-4.141,2.639,13.238,13.238,0,0,0-2.839,3.782,9.742,9.742,0,0,0-1.065,4.412Zm-25.081,4.255a15.807,15.807,0,0,0,1.341,5.2,13.738,13.738,0,0,0,2.918,4.215,13.729,13.729,0,0,0,4.18,2.8,12.765,12.765,0,0,0,5.127,1.024,13.166,13.166,0,0,0,7.217-1.93,14.434,14.434,0,0,0,4.614-4.452l4.022,3.309a20,20,0,0,1-7.3,5.988,20.418,20.418,0,0,1-8.557,1.812,19.647,19.647,0,0,1-7.611-1.458,17.829,17.829,0,0,1-6.034-4.058,19.221,19.221,0,0,1-3.983-6.146,20.093,20.093,0,0,1-1.459-7.721,20.584,20.584,0,0,1,1.42-7.721A18.69,18.69,0,0,1,187-63.459a18.134,18.134,0,0,1,5.915-4.058,18.376,18.376,0,0,1,7.335-1.458,18,18,0,0,1,7.493,1.5,16.624,16.624,0,0,1,5.56,3.979,17.025,17.025,0,0,1,3.431,5.83,21.249,21.249,0,0,1,1.183,7.13v2.364Zm40.776-8.352q0-2.442-.118-4.964t-.2-6.539h5.126v6.855h.158a11.458,11.458,0,0,1,1.577-2.876,12.35,12.35,0,0,1,2.484-2.482A12.2,12.2,0,0,1,240.36-68.3a13.324,13.324,0,0,1,4.377-.67,14.145,14.145,0,0,1,3.865.473l-1.025,5.121a8.766,8.766,0,0,0-3-.394,10.709,10.709,0,0,0-5.127,1.142,11.364,11.364,0,0,0-3.549,2.915,12.108,12.108,0,0,0-2.09,3.821,12.65,12.65,0,0,0-.67,3.939v20.8h-5.205Zm32.021,25.37h-5.205V-90.72h5.205Zm44.167-18.437a16.523,16.523,0,0,0-.986-5.752,13.824,13.824,0,0,0-2.8-4.649,13.149,13.149,0,0,0-4.377-3.112,14.1,14.1,0,0,0-5.8-1.142,14.1,14.1,0,0,0-5.8,1.142,12.729,12.729,0,0,0-4.338,3.112,14.173,14.173,0,0,0-2.76,4.649,16.522,16.522,0,0,0-.986,5.752,16.522,16.522,0,0,0,.986,5.752,14.174,14.174,0,0,0,2.76,4.649,12.729,12.729,0,0,0,4.338,3.112,14.1,14.1,0,0,0,5.8,1.142,14.1,14.1,0,0,0,5.8-1.142,13.149,13.149,0,0,0,4.377-3.112,13.824,13.824,0,0,0,2.8-4.649A16.523,16.523,0,0,0,304.126-49.592Zm5.679,0a20.094,20.094,0,0,1-1.459,7.721,18.573,18.573,0,0,1-4.062,6.146,18.5,18.5,0,0,1-6.191,4.058,20.877,20.877,0,0,1-7.926,1.458,20.661,20.661,0,0,1-7.848-1.458,18.5,18.5,0,0,1-6.191-4.058,18.573,18.573,0,0,1-4.062-6.146,20.093,20.093,0,0,1-1.459-7.721,20.093,20.093,0,0,1,1.459-7.721,18.573,18.573,0,0,1,4.062-6.145,18.5,18.5,0,0,1,6.191-4.058,20.66,20.66,0,0,1,7.848-1.458,20.876,20.876,0,0,1,7.926,1.458,18.5,18.5,0,0,1,6.191,4.058,18.573,18.573,0,0,1,4.062,6.145A20.094,20.094,0,0,1,309.8-49.592Zm13.25-.473a14.119,14.119,0,0,0,1.065,5.476,14.4,14.4,0,0,0,2.918,4.491,14.148,14.148,0,0,0,4.338,3.073,12.774,12.774,0,0,0,5.4,1.142,14.424,14.424,0,0,0,5.4-1.024,14.326,14.326,0,0,0,4.535-2.876,12.543,12.543,0,0,0,3.036-4.452,14.318,14.318,0,0,0,.986-5.83,15.67,15.67,0,0,0-.946-5.476,13.128,13.128,0,0,0-2.76-4.491,13.324,13.324,0,0,0-4.417-3.073,14.373,14.373,0,0,0-5.836-1.142,12.774,12.774,0,0,0-5.4,1.142,14.147,14.147,0,0,0-4.338,3.073,14.4,14.4,0,0,0-2.918,4.491A14.119,14.119,0,0,0,323.055-50.065Zm-.946,26.315a16.618,16.618,0,0,0,5.955,4.924,17.852,17.852,0,0,0,8.163,1.852,17.531,17.531,0,0,0,6.7-1.142,11.615,11.615,0,0,0,4.456-3.112,11.977,11.977,0,0,0,2.445-4.609,20.543,20.543,0,0,0,.749-5.633v-6.618h-.158a14.209,14.209,0,0,1-6.152,5.358,19,19,0,0,1-7.65,1.576,19.913,19.913,0,0,1-7.532-1.418,19.156,19.156,0,0,1-6.112-3.9,17.961,17.961,0,0,1-4.1-5.949,18.661,18.661,0,0,1-1.5-7.485,19.558,19.558,0,0,1,1.42-7.485,19.241,19.241,0,0,1,3.9-6.067,17.6,17.6,0,0,1,5.915-4.058,19.067,19.067,0,0,1,7.532-1.458,20.975,20.975,0,0,1,3.51.315,16.559,16.559,0,0,1,3.707,1.1,17.2,17.2,0,0,1,3.667,2.167,17.29,17.29,0,0,1,3.391,3.506h.158v-6.146h5.205v36.558a29.614,29.614,0,0,1-.749,6.382,15.739,15.739,0,0,1-2.918,6.224,16.6,16.6,0,0,1-6.034,4.727,23.07,23.07,0,0,1-10.1,1.891,25.374,25.374,0,0,1-9.859-1.812,22.9,22.9,0,0,1-7.887-5.594Z" transform="translate(910.214 391.541)"/></g></svg>