<svg xmlns="http://www.w3.org/2000/svg" viewBox="0 0 480 117"><defs><style>.a{fill:#f9fafc}</style></defs><path class="a" d="M58.5 1A57.5 57.5 0 1 1 1 58.5 57.5 57.5 0 0 1 58.5 1z"/><path d="M58.5 117a59 59 0 0 1-11.8-1.2 58.2 58.2 0 0 1-21-8.8A58.7 58.7 0 0 1 4.7 81.3a58.2 58.2 0 0 1-3.4-11 59 59 0 0 1 1.6-29.6A58.7 58.7 0 0 1 37.5 3.9v96H43V60.3h30.5V115a58.7 58.7 0 0 1-15.1 2zm20.8-3.8V55.1H43v-53a58.5 58.5 0 0 1 36.2 111.1z" style="fill:#4651af"/><path class="a" d="M135.7 27.6h5.7v24.2H172V27.6h5.6v55.8H172V57h-30.5v26.4h-5.7zm76 37.4l-4.9.2a28.5 28.5 0 0 0-5.6 1 12.5 12.5 0 0 0-4.7 2.3 5.3 5.3 0 0 0-2 4.3 6.1 6.1 0 0 0 .8 3.1 6.2 6.2 0 0 0 2 2.2 8.6 8.6 0 0 0 2.8 1.1 13.8 13.8 0 0 0 3.1.4 11.9 11.9 0 0 0 5-1 10.2 10.2 0 0 0 3.5-2.5 10.2 10.2 0 0 0 2-3.8 15.5 15.5 0 0 0 .7-4.6V65zm2.7-4.2v-1q0-9.5-9.4-9.5a16.3 16.3 0 0 0-11.3 4.3l-3.2-3.7q5.3-5.3 15.7-5.3a17 17 0 0 1 5.1.8 11.7 11.7 0 0 1 4.3 2.4 12 12 0 0 1 3 4 14 14 0 0 1 1 5.8v16.5l.2 4.5q.2 2.4.5 3.8h-5q-.3-1.4-.4-3t-.1-3h-.2a14.1 14.1 0 0 1-5.4 5.3 16.4 16.4 0 0 1-7.6 1.6 16.8 16.8 0 0 1-4.7-.6 12 12 0 0 1-4.1-2 10.4 10.4 0 0 1-2.8-3.5 9.9 9.9 0 0 1-1.1-4.7 10.1 10.1 0 0 1 2.3-7 14.2 14.2 0 0 1 5.9-3.8 28.8 28.8 0 0 1 7.4-1.6q4-.3 7.3-.3zm44.2-5.6a11.1 11.1 0 0 0-3.7-3.5 10.6 10.6 0 0 0-5.5-1.4 13.7 13.7 0 0 0-5.8 1 12.7 12.7 0 0 0-4.4 3 13.3 13.3 0 0 0-2.7 4.8 17.7 17.7 0 0 0-1 5.8 17.7 17.7 0 0 0 1 6 13.3 13.3 0 0 0 2.7 4.6 12.7 12.7 0 0 0 4.4 3 13.7 13.7 0 0 0 5.8 1.1 10.6 10.6 0 0 0 5.5-1.4 11.1 11.1 0 0 0 3.7-3.5L263 78a17.5 17.5 0 0 1-6.3 4.8 18.7 18.7 0 0 1-7.2 1.6 20.6 20.6 0 0 1-8.1-1.3 18 18 0 0 1-6.2-4.1 17.3 17.3 0 0 1-4-6.2 22 22 0 0 1-1.3-7.8 22 22 0 0 1 1.4-7.7A17.3 17.3 0 0 1 235 51a18 18 0 0 1 6.2-4 20.6 20.6 0 0 1 8-1.4 18.7 18.7 0 0 1 7.3 1.6 17.5 17.5 0 0 1 6.3 4.7zm16.3 8l17.5-16.7h7.8l-18.4 16.9 20.3 20h-8L274.9 64v19.4h-5.2V23.8h5.2zm61.6-1a11.8 11.8 0 0 0-3.2-8.6q-3.2-3.3-8.8-3.3a12.6 12.6 0 0 0-5 1 13.8 13.8 0 0 0-4 2.6 13.2 13.2 0 0 0-2.9 3.8 9.7 9.7 0 0 0-1 4.4zm-25.1 4.2a15.8 15.8 0 0 0 1.3 5.2 13.7 13.7 0 0 0 3 4.2 13.7 13.7 0 0 0 4.1 2.8 12.8 12.8 0 0 0 5.1 1 13.2 13.2 0 0 0 7.3-2 14.4 14.4 0 0 0 4.6-4.4l4 3.3a20 20 0 0 1-7.3 6 20.4 20.4 0 0 1-8.6 1.8 19.6 19.6 0 0 1-7.6-1.4 17.8 17.8 0 0 1-6-4 19.2 19.2 0 0 1-4-6.2A20 20 0 0 1 306 65a20.6 20.6 0 0 1 1.4-7.8 18.7 18.7 0 0 1 4-6.1 18.1 18.1 0 0 1 5.8-4 18.4 18.4 0 0 1 7.4-1.5A18 18 0 0 1 332 47a16.6 16.6 0 0 1 5.5 4 17 17 0 0 1 3.4 5.8 21.2 21.2 0 0 1 1.2 7.1v2.4zm40.8-8.4l-.2-5q-.2-2.5-.2-6.5h5.2v6.9h.1a11.5 11.5 0 0 1 1.6-2.9 12.3 12.3 0 0 1 2.5-2.5 12.2 12.2 0 0 1 3.4-1.8 13.3 13.3 0 0 1 4.4-.6 14.1 14.1 0 0 1 3.8.4l-1 5.2a8.8 8.8 0 0 0-3-.4 10.7 10.7 0 0 0-5.1 1.1 11.4 11.4 0 0 0-3.6 3 12.1 12.1 0 0 0-2 3.7 12.7 12.7 0 0 0-.7 4v20.8h-5.2zm32 25.4H379V23.8h5.2zM428.3 65a16.5 16.5 0 0 0-1-5.8 13.8 13.8 0 0 0-2.7-4.6 13.1 13.1 0 0 0-4.4-3.2 14.1 14.1 0 0 0-5.8-1.1 14.1 14.1 0 0 0-5.8 1.1 12.7 12.7 0 0 0-4.4 3.2 14.2 14.2 0 0 0-2.7 4.6 16.5 16.5 0 0 0-1 5.8 16.5 16.5 0 0 0 1 5.7 14.2 14.2 0 0 0 2.7 4.7 12.7 12.7 0 0 0 4.4 3 14.1 14.1 0 0 0 5.8 1.2 14.1 14.1 0 0 0 5.8-1.1 13.1 13.1 0 0 0 4.4-3.1 13.8 13.8 0 0 0 2.8-4.7 16.5 16.5 0 0 0 1-5.8zm5.7 0a20 20 0 0 1-1.4 7.7 18.6 18.6 0 0 1-4.1 6.1 18.5 18.5 0 0 1-6.2 4 20.9 20.9 0 0 1-8 1.5 20.7 20.7 0 0 1-7.8-1.4 18.5 18.5 0 0 1-6.2-4 18.6 18.6 0 0 1-4-6.2 20 20 0 0 1-1.5-7.7 20 20 0 0 1 1.5-7.8 18.6 18.6 0 0 1 4-6.1 18.5 18.5 0 0 1 6.2-4 20.7 20.7 0 0 1 7.9-1.5 20.9 20.9 0 0 1 8 1.4 18.5 18.5 0 0 1 6.1 4 18.6 18.6 0 0 1 4 6.2A20 20 0 0 1 434 65zm13.3-.5a14.1 14.1 0 0 0 1 5.5 14.4 14.4 0 0 0 3 4.4 14.1 14.1 0 0 0 4.3 3.1 12.8 12.8 0 0 0 5.4 1.2 14.4 14.4 0 0 0 5.4-1 14.3 14.3 0 0 0 4.5-3 12.5 12.5 0 0 0 3-4.4 14.3 14.3 0 0 0 1-5.8 15.7 15.7 0 0 0-.9-5.5 13.1 13.1 0 0 0-2.8-4.5 13.3 13.3 0 0 0-4.4-3 14.4 14.4 0 0 0-5.8-1.2 12.8 12.8 0 0 0-5.4 1.1 14.1 14.1 0 0 0-4.4 3.1 14.4 14.4 0 0 0-2.9 4.5 14.1 14.1 0 0 0-1 5.5zm-1 26.3a16.6 16.6 0 0 0 6 5 17.9 17.9 0 0 0 8.1 1.8 17.5 17.5 0 0 0 6.7-1.2 11.6 11.6 0 0 0 4.5-3 12 12 0 0 0 2.4-4.7 20.5 20.5 0 0 0 .8-5.6v-6.6h-.2a14.2 14.2 0 0 1-6.1 5.3 19 19 0 0 1-7.7 1.6 20 20 0 0 1-7.5-1.4 19.2 19.2 0 0 1-6.1-4 18 18 0 0 1-4.1-5.9 18.7 18.7 0 0 1-1.5-7.5 19.6 19.6 0 0 1 1.4-7.4 19.2 19.2 0 0 1 4-6.1 17.6 17.6 0 0 1 5.8-4 19 19 0 0 1 7.6-1.5 21 21 0 0 1 3.5.3 16.6 16.6 0 0 1 3.7 1 17.2 17.2 0 0 1 3.6 2.3 17.3 17.3 0 0 1 3.4 3.5h.2v-6.2h5.2v36.6a29.6 29.6 0 0 1-.8 6.4 15.7 15.7 0 0 1-2.9 6.2 16.6 16.6 0 0 1-6 4.7 23 23 0 0 1-10.1 1.9 25.4 25.4 0 0 1-9.9-1.8 22.9 22.9 0 0 1-7.9-5.6z"/></svg>