<svg xmlns="http://www.w3.org/2000/svg" viewBox="0 0 1022.057 249.105">
  <defs>
    <style>
      .cls-1 {
        fill: #465468;
      }

      .cls-2 {
        fill: #4651af;
      }
    </style>
  </defs>
  <g id="logo" transform="translate(-526 -589)">
    <path id="Name" class="cls-1" d="M11.52-82.659H23.611V-31.1H88.435V-82.659h12.091v118.9H88.435V-20.019H23.611V36.239H11.52ZM173.41-2.89q-4.2,0-10.5.42A60.619,60.619,0,0,0,150.823-.455,26.618,26.618,0,0,0,140.914,4.5a11.276,11.276,0,0,0-4.114,9.236,13.078,13.078,0,0,0,1.6,6.633,13.279,13.279,0,0,0,4.282,4.534,18.245,18.245,0,0,0,5.962,2.519,29.406,29.406,0,0,0,6.633.756,25.26,25.26,0,0,0,10.5-2.015,21.362,21.362,0,0,0,11.923-13.519A33.089,33.089,0,0,0,179.12,2.82V-2.89Zm5.71-9.069v-2.015q0-20.32-20.152-20.32a34.716,34.716,0,0,0-24.015,9.236l-6.717-7.893q11.084-11.42,33.251-11.42a36.134,36.134,0,0,1,11,1.679,24.871,24.871,0,0,1,9.152,5.122,25.4,25.4,0,0,1,6.214,8.649A30.019,30.019,0,0,1,190.2-16.492v35.1q0,4.534.42,9.488t.924,8.145H180.8q-.5-2.855-.756-6.214t-.252-6.549h-.336q-4.87,7.893-11.5,11.336t-16.206,3.443a35.638,35.638,0,0,1-10.076-1.427,25.715,25.715,0,0,1-8.649-4.366,22.193,22.193,0,0,1-6.046-7.221,21.052,21.052,0,0,1-2.267-9.992q0-9.572,4.954-15.03A30.3,30.3,0,0,1,142.09-7.928a61.23,61.23,0,0,1,15.954-3.359q8.481-.672,15.534-.672Zm94.044-11.923a23.689,23.689,0,0,0-7.977-7.389,22.527,22.527,0,0,0-11.671-3.023,29.085,29.085,0,0,0-12.343,2.183,27.016,27.016,0,0,0-9.32,6.549,28.275,28.275,0,0,0-5.878,9.992,37.83,37.83,0,0,0-2.015,12.511,37.83,37.83,0,0,0,2.015,12.511,28.275,28.275,0,0,0,5.878,9.992A27.016,27.016,0,0,0,241.172,26a29.085,29.085,0,0,0,12.343,2.183,22.527,22.527,0,0,0,11.671-3.023,23.689,23.689,0,0,0,7.977-7.389l9.069,6.885a37.324,37.324,0,0,1-13.267,10.16,39.811,39.811,0,0,1-15.45,3.443,43.892,43.892,0,0,1-17.3-2.939,38.3,38.3,0,0,1-13.183-8.649,36.973,36.973,0,0,1-8.313-13.183,46.891,46.891,0,0,1-2.855-16.542A46.891,46.891,0,0,1,214.722-19.6a36.973,36.973,0,0,1,8.313-13.183,38.3,38.3,0,0,1,13.183-8.649,43.892,43.892,0,0,1,17.3-2.939,39.811,39.811,0,0,1,15.45,3.443,37.324,37.324,0,0,1,13.267,10.16ZM307.926-6.92,345.04-42.355h16.626L322.537-6.416l43.327,42.656H348.735L307.926-5.073V36.239H296.843V-90.72h11.084ZM438.916-9.1q0-11.252-6.717-18.221T413.39-34.294a26.821,26.821,0,0,0-10.412,2.1,29.308,29.308,0,0,0-8.817,5.626,28.215,28.215,0,0,0-6.046,8.061,20.781,20.781,0,0,0-2.267,9.4Zm-53.4,9.069a33.721,33.721,0,0,0,2.855,11.084,29.285,29.285,0,0,0,6.214,8.985,29.232,29.232,0,0,0,8.9,5.962A27.156,27.156,0,0,0,414.4,28.178a28.012,28.012,0,0,0,15.366-4.114,30.749,30.749,0,0,0,9.824-9.488l8.565,7.053q-7.053,8.9-15.534,12.763A43.438,43.438,0,0,1,414.4,38.255a41.8,41.8,0,0,1-16.206-3.107A37.96,37.96,0,0,1,385.345,26.5a40.974,40.974,0,0,1-8.481-13.1,42.867,42.867,0,0,1-3.107-16.458,43.913,43.913,0,0,1,3.023-16.458,39.843,39.843,0,0,1,8.4-13.1,38.611,38.611,0,0,1,12.6-8.649A39.1,39.1,0,0,1,413.39-44.37a38.3,38.3,0,0,1,15.954,3.191A35.4,35.4,0,0,1,441.183-32.7a36.3,36.3,0,0,1,7.305,12.427,45.333,45.333,0,0,1,2.519,15.2V-.035Zm86.823-17.8q0-5.206-.252-10.58t-.42-13.939H482.58v14.61h.336a24.429,24.429,0,0,1,3.359-6.13,26.311,26.311,0,0,1,5.29-5.29,25.976,25.976,0,0,1,7.221-3.779,28.341,28.341,0,0,1,9.32-1.427,30.089,30.089,0,0,1,8.229,1.008l-2.183,10.916a18.647,18.647,0,0,0-6.382-.84,22.783,22.783,0,0,0-10.916,2.435,24.2,24.2,0,0,0-7.557,6.214,25.815,25.815,0,0,0-4.45,8.145,26.987,26.987,0,0,0-1.427,8.4V36.239H472.336Zm68.182,54.075H529.434V-90.72h11.084Zm94.044-39.3a35.25,35.25,0,0,0-2.1-12.259,29.472,29.472,0,0,0-5.962-9.908,28,28,0,0,0-9.32-6.633,29.987,29.987,0,0,0-12.343-2.435,29.987,29.987,0,0,0-12.343,2.435,27.1,27.1,0,0,0-9.237,6.633,30.219,30.219,0,0,0-5.878,9.908,35.25,35.25,0,0,0-2.1,12.259,35.25,35.25,0,0,0,2.1,12.259,30.219,30.219,0,0,0,5.878,9.908,27.1,27.1,0,0,0,9.237,6.633,29.987,29.987,0,0,0,12.343,2.435,29.988,29.988,0,0,0,12.343-2.435,28,28,0,0,0,9.32-6.633A29.472,29.472,0,0,0,632.462,9.2,35.25,35.25,0,0,0,634.561-3.058Zm12.091,0A42.867,42.867,0,0,1,643.546,13.4,39.592,39.592,0,0,1,634.9,26.5a39.386,39.386,0,0,1-13.183,8.649,44.412,44.412,0,0,1-16.878,3.107,43.953,43.953,0,0,1-16.71-3.107A39.386,39.386,0,0,1,574.944,26.5,39.591,39.591,0,0,1,566.3,13.4a42.866,42.866,0,0,1-3.107-16.458A42.866,42.866,0,0,1,566.3-19.515a39.591,39.591,0,0,1,8.649-13.1,39.386,39.386,0,0,1,13.183-8.649,43.953,43.953,0,0,1,16.71-3.107,44.412,44.412,0,0,1,16.878,3.107A39.386,39.386,0,0,1,634.9-32.614a39.592,39.592,0,0,1,8.649,13.1A42.867,42.867,0,0,1,646.653-3.058Zm28.213-1.008a30.12,30.12,0,0,0,2.267,11.672,30.7,30.7,0,0,0,6.214,9.572,30.125,30.125,0,0,0,9.237,6.549,27.176,27.176,0,0,0,11.5,2.435,30.686,30.686,0,0,0,11.5-2.183,30.5,30.5,0,0,0,9.656-6.13,26.737,26.737,0,0,0,6.466-9.488,30.546,30.546,0,0,0,2.1-12.427A33.428,33.428,0,0,0,731.8-15.737a27.988,27.988,0,0,0-5.878-9.572,28.373,28.373,0,0,0-9.4-6.549,30.578,30.578,0,0,0-12.427-2.435,27.176,27.176,0,0,0-11.5,2.435,30.125,30.125,0,0,0-9.237,6.549,30.7,30.7,0,0,0-6.214,9.572A30.12,30.12,0,0,0,674.866-4.065Zm-2.015,56.091a35.394,35.394,0,0,0,12.679,10.5,37.982,37.982,0,0,0,17.381,3.946,37.293,37.293,0,0,0,14.275-2.435,24.732,24.732,0,0,0,9.488-6.633,25.538,25.538,0,0,0,5.206-9.824,43.829,43.829,0,0,0,1.6-12.007V21.461h-.336a30.264,30.264,0,0,1-13.1,11.42,40.419,40.419,0,0,1-16.29,3.359,42.362,42.362,0,0,1-16.038-3.023A40.781,40.781,0,0,1,674.7,24.9a38.284,38.284,0,0,1-8.733-12.679,39.808,39.808,0,0,1-3.191-15.954A41.727,41.727,0,0,1,665.8-19.683a41.019,41.019,0,0,1,8.313-12.931,37.466,37.466,0,0,1,12.6-8.649,40.563,40.563,0,0,1,16.038-3.107,44.613,44.613,0,0,1,7.473.672,35.23,35.23,0,0,1,7.893,2.351,36.627,36.627,0,0,1,7.809,4.618,36.837,36.837,0,0,1,7.221,7.473h.336v-13.1h11.084V35.568a63.184,63.184,0,0,1-1.6,13.6,33.563,33.563,0,0,1-6.214,13.267A35.344,35.344,0,0,1,723.9,72.513q-8.229,4.03-21.5,4.03a53.981,53.981,0,0,1-20.992-3.863,48.771,48.771,0,0,1-16.794-11.923Z" transform="translate(803.497 730.493)"/>
    <path id="Symbol" class="cls-2" d="M124.552,249.1a125.475,125.475,0,0,1-25.1-2.53,123.871,123.871,0,0,1-44.537-18.741,124.915,124.915,0,0,1-45.126-54.8,123.924,123.924,0,0,1-7.257-23.38A125.458,125.458,0,0,1,5.9,86.556,124.882,124.882,0,0,1,79.769,8.293v204.37H91.86V128.415h64.824V244.921A124.938,124.938,0,0,1,124.552,249.1Zm44.223-8.079V117.332H91.86v-113a124.589,124.589,0,0,1,76.917,236.69Z" transform="translate(526 589)"/>
  </g>
</svg>
