<svg xmlns="http://www.w3.org/2000/svg" xmlns:xlink="http://www.w3.org/1999/xlink" viewBox="0 0 400 333.636"><defs><style>.a{fill:#6c63ff;}.b{fill:url(#a);}.c{fill:#fdb797;}.d{clip-path:url(#b);}.e,.f{opacity:0.1;}.g{fill:#333;}.h{fill:#3ad29f;}.i{fill:#f55f44;}.i,.j,.k,.l{opacity:0.5;}.j{fill:#4d8af0;}.k,.m{fill:#47e6b1;}</style><linearGradient id="a" x1="0.5" y1="1" x2="0.5" gradientUnits="objectBoundingBox"><stop offset="0" stop-color="gray" stop-opacity="0.251"/><stop offset="0.54" stop-color="gray" stop-opacity="0.122"/><stop offset="1" stop-color="gray" stop-opacity="0.102"/></linearGradient><clipPath id="b"><path class="a" d="M400.452,203.784s22.316,6.694,53.564-3.349,95.967,14.505,95.967,14.505,51.331,0,127.215-32.36c0,0-34.593,33.476-10.044,53.564s2.233,49.1-26.782,60.258-31.243,33.476-29.015,54.68,0,1.116,0,1.116S524.318,336.577,502,390.15L391.525,216.061S384.83,202.672,400.452,203.784Z" transform="translate(-390.099 -182.58)"/></clipPath></defs><path class="b" d="M614.921,183.614a28.792,28.792,0,0,1-3.283-3.133v.808c-8.018-8.182-7.736-18.093-4.453-27.135l1.086-.4c5.154-13.627,16.968-25.056,16.968-25.056l-1.765.741c.547-.565.861-.883.861-.883-73.254,31.248-124.223,33.07-129.907,33.176-3.5-1.324-32.373-11.835-60.3-15.754a125.571,125.571,0,0,0-25.348-1.421l-8.8-37.779-.168.1c-.41-3.239-1.933-10.291-7.5-14.664-7.436-5.807-1.9,20.913-1.9,20.913l.609-.287,3.116,33.644-1.518,1.271a115.644,115.644,0,0,1-27.06,4.664,19.041,19.041,0,0,0,4.113-5.485,3.658,3.658,0,0,0,3.314-.984,4.5,4.5,0,0,0,.728-1.019,9.709,9.709,0,0,0,.971-2.087c1.827-4.907,3.822-9.828,4.413-15.026s-.38-10.838-3.879-14.735-9.88-5.379-14.165-2.37a25.547,25.547,0,0,1-3.266,2.4c-3.711,1.8-7.828-1.116-11.284-3.367-4.016-2.617-9.32-4.492-13.481-2.118a8.252,8.252,0,0,0-3.089,3.168,10.079,10.079,0,0,0-1.531,6.068,14.132,14.132,0,0,0,4.563,8.985,7.789,7.789,0,0,0,2.988,1.951,5.542,5.542,0,0,0,.883.194,19.024,19.024,0,0,0-2.762,14.324l-1.54,9.32a5.314,5.314,0,0,0-2.559,3.407c-6.438.19-13.027,4.6-13.027,4.6l-25.3,25.3c-6.562,4.453-2.109,12.652-2.109,12.652l14.761,44.283.816-.609c3.027,5.516,11.915,20.741,13.623,13.15,2.087-9.2-4.413-17.546-4.413-17.546h-.079l-1.681-2.162L306.38,201.8l7.815-7.762,10.5-1.531.468,68.166c-19.214,50.612-16.871,73.806-16.871,73.806l16.871,63.263,2.154-.357.521,2.083.19-.066.936,4.669h-1.686L325.17,410.4s-10.776-.234-10.542,2.109,6.094,6.328,21.089,2.109l4.219-4.219s2.109-2.109-2.109-6.328h-.3l-1.169-8.19,1.469-.247-12.661-63.277c10.542-8.671,29.522-42.174,29.522-42.174s18.975,33.507,29.522,42.174l-12.652,63.259,1.469.247-1.152,8.19h-.3c-4.219,4.219-2.109,6.328-2.109,6.328l4.219,4.219c15,4.219,20.855.234,21.089-2.109s-10.542-2.109-10.542-2.109l-2.109-6.328h-1.686l1.214-6.072.216-.649,2.365.393L401.1,334.46s-.313-36.552-16.694-82.243l33.653,47.192,26.627,41.984a57.082,57.082,0,0,1,5.176-9.708l19.267-18c22.4-13.323,52.293-14.121,70.756-13.022l17.025,1.84,8.005-42.17c4.664-6.006,11.588-11.187,21.654-15.061,20.882-8.031,38.392-25.083,38.251-41.662.3.34.6.68.883,1.024C625.922,197.3,622.741,190.017,614.921,183.614Zm-231.13,62.553-.022-.777.971,1.527Z" transform="translate(-225.716 -82.832)"/><path class="c" d="M343.032,415.882h-.079l-3.747-4.832-6.063,6.063.671,1.006-.763.185s12.237,23.635,14.276,14.664S343.032,415.882,343.032,415.882Z" transform="translate(-250.855 -261.431)"/><path class="a" d="M400.452,203.784s22.316,6.694,53.564-3.349,95.967,14.505,95.967,14.505,51.331,0,127.215-32.36c0,0-34.593,33.476-10.044,53.564s2.233,49.1-26.782,60.258-31.243,33.476-29.015,54.68,0,1.116,0,1.116S524.318,336.577,502,390.15L391.525,216.061S384.83,202.672,400.452,203.784Z" transform="translate(-282.729 -133.782)"/><g class="d" transform="translate(107.37 48.798)"><path class="e" d="M141.46,84.18,419.318,283.926l16.738-49.1Z" transform="translate(-186.405 -95.83)"/><path class="e" d="M179.39,225.79,333.383,382.015l22.32-16.738Z" transform="translate(-207.597 -174.949)"/></g><g class="f" transform="translate(108.226 48.926)"><path d="M407.983,219.7s22.316,6.694,53.564-3.349,95.958,14.51,95.958,14.51,41.525,0,105.089-23.547c5.026-13.292,16.544-24.439,16.544-24.439-75.9,32.36-127.215,32.36-127.215,32.36s-64.724-24.549-95.967-14.505-53.564,3.349-53.564,3.349c-15.622-1.116-8.927,12.277-8.927,12.277l4.594,7.242C399.016,221.152,401.686,219.246,407.983,219.7Z" transform="translate(-392.039 -182.87)"/><path d="M1015.819,300.378a28.082,28.082,0,0,1-3.2-3.058c-.256,6.588,2.017,13.142,8.782,18.68a34.836,34.836,0,0,1,4.934,4.881C1026.547,313.723,1023.445,306.618,1015.819,300.378Z" transform="translate(-738.751 -246.814)"/></g><path class="c" d="M345.556,695.563,343.5,705.849h-8.23l2.061-14.4Z" transform="translate(-187.319 -386.32)"/><path class="e" d="M347.193,701.789l-.578,1.739-8.115-2.317.578-1.161Z" transform="translate(-189.123 -391.125)"/><path class="c" d="M237.41,695.563l2.056,10.286h8.226l-2.056-14.4Z" transform="translate(-132.643 -386.32)"/><path class="e" d="M237.34,701.789l.578,2.317,8.12-2.895V700.05Z" transform="translate(-132.604 -391.125)"/><path class="c" d="M530.588,117.23s-.229-10.309-7.471-15.984-1.823,20.383-1.823,20.383Z" transform="translate(-354.941 -87.888)"/><path class="g" d="M378.856,791.42H368.574l-2.056,6.178s-10.512-.229-10.282,2.056,5.94,6.178,20.564,2.056l4.113-4.113S382.969,795.533,378.856,791.42Z" transform="translate(-263.807 -473.947)"/><path class="g" d="M478.805,791.42h10.282l2.056,6.178s10.512-.229,10.282,2.056-5.94,6.178-20.564,2.056l-4.113-4.113S474.693,795.533,478.805,791.42Z" transform="translate(-330.854 -473.947)"/><path class="g" d="M416.171,474.51H358.6c-18.737,49.358-16.451,71.983-16.451,71.983l16.451,61.7,12.356-2.056L358.6,544.45c10.282-8.455,28.794-41.133,28.794-41.133s18.5,32.66,28.777,41.133l-12.356,61.7,12.356,2.056,16.451-61.7S434.921,523.868,416.171,474.51Z" transform="translate(-255.89 -296.886)"/><path class="e" d="M379.54,476.32s32.655,12.356,57.584,0Z" transform="translate(-276.83 -297.898)"/><path class="h" d="M331.951,270.237,315.5,286.688l6.178,32.907-8.226,6.178-14.395-43.189s-4.342-8,2.056-12.356L325.8,245.547s10.591-7.1,17.872-3.46-11.857,27.89-11.857,27.89" transform="translate(-231.059 -166.45)"/><path class="h" d="M374.87,210.481l2.056,74.04s32.655,12.356,57.584,0l-2.056-69.7-.525-2.3.379-1.134,24.712-20.494c6.774-3.729,3.195-12.1,3.195-12.1L449.889,134.46l-8.768,5.375,3.089,33.335-17.6,14.6-.441-.022v.11L381.057,185.8" transform="translate(-274.221 -106.897)"/><rect class="c" width="16.451" height="18.508" rx="8.226" transform="translate(123.389 68.735)"/><path class="e" d="M427.59,236.569a18.5,18.5,0,0,0,15.886-1.765,8.257,8.257,0,0,0-7.731-5.423h0a8.252,8.252,0,0,0-8.155,7.189Z" transform="translate(-303.676 -159.93)"/><circle class="c" cx="18.508" cy="18.508" r="18.508" transform="translate(111.051 39.946)"/><path class="e" d="M397.538,155.41a9.532,9.532,0,0,1-3.442-.194,7.6,7.6,0,0,1-2.913-1.906,13.811,13.811,0,0,1-4.453-8.764A9.187,9.187,0,0,1,390.954,136c4.06-2.312,9.236-.485,13.15,2.065,3.367,2.206,7.387,5.035,11.006,3.283a25.01,25.01,0,0,0,3.186-2.339c4.179-2.935,10.4-1.487,13.812,2.312s4.369,9.3,3.782,14.373-2.529,9.872-4.311,14.655a7.109,7.109,0,0,1-1.381,2.573c-2.171,2.229-6.235.5-7.665-2.264-2.484-4.806,0-13.137-5.869-15.939C411.99,152.493,402.555,155.083,397.538,155.41Z" transform="translate(-280.834 -107.164)"/><path class="g" d="M398.168,154.37a9.532,9.532,0,0,1-3.442-.194,7.6,7.6,0,0,1-2.912-1.906,13.811,13.811,0,0,1-4.453-8.764,9.187,9.187,0,0,1,4.223-8.548c4.06-2.312,9.236-.485,13.15,2.065,3.367,2.206,7.387,5.035,11.006,3.283a25.01,25.01,0,0,0,3.186-2.339c4.179-2.935,10.4-1.487,13.812,2.312s4.369,9.3,3.782,14.373-2.555,9.872-4.32,14.655a7.108,7.108,0,0,1-1.381,2.573c-2.171,2.229-6.235.5-7.665-2.264-2.484-4.806,0-13.137-5.869-15.939C412.634,151.453,403.181,154.048,398.168,154.37Z" transform="translate(-281.186 -106.583)"/><ellipse class="c" cx="2.056" cy="4.113" rx="2.056" ry="4.113" transform="translate(137.784 54.34)"/><path class="e" d="M228.14,234.71l5.22,2.445-5.22,6.381Z" transform="translate(-127.464 -131.135)"/><path class="e" d="M353.8,236.75l-3.477,3.866,2.317,3.477,1.355-3.866Z" transform="translate(-195.727 -132.275)"/><path class="a" d="M413.878,256.111v3.349S389.452,255,388.83,248.3l16.12,1.116Z" transform="translate(-282.02 -170.501)"/><path class="a" d="M445.59,256.111v3.349S470.015,255,470.638,248.3l-16.12,1.116Z" transform="translate(-313.733 -170.501)"/><path class="e" d="M637.09,276.36l80.346,18.971-29.015,12.277Z" transform="translate(-355.949 -154.405)"/><path class="a" d="M389,239.792s0-7.012,4.678-7.012,9.351,14.029,9.351,14.029Z" transform="translate(-282.115 -161.829)"/><circle class="i" cx="3.063" cy="3.063" r="3.063" transform="translate(2.039 126.527)"/><circle class="i" cx="3.063" cy="3.063" r="3.063" transform="translate(40.303 198.466)"/><circle class="i" cx="3.063" cy="3.063" r="3.063" transform="translate(366.319 5.609)"/><path class="j" d="M641.655,91.837a1.875,1.875,0,0,1-1.046-2.264.886.886,0,0,0,.04-.207h0a.94.94,0,0,0-1.69-.622h0a.882.882,0,0,0-.106.185,1.875,1.875,0,0,1-2.259,1.041.884.884,0,0,0-.207-.04h0a.94.94,0,0,0-.622,1.69h0a.884.884,0,0,0,.185.106,1.876,1.876,0,0,1,1.033,2.259.883.883,0,0,0-.04.207h0a.94.94,0,0,0,1.69.622h0a.882.882,0,0,0,.106-.185A1.875,1.875,0,0,1,641,93.585a.883.883,0,0,0,.207.04h0a.94.94,0,0,0,.627-1.686h0A.88.88,0,0,0,641.655,91.837Z" transform="translate(-419.774 -81.145)"/><path class="j" d="M982.71,513.827a1.875,1.875,0,0,1-1.046-2.264.883.883,0,0,0,.04-.207h0a.94.94,0,0,0-1.69-.622h0a.884.884,0,0,0-.106.185,1.875,1.875,0,0,1-2.264,1.046.883.883,0,0,0-.207-.04h0a.94.94,0,0,0-.622,1.69h0a.882.882,0,0,0,.185.106,1.876,1.876,0,0,1,1.046,2.264.879.879,0,0,0-.04.207h0a.94.94,0,0,0,1.69.622h0a.881.881,0,0,0,.106-.185,1.876,1.876,0,0,1,2.264-1.046.885.885,0,0,0,.207.04h0a.94.94,0,0,0,.622-1.69h0A.881.881,0,0,0,982.71,513.827Z" transform="translate(-610.323 -316.915)"/><circle class="k" cx="3.063" cy="3.063" r="3.063" transform="translate(256.116 281.115)"/><circle class="k" cx="3.063" cy="3.063" r="3.063" transform="translate(2.039 259.69)"/><circle class="k" cx="3.063" cy="3.063" r="3.063" transform="translate(246.933 37.752)"/><g class="l"><rect class="m" width="1.531" height="8.671" transform="translate(3.57)"/><rect class="m" width="1.531" height="8.671" transform="translate(8.671 3.57) rotate(90)"/></g><g class="l" transform="translate(28.062 83.161)"><rect class="m" width="1.531" height="8.671" transform="translate(3.57)"/><rect class="m" width="1.531" height="8.671" transform="translate(8.671 3.57) rotate(90)"/></g><g class="l" transform="translate(308.674 45.916)"><rect class="m" width="1.531" height="8.671" transform="translate(3.566)"/><rect class="m" width="1.531" height="8.671" transform="translate(8.671 3.57) rotate(90)"/></g></svg>