<svg xmlns="http://www.w3.org/2000/svg" xmlns:xlink="http://www.w3.org/1999/xlink" viewBox="0 0 400 333.636"><defs><style>.a{fill:#6c63ff}.c{fill:#fdb797}.e{opacity:0.1}.g{fill:#333}.h{fill:#3ad29f}.i{fill:#f55f44}.i,.j,.k,.l{opacity:0.5}.j{fill:#4d8af0}.k,.m{fill:#47e6b1}</style><linearGradient id="a" x1="0.5" y1="1" x2="0.5" gradientUnits="objectBoundingBox"><stop offset="0" stop-color="gray" stop-opacity="0.251"/><stop offset="0.54" stop-color="gray" stop-opacity="0.122"/><stop offset="1" stop-color="gray" stop-opacity="0.102"/></linearGradient><clipPath id="b"><path class="a" d="M400.5 203.8s22.3 6.7 53.5-3.4 96 14.5 96 14.5 51.3 0 127.2-32.3c0 0-34.6 33.5-10 53.5s2.2 49.1-26.8 60.3-31.3 33.5-29 54.7 0 1.1 0 1.1-87-15.6-109.4 38L391.5 216s-6.7-13.4 9-12.3z" transform="translate(-390.099 -182.58)"/></clipPath></defs><path d="M615 183.6a28.8 28.8 0 0 1-3.4-3.1v.8c-8-8.2-7.7-18.1-4.4-27.1l1-.4c5.2-13.7 17-25.1 17-25.1l-1.7.7.8-.8c-73.2 31.2-124.2 33-129.9 33.1a324 324 0 0 0-60.3-15.7 125.6 125.6 0 0 0-25.3-1.4l-8.8-37.8h-.2c-.4-3.2-2-10.2-7.5-14.6-7.4-5.8-1.9 21-1.9 21l.6-.4 3.1 33.7-1.5 1.3a115.6 115.6 0 0 1-27 4.6 19 19 0 0 0 4-5.5 3.7 3.7 0 0 0 3.4-1 4.5 4.5 0 0 0 .7-1 9.7 9.7 0 0 0 1-2c1.8-5 3.8-9.9 4.4-15s-.4-11-3.9-14.8-9.9-5.4-14.1-2.4a25.5 25.5 0 0 1-3.3 2.4c-3.7 1.8-7.8-1.1-11.3-3.4-4-2.6-9.3-4.4-13.5-2a8.3 8.3 0 0 0-3 3.1 10 10 0 0 0-1.6 6 14.1 14.1 0 0 0 4.6 9 7.8 7.8 0 0 0 3 2 5.5 5.5 0 0 0 .8.2 19 19 0 0 0-2.7 14.3l-1.6 9.3a5.3 5.3 0 0 0-2.5 3.4c-6.5.2-13 4.6-13 4.6L291.5 185c-6.5 4.5-2 12.7-2 12.7l14.7 44.3.8-.6c3 5.5 12 20.7 13.6 13.1 2.1-9.2-4.4-17.5-4.4-17.5l-1.7-2.2-6.2-32.9 7.8-7.8 10.5-1.5.5 68.2c-19.3 50.6-17 73.8-17 73.8l17 63.2 2.1-.3.5 2h.2l1 4.7h-1.7l-2.1 6.3s-10.8-.2-10.6 2.1 6.1 6.3 21.1 2.1l4.2-4.2s2.1-2.1-2-6.3h-.4l-1.1-8.2 1.4-.3-12.6-63.2c10.5-8.7 29.5-42.2 29.5-42.2s19 33.5 29.5 42.2l-12.6 63.2 1.4.3-1.1 8.2h-.3c-4.2 4.2-2.1 6.3-2.1 6.3l4.2 4.2c15 4.2 20.8.2 21-2.1s-10.5-2.1-10.5-2.1l-2-6.3h-1.8l1.3-6.1.2-.7 2.3.4 16.9-63.2s-.3-36.6-16.7-82.3l33.7 47.2 26.6 42a57 57 0 0 1 5.2-9.7l19.2-18c22.4-13.3 52.3-14.1 70.8-13l17 1.8 8-42.2c4.7-6 11.6-11.2 21.7-15 20.9-8 38.4-25.1 38.2-41.7l.9 1c.2-7.3-3-14.6-10.8-21zm-231.2 62.6v-.8l1 1.5z" transform="translate(-225.716 -82.832)" style="fill:url(#a)"/><path class="c" d="M92.2 154.5H92l-3.7-4.9-6.1 6 .7 1-.8.3s12.2 23.6 14.3 14.6-4.3-17-4.3-17z"/><path class="a" d="M117.7 70s22.3 6.7 53.6-3.3 96 14.5 96 14.5 51.3 0 127.2-32.4c0 0-34.6 33.5-10 53.6s2.2 49-26.9 60.2-31.2 33.5-29 54.7 0 1.1 0 1.1-87-15.6-109.3 38L108.8 82.3s-6.7-13.4 9-12.3z"/><g transform="translate(107.37 48.798)" style="clip-path:url(#b)"><path class="e" d="M-45-11.6L233 188l16.7-49.1z"/><path class="e" d="M-28.2 50.8l154 156.3 22.3-16.8z"/></g><g style="opacity:0.1"><path d="M124.2 85.8s22.3 6.6 53.5-3.4 96 14.5 96 14.5 41.5 0 105-23.5c5.1-13.3 16.6-24.5 16.6-24.5-75.9 32.4-127.2 32.4-127.2 32.4s-64.7-24.6-96-14.5-53.5 3.3-53.5 3.3c-15.6-1-9 12.3-9 12.3l4.6 7.3c1-2.5 3.7-4.4 10-4z"/><path d="M385.3 102.5a28 28 0 0 1-3.2-3 22 22 0 0 0 8.8 18.6 34.8 34.8 0 0 1 5 4.9c.1-7.2-3-14.3-10.6-20.5z"/></g><path class="c" d="M158.2 309.2l-2 10.3H148l2-14.4z"/><path class="e" d="M158 310.7l-.5 1.7-8.1-2.3.6-1.2z"/><path class="c" d="M104.8 309.2l2 10.3h8.2l-2-14.4z"/><path class="e" d="M104.7 310.7l.6 2.3 8.1-3v-1z"/><path class="c" d="M175.6 29.3s-.2-10.3-7.4-16-1.8 20.4-1.8 20.4z"/><path class="g" d="M115 317.5h-10.2l-2 6.2s-10.6-.3-10.4 2 6 6.2 20.6 2l4.1-4s2-2.1-2-6.2z"/><path class="g" d="M148 317.5h10.2l2 6.2s10.6-.3 10.4 2-6 6.2-20.6 2l-4.1-4s-2-2.1 2-6.2z"/><path class="g" d="M160.3 177.6h-57.6c-18.7 49.4-16.4 72-16.4 72l16.4 61.7 12.4-2-12.4-61.7c10.3-8.5 28.8-41.2 28.8-41.2s18.5 32.7 28.8 41.2l-12.4 61.7 12.4 2 16.4-61.7s2.3-22.6-16.4-72z"/><path class="e" d="M102.7 178.4s32.7 12.4 57.6 0z"/><path class="h" d="M100.9 103.8l-16.5 16.4 6.2 33-8.2 6.1L68 116.1s-4.3-8 2-12.3L94.8 79s10.6-7.1 18-3.5-12 28-12 28"/><path class="h" d="M100.6 103.6l2.1 74s32.7 12.4 57.6 0l-2-69.7-.6-2.3.4-1.1L182.8 84c6.8-3.7 3.2-12.1 3.2-12.1l-10.3-44.3-8.8 5.3 3 33.4-17.5 14.6h-.5l-45-2"/><rect class="c" width="16.451" height="18.508" rx="8.226" transform="translate(123.389 68.735)"/><path class="e" d="M124 76.6a18.5 18.5 0 0 0 15.8-1.7 8.3 8.3 0 0 0-7.7-5.4 8.3 8.3 0 0 0-8.2 7.1z"/><circle class="c" cx="18.508" cy="18.508" r="18.508" transform="translate(111.051 39.946)"/><path class="e" d="M116.7 48.2a9.5 9.5 0 0 1-3.4-.1 7.6 7.6 0 0 1-3-2 13.8 13.8 0 0 1-4.4-8.7 9.2 9.2 0 0 1 4.2-8.6c4-2.3 9.3-.4 13.2 2.1 3.3 2.2 7.4 5 11 3.3a25 25 0 0 0 3.2-2.4c4.1-2.9 10.4-1.4 13.8 2.4s4.3 9.3 3.8 14.3-2.6 9.9-4.4 14.7a7.1 7.1 0 0 1-1.3 2.6c-2.2 2.2-6.3.5-7.7-2.3-2.5-4.8 0-13.1-5.9-16-4.6-2.2-14 .4-19.1.7z"/><path class="g" d="M117 47.8a9.5 9.5 0 0 1-3.5-.2 7.6 7.6 0 0 1-2.9-2 13.8 13.8 0 0 1-4.4-8.7 9.2 9.2 0 0 1 4.2-8.5c4-2.3 9.2-.5 13.1 2 3.4 2.2 7.4 5 11 3.3a25 25 0 0 0 3.2-2.3c4.2-3 10.4-1.5 13.9 2.3s4.3 9.3 3.7 14.4-2.5 9.8-4.3 14.6a7.1 7.1 0 0 1-1.4 2.6c-2.1 2.2-6.2.5-7.6-2.3-2.5-4.8 0-13.1-5.9-16-4.7-2.1-14.1.5-19.1.8z"/><ellipse class="c" cx="2.056" cy="4.113" rx="2.056" ry="4.113" transform="translate(137.784 54.34)"/><path class="e" d="M100.7 103.6l5.2 2.4-5.2 6.4z"/><path class="e" d="M158 104.5l-3.4 3.8 2.3 3.5 1.4-3.8z"/><path class="a" d="M131.9 85.6V89s-24.5-4.5-25-11.2l16 1.1z"/><path class="a" d="M131.9 85.6V89s24.4-4.5 25-11.2l-16.1 1.1z"/><path class="e" d="M281.1 122l80.4 19-29 12.2z"/><path class="a" d="M106.9 78s0-7 4.7-7 9.3 14 9.3 14z"/><circle class="i" cx="3.063" cy="3.063" r="3.063" transform="translate(2.039 126.527)"/><circle class="i" cx="3.063" cy="3.063" r="3.063" transform="translate(40.303 198.466)"/><circle class="i" cx="3.063" cy="3.063" r="3.063" transform="translate(366.319 5.609)"/><path class="j" d="M221.9 10.7a1.9 1.9 0 0 1-1-2.3.9.9 0 0 0 0-.2 1 1 0 0 0-1.7-.6.9.9 0 0 0-.1.2 1.9 1.9 0 0 1-2.3 1 .9.9 0 0 0-.2 0 1 1 0 0 0-.6 1.7.9.9 0 0 0 .2 0 1.9 1.9 0 0 1 1 2.3.9.9 0 0 0 0 .2 1 1 0 0 0 1.7.7.9.9 0 0 0 0-.2 1.9 1.9 0 0 1 2.3-1 .9.9 0 0 0 .2 0 1 1 0 0 0 .7-1.7.9.9 0 0 0-.2-.1z"/><path class="j" d="M372.4 197a1.9 1.9 0 0 1-1-2.4.9.9 0 0 0 0-.2 1 1 0 0 0-1.7-.6.9.9 0 0 0-.1.2 1.9 1.9 0 0 1-2.3 1 .9.9 0 0 0-.2 0 1 1 0 0 0-.6 1.7.9.9 0 0 0 .2.1 1.9 1.9 0 0 1 1 2.3.9.9 0 0 0 0 .2 1 1 0 0 0 1.7.6.9.9 0 0 0 0-.2 1.9 1.9 0 0 1 2.3-1 .9.9 0 0 0 .3 0 1 1 0 0 0 .6-1.7.9.9 0 0 0-.2 0z"/><circle class="k" cx="3.063" cy="3.063" r="3.063" transform="translate(256.116 281.115)"/><circle class="k" cx="3.063" cy="3.063" r="3.063" transform="translate(2.039 259.69)"/><circle class="k" cx="3.063" cy="3.063" r="3.063" transform="translate(246.933 37.752)"/><g class="l"><rect class="m" width="1.531" height="8.671" transform="translate(3.57)"/><rect class="m" width="1.531" height="8.671" transform="translate(8.671 3.57) rotate(90)"/></g><g class="l" transform="translate(28.062 83.161)"><rect class="m" width="1.531" height="8.671" transform="translate(3.57)"/><rect class="m" width="1.531" height="8.671" transform="translate(8.671 3.57) rotate(90)"/></g><g class="l" transform="translate(308.674 45.916)"><rect class="m" width="1.531" height="8.671" transform="translate(3.566)"/><rect class="m" width="1.531" height="8.671" transform="translate(8.671 3.57) rotate(90)"/></g></svg>