<svg xmlns="http://www.w3.org/2000/svg" xmlns:xlink="http://www.w3.org/1999/xlink" viewBox="0 0 411 352.22"><defs><style>.a{fill:url(#a);}.b{fill:#f5f5f5;}.c{opacity:0.5;}.d{fill:url(#b);}.e,.g{fill:#454db2;}.e,.f,.k{opacity:0.6;}.h{fill:#bdbdbd;}.i{fill:#fff;}.j{fill:#e0e0e0;}.k{fill:#3ad29f;}.l{fill:#69f0ae;}</style><linearGradient id="a" x1="0.5" y1="1" x2="0.5" gradientUnits="objectBoundingBox"><stop offset="0" stop-color="gray" stop-opacity="0.251"/><stop offset="0.54" stop-color="gray" stop-opacity="0.122"/><stop offset="1" stop-color="gray" stop-opacity="0.102"/></linearGradient><linearGradient id="b" xlink:href="#a"/></defs><rect class="a" width="117.101" height="112.508" transform="translate(0 239.712)"/><rect class="b" width="113.427" height="107.457" transform="translate(1.837 242.467)"/><g class="c" transform="translate(34.473 255.794)"><path class="d" d="M261.681,629.031V623.52H241.613v5.511H227.57v27.094h48.154V629.031Zm-17.556-3.513h15.049v3.513H244.125Z" transform="translate(-227.57 -623.52)"/></g><rect class="e" width="44.085" height="24.798" transform="translate(36.508 262.213)"/><path class="e" d="M107.5,560v6.429h2.3v-4.592h13.777v4.592h2.3V560Z" transform="translate(-58.134 -302.838)"/><g class="f" transform="translate(39.034 306.298)"><rect class="g" width="40.87" height="5.511"/></g><rect class="h" width="69.801" height="5.511" transform="translate(23.65 316.401)"/><rect class="a" width="116.641" height="115.723" transform="translate(146.95 236.497)"/><rect class="b" width="113.427" height="107.457" transform="translate(148.787 242.467)"/><g class="c" transform="translate(181.423 255.794)"><path class="d" d="M581.681,629.031V623.52H561.613v5.511H547.57v27.094h48.154V629.031Zm-17.556-3.513h15.049v3.513H564.125Z" transform="translate(-547.57 -623.52)"/></g><rect class="e" width="44.085" height="24.798" transform="translate(183.458 262.213)"/><path class="g" d="M427.5,560v6.429h2.3v-4.592h13.777v4.592h2.3V560Z" transform="translate(-231.184 -302.838)"/><g class="f" transform="translate(185.983 306.298)"><rect class="g" width="40.87" height="5.511"/></g><rect class="h" width="69.801" height="5.511" transform="translate(170.599 316.401)"/><rect class="a" width="117.101" height="111.59" transform="translate(293.899 240.63)"/><rect class="b" width="113.427" height="107.457" transform="translate(295.736 242.467)"/><g class="c" transform="translate(328.373 255.794)"><path class="d" d="M901.681,629.031V623.52H881.613v5.511H867.57v27.094h48.154V629.031Zm-17.556-3.513h15.049v3.513H884.125Z" transform="translate(-867.57 -623.52)"/></g><rect class="e" width="44.085" height="24.798" transform="translate(330.407 262.213)"/><path class="e" d="M747.5,560v6.429h2.3v-4.592h13.776v4.592h2.3V560Z" transform="translate(-404.235 -302.838)"/><g class="f" transform="translate(332.933 306.298)"><rect class="g" width="40.87" height="5.511"/></g><rect class="h" width="69.801" height="5.511" transform="translate(317.549 316.401)"/><g class="c" transform="translate(96.344)"><rect class="a" width="232.553" height="273.235"/></g><rect class="i" width="220.457" height="262.787" transform="translate(103.489 4.399)"/><g class="c" transform="translate(184.895 39.585)"><path class="a" d="M595.941,159.3v-6.6h-24v6.6H555.13v32.43h57.646V159.3Zm-21.018-4.2h18.015v4.2H574.945Z" transform="translate(-555.13 -152.7)"/></g><rect class="g" width="52.778" height="29.688" transform="translate(187.329 47.281)"/><path class="g" d="M441.45,89.79v7.7H444.2v-5.5h16.491v5.5h2.751v-7.7Z" transform="translate(-238.728 -48.557)"/><rect class="j" width="155.037" height="6.599" transform="translate(136.475 119.695)"/><rect class="j" width="155.037" height="6.599" transform="translate(136.475 163.128)"/><rect class="j" width="155.037" height="6.599" transform="translate(136.475 174.673)"/><rect class="j" width="65.42" height="6.599" transform="translate(136.475 151.579)"/><rect class="k" width="48.93" height="6.599" transform="translate(242.582 151.579)"/><rect class="g" width="48.93" height="6.599" transform="translate(190.901 201.61)"/><g class="c" transform="translate(78.067 45.003)"><circle class="a" cx="22.042" cy="22.042" r="22.042"/></g><circle class="l" cx="20.747" cy="20.747" r="20.747" transform="translate(79.362 46.298)"/><path class="i" d="M195.242,128.489l7.779,7.132,11.021-16.21,3.89,3.242L203.021,142.1,192,129.784Z" transform="translate(-103.83 -64.575)"/></svg>