<svg xmlns="http://www.w3.org/2000/svg" xmlns:xlink="http://www.w3.org/1999/xlink" viewBox="0 0 411 352.22"><defs><style>.a{fill:url(#a)}.b{fill:#f5f5f5}.c{opacity:0.5}.d{fill:url(#b)}.e,.g{fill:#454db2}.e,.f{opacity:0.6}.h{fill:#bdbdbd}.i{fill:#fff}.j{fill:#e0e0e0}</style><linearGradient id="a" x1="0.5" y1="1" x2="0.5" gradientUnits="objectBoundingBox"><stop offset="0" stop-color="gray" stop-opacity="0.251"/><stop offset="0.54" stop-color="gray" stop-opacity="0.122"/><stop offset="1" stop-color="gray" stop-opacity="0.102"/></linearGradient><linearGradient id="b" xlink:href="#a"/></defs><rect class="a" width="117.101" height="112.508" transform="translate(0 239.712)"/><rect class="b" width="113.427" height="107.457" transform="translate(1.837 242.467)"/><g class="c"><path class="d" d="M68.6 261.3v-5.5h-20v5.5H34.4v27.1h48.1v-27.1zM51 257.8h15v3.5H51z"/></g><rect class="e" width="44.085" height="24.798" transform="translate(36.508 262.213)"/><path class="e" d="M49.4 257.2v6.4h2.3V259h13.7v4.6h2.3v-6.4z"/><g class="f" transform="translate(39.034 306.298)"><rect class="g" width="40.87" height="5.511"/></g><rect class="h" width="69.801" height="5.511" transform="translate(23.65 316.401)"/><rect class="a" width="116.641" height="115.723" transform="translate(146.95 236.497)"/><rect class="b" width="113.427" height="107.457" transform="translate(148.787 242.467)"/><g class="c"><path class="d" d="M215.5 261.3v-5.5h-20v5.5h-14v27.1h48v-27.1zm-17.5-3.5h15v3.5h-15z"/></g><rect class="e" width="44.085" height="24.798" transform="translate(183.458 262.213)"/><path class="g" d="M196.3 257.2v6.4h2.3V259h13.8v4.6h2.3v-6.4z"/><g class="f" transform="translate(185.983 306.298)"><rect class="g" width="40.87" height="5.511"/></g><rect class="h" width="69.801" height="5.511" transform="translate(170.599 316.401)"/><rect class="a" width="117.101" height="111.59" transform="translate(293.899 240.63)"/><rect class="b" width="113.427" height="107.457" transform="translate(295.736 242.467)"/><g class="c"><path class="d" d="M362.5 261.3v-5.5h-20v5.5h-14.1v27.1h48.1v-27.1zm-17.6-3.5h15v3.5h-15z"/></g><rect class="e" width="44.085" height="24.798" transform="translate(330.407 262.213)"/><path class="e" d="M343.3 257.2v6.4h2.3V259h13.7v4.6h2.3v-6.4z"/><g class="f" transform="translate(332.933 306.298)"><rect class="g" width="40.87" height="5.511"/></g><rect class="h" width="69.801" height="5.511" transform="translate(317.549 316.401)"/><g class="c" transform="translate(96.344)"><rect class="a" width="232.553" height="273.235"/></g><rect class="i" width="220.457" height="262.787" transform="translate(103.489 4.399)"/><g class="c"><path class="a" d="M225.7 46.2v-6.6h-24v6.6H185v32.4h57.6V46.2zm-21-4.2h18v4.2h-18z"/></g><rect class="g" width="52.778" height="29.688" transform="translate(187.329 47.281)"/><path class="g" d="M202.7 41.2V49h2.8v-5.5H222V49h2.7v-7.7z"/><rect class="j" width="155.037" height="6.599" transform="translate(136.475 119.695)"/><rect class="j" width="155.037" height="6.599" transform="translate(136.475 163.128)"/><rect class="j" width="155.037" height="6.599" transform="translate(136.475 174.673)"/><rect class="j" width="65.42" height="6.599" transform="translate(136.475 151.579)"/><rect width="48.93" height="6.599" transform="translate(242.582 151.579)" style="fill:#3ad29f;opacity:0.6"/><rect class="g" width="48.93" height="6.599" transform="translate(190.901 201.61)"/><g class="c" transform="translate(78.067 45.003)"><circle class="a" cx="22.042" cy="22.042" r="22.042"/></g><circle cx="20.747" cy="20.747" r="20.747" transform="translate(79.362 46.298)" style="fill:#69f0ae"/><path class="i" d="M91.4 64l7.8 7 11-16.2 3.9 3.3-15 19.4-11-12.3z"/></svg>