<svg xmlns="http://www.w3.org/2000/svg" xmlns:xlink="http://www.w3.org/1999/xlink" viewBox="0 0 120 88.585"><defs><style>.a,.d{fill:#6c63ff;}.a,.p{opacity:0.1;}.b{opacity:0.2;}.c,.j{fill:none;stroke:#535461;stroke-miterlimit:10;}.c{stroke-width:2px;}.e{fill:url(#a);}.f{fill:#f6f7f9;}.g{fill:url(#b);}.h{fill:#797c9c;}.i{opacity:0.05;}.k{opacity:0.25;}.l{fill:#e8eaf1;}.m{fill:#ffb9b9;}.n{fill:#e4e2f3;}.o{fill:#4c4c78;}.q{fill:#b36362;}.r{fill:url(#d);}.s{fill:#db8b8b;}.t{fill:#474463;}.u{fill:#cbcdda;}.v{fill:#472727;}</style><linearGradient id="a" x1="0.5" y1="1" x2="0.5" gradientUnits="objectBoundingBox"><stop offset="0" stop-color="gray" stop-opacity="0.251"/><stop offset="0.54" stop-color="gray" stop-opacity="0.122"/><stop offset="1" stop-color="gray" stop-opacity="0.102"/></linearGradient><linearGradient id="b" y2="0" xlink:href="#a"/><linearGradient id="d" x1="16.117" x2="16.117" y2="0" xlink:href="#a"/></defs><g transform="translate(-0.006 -0.011)"><path class="a" d="M103.576,136.221c-1.439.234-3.243.9-3.227,2.458a3.319,3.319,0,0,0,1.042,2.038,38.728,38.728,0,0,0,7.354,6.5,11.5,11.5,0,0,1,3.554,3.078,9.578,9.578,0,0,1,1.147,4.732,36.375,36.375,0,0,1-1.36,11.54c4.224.8,8.935,1.51,12.455-1.031,2.108-1.522,3.533-4.071,5.882-5.126a10.845,10.845,0,0,1,5.054-.553q12.14.639,24.22,2.4c3.373.492,6.81,1.048,10.147.412s6.62-2.709,7.85-6.069a2.886,2.886,0,0,1,.784-1.408,2.126,2.126,0,0,1,1.352-.255l28.186.969a10.171,10.171,0,0,0,4.556-.54,10.754,10.754,0,0,0,3.439-2.958c2.32-2.645,4.815-5.9,4.133-9.489-.546-2.878-2.984-4.888-5.4-6.3s-5.086-2.56-6.863-4.81c-2.7-3.426-2.6-8.328-2.765-12.773a70.952,70.952,0,0,0-1.481-11.97,28.839,28.839,0,0,0-3.661-9.858c-1.908-2.926-4.825-5.268-8.124-5.7-4.309-.561-8.641,2.127-12.857.986-3.561-.959-6.012-4.368-8.963-6.73-5.241-4.2-12.118-5.075-18.621-5.156-6.894-.088-13.971.61-20.116,3.848a10.78,10.78,0,0,0-3.759,2.947c-1.494,2.008-1.856,4.706-2.833,7.054-3.939,9.453-16.749,11.491-20.907,20.844a15.35,15.35,0,0,0-.386,10.671c1.157,3.749,4.414,5.82,5.7,9.088C107.723,135.955,105.26,135.946,103.576,136.221Z" transform="translate(-100.254 -80.59)"/><g class="b" transform="translate(103.363 17.788)"><path class="c" d="M985.15,291.121s.576-7.646,4.9-11.8a11.618,11.618,0,0,0,3.457-6.485,19.545,19.545,0,0,0,.24-3.565" transform="translate(-982.33 -264.426)"/><path class="d" d="M1056.355,231.077c-.319.839-2.77,2.711-2.77,2.711s-.6-3.023-.283-3.866a1.632,1.632,0,1,1,3.054,1.155Z" transform="translate(-1042.23 -228.866)"/><path class="d" d="M1057.878,272.576c-.725.535-3.8.77-3.8.77s1.138-2.864,1.863-3.4a1.632,1.632,0,1,1,1.935,2.628Z" transform="translate(-1042.995 -264.741)"/><path class="d" d="M1032.748,336.529c-.9.095-3.668-1.253-3.668-1.253s2.428-1.9,3.324-1.994a1.633,1.633,0,1,1,.344,3.247Z" transform="translate(-1020.992 -320.755)"/><path class="d" d="M1000.557,382.577c-.868.24-3.827-.615-3.827-.615s2.072-2.278,2.94-2.526a1.632,1.632,0,0,1,.887,3.141Z" transform="translate(-992.521 -361.328)"/><path class="d" d="M1025.694,274.819c.383.817,2.97,2.49,2.97,2.49s.368-3.06-.014-3.876a1.632,1.632,0,0,0-2.956,1.386Z" transform="translate(-1017.876 -267.263)"/><path class="d" d="M988.061,325.671c.609.664,3.579,1.488,3.579,1.488s-.565-3.03-1.174-3.694a1.632,1.632,0,1,0-2.406,2.206Z" transform="translate(-984.513 -311.657)"/><path class="d" d="M961.888,384.383c.488.758,3.277,2.071,3.277,2.071s-.044-3.081-.532-3.837a1.633,1.633,0,1,0-2.745,1.769Z" transform="translate(-961.628 -363.523)"/></g><path class="e" d="M164.14,87.83V143.1h88.822V87.83Z" transform="translate(-144.454 -77.289)"/><rect class="f" width="86.946" height="4.222" transform="translate(20.625 11.125)"/><g class="b" transform="translate(20.625 11.125)"><rect class="d" width="86.946" height="4.222"/></g><rect class="f" width="86.946" height="49.885" transform="translate(20.625 15.346)"/><circle class="f" cx="0.939" cy="0.939" r="0.939" transform="translate(21.771 12.271)"/><circle class="f" cx="0.939" cy="0.939" r="0.939" transform="translate(24.272 12.271)"/><circle class="f" cx="0.939" cy="0.939" r="0.939" transform="translate(26.775 12.271)"/><g class="b" transform="translate(23.648 21.55)"><rect class="d" width="44.724" height="3.231"/></g><g class="b" transform="translate(79.839 21.55)"><rect class="d" width="23.456" height="3.231"/></g><g class="b" transform="translate(32.352 37.292)"><rect class="d" width="3.127" height="10.321" transform="translate(0 14.804)"/><rect class="d" width="3.127" height="17.723" transform="translate(6.047 7.401)"/><rect class="d" width="3.127" height="25.124" transform="translate(12.093)"/><rect class="d" width="3.127" height="22.727" transform="translate(18.14 2.398)"/><rect class="d" width="3.127" height="15.637" transform="translate(24.186 9.487)"/></g><g class="b" transform="translate(79.788 31.871)"><rect class="d" width="23.456" height="28.825"/></g><path class="g" d="M976.04,420.578a12.683,12.683,0,0,1-.445-2.285c-.011-1.261.661-2.727-.222-3.658a4.15,4.15,0,0,1-.621-.619,1.362,1.362,0,0,1-.156-.7c-.014-1.471.8-2.965.311-4.36a1.482,1.482,0,0,0-.556-.776,1.614,1.614,0,0,0-.944-.211c-.311,0-.638.035-.959.041a2.073,2.073,0,0,1-.538-.071c-.372-.106-.687-.349-1.055-.469a1.725,1.725,0,0,0-.6-.083,3.224,3.224,0,0,0-2.115,1.029,7.9,7.9,0,0,1-.905.658c.048-.034-1.119.767-.68.776a1.528,1.528,0,0,1,.868.3,2.345,2.345,0,0,0,.12,2.719c-.191-.187-.4-.392-.617-.6a14.214,14.214,0,0,0-1.963-1.711,13.893,13.893,0,0,1-1.686-1.183s-1.289.719-.892,1.718a4.009,4.009,0,0,1,.553.217,1.035,1.035,0,0,0,.076.387,4.268,4.268,0,0,1,1.145.561,1.949,1.949,0,0,1,.11.171,8.921,8.921,0,0,0,1.357,1.452c.458.459,1.061,1.008,1.662,1.537a3.23,3.23,0,0,0-.405,1.079,1.345,1.345,0,0,1-.135-.062,8.249,8.249,0,0,0-2.974-.429,4.349,4.349,0,0,1-2.081-2.958,5.586,5.586,0,0,1-.248-1.574h-.006l.044-.01.416-.754a.333.333,0,0,0-.273-.489,1.8,1.8,0,0,0-2.125,1.679h.018l-.006.016c.248,1.193.446,1.1.4,2.051l.793,2.1s.049.719,1.487,1.67a31.072,31.072,0,0,1,3.073,2.434s-.867.453-.546,2.529a24.236,24.236,0,0,1-.2,6.156V431.2l.11-.03c-.014.078-.028.161-.042.251a13.167,13.167,0,0,0-.068,3.55A34.661,34.661,0,0,0,966,440.845a10.625,10.625,0,0,1,.546,2.147,1.979,1.979,0,0,0,.127.552,4.336,4.336,0,0,1,.348,1.656,11.658,11.658,0,0,0,.764,4.186,11.069,11.069,0,0,1,.745,2.46c-.36.465-.823.972-1.191,1.023-.694.1-2.032.191-1.14,1.336a.815.815,0,0,0,.1.109c-.677.108-1.422.345-.7,1.275.892,1.145,6.145.62,6.145.62s.034-.637,0-1.336c.368-.025.6-.048.6-.048s.149-2.767-.5-3.1a1.389,1.389,0,0,0-.348.084c-.07-.383-.12-.858-.156-1.21l.255-.019v-.019h.016v-4.17s-.3-2.577-1.387-3.717a2.315,2.315,0,0,1-.36-.48l-.014-.03c.007-.326.007-.766,0-1.271l.016-.028c.019-.031.038-.059.056-.084a1.044,1.044,0,0,1,.082-.1l.016-.02h0a32.2,32.2,0,0,0,2.627-5.249c1.239-2.765.911-4.316.468-5.116-.094-.36-.289-1.165-.534-2.546a9.979,9.979,0,0,1-.143-1.773,3.564,3.564,0,0,0,.94.106,3.191,3.191,0,0,0,1.439-.307,1.952,1.952,0,0,1-.5-1.569c.185-.619.916-.9,1.338-1.4A2.642,2.642,0,0,0,976.04,420.578Z" transform="translate(-856.392 -368.196)"/><path class="h" d="M985.929,428.25s-1.23.71-.851,1.7a3.379,3.379,0,0,1,1.8,1.325c.52.946,4.543,4.354,4.543,4.354l2.938-1.466s-1.02-1.362-4.248-2.314a22.711,22.711,0,0,0-2.566-2.418A14.354,14.354,0,0,1,985.929,428.25Z" transform="translate(-878.839 -386.555)"/><path class="i" d="M990.929,433.25s-1.23.71-.851,1.7a3.379,3.379,0,0,1,1.8,1.325c.52.946,4.543,4.354,4.543,4.354l2.938-1.466s-1.02-1.362-4.248-2.314a22.711,22.711,0,0,0-2.566-2.418A14.354,14.354,0,0,1,990.929,433.25Z" transform="translate(-883.24 -390.956)"/><path class="d" d="M101.478,720.049s-6.913,4.171,5.831,10.593c0,0,2.808-5.213-.3-9.464a4.186,4.186,0,0,0-5.43-1.189Z" transform="translate(-99.6 -642.844)"/><path class="j" d="M115.88,723.67s5.917,4.526,5.755,10.681" transform="translate(-113.922 -646.554)"/><path class="c" d="M160.373,641.049s-2.167-7.361.4-12.769a11.619,11.619,0,0,0,.94-7.289,19.545,19.545,0,0,0-1.032-3.421" transform="translate(-152.329 -553.176)"/><path class="d" d="M158.654,577.018c0,.9-1.632,3.516-1.632,3.516s-1.632-2.614-1.632-3.516a1.632,1.632,0,0,1,3.265,0Z" transform="translate(-148.695 -516.049)"/><path class="d" d="M181.03,612.195c-.49.757-3.28,2.064-3.28,2.064s.05-3.081.541-3.837a1.632,1.632,0,1,1,2.74,1.775Z" transform="translate(-168.374 -546.228)"/><path class="d" d="M175.694,679.115c-.8.406-3.874.12-3.874.12s1.6-2.638,2.4-3.041a1.632,1.632,0,0,1,1.47,2.915Z" transform="translate(-163.155 -604.617)"/><path class="d" d="M163.387,733.906c-.719.536-3.8.778-3.8.778s1.131-2.867,1.856-3.4a1.632,1.632,0,0,1,1.941,2.625Z" transform="translate(-152.392 -652.971)"/><path class="d" d="M145.514,628.766c.646.628,3.659,1.279,3.659,1.279s-.737-3-1.385-3.621a1.633,1.633,0,1,0-2.278,2.342Z" transform="translate(-139.565 -560.561)"/><path class="d" d="M128.321,689.595c.8.406,3.874.12,3.874.12s-1.6-2.638-2.4-3.041a1.632,1.632,0,0,0-1.47,2.915Z" transform="translate(-124.082 -613.84)"/><path class="d" d="M124.6,753.805c.719.536,3.8.778,3.8.778s-1.131-2.867-1.856-3.4a1.632,1.632,0,0,0-1.941,2.625Z" transform="translate(-121.017 -670.485)"/><path class="k" d="M158.654,577.018c0,.9-1.632,3.516-1.632,3.516s-1.632-2.614-1.632-3.516a1.632,1.632,0,0,1,3.265,0Z" transform="translate(-148.695 -516.049)"/><path class="k" d="M181.03,612.195c-.49.757-3.28,2.064-3.28,2.064s.05-3.081.541-3.837a1.632,1.632,0,1,1,2.74,1.775Z" transform="translate(-168.374 -546.228)"/><path class="k" d="M175.694,679.115c-.8.406-3.874.12-3.874.12s1.6-2.638,2.4-3.041a1.632,1.632,0,0,1,1.47,2.915Z" transform="translate(-163.155 -604.617)"/><path class="k" d="M163.387,733.906c-.719.536-3.8.778-3.8.778s1.131-2.867,1.856-3.4a1.632,1.632,0,0,1,1.941,2.625Z" transform="translate(-152.392 -652.971)"/><path class="k" d="M145.514,628.766c.646.628,3.659,1.279,3.659,1.279s-.737-3-1.385-3.621a1.633,1.633,0,1,0-2.278,2.342Z" transform="translate(-139.565 -560.561)"/><path class="k" d="M128.321,689.595c.8.406,3.874.12,3.874.12s-1.6-2.638-2.4-3.041a1.632,1.632,0,0,0-1.47,2.915Z" transform="translate(-124.082 -613.84)"/><path class="k" d="M124.6,753.805c.719.536,3.8.778,3.8.778s-1.131-2.867-1.856-3.4a1.632,1.632,0,0,0-1.941,2.625Z" transform="translate(-121.017 -670.485)"/><path class="c" d="M202.189,642.219s-2.167-7.356.406-12.769a11.618,11.618,0,0,0,.94-7.289,19.542,19.542,0,0,0-1.032-3.421" transform="translate(-189.133 -554.205)"/><path class="d" d="M200.464,578.218c0,.9-1.632,3.516-1.632,3.516s-1.632-2.614-1.632-3.516a1.632,1.632,0,0,1,3.265,0Z" transform="translate(-185.492 -517.105)"/><path class="d" d="M222.85,613.355c-.49.757-3.28,2.063-3.28,2.063s.05-3.081.541-3.837a1.632,1.632,0,1,1,2.74,1.775Z" transform="translate(-205.18 -547.249)"/><path class="d" d="M217.5,680.277c-.8.406-3.874.12-3.874.12s1.6-2.638,2.4-3.041a1.635,1.635,0,0,1,1.47,2.921Z" transform="translate(-199.952 -605.64)"/><path class="d" d="M205.2,735.075c-.719.536-3.8.778-3.8.778s1.131-2.867,1.856-3.4a1.632,1.632,0,0,1,1.941,2.625Z" transform="translate(-189.189 -654.001)"/><path class="d" d="M187.344,629.926c.646.628,3.659,1.279,3.659,1.279s-.737-3-1.385-3.621a1.633,1.633,0,1,0-2.278,2.342Z" transform="translate(-176.38 -561.582)"/><path class="d" d="M170.131,690.755c.8.406,3.874.12,3.874.12s-1.6-2.638-2.4-3.041a1.632,1.632,0,1,0-1.47,2.915Z" transform="translate(-160.879 -614.861)"/><path class="d" d="M166.413,754.975c.719.536,3.8.778,3.8.778s-1.131-2.867-1.856-3.4a1.632,1.632,0,0,0-1.941,2.625Z" transform="translate(-157.814 -671.515)"/><rect class="d" width="114.265" height="0.839" transform="translate(2.948 87.757)"/><rect class="e" width="24.216" height="29.759" transform="translate(83.724 40.876)"/><rect class="d" width="23.456" height="28.825" transform="translate(84.104 41.343)"/><rect class="l" width="4.796" height="4.796" transform="translate(85.679 43.873)"/><rect class="l" width="17.026" height="0.959" transform="translate(88.077 51.547)"/><rect class="l" width="17.026" height="0.959" transform="translate(88.077 53.585)"/><rect class="l" width="17.026" height="0.959" transform="translate(88.077 55.624)"/><rect class="l" width="17.026" height="0.959" transform="translate(88.077 57.662)"/><rect class="l" width="17.026" height="0.959" transform="translate(88.077 59.7)"/><rect class="l" width="17.026" height="0.959" transform="translate(88.077 61.738)"/><rect class="l" width="17.026" height="0.959" transform="translate(88.077 63.777)"/><path class="m" d="M1043.8,764.89a9.353,9.353,0,0,0,.379,2.319c.237.237-2.129.379-2.129.379l.331-2.7Z" transform="translate(-929.044 -682.832)"/><path class="i" d="M1043.8,764.89a9.353,9.353,0,0,0,.379,2.319c.237.237-2.129.379-2.129.379l.331-2.7Z" transform="translate(-929.044 -682.832)"/><path class="n" d="M1019.327,773.443a4.547,4.547,0,0,0-1.514.615,1.642,1.642,0,0,1-1.135-1.278s-.994,1.7-1.656,1.8-1.94.189-1.089,1.325,5.868.615,5.868.615S1019.941,773.774,1019.327,773.443Z" transform="translate(-904.049 -689.776)"/><path class="i" d="M1019.327,773.443a4.547,4.547,0,0,0-1.514.615,1.642,1.642,0,0,1-1.135-1.278s-.994,1.7-1.656,1.8-1.94.189-1.089,1.325,5.868.615,5.868.615S1019.941,773.774,1019.327,773.443Z" transform="translate(-904.049 -689.776)"/><path class="m" d="M1036.667,779.047l-.331.9-2.176-.615.12-.892.03-.216.083-.6s1.845-.474,1.845-.24a3.673,3.673,0,0,0,.12.577c.076.291.17.622.24.839C1036.638,778.952,1036.667,779.047,1036.667,779.047Z" transform="translate(-922.1 -693.771)"/><path class="o" d="M1026.575,606.766a1.294,1.294,0,0,0,0,1.319,2.3,2.3,0,0,0,.341.471c1.041,1.135,1.325,3.691,1.325,3.691v4.116l-.71.054-1.135.088-1.7-7s-.994-5.11-.52-6.009.9-6.53.9-6.53l.393-.406.932-.965h2.7a1.815,1.815,0,0,1,.525.586c.453.749.86,2.308-.383,5.186a32.665,32.665,0,0,1-2.508,5.2A1.086,1.086,0,0,0,1026.575,606.766Z" transform="translate(-913.196 -533.831)"/><path class="i" d="M1026.705,606.6a1.294,1.294,0,0,0,0,1.319,2.29,2.29,0,0,0,.34.471c1.041,1.135,1.325,3.691,1.325,3.691v4.116l-.71.054-1.135.088-1.7-7s-.994-5.11-.52-6.009.9-6.53.9-6.53l.393-.406.932-.965h2.7a1.814,1.814,0,0,1,.525.586c.453.749.86,2.308-.382,5.186a32.672,32.672,0,0,1-2.508,5.2A1.086,1.086,0,0,0,1026.705,606.6Z" transform="translate(-913.311 -533.682)"/><path class="p" d="M1037.489,777.967l-2.049.257.083-.6s1.845-.474,1.845-.24A3.678,3.678,0,0,0,1037.489,777.967Z" transform="translate(-923.227 -693.771)"/><path class="o" d="M1006.937,595.507s.12,3.725.137,6.066v1.319a2.917,2.917,0,0,1-.038.519,3.3,3.3,0,0,0,.142,1.372,13.658,13.658,0,0,1,.851,5.868v2.081l-2.271.284s.379-.284-.663-3.029a11.961,11.961,0,0,1-.73-4.151,4.442,4.442,0,0,0-.332-1.643,2.029,2.029,0,0,1-.12-.547,10.857,10.857,0,0,0-.52-2.129,35.277,35.277,0,0,1-1.42-5.82,13.55,13.55,0,0,1,.066-3.52,8.8,8.8,0,0,1,.17-.88s4.626-2.911,6.373-.9a2.278,2.278,0,0,1,.394.663,4.373,4.373,0,0,1,.223.737C1009.741,594.466,1006.937,595.507,1006.937,595.507Z" transform="translate(-893.697 -528.638)"/><circle class="m" cx="2.414" cy="2.414" r="2.414" transform="translate(110.686 41.317)"/><path class="m" d="M1030.655,447.042s.994,2.791,0,4.259,3.17.994,3.17.994l1.609-1.94s-1.893,0-1.988-3.313S1030.655,447.042,1030.655,447.042Z" transform="translate(-918.88 -401.799)"/><path class="p" d="M1011.336,591.523a6.211,6.211,0,0,1-1.054.264,2.15,2.15,0,0,1-1.691-.264,2.4,2.4,0,0,0-1.548-.17,26.533,26.533,0,0,0-3.923.814,8.8,8.8,0,0,1,.17-.88s4.626-2.911,6.373-.9h1.01a1.815,1.815,0,0,1,.525.586C1011.285,591.351,1011.336,591.523,1011.336,591.523Z" transform="translate(-894.782 -528.629)"/><path class="p" d="M1036.667,787.268l-.331.9-2.176-.615.12-.892a1.533,1.533,0,0,0,1.012.94,7.72,7.72,0,0,1,1.3-.571C1036.638,787.173,1036.667,787.268,1036.667,787.268Z" transform="translate(-922.1 -701.992)"/><path class="n" d="M1014.577,784.893a4.547,4.547,0,0,0-1.514.615,1.642,1.642,0,0,1-1.135-1.278s-.994,1.7-1.656,1.8-1.94.189-1.089,1.325,5.868.615,5.868.615S1015.192,785.224,1014.577,784.893Z" transform="translate(-899.868 -699.853)"/><path class="m" d="M962.62,436.782a1.751,1.751,0,0,1,2.029-1.663.331.331,0,0,1,.261.48l-.4.747Z" transform="translate(-859.138 -392.59)"/><path class="h" d="M973.861,447.606a10.729,10.729,0,0,1-2.934-.851.957.957,0,0,1-1.325.426,7.645,7.645,0,0,0-2.839-.426,4.292,4.292,0,0,1-1.988-2.934,5.819,5.819,0,0,1-.24-1.559,1.021,1.021,0,0,0-1.845.426c.24,1.183.426,1.089.379,2.038l.757,2.081s.047.71,1.42,1.656a30.355,30.355,0,0,1,2.934,2.414s-.828.45-.52,2.508a24.873,24.873,0,0,1-.189,6.1v2.319s4.732-1.372,5.536-.663,2.745,0,2.745,0a26.442,26.442,0,0,1-.568-2.745,12.03,12.03,0,0,1,.047-3.837s1.23-3.265,1.8-4.59-.426-3.117-1.42-3.785-1.363-.265-1.363-.265S975.991,447.18,973.861,447.606Z" transform="translate(-859.199 -398.482)"/><path class="i" d="M1005.15,543.946s.378-.091,2.27-.375a20.112,20.112,0,0,1,5.2.379" transform="translate(-896.568 -487.986)"/><path class="p" d="M1018.095,414.184a1.682,1.682,0,0,1,1.4,2.314c-.21.422-.616.794-.574,1.263a4.554,4.554,0,0,0,.182.615c.227.959-.921,1.857-.658,2.8a2.026,2.026,0,0,0,.41.687l1.993,2.511a1.887,1.887,0,0,1,.3.46,1.941,1.941,0,0,1,.086.737,5.727,5.727,0,0,0,.776,3.458,3.177,3.177,0,0,0,3.872.936,2,2,0,0,1-.479-1.559c.176-.613.874-.9,1.277-1.39a2.713,2.713,0,0,0,.36-2.207,13.326,13.326,0,0,1-.424-2.266c-.01-1.251.631-2.7-.212-3.627a4.041,4.041,0,0,1-.594-.614,1.4,1.4,0,0,1-.149-.693c-.013-1.458.76-2.941.3-4.324a1.469,1.469,0,0,0-.531-.77c-.657-.442-1.568-.013-2.328-.24-.36-.1-.656-.347-1.007-.465a2.574,2.574,0,0,0-2.478.939,7.554,7.554,0,0,1-.865.652C1018.789,413.381,1017.675,414.175,1018.095,414.184Z" transform="translate(-907.878 -372.016)"/><path class="q" d="M1019.095,414.184a1.682,1.682,0,0,1,1.4,2.314c-.21.422-.616.794-.574,1.263a4.572,4.572,0,0,0,.182.615c.227.959-.921,1.857-.658,2.8a2.025,2.025,0,0,0,.41.687l1.993,2.511a1.885,1.885,0,0,1,.3.46,1.941,1.941,0,0,1,.086.737,5.727,5.727,0,0,0,.776,3.458,3.177,3.177,0,0,0,3.872.936,2,2,0,0,1-.48-1.559c.176-.613.874-.9,1.277-1.39a2.713,2.713,0,0,0,.36-2.207,13.314,13.314,0,0,1-.424-2.266c-.01-1.251.631-2.7-.212-3.627a4.041,4.041,0,0,1-.594-.614,1.4,1.4,0,0,1-.149-.693c-.013-1.458.76-2.941.3-4.324a1.469,1.469,0,0,0-.531-.77c-.657-.442-1.568-.013-2.328-.24-.36-.1-.656-.347-1.007-.465a2.574,2.574,0,0,0-2.478.939,7.548,7.548,0,0,1-.864.652C1019.789,413.381,1018.675,414.175,1019.095,414.184Z" transform="translate(-908.758 -372.016)"/><path class="r" d="M631.307,447.064a4.159,4.159,0,0,1-.709-.869,3.156,3.156,0,0,0-1.585-1.179V444.8h.029l-.013-.2h.013l-.034-.52h0l-.169-2.6a4.016,4.016,0,0,1,.468-3.337,2.578,2.578,0,0,0-.947-3.723s-.48-2.526-.067-3.125a17.419,17.419,0,0,0-1.7-.867q-.013-.047-.025-.1c-.011-.24-.025-.471-.038-.706a2.579,2.579,0,0,1,.067-.36q.02-.074.043-.151a2.593,2.593,0,0,0,1.656-2.405,2.547,2.547,0,0,0-.161-.892,1.135,1.135,0,0,0,.12-.283,1.155,1.155,0,0,0-.161-.83,2.992,2.992,0,0,0-1.439-1.348,5.606,5.606,0,0,0-2.5-.132c-.411.049-.881.188-1.03.568a3.935,3.935,0,0,0-.094.438c-.154.58-.819.851-1.23,1.295a3.09,3.09,0,0,0-.64,1.439,13.285,13.285,0,0,0-.24,4.517c.042.348.1.693.156,1.038a2.949,2.949,0,0,0-.368,2.038l-.812,3.856-.338,2.26a1.976,1.976,0,0,0,.609,1.729,15.225,15.225,0,0,1,1.534,1.926,4.584,4.584,0,0,0-.247,1.532c.008.24.022.466.038.685a6.1,6.1,0,0,0,.259,1.355,9.659,9.659,0,0,0,.65,2.878l.135,4.055s-.2,3.723-.609,4.454.88,6.915.88,6.915v.864l-.217.633-.054-.041c-1.016,1.264,0,1.729,0,1.729s.276.013.719.03a.817.817,0,0,0,.433.9,56.717,56.717,0,0,0,6.77,0c1.014-.266.745-1.2.2-1.131a2.476,2.476,0,0,1-.811-.107.474.474,0,0,0-.339-.824,5.552,5.552,0,0,1-1.76-.416v.008a.913.913,0,0,0-.12-.036,13.582,13.582,0,0,1-1.339-.378,4.714,4.714,0,0,1-.432-3.237,5.813,5.813,0,0,0,.259-1.911,21.831,21.831,0,0,1,.891-6.065l.812-2.79a35.1,35.1,0,0,0,1.218-4.316l-.01-1.357a1.97,1.97,0,0,0,2.191.143.522.522,0,0,0,.084-.846Zm-9.035-7.053c.023-.1.042-.2.059-.315h.48a2.47,2.47,0,0,1,.24,1.308C622.684,440.884,622.135,440.6,622.272,440.011Z" transform="translate(-557.193 -382.074)"/><path class="s" d="M645.79,783l-.26.782.846.846,2.8.651,2.019-.2-.131-.719h0a.864.864,0,0,0-.641-.631c-.83-.2-2.412-.639-2.746-1.258Z" transform="translate(-580.067 -698.313)"/><path class="p" d="M645.79,783l-.26.782.846.846,2.8.651,2.019-.2-.131-.719h0a.864.864,0,0,0-.641-.631c-.83-.2-2.412-.639-2.746-1.258Z" transform="translate(-580.067 -698.313)"/><path class="t" d="M647.349,793.079l-.391-.522.391-.6a5.231,5.231,0,0,0,1.693.408c.52-.066.782.847-.2,1.108a53.488,53.488,0,0,1-6.514,0s-.977-.456,0-1.693l.846.651a4.913,4.913,0,0,0,2.15.651Z" transform="translate(-576.87 -706.498)"/><path class="s" d="M660.424,792.733l-2.019.2-2.8-.656-.846-.839.07-.207.1-.29.095-.284,1.888-.522a1.171,1.171,0,0,0,.383.384,8.187,8.187,0,0,0,2.362.874.683.683,0,0,1,.08.024.861.861,0,0,1,.561.607Z" transform="translate(-588.19 -705.046)"/><path class="p" d="M660.424,800.777l-2.019.2-2.8-.656-.846-.839.07-.207.778.6a4.913,4.913,0,0,0,2.15.651h2.019l-.391-.522.351-.542a.861.861,0,0,1,.561.607Z" transform="translate(-588.19 -713.09)"/><path class="t" d="M656.579,800.679l-.391-.522.391-.6a5.231,5.231,0,0,0,1.693.408c.52-.066.782.846-.2,1.108a53.488,53.488,0,0,1-6.514,0s-.977-.456,0-1.693l.846.651a4.913,4.913,0,0,0,2.15.651Z" transform="translate(-584.994 -713.187)"/><path class="s" d="M660.047,469.782s-3.127.326-2.67-.977a2.345,2.345,0,0,0,.1-1.15,3.188,3.188,0,0,0-.553-1.325l2.932.456a3.669,3.669,0,0,0-.4.941A1.918,1.918,0,0,0,660.047,469.782Z" transform="translate(-590.091 -420.07)"/><path class="t" d="M638.46,619a13.584,13.584,0,0,0,.719,4.169l.131,3.974a21.825,21.825,0,0,1-.586,4.364c-.391.717.846,6.774.846,6.774v1.042s2.081.779,2.671-.132l-.586-7.752.26-10.748Z" transform="translate(-573.845 -554.434)"/><path class="p" d="M638.46,619a13.584,13.584,0,0,0,.719,4.169l.131,3.974a21.825,21.825,0,0,1-.586,4.364c-.391.717.846,6.774.846,6.774v1.042s2.081.779,2.671-.132l-.586-7.752.26-10.748Z" transform="translate(-573.845 -554.434)"/><path class="u" d="M622.193,544l-.391,1.042-.326,2.215a1.959,1.959,0,0,0,.586,1.693,18.626,18.626,0,0,1,1.824,2.41l1.237-3.717s-1.237-.2-1.042-1.042a12.118,12.118,0,0,0,.131-2.41Z" transform="translate(-558.88 -488.427)"/><path class="i" d="M622.193,543l-.391,1.042-.326,2.215a1.959,1.959,0,0,0,.586,1.693,18.626,18.626,0,0,1,1.824,2.41l1.237-3.717s-1.237-.2-1.042-1.042a12.118,12.118,0,0,0,.131-2.41Z" transform="translate(-558.88 -487.547)"/><path class="p" d="M658.507,790.485a1.62,1.62,0,0,1-2.367.421l.095-.284,1.888-.522A1.169,1.169,0,0,0,658.507,790.485Z" transform="translate(-589.405 -705.019)"/><path class="t" d="M644.12,587.1a34.716,34.716,0,0,1-1.173,4.234l-.781,2.734a21.75,21.75,0,0,0-.859,5.947,5.784,5.784,0,0,1-.249,1.872c-.522,1.439.522,3.387.522,3.387a1.645,1.645,0,0,1-2.475.522v-1.042s-1.237-5.667-.912-6.774a27.151,27.151,0,0,0,.456-4.1v-5.406a6.135,6.135,0,0,1-1.788-3.89c-.016-.213-.028-.438-.036-.67a7.732,7.732,0,0,1,1.344-3.807c.095-.149.154-.231.154-.231l5.755,2.278h.013v.716Z" transform="translate(-572.404 -519.996)"/><path class="p" d="M659.862,466.786a3.671,3.671,0,0,0-.4.941,2.549,2.549,0,0,1-1.982-.072,3.189,3.189,0,0,0-.553-1.325Z" transform="translate(-590.1 -420.07)"/><circle class="s" cx="2.541" cy="2.541" r="2.541" transform="translate(65.917 42.612)"/><path class="p" d="M652.258,582.866h-.028c-2.731.561-6.161-2.285-6.161-2.285a3.374,3.374,0,0,0,.24-.48c.095-.149.154-.231.154-.231l5.755,2.278.014.228Z" transform="translate(-580.542 -519.996)"/><path class="u" d="M632.416,483.389s-3.647-2.215-4.82-1.3l-1.628,2.084s-1.042.326-.846,2.41l-.782,3.778,2.345.586a2.565,2.565,0,0,1,.26,3.192s3.452,2.866,6.188,2.278l-.2-3.059a3.966,3.966,0,0,1,.456-3.257,2.545,2.545,0,0,0-.912-3.647C632.482,486.451,632.026,483.975,632.416,483.389Z" transform="translate(-561.418 -433.742)"/><path class="s" d="M688.421,605.4a3.359,3.359,0,0,1,2.019,1.3,4.057,4.057,0,0,0,.682.851.517.517,0,0,1-.08.824,1.975,1.975,0,0,1-2.424-.373C686.793,606.508,688.421,605.4,688.421,605.4Z" transform="translate(-617.227 -542.465)"/><path class="p" d="M657.829,504.54s-1.3-.131-1.628,3.257-.846,4.169-.846,4.169a4.164,4.164,0,0,0,.456,2.8c.782,1.042,2.278,3.257,2.278,3.257a1.509,1.509,0,0,0,1.954-1.173l-2.019-3.778a2.71,2.71,0,0,1,.456-2.215C659.261,509.947,659.849,503.888,657.829,504.54Z" transform="translate(-588.654 -453.655)"/><path class="u" d="M658.919,502.911s-1.3-.131-1.628,3.257-.846,4.169-.846,4.169a4.165,4.165,0,0,0,.456,2.8c.782,1.042,2.278,3.256,2.278,3.256a1.509,1.509,0,0,0,1.954-1.173l-2.019-3.778a2.7,2.7,0,0,1,.456-2.21C660.35,508.325,660.939,502.258,658.919,502.911Z" transform="translate(-589.614 -452.221)"/><path class="p" d="M679.968,523.64a7.387,7.387,0,0,1-.456,3.127,3.343,3.343,0,0,0,0,3.322" transform="translate(-609.588 -470.508)"/><path class="p" d="M658.659,494.868a3.141,3.141,0,0,0-2.019-.586,4.314,4.314,0,0,1-2.15-.522" transform="translate(-587.953 -444.211)"/><path class="p" d="M629.085,429.164c-.4.049-.848.185-.99.556a3.939,3.939,0,0,0-.09.429c-.147.57-.788.839-1.183,1.269a3.03,3.03,0,0,0-.616,1.41,13.245,13.245,0,0,0-.229,4.426c.127,1.079.387,2.144.459,3.229a5.113,5.113,0,0,1-.653,3.138,7.808,7.808,0,0,0-.772,1.168,2.23,2.23,0,0,0,1.37.36q.839.029,1.679,0a1.792,1.792,0,0,0,.855-.177,1.319,1.319,0,0,0,.448-.48,3.441,3.441,0,0,0,.387-1.828c-.014-.629-.114-1.258-.12-1.89a1.653,1.653,0,0,1,.218-.99,3.164,3.164,0,0,1,.546-.5,3.45,3.45,0,0,0,.959-2.541c.023-.932-.131-1.864-.052-2.792.031-.36.167-.8.524-.87a2.018,2.018,0,0,0,.341-.043c.287-.11.259-.514.341-.811.092-.332.375-.589.456-.924.187-.788-.815-1.729-1.472-2A5.316,5.316,0,0,0,629.085,429.164Z" transform="translate(-562.007 -387.294)"/><path class="v" d="M628.585,428.07c-.4.049-.848.185-.99.556a3.941,3.941,0,0,0-.09.429c-.147.57-.788.839-1.183,1.269a3.031,3.031,0,0,0-.616,1.41,13.248,13.248,0,0,0-.229,4.426c.127,1.079.387,2.144.459,3.229a5.113,5.113,0,0,1-.653,3.138,7.81,7.81,0,0,0-.772,1.168,2.229,2.229,0,0,0,1.37.36q.839.029,1.679,0a1.792,1.792,0,0,0,.855-.177,1.319,1.319,0,0,0,.448-.48,3.442,3.442,0,0,0,.387-1.828c-.014-.629-.114-1.258-.12-1.89a1.653,1.653,0,0,1,.218-.99,3.165,3.165,0,0,1,.546-.5,3.449,3.449,0,0,0,.959-2.541c.023-.932-.131-1.864-.052-2.793.031-.36.167-.8.524-.87a2.013,2.013,0,0,0,.341-.043c.287-.11.259-.514.341-.811.092-.332.375-.589.456-.924.187-.788-.815-1.729-1.472-2A5.306,5.306,0,0,0,628.585,428.07Z" transform="translate(-561.567 -386.331)"/></g></svg>