<svg xmlns="http://www.w3.org/2000/svg" xmlns:xlink="http://www.w3.org/1999/xlink" viewBox="0 0 120 88.585"><defs><style>.d{fill:#6c63ff}.p{opacity:0.1}.b{opacity:0.2}.c{fill:none;stroke:#535461;stroke-miterlimit:10}.c{stroke-width:2px}.e{fill:url(#a)}.f{fill:#f6f7f9}.h{fill:#797c9c}.i{opacity:0.05}.k{opacity:0.25}.l{fill:#e8eaf1}.m{fill:#ffb9b9}.n{fill:#e4e2f3}.o{fill:#4c4c78}.s{fill:#db8b8b}.t{fill:#474463}.u{fill:#cbcdda}</style><linearGradient id="a" x1="0.5" y1="1" x2="0.5" gradientUnits="objectBoundingBox"><stop offset="0" stop-color="gray" stop-opacity="0.251"/><stop offset="0.54" stop-color="gray" stop-opacity="0.122"/><stop offset="1" stop-color="gray" stop-opacity="0.102"/></linearGradient><linearGradient id="b" y2="0" xlink:href="#a"/><linearGradient id="d" x1="16.117" x2="16.117" y2="0" xlink:href="#a"/></defs><g transform="translate(-0.006 -0.011)"><path d="M3.3 55.6C2 56 .1 56.6.1 58.1a3.3 3.3 0 0 0 1 2 38.7 38.7 0 0 0 7.4 6.5 11.5 11.5 0 0 1 3.5 3.1 9.6 9.6 0 0 1 1.2 4.7A36.4 36.4 0 0 1 11.8 86c4.3.8 9 1.5 12.5-1 2-1.6 3.5-4.1 5.9-5.2a10.8 10.8 0 0 1 5-.5q12.2.6 24.2 2.4c3.4.5 6.9 1 10.2.4s6.6-2.7 7.8-6a2.9 2.9 0 0 1 .8-1.5 2.1 2.1 0 0 1 1.4-.3l28.2 1a10.2 10.2 0 0 0 4.5-.5 10.8 10.8 0 0 0 3.5-3c2.3-2.6 4.8-5.9 4-9.5-.5-2.8-2.9-4.9-5.3-6.3s-5.1-2.5-6.9-4.8C105 47.8 105 43 105 38.4a71 71 0 0 0-1.5-12 28.8 28.8 0 0 0-3.7-9.8 12 12 0 0 0-8.1-5.7c-4.3-.5-8.6 2.1-12.9 1-3.5-1-6-4.4-9-6.7C64.6 1 57.8 0 51.3 0 44.2 0 37.2.6 31 4a10.8 10.8 0 0 0-3.7 3c-1.5 2-1.9 4.6-2.9 7-3.9 9.4-16.7 11.5-20.9 20.8a15.3 15.3 0 0 0-.3 10.7c1.1 3.7 4.4 5.8 5.7 9-1.4 1-3.9 1-5.6 1.2z" style="opacity:0.1;fill:#6c63ff"/><g class="b"><path class="c" d="M106.2 44.5s.6-7.7 4.9-11.8a11.6 11.6 0 0 0 3.4-6.5 19.5 19.5 0 0 0 .3-3.6"/><path class="d" d="M117.5 20c-.3.8-2.8 2.7-2.8 2.7s-.6-3-.3-3.9a1.6 1.6 0 1 1 3 1.2z"/><path class="d" d="M118.2 25.6c-.7.6-3.8.8-3.8.8s1.2-2.9 2-3.4a1.6 1.6 0 1 1 1.8 2.6z"/><path class="d" d="M115.1 33.6c-.9 0-3.6-1.3-3.6-1.3s2.4-1.9 3.3-2a1.6 1.6 0 1 1 .3 3.3z"/><path class="d" d="M111.4 39c-.9.3-3.8-.6-3.8-.6s2-2.3 3-2.5a1.6 1.6 0 0 1 .8 3.1z"/><path class="d" d="M111.2 25.3c.4.9 3 2.5 3 2.5s.3-3 0-3.8a1.6 1.6 0 0 0-3 1.3z"/><path class="d" d="M107 31.8c.5.7 3.5 1.5 3.5 1.5s-.6-3-1.2-3.7a1.6 1.6 0 1 0-2.4 2.2z"/><path class="d" d="M103.6 38.6c.5.8 3.3 2.1 3.3 2.1s0-3-.5-3.8a1.6 1.6 0 1 0-2.8 1.8z"/></g><path class="e" d="M19.7 10.5v55.3h88.8V10.5z"/><rect class="f" width="86.946" height="4.222" transform="translate(20.625 11.125)"/><g class="b" transform="translate(20.625 11.125)"><rect class="d" width="86.946" height="4.222"/></g><rect class="f" width="86.946" height="49.885" transform="translate(20.625 15.346)"/><circle class="f" cx="0.939" cy="0.939" r="0.939" transform="translate(21.771 12.271)"/><circle class="f" cx="0.939" cy="0.939" r="0.939" transform="translate(24.272 12.271)"/><circle class="f" cx="0.939" cy="0.939" r="0.939" transform="translate(26.775 12.271)"/><g class="b" transform="translate(23.648 21.55)"><rect class="d" width="44.724" height="3.231"/></g><g class="b" transform="translate(79.839 21.55)"><rect class="d" width="23.456" height="3.231"/></g><g class="b" transform="translate(32.352 37.292)"><rect class="d" width="3.127" height="10.321" transform="translate(0 14.804)"/><rect class="d" width="3.127" height="17.723" transform="translate(6.047 7.401)"/><rect class="d" width="3.127" height="25.124" transform="translate(12.093)"/><rect class="d" width="3.127" height="22.727" transform="translate(18.14 2.398)"/><rect class="d" width="3.127" height="15.637" transform="translate(24.186 9.487)"/></g><g class="b" transform="translate(79.788 31.871)"><rect class="d" width="23.456" height="28.825"/></g><path d="M976 420.6a12.7 12.7 0 0 1-.4-2.3c0-1.3.7-2.7-.2-3.7a4.2 4.2 0 0 1-.6-.6 1.4 1.4 0 0 1-.2-.7c0-1.5.8-3 .3-4.3a1.5 1.5 0 0 0-.5-.8 1.6 1.6 0 0 0-1-.2h-1a2 2 0 0 1-.5 0l-1-.5a1.7 1.7 0 0 0-.6-.1 3.2 3.2 0 0 0-2.2 1 7.9 7.9 0 0 1-.9.7s-1 .7-.6.7a1.5 1.5 0 0 1 .8.3 2.3 2.3 0 0 0 .1 2.8l-.6-.6a14.2 14.2 0 0 0-2-1.7 13.9 13.9 0 0 1-1.6-1.2s-1.3.7-1 1.7a4 4 0 0 1 .6.2 1 1 0 0 0 .1.4 4.3 4.3 0 0 1 1.2.6 2 2 0 0 1 0 .1 9 9 0 0 0 1.4 1.5l1.7 1.5a3.2 3.2 0 0 0-.4 1.1 1.3 1.3 0 0 1-.2 0 8.2 8.2 0 0 0-3-.5 4.3 4.3 0 0 1-2-3 5.6 5.6 0 0 1-.3-1.5l.5-.8a.3.3 0 0 0-.3-.5 1.8 1.8 0 0 0-2.1 1.7c.3 1.2.5 1.1.4 2l.8 2.2s0 .7 1.5 1.6a31 31 0 0 1 3 2.5s-.8.4-.5 2.5a24.2 24.2 0 0 1-.2 6.2v2.3h.1v.2a13.2 13.2 0 0 0 0 3.6 34.7 34.7 0 0 0 1.4 5.8 10.6 10.6 0 0 1 .5 2.2 2 2 0 0 0 .2.5 4.3 4.3 0 0 1 .3 1.7 11.7 11.7 0 0 0 .8 4.2 11 11 0 0 1 .7 2.4c-.3.5-.8 1-1.2 1-.7.2-2 .3-1.1 1.4a.8.8 0 0 0 .1.1c-.7.1-1.4.4-.7 1.3.9 1.1 6.1.6 6.1.6V455h.6s.2-2.8-.5-3.2a1.4 1.4 0 0 0-.3.1l-.2-1.2h.3v-4.2s-.3-2.6-1.4-3.7a2.3 2.3 0 0 1-.3-.5v-1.3-.1a1 1 0 0 1 .1-.1 32.2 32.2 0 0 0 2.6-5.3c1.3-2.8 1-4.3.5-5.1l-.5-2.6a10 10 0 0 1-.2-1.7 3.6 3.6 0 0 0 1 0 3.2 3.2 0 0 0 1.4-.2 2 2 0 0 1-.5-1.6c.2-.6 1-.9 1.4-1.4a2.6 2.6 0 0 0 .3-2.2z" transform="translate(-856.392 -368.196)" style="fill:url(#b)"/><path class="h" d="M107 41.7s-1.1.7-.8 1.7a3.4 3.4 0 0 1 1.8 1.3c.6 1 4.6 4.4 4.6 4.4l3-1.5s-1.1-1.4-4.3-2.3a22.7 22.7 0 0 0-2.6-2.4 14.4 14.4 0 0 1-1.6-1.2z"/><path class="i" d="M107.7 42.3s-1.2.7-.9 1.7a3.4 3.4 0 0 1 1.8 1.3c.6 1 4.6 4.4 4.6 4.4l3-1.5s-1.1-1.4-4.3-2.3a22.7 22.7 0 0 0-2.6-2.4 14.4 14.4 0 0 1-1.6-1.2z"/><path class="d" d="M1.9 77.2s-7 4.2 5.8 10.6c0 0 2.8-5.2-.3-9.5A4.2 4.2 0 0 0 2 77.1z"/><path d="M2 77.1s5.9 4.5 5.7 10.7" style="fill:none;stroke:#535461;stroke-miterlimit:10"/><path class="c" d="M8 87.9S6 80.5 8.4 75a11.6 11.6 0 0 0 1-7.3 19.5 19.5 0 0 0-1-3.4"/><path class="d" d="M10 61c0 .9-1.7 3.5-1.7 3.5S6.7 61.9 6.7 61a1.6 1.6 0 0 1 3.3 0z"/><path class="d" d="M12.7 66c-.5.7-3.3 2-3.3 2s0-3 .5-3.8a1.6 1.6 0 1 1 2.8 1.8z"/><path class="d" d="M12.5 74.5c-.8.4-3.8.1-3.8.1s1.6-2.6 2.4-3a1.6 1.6 0 0 1 1.4 2.9z"/><path class="d" d="M11 81c-.7.5-3.8.7-3.8.7s1.1-2.9 1.9-3.4A1.6 1.6 0 0 1 11 81z"/><path class="d" d="M6 68.2c.6.6 3.6 1.3 3.6 1.3s-.7-3-1.4-3.6A1.6 1.6 0 1 0 6 68.2z"/><path class="d" d="M4.2 75.8c.8.4 4 0 4 0s-1.7-2.6-2.5-3a1.6 1.6 0 0 0-1.5 3z"/><path class="d" d="M3.6 83.3c.7.6 3.8.8 3.8.8s-1.1-2.9-1.9-3.4a1.6 1.6 0 0 0-2 2.6z"/><path class="k" d="M10 61c0 .9-1.7 3.5-1.7 3.5S6.7 61.9 6.7 61a1.6 1.6 0 0 1 3.3 0z"/><path class="k" d="M12.7 66c-.5.7-3.3 2-3.3 2s0-3 .5-3.8a1.6 1.6 0 1 1 2.8 1.8z"/><path class="k" d="M12.5 74.5c-.8.4-3.8.1-3.8.1s1.6-2.6 2.4-3a1.6 1.6 0 0 1 1.4 2.9z"/><path class="k" d="M11 81c-.7.5-3.8.7-3.8.7s1.1-2.9 1.9-3.4A1.6 1.6 0 0 1 11 81z"/><path class="k" d="M6 68.2c.6.6 3.6 1.3 3.6 1.3s-.7-3-1.4-3.6A1.6 1.6 0 1 0 6 68.2z"/><path class="k" d="M4.2 75.8c.8.4 4 0 4 0s-1.7-2.6-2.5-3a1.6 1.6 0 0 0-1.5 3z"/><path class="k" d="M3.6 83.3c.7.6 3.8.8 3.8.8s-1.1-2.9-1.9-3.4a1.6 1.6 0 0 0-2 2.6z"/><path class="c" d="M13 88s-2.1-7.3.5-12.8a11.6 11.6 0 0 0 .9-7.2 19.5 19.5 0 0 0-1-3.5"/><path class="d" d="M15 61.1c0 1-1.7 3.5-1.7 3.5s-1.6-2.6-1.6-3.5a1.6 1.6 0 0 1 3.3 0z"/><path class="d" d="M17.7 66.1c-.5.8-3.3 2-3.3 2s0-3 .5-3.8a1.6 1.6 0 1 1 2.8 1.8z"/><path class="d" d="M17.5 74.6c-.8.4-3.8.2-3.8.2s1.6-2.7 2.4-3a1.6 1.6 0 0 1 1.4 2.8z"/><path class="d" d="M16 81c-.7.6-3.8.9-3.8.9s1.1-3 1.9-3.4a1.6 1.6 0 0 1 2 2.6z"/><path class="d" d="M11 68.3c.6.7 3.6 1.3 3.6 1.3s-.7-3-1.4-3.6a1.6 1.6 0 1 0-2.2 2.3z"/><path class="d" d="M9.3 75.9c.8.4 3.8.1 3.8.1s-1.6-2.6-2.4-3a1.6 1.6 0 1 0-1.4 2.9z"/><path class="d" d="M8.6 83.5c.7.5 3.8.7 3.8.7s-1.1-2.8-1.9-3.4a1.6 1.6 0 0 0-1.9 2.7z"/><rect class="d" width="114.265" height="0.839" transform="translate(2.948 87.757)"/><rect class="e" width="24.216" height="29.759" transform="translate(83.724 40.876)"/><rect class="d" width="23.456" height="28.825" transform="translate(84.104 41.343)"/><rect class="l" width="4.796" height="4.796" transform="translate(85.679 43.873)"/><rect class="l" width="17.026" height="0.959" transform="translate(88.077 51.547)"/><rect class="l" width="17.026" height="0.959" transform="translate(88.077 53.585)"/><rect class="l" width="17.026" height="0.959" transform="translate(88.077 55.624)"/><rect class="l" width="17.026" height="0.959" transform="translate(88.077 57.662)"/><rect class="l" width="17.026" height="0.959" transform="translate(88.077 59.7)"/><rect class="l" width="17.026" height="0.959" transform="translate(88.077 61.738)"/><rect class="l" width="17.026" height="0.959" transform="translate(88.077 63.777)"/><path class="m" d="M114.8 82a9.4 9.4 0 0 0 .3 2.4c.3.2-2 .4-2 .4l.2-2.7z"/><path class="i" d="M114.8 82a9.4 9.4 0 0 0 .3 2.4c.3.2-2 .4-2 .4l.2-2.7z"/><path class="n" d="M115.3 83.7a4.5 4.5 0 0 0-1.5.6 1.6 1.6 0 0 1-1.2-1.3s-1 1.7-1.6 1.8-2 .2-1.1 1.3 5.9.6 5.9.6 0-2.7-.5-3z"/><path class="i" d="M115.3 83.7a4.5 4.5 0 0 0-1.5.6 1.6 1.6 0 0 1-1.2-1.3s-1 1.7-1.6 1.8-2 .2-1.1 1.3 5.9.6 5.9.6 0-2.7-.5-3z"/><path class="m" d="M114.6 85.3l-.4.9-2.1-.6v-1l.1-.1v-.6s2-.5 2-.3a3.7 3.7 0 0 0 0 .6 17.3 17.3 0 0 0 .4 1z"/><path class="o" d="M113.4 73a1.3 1.3 0 0 0 0 1.3 2.3 2.3 0 0 0 .3.4c1 1.2 1.3 3.7 1.3 3.7v4.1h-.7l-1.1.2-1.7-7s-1-5.1-.5-6 .9-6.6.9-6.6l.4-.4 1-1h2.6a1.8 1.8 0 0 1 .5.6c.5.8.9 2.4-.4 5.2a32.7 32.7 0 0 1-2.5 5.2 1 1 0 0 0-.1.2z"/><path class="i" d="M113.4 73a1.3 1.3 0 0 0 0 1.2 2.3 2.3 0 0 0 .3.5c1 1.1 1.4 3.7 1.4 3.7v4.1h-.8l-1 .2-1.8-7s-1-5.2-.5-6 .9-6.6.9-6.6l.4-.4 1-1h2.6a1.8 1.8 0 0 1 .5.6c.5.8.9 2.3-.3 5.2a32.7 32.7 0 0 1-2.5 5.2 1 1 0 0 0-.2.2z"/><path class="p" d="M114.3 84.2l-2 .3v-.6s1.8-.5 1.8-.3a3.7 3.7 0 0 0 .2.6z"/><path class="o" d="M113.2 66.9l.2 6v1.4a3 3 0 0 1 0 .5 3.3 3.3 0 0 0 0 1.3 13.7 13.7 0 0 1 1 6v2l-2.3.3s.3-.3-.7-3a12 12 0 0 1-.7-4.2 4.4 4.4 0 0 0-.4-1.6 2 2 0 0 1 0-.6 10.9 10.9 0 0 0-.6-2.1 35.3 35.3 0 0 1-1.4-5.8 13.6 13.6 0 0 1 0-3.6 8.8 8.8 0 0 1 .2-.8s4.6-3 6.4-1a2.3 2.3 0 0 1 .4.7 4.4 4.4 0 0 1 .2.8c.5 2.6-2.3 3.7-2.3 3.7z"/><circle class="m" cx="2.414" cy="2.414" r="2.414" transform="translate(110.686 41.317)"/><path class="m" d="M111.8 45.2s1 2.8 0 4.3 3.1 1 3.1 1l1.7-2s-2 0-2-3.3-2.8 0-2.8 0z"/><path class="p" d="M116.6 62.9a6.2 6.2 0 0 1-1.1.3 2.1 2.1 0 0 1-1.7-.3 2.4 2.4 0 0 0-1.5-.2 26.5 26.5 0 0 0-4 .8 8.8 8.8 0 0 1 .2-.8s4.6-3 6.4-1h1a1.8 1.8 0 0 1 .5.6l.2.6z"/><path class="p" d="M114.6 85.3l-.4.9-2.1-.6v-1a1.5 1.5 0 0 0 1 1 7.7 7.7 0 0 1 1.4-.6v.3z"/><path class="n" d="M114.7 85a4.5 4.5 0 0 0-1.5.7 1.6 1.6 0 0 1-1.1-1.3s-1 1.7-1.7 1.8-2 .2-1 1.3 5.8.6 5.8.6.1-2.7-.5-3z"/><path class="m" d="M103.5 44.2a1.8 1.8 0 0 1 2-1.7.3.3 0 0 1 .3.5l-.4.8z"/><path class="h" d="M114.7 49.1a10.7 10.7 0 0 1-3-.8 1 1 0 0 1-1.3.4 7.6 7.6 0 0 0-2.8-.4 4.3 4.3 0 0 1-2-3 5.8 5.8 0 0 1-.3-1.5 1 1 0 0 0-1.8.4c.2 1.2.4 1 .4 2l.7 2.1s0 .7 1.4 1.7a30.4 30.4 0 0 1 3 2.4s-.8.4-.5 2.5a24.9 24.9 0 0 1-.2 6.1v2.3s4.7-1.4 5.5-.6 2.8 0 2.8 0a26.4 26.4 0 0 1-.6-2.8 12 12 0 0 1 0-3.8l1.8-4.6c.5-1.3-.4-3.1-1.4-3.8s-1.4-.3-1.4-.3 1.8 1.3-.3 1.7z"/><path class="i" d="M108.6 56l2.3-.4a20.1 20.1 0 0 1 5.2.4"/><path class="p" d="M110.2 42.2a1.7 1.7 0 0 1 1.4 2.3c-.2.4-.6.8-.6 1.2a4.6 4.6 0 0 0 .2.7c.3 1-.9 1.8-.6 2.8a2 2 0 0 0 .4.6l2 2.6a1.9 1.9 0 0 1 .3.4 2 2 0 0 1 0 .8 5.7 5.7 0 0 0 .8 3.4 3.2 3.2 0 0 0 3.9 1 2 2 0 0 1-.5-1.6c.2-.6.9-1 1.3-1.4a2.7 2.7 0 0 0 .4-2.2 13.3 13.3 0 0 1-.5-2.3c0-1.2.7-2.7-.2-3.6a4 4 0 0 1-.6-.6 1.4 1.4 0 0 1-.1-.7c0-1.5.7-3 .3-4.3a1.5 1.5 0 0 0-.5-.8c-.7-.4-1.6 0-2.4-.2l-1-.5a2.6 2.6 0 0 0-2.5 1 7.6 7.6 0 0 1-.8.6s-1.1.8-.7.8z"/><path d="M110.3 42.2a1.7 1.7 0 0 1 1.4 2.3c-.2.4-.6.8-.5 1.2a4.6 4.6 0 0 0 .1.7c.3 1-.9 1.8-.6 2.8a2 2 0 0 0 .4.6l2 2.6a1.9 1.9 0 0 1 .3.4 2 2 0 0 1 0 .8 5.7 5.7 0 0 0 .9 3.4 3.2 3.2 0 0 0 3.8 1 2 2 0 0 1-.5-1.6c.2-.6 1-1 1.3-1.4a2.7 2.7 0 0 0 .4-2.2 13.3 13.3 0 0 1-.4-2.3c0-1.2.6-2.7-.3-3.6a4 4 0 0 1-.5-.6 1.4 1.4 0 0 1-.2-.7c0-1.5.8-3 .3-4.3a1.5 1.5 0 0 0-.5-.8c-.7-.4-1.6 0-2.4-.2l-1-.5a2.6 2.6 0 0 0-2.4 1 7.5 7.5 0 0 1-1 .6c.1 0-1 .8-.6.8z" style="fill:#b36362"/><path d="M631.3 447a4.2 4.2 0 0 1-.7-.8 3.2 3.2 0 0 0-1.6-1.2v-.9l-.2-2.6a4 4 0 0 1 .5-3.4 2.6 2.6 0 0 0-1-3.7s-.4-2.5 0-3.1a17.4 17.4 0 0 0-1.7-.9v-.8a2.6 2.6 0 0 1 0-.3v-.2a2.6 2.6 0 0 0 1.7-2.4 2.5 2.5 0 0 0-.2-.9 1.1 1.1 0 0 0 .2-.3 1.2 1.2 0 0 0-.2-.8 3 3 0 0 0-1.4-1.3 5.6 5.6 0 0 0-2.5-.2c-.5 0-1 .2-1 .6a4 4 0 0 0-.2.4c-.1.6-.8.9-1.2 1.3a3 3 0 0 0-.6 1.5 13.3 13.3 0 0 0-.3 4.5l.2 1a3 3 0 0 0-.4 2l-.8 4-.3 2.2a2 2 0 0 0 .6 1.7 15.2 15.2 0 0 1 1.5 2 4.6 4.6 0 0 0-.2 1.5v.6a6.1 6.1 0 0 0 .3 1.4 9.7 9.7 0 0 0 .6 2.9l.1 4s-.2 3.8-.6 4.5 1 6.9 1 6.9v.9l-.3.6c-1 1.2 0 1.7 0 1.7h.7a.8.8 0 0 0 .4 1 56.7 56.7 0 0 0 6.8 0c1-.4.7-1.3.2-1.2a2.5 2.5 0 0 1-.9-.1.5.5 0 0 0-.3-.8 5.6 5.6 0 0 1-1.8-.5 13.6 13.6 0 0 1-1.4-.4 4.7 4.7 0 0 1-.4-3.2 5.8 5.8 0 0 0 .2-2 21.8 21.8 0 0 1 1-6l.7-2.8a35.1 35.1 0 0 0 1.2-4.3v-1.3a2 2 0 0 0 2.2.1.5.5 0 0 0 .1-.8zm-9-7v-.3h.5a2.5 2.5 0 0 1 .3 1.3c-.4-.1-1-.4-.8-1z" transform="translate(-557.193 -382.074)" style="fill:url(#d)"/><path class="s" d="M65.7 84.7l-.2.8.8.8 2.8.7 2-.2-.1-.8a.9.9 0 0 0-.6-.6c-.9-.2-2.5-.6-2.8-1.2z"/><path class="p" d="M65.7 84.7l-.2.8.8.8 2.8.7 2-.2-.1-.8a.9.9 0 0 0-.6-.6c-.9-.2-2.5-.6-2.8-1.2z"/><path class="t" d="M70.5 86.6L70 86l.4-.6a5.2 5.2 0 0 0 1.7.4c.5-.1.8.8-.2 1a53.5 53.5 0 0 1-6.5 0s-1-.4 0-1.6l.8.6a5 5 0 0 0 2.2.7z"/><path class="s" d="M72.2 87.7l-2 .2-2.8-.7-.8-.8v-.2l.1-.3.1-.3 2-.5a1.2 1.2 0 0 0 .3.4 8.2 8.2 0 0 0 2.4.8.9.9 0 0 1 .6.7z"/><path class="p" d="M72.2 87.7l-2 .2-2.8-.7-.8-.8v-.2l.8.6a5 5 0 0 0 2.2.6h2l-.4-.5.3-.5a.9.9 0 0 1 .6.6z"/><path class="t" d="M71.6 87.5l-.4-.5.4-.6a5.2 5.2 0 0 0 1.7.4c.5 0 .8.8-.2 1a53.5 53.5 0 0 1-6.5 0s-1-.4 0-1.6l.8.6a5 5 0 0 0 2.2.7z"/><path class="s" d="M70 49.7s-3.2.3-2.7-1a2.3 2.3 0 0 0 0-1.1 3.2 3.2 0 0 0-.5-1.3l3 .4a3.7 3.7 0 0 0-.4 1 2 2 0 0 0 .6 2z"/><path class="t" d="M64.6 64.6a13.6 13.6 0 0 0 .7 4.1l.2 4a21.8 21.8 0 0 1-.6 4.4c-.4.7.8 6.7.8 6.7v1s2.1.9 2.7 0l-.6-7.8.3-10.7z"/><path class="p" d="M64.6 64.6a13.6 13.6 0 0 0 .7 4.1l.2 4a21.8 21.8 0 0 1-.6 4.4c-.4.7.8 6.7.8 6.7v1s2.1.9 2.7 0l-.6-7.8.3-10.7z"/><path class="u" d="M63.3 55.6l-.4 1-.3 2.2a2 2 0 0 0 .6 1.7A18.6 18.6 0 0 1 65 63l1.2-3.7s-1.2-.2-1-1a12.1 12.1 0 0 0 .1-2.4z"/><path class="i" d="M63.3 55.5l-.4 1-.3 2.2a2 2 0 0 0 .6 1.7 18.6 18.6 0 0 1 1.8 2.4l1.2-3.7s-1.2-.2-1-1a12.1 12.1 0 0 0 .1-2.5z"/><path class="p" d="M69.1 85.5a1.6 1.6 0 0 1-2.4.4l.1-.3 2-.5a1.2 1.2 0 0 0 .3.4z"/><path class="t" d="M71.7 67.1a34.7 34.7 0 0 1-1.2 4.2l-.7 2.8a21.8 21.8 0 0 0-.9 6 5.8 5.8 0 0 1-.2 1.8c-.6 1.4.5 3.4.5 3.4a1.6 1.6 0 0 1-2.5.5v-1s-1.2-5.7-1-6.8a27.2 27.2 0 0 0 .5-4.1v-5.4a6.1 6.1 0 0 1-1.7-4V64a7.7 7.7 0 0 1 1.3-3.8l.1-.2 5.8 2.3v.7z"/><path class="p" d="M69.8 46.7a3.7 3.7 0 0 0-.4 1 2.5 2.5 0 0 1-2-.1 3.2 3.2 0 0 0-.6-1.3z"/><circle class="s" cx="2.541" cy="2.541" r="2.541" transform="translate(65.917 42.612)"/><path class="p" d="M71.7 62.9c-2.7.5-6.2-2.3-6.2-2.3a3.4 3.4 0 0 0 .3-.5l.1-.2 5.8 2.3v.2z"/><path class="u" d="M71 49.6s-3.6-2.2-4.8-1.3l-1.6 2.1s-1 .4-.9 2.4l-.8 3.8 2.4.6a2.6 2.6 0 0 1 .2 3.2s3.5 2.9 6.2 2.3l-.2-3a4 4 0 0 1 .5-3.3 2.5 2.5 0 0 0-1-3.7s-.4-2.5 0-3z"/><path class="s" d="M71.2 63a3.4 3.4 0 0 1 2 1.2 4 4 0 0 0 .7.9.5.5 0 0 1 0 .8 2 2 0 0 1-2.5-.4c-1.8-1.5-.2-2.6-.2-2.6z"/><path class="p" d="M69.2 50.9s-1.3-.1-1.7 3.2-.8 4.2-.8 4.2a4.2 4.2 0 0 0 .5 2.8l2.2 3.3a1.5 1.5 0 0 0 2-1.2l-2-3.8a2.7 2.7 0 0 1 .4-2.2c.8-1 1.4-7-.6-6.3z"/><path class="u" d="M69.3 50.7s-1.3-.1-1.6 3.2-.9 4.2-.9 4.2a4.2 4.2 0 0 0 .5 2.8l2.3 3.3a1.5 1.5 0 0 0 2-1.2l-2.1-3.8A2.7 2.7 0 0 1 70 57c.7-.9 1.3-7-.7-6.3z"/><path class="p" d="M70.4 53.1a7.4 7.4 0 0 1-.5 3.2 3.3 3.3 0 0 0 0 3.3"/><path class="p" d="M70.7 50.7a3.1 3.1 0 0 0-2-.6 4.3 4.3 0 0 1-2.2-.6"/><path class="p" d="M67 41.9c-.3 0-.8.2-1 .5a4 4 0 0 0 0 .5c-.1.5-.8.8-1.2 1.2a3 3 0 0 0-.6 1.4A13.2 13.2 0 0 0 64 50c.1 1 .4 2.1.4 3.2a5.1 5.1 0 0 1-.6 3.1 7.8 7.8 0 0 0-.8 1.2 2.2 2.2 0 0 0 1.4.4H66a1.8 1.8 0 0 0 .8-.2 1.3 1.3 0 0 0 .5-.5 3.4 3.4 0 0 0 .3-1.8v-2a1.7 1.7 0 0 1 .1-1 3.2 3.2 0 0 1 .6-.4 3.5 3.5 0 0 0 1-2.6c0-.9-.2-1.8-.1-2.7 0-.4.2-.8.5-1a2 2 0 0 0 .4 0c.2 0 .2-.5.3-.8 0-.3.4-.6.5-.9.1-.8-.9-1.7-1.5-2A5.3 5.3 0 0 0 67 42z"/><path d="M67 41.7c-.4 0-.8.2-1 .6a4 4 0 0 0 0 .4c-.2.6-.8.9-1.2 1.3a3 3 0 0 0-.7 1.4 13.2 13.2 0 0 0-.2 4.4l.5 3.3a5.1 5.1 0 0 1-.7 3.1 7.8 7.8 0 0 0-.8 1.2 2.2 2.2 0 0 0 1.4.3H66a1.8 1.8 0 0 0 .8-.2 1.3 1.3 0 0 0 .5-.4 3.4 3.4 0 0 0 .4-1.9l-.1-1.9a1.7 1.7 0 0 1 .2-1 3.2 3.2 0 0 1 .5-.4 3.4 3.4 0 0 0 1-2.6v-2.8c0-.3.1-.8.5-.8a2 2 0 0 0 .3 0c.3-.2.3-.6.3-.9l.5-1c.2-.7-.8-1.7-1.5-2a5.3 5.3 0 0 0-2.4 0z" style="fill:#472727"/></g></svg>