<svg xmlns="http://www.w3.org/2000/svg" xmlns:xlink="http://www.w3.org/1999/xlink" viewBox="0 0 600 499.362"><defs><style>.a{opacity:0.796;}.b{opacity:0.7;}.c{fill:url(#a);}.d,.y{fill:#535461;}.aa,.e{opacity:0.1;}.f{fill:#e0e0e0;}.g{fill:url(#b);}.h{fill:url(#c);}.i{fill:#eee;}.j,.w{fill:#4651af;}.k{fill:url(#f);}.l{fill:url(#g);}.m{fill:url(#k);}.n{fill:url(#l);}.o{fill:url(#m);}.p{fill:url(#n);}.q{fill:url(#o);}.r{fill:url(#r);}.s{fill:url(#s);}.t{fill:url(#u);}.u{opacity:0.4;}.v{fill:url(#v);}.w{opacity:0.2;}.aa,.x{fill:#f55f44;}.x{opacity:0.05;}.y{opacity:0.25;}.z{fill:url(#x);}</style><linearGradient id="a" x1="0.5" y1="1" x2="0.5" gradientUnits="objectBoundingBox"><stop offset="0" stop-color="gray" stop-opacity="0.251"/><stop offset="0.54" stop-color="gray" stop-opacity="0.122"/><stop offset="1" stop-color="gray" stop-opacity="0.102"/></linearGradient><linearGradient id="b" x1="0.5" x2="0.5" y2="1" gradientUnits="objectBoundingBox"><stop offset="0" stop-color="#e0e0e0"/><stop offset="0.31" stop-color="#fccc63"/><stop offset="0.77" stop-color="#f55f44"/></linearGradient><linearGradient id="c" x1="0.5" y1="0" x2="0.5" y2="1" xlink:href="#b"/><linearGradient id="f" x1="0.5" x2="0.5" y2="0" xlink:href="#a"/><linearGradient id="g" x1="0.5" x2="0.5" y2="1" gradientUnits="objectBoundingBox"><stop offset="0" stop-color="#f2f2f2"/><stop offset="0.31" stop-color="#e6e6e6"/><stop offset="0.77" stop-color="#ccc"/></linearGradient><linearGradient id="k" x1="0.5" y1="0.001" x2="0.5" y2="1" xlink:href="#g"/><linearGradient id="l" x1="0.5" y1="0" x2="0.5" y2="1" xlink:href="#g"/><linearGradient id="m" x1="0.5" y1="0" x2="0.5" y2="1" xlink:href="#g"/><linearGradient id="n" x1="0.5" y1="0" x2="0.5" y2="1" xlink:href="#g"/><linearGradient id="o" x1="0.5" y1="0" x2="0.5" y2="1" xlink:href="#g"/><linearGradient id="r" x1="0.5" x2="0.5" y2="0" xlink:href="#a"/><linearGradient id="s" x1="0.5" x2="0.5" y2="1" gradientUnits="objectBoundingBox"><stop offset="0" stop-color="#f2f2f2"/><stop offset="0.31" stop-color="#e0e0e0"/><stop offset="0.77" stop-color="#b3b3b3"/></linearGradient><linearGradient id="u" x1="0.5" y1="0" x2="0.5" y2="1" xlink:href="#g"/><linearGradient id="v" x1="0.5" y1="0.999" x2="0.5" y2="-0.001" xlink:href="#a"/><linearGradient id="x" x1="0.501" y1="1.001" x2="0.501" y2="0.001" xlink:href="#a"/></defs><g class="a" transform="translate(0 -0.05)"><g class="b" transform="translate(195.646 31.159)"><path class="c" d="M622.563,306.625a97.649,97.649,0,0,0-11.025-45.4,55.986,55.986,0,0,0-9.079-13.185,6.485,6.485,0,0,0-7.393-1.459,6.668,6.668,0,0,0-2.594,1.673,58.78,58.78,0,0,0-8.852,12.7A98.022,98.022,0,0,0,572.03,307.6v9.767h-6.265V203.873a152.451,152.451,0,0,0-15.753-68.095c-4.942-9.864-9.449-15.993-12.918-19.76a8.956,8.956,0,0,0-13.464,0c-4.7,5.1-8.93,11.849-12.633,19.021a152.757,152.757,0,0,0-16.537,69.891V317.364h-5.415V307.131a98.025,98.025,0,0,0-11.589-46.642,59.107,59.107,0,0,0-8.852-12.7,6.485,6.485,0,0,0-7.523-1.375l.227.123a6.685,6.685,0,0,0-2.114,1.479,57.6,57.6,0,0,0-9.079,13.184,97.647,97.647,0,0,0-11.025,45.4V476.278h19.326l-2.108,13.95v41.707h15.8V490.228L470,476.278h19.047V321.755h5.415V475.584H509.9l-2.218,14.637v41.713h15.8V490.228l-2.218-14.637h20.8l-2.218,14.637v41.707h15.8V490.228l-2.218-14.637h12.322V321.755h6.265V476.512H577.1v-.233h16.79l-2.108,13.95v41.707h15.8V490.228l-2.108-13.95h17.089Z" transform="translate(-439.089 -112.969)"/></g><path class="d" d="M349.331,607.355H334.37l2.672-18.165h9.618Z" transform="translate(-117.524 -207.07)"/><g class="e" transform="translate(218.772 384.254)"><path d="M337.34,597.558h11.109l-.746-5.078h-9.618Z" transform="translate(-337.34 -592.48)"/></g><path class="d" d="M547.091,607.355H532.13L534.8,589.19h9.617Z" transform="translate(-187.032 -207.07)"/><g class="e" transform="translate(347.024 384.254)"><path d="M535.1,597.558h11.109l-.746-5.078h-9.618Z" transform="translate(-535.1 -592.48)"/></g><path class="d" d="M424.318,607.355H409.35l2.672-18.165h9.624Z" transform="translate(-143.877 -207.07)"/><g class="e" transform="translate(267.399 384.254)"><path d="M412.32,597.558h11.116l-.746-5.078h-9.624Z" transform="translate(-412.32 -592.48)"/></g><path class="d" d="M471.281,607.355H456.32l2.672-18.165h9.618Z" transform="translate(-160.386 -207.07)"/><g class="e" transform="translate(297.86 384.254)"><path d="M459.29,597.558h11.116l-.752-5.078h-9.618Z" transform="translate(-459.29 -592.48)"/></g><rect class="d" width="106.876" height="4.274" transform="translate(231.808 231.955)"/><path class="f" d="M669.8,317.387a6.025,6.025,0,0,0-8.93,0,57.381,57.381,0,0,0-8.379,12.361,97.657,97.657,0,0,0-10.967,45.4V539.668h47.3v-165.2a97.279,97.279,0,0,0-10.448-44.236A55.624,55.624,0,0,0,669.8,317.387Z" transform="translate(-314.596 -152.962)"/><path class="f" d="M465.684,317.387a6.025,6.025,0,0,1,8.93,0,57.384,57.384,0,0,1,8.379,12.361,97.655,97.655,0,0,1,10.966,45.4V539.668H446.65v-165.2A97.28,97.28,0,0,1,457.1,330.228,54.745,54.745,0,0,1,465.684,317.387Z" transform="translate(-246.101 -152.962)"/><path class="d" d="M309.65,346.93l11.219.052v13.839H309.65Z" transform="translate(-108.835 -121.921)"/><path class="d" d="M364.86,346.93l11.219.052v13.839H364.86Z" transform="translate(-128.24 -121.921)"/><path class="d" d="M504.11,346.93l11.226.052v13.839H504.11Z" transform="translate(-177.183 -121.921)"/><path class="d" d="M559.32,346.93l11.226.052v13.839H559.32Z" transform="translate(-196.589 -121.921)"/><g class="e" transform="translate(221.36 162.236)"><path d="M494.253,329.42a57.147,57.147,0,0,0-8.379-12.361,6.005,6.005,0,0,0-7.134-1.342,6.375,6.375,0,0,1,1.8,1.342,57.384,57.384,0,0,1,8.379,12.361,97.656,97.656,0,0,1,10.967,45.4V539.328h5.344V374.836A97.655,97.655,0,0,0,494.253,329.42Z" transform="translate(-478.74 -315.085)"/></g><g class="e" transform="translate(326.381 162.681)"><path d="M656.452,330.116a57.147,57.147,0,0,1,8.379-12.361,6.354,6.354,0,0,1,2.069-1.479,6.012,6.012,0,0,0-6.874,1.479,57.393,57.393,0,0,0-8.379,12.361,97.658,97.658,0,0,0-10.967,45.4V540.023h4.812V375.538a97.657,97.657,0,0,1,10.96-45.423Z" transform="translate(-640.678 -315.771)"/></g><rect class="g" width="14.961" height="40.61" transform="translate(216.846 400.286)"/><rect class="h" width="14.961" height="40.61" transform="translate(265.473 400.286)"/><rect class="h" width="14.961" height="40.61" transform="translate(295.934 400.286)"/><rect class="h" width="14.961" height="40.61" transform="translate(345.098 400.286)"/><path class="i" d="M567.828,117.953a8.327,8.327,0,0,0-12.743,0c-4.442,4.968-8.431,11.537-11.959,18.528a152.381,152.381,0,0,0-15.655,68.062V468.55h67.5V203.48a151.63,151.63,0,0,0-14.916-66.286C575.383,127.59,571.116,121.623,567.828,117.953Z" transform="translate(-274.507 -82.519)"/><rect class="j" width="35.221" height="16.142" rx="8.071" transform="translate(268.637 64.76)"/><g class="b" transform="translate(88.26 377.991)"><path class="k" d="M629.216,706.242h0a53.827,53.827,0,0,0-106.928,9.125v.791h0a49.667,49.667,0,0,0-5.9,1.264,49.184,49.184,0,0,0-92.479-8.372,48.642,48.642,0,0,0-13.567-3.1h0a53.428,53.428,0,0,0-3.7-12.225,49.158,49.158,0,0,0-98-1.3,53.476,53.476,0,0,0-4.812,17.1h0a49.21,49.21,0,0,0-28.2,59.664H669.645a49.2,49.2,0,0,0-40.429-62.952Z" transform="translate(-273.505 -647.773)"/></g><ellipse class="l" cx="47.232" cy="47.232" rx="47.232" ry="47.232" transform="translate(129.627 380.389)"/><ellipse class="l" cx="51.72" cy="51.72" rx="51.72" ry="51.72" transform="translate(124.905 393.612)"/><ellipse class="l" cx="51.72" cy="51.72" rx="51.72" ry="51.72" transform="translate(335.091 393.612)"/><ellipse class="l" cx="47.232" cy="47.232" rx="47.232" ry="47.232" transform="translate(336.979 402.588)"/><path class="m" d="M596.327,746.741A47.147,47.147,0,0,1,576.794,785h-55.4a47.251,47.251,0,1,1,74.93-38.263Z" transform="translate(-265.49 -287.945)"/><path class="n" d="M503.862,784.642a47.019,47.019,0,0,1-2.023,13.7H411.415v-.032a47.232,47.232,0,0,1,44.93-60.9h.292q1.984,0,3.937.162a46.741,46.741,0,0,1,13.029,2.977A47.245,47.245,0,0,1,503.862,784.642Z" transform="translate(-233.007 -301.287)"/><path class="o" d="M686.67,799.219q0,2.121-.188,4.2a.117.117,0,0,1,0,.058H592.395c-.13-1.4-.194-2.821-.194-4.248a47.187,47.187,0,0,1,40.156-46.694,47.833,47.833,0,0,1,7.056-.532c1.206,0,2.406.045,3.593.13A47.271,47.271,0,0,1,682.5,779.848c.195.428.383.862.558,1.3A47,47,0,0,1,686.67,799.219Z" transform="translate(-297.259 -306.415)"/><path class="p" d="M824.335,784.645a47.021,47.021,0,0,1-2.023,13.7h-90.4a47.533,47.533,0,0,1-1.213-22.4c.078-.408.156-.823.246-1.225a47.251,47.251,0,0,1,46.188-37.3c1.485,0,2.944.065,4.391.208.648.052,1.3.13,1.945.214A47.238,47.238,0,0,1,824.335,784.645Z" transform="translate(-345.654 -301.291)"/><path class="q" d="M378.026,798.332c.156-.493.292-.986.428-1.485a47.264,47.264,0,0,0-58.231-57.771,45.054,45.054,0,0,0-5.519,1.907,47.277,47.277,0,0,0-27.1,57.329h90.417Z" transform="translate(-189.488 -301.274)"/><g class="b" transform="translate(452.065 382.587)"><ellipse class="c" cx="8.664" cy="8.664" rx="8.664" ry="8.664"/></g><ellipse class="l" cx="8.029" cy="8.029" rx="8.029" ry="8.029" transform="translate(452.701 383.223)"/><g class="b" transform="translate(490.957 465.404)"><ellipse class="r" cx="9.449" cy="9.449" rx="9.449" ry="9.449"/></g><ellipse class="s" cx="8.976" cy="8.976" rx="8.976" ry="8.976" transform="translate(491.431 465.877)"/><g class="b" transform="translate(85.709 410.623)"><ellipse class="c" cx="10.383" cy="10.383" rx="10.383" ry="10.383"/></g><ellipse class="t" cx="9.916" cy="9.916" rx="9.916" ry="9.916" transform="translate(86.176 411.09)"/><g class="u" transform="translate(436.089 0.05)"><path class="v" d="M861,76.3h0a28.75,28.75,0,0,0-8.483-7.51h0a28.483,28.483,0,1,0-14.268,53.179c.6,0,1.206,0,1.8-.058A28.477,28.477,0,0,0,860.991,76.33Z" transform="translate(-809.845 -65)"/></g><path class="w" d="M866.008,94.284a26.921,26.921,0,0,1-25.217,26.868c-.562.039-1.133.058-1.7.058a26.92,26.92,0,1,1,13.463-50.241h0a27.177,27.177,0,0,1,8.022,7.1h0A26.784,26.784,0,0,1,866.008,94.284Z" transform="translate(-374.577 -65.783)"/><path class="x" d="M839.878,82.418a29.307,29.307,0,0,0-4.014,2.114,6.355,6.355,0,0,0-2.146,1.946,2.529,2.529,0,0,0-.052,2.743c.649.895,1.946,1.038,3.029,1.1a5.746,5.746,0,0,0,5.5-1.816l2.315-2.1c.8-.726,1.686-1.732,1.336-2.756a2.326,2.326,0,0,0-1.946-1.3,8.165,8.165,0,0,0-5.791,1.018" transform="translate(-381.995 -70.993)"/><ellipse class="x" cx="1.414" cy="1.414" rx="1.414" ry="1.414" transform="translate(446.799 37.716)"/><ellipse class="x" cx="5.195" cy="5.195" rx="5.195" ry="5.195" transform="translate(471.832 24.96)"/><path class="x" d="M879.127,79.994h0A7.088,7.088,0,1,1,871.1,72.86h0A27.174,27.174,0,0,1,879.127,79.994Z" transform="translate(-393.125 -67.713)"/><path class="x" d="M876.577,131.419a26.855,26.855,0,0,1-20.305,11.362c-.032-.37-.052-.746-.052-1.122a12.756,12.756,0,0,1,20.357-10.24Z" transform="translate(-390.056 -87.412)"/><ellipse class="y" cx="3.307" cy="3.307" rx="3.307" ry="3.307" transform="translate(465.451 220.269)"/><ellipse class="y" cx="3.307" cy="3.307" rx="3.307" ry="3.307" transform="translate(24.456 307.171)"/><ellipse class="y" cx="3.307" cy="3.307" rx="3.307" ry="3.307" transform="translate(593.21 325.978)"/><ellipse class="y" cx="3.307" cy="3.307" rx="3.307" ry="3.307" transform="translate(183.94 169.256)"/><ellipse class="y" cx="3.307" cy="3.307" rx="3.307" ry="3.307" transform="translate(173.078 93.21)"/><ellipse class="y" cx="3.307" cy="3.307" rx="3.307" ry="3.307" transform="translate(79.554 243.881)"/><path class="y" d="M845.339,385.528h-2.944V382.59h-1.2v2.938H838.25v1.206h2.944v2.938h1.2v-2.938h2.944Z" transform="translate(-294.626 -134.454)"/><path class="y" d="M921.339,228.528h-2.944V225.59h-1.2v2.938H914.25v1.206h2.944v2.938h1.2v-2.938h2.944Z" transform="translate(-321.339 -79.272)"/><path class="y" d="M597.708,140.814h-2.944V137.87h-1.2v2.944H590.62v1.2h2.944v2.944h1.2v-2.944h2.944Z" transform="translate(-207.59 -48.441)"/><path class="y" d="M795.812,360.038h-2.944V357.1h-1.2v2.938H788.73v1.206h2.938v2.938h1.2v-2.938h2.944Z" transform="translate(-277.221 -125.495)"/><path class="y" d="M629.752,510.8h-2.938V507.86h-1.2V510.8H622.67V512h2.944v2.938h1.2V512h2.938Z" transform="translate(-218.855 -178.484)"/><path class="y" d="M165.088,199.808h-2.944V196.87h-1.2v2.938H158v1.2h2.944v2.944h1.2v-2.944h2.944Z" transform="translate(-55.533 -69.178)"/><path class="y" d="M7.088,258.808H4.144V255.87h-1.2v2.938H0v1.2H2.944v2.944h1.2v-2.944H7.088Z" transform="translate(0 -89.915)"/><path class="y" d="M227.722,444.524h-2.944V441.58h-1.2v2.944H220.64v1.2h2.938v2.944h1.2v-2.944h2.944Z" transform="translate(-77.55 -155.188)"/><ellipse class="l" cx="8.976" cy="8.976" rx="8.976" ry="8.976" transform="translate(491.431 465.877)"/><g class="u" transform="translate(149.993 220.489)"><path class="z" d="M393.128,410.332h0a13.692,13.692,0,0,0-4.04-3.58h0a13.567,13.567,0,1,0-6.784,25.292h.856a13.567,13.567,0,0,0,9.968-21.706Z" transform="translate(-368.695 -404.91)"/></g><path class="w" d="M395.549,418.907a12.821,12.821,0,0,1-12.01,12.8h-.811a12.821,12.821,0,1,1,6.414-23.93h0a12.97,12.97,0,0,1,3.82,3.379h0A12.757,12.757,0,0,1,395.549,418.907Z" transform="translate(-219.132 -184.825)"/><path class="aa" d="M383.088,413.252a13.967,13.967,0,0,0-1.946,1.005,3.031,3.031,0,0,0-1.025.914,1.206,1.206,0,0,0,0,1.3,1.835,1.835,0,0,0,1.44.519,2.737,2.737,0,0,0,2.594-.862l1.1-1c.383-.35.8-.824.648-1.3a1.161,1.161,0,0,0-.934-.649,3.891,3.891,0,0,0-2.756.486" transform="translate(-222.65 -187.302)"/><ellipse class="aa" cx="0.674" cy="0.674" rx="0.674" ry="0.674" transform="translate(155.159 238.466)"/><ellipse class="aa" cx="2.477" cy="2.477" rx="2.477" ry="2.477" transform="translate(167.079 232.39)"/><path class="aa" d="M401.795,412.165h0a3.372,3.372,0,1,1-3.82-3.385h0a12.97,12.97,0,0,1,3.82,3.385Z" transform="translate(-227.965 -185.781)"/><path class="aa" d="M400.6,436.6a12.789,12.789,0,0,1-9.669,5.415v-.538a6.077,6.077,0,0,1,9.728-4.877Z" transform="translate(-226.517 -195.13)"/><g class="e" transform="translate(253.306 131.051)"><rect width="66.798" height="2.594"/></g></g></svg>