<svg xmlns="http://www.w3.org/2000/svg" viewBox="0 0 24.596 20"><defs><style>.a{fill:#fff;}</style></defs><path class="a" d="M82.826,118.4a14.267,14.267,0,0,0,14.36-14.36c0-.217,0-.433-.01-.65a10.282,10.282,0,0,0,2.52-2.618,10.229,10.229,0,0,1-2.9.8,5.078,5.078,0,0,0,2.224-2.8,10.039,10.039,0,0,1-3.209,1.22,5.048,5.048,0,0,0-8.73,3.455,5.578,5.578,0,0,0,.128,1.152,14.332,14.332,0,0,1-10.4-5.276,5.067,5.067,0,0,0,1.565,6.742,5.105,5.105,0,0,1-2.283-.63v.069a5.058,5.058,0,0,0,4.045,4.951,5.076,5.076,0,0,1-2.274.089,5.047,5.047,0,0,0,4.715,3.5,10.123,10.123,0,0,1-6.27,2.165,9.713,9.713,0,0,1-1.2-.069,14.357,14.357,0,0,0,7.726,2.254" transform="translate(-75.1 -98.4)"/></svg>