<svg xmlns="http://www.w3.org/2000/svg" width="28" height="28" viewBox="0 0 28 28">
  <g fill="none" fill-rule="evenodd">
    <circle cx="14" cy="14" r="14" fill="#F9FAFC" fill-rule="nonzero"/>
    <path fill="#4651AF" d="M23.4375,8.796875 C22.9687477,9.52604531 22.3437539,10.1770805 21.5625,10.75 L21.5625,11.21875 C21.5625,13.9531387 20.5794369,16.4335826 18.6132812,18.6601562 C16.6471256,20.8867299 14.0364746,22 10.78125,22 C8.69790625,22 6.77084219,21.4270891 5,20.28125 C5.41666875,20.3333336 5.71614492,20.359375 5.8984375,20.359375 C7.64323789,20.359375 9.20572227,19.8125055 10.5859375,18.71875 C9.7786418,18.6927082 9.04948242,18.4388045 8.3984375,17.9570312 C7.74739258,17.475258 7.30468867,16.8567746 7.0703125,16.1015625 C7.38281406,16.1536461 7.61718672,16.1796875 7.7734375,16.1796875 C8.03385547,16.1796875 8.37239375,16.1276047 8.7890625,16.0234375 C7.9296832,15.8411449 7.20703418,15.4049514 6.62109375,14.7148438 C6.03515332,14.0247361 5.7421875,13.2239629 5.7421875,12.3125 L5.7421875,12.2734375 C6.31510703,12.5859391 6.88801797,12.7421875 7.4609375,12.7421875 C6.34114023,12.0130172 5.78125,10.9583402 5.78125,9.578125 C5.78125,8.92708008 5.95051914,8.30208633 6.2890625,7.703125 C8.29428086,10.1770957 10.8854008,11.4921867 14.0625,11.6484375 C14.0104164,11.4661449 13.984375,11.1796895 13.984375,10.7890625 C13.984375,9.72134883 14.3489547,8.82292031 15.078125,8.09375 C15.8072953,7.36457969 16.7057238,7 17.7734375,7 C18.8411512,7 19.7526004,7.4036418 20.5078125,8.2109375 C21.2890664,8.08072852 22.09635,7.76823164 22.9296875,7.2734375 C22.6692695,8.18490039 22.1093793,8.88801836 21.25,9.3828125 C22.0572957,9.30468711 22.7864551,9.10937656 23.4375,8.796875 Z"/>
  </g>
</svg>
